G04 EAGLE Gerber RS-274X export*
G75*
%MOIN*%
%FSLAX34Y34*%
%LPD*%
%INTop Copper*%
%IPPOS*%
%AMOC8*
5,1,8,0,0,1.08239X$1,22.5*%
G01*
%ADD10C,0.054400*%
%ADD11C,0.068000*%
%ADD12R,0.100000X0.100000*%
%ADD13R,0.068268X0.068268*%
%ADD14C,0.068268*%
%ADD15R,0.060236X0.060236*%
%ADD16C,0.102992*%
%ADD17P,0.058882X8X145.100000*%
%ADD18C,0.076000*%
%ADD19C,0.010000*%


D10*
X26362Y28697D02*
X26362Y29241D01*
X27362Y29241D02*
X27362Y28697D01*
X32362Y28697D02*
X32362Y29241D01*
X33362Y29241D02*
X33362Y28697D01*
X28362Y28697D02*
X28362Y29241D01*
X29362Y29241D02*
X29362Y28697D01*
X31362Y28697D02*
X31362Y29241D01*
X30362Y29241D02*
X30362Y28697D01*
X33362Y31697D02*
X33362Y32241D01*
X32362Y32241D02*
X32362Y31697D01*
X31362Y31697D02*
X31362Y32241D01*
X30362Y32241D02*
X30362Y31697D01*
X29362Y31697D02*
X29362Y32241D01*
X28362Y32241D02*
X28362Y31697D01*
X27362Y31697D02*
X27362Y32241D01*
X26362Y32241D02*
X26362Y31697D01*
D11*
X35004Y1560D02*
X35004Y880D01*
X34004Y880D02*
X34004Y1560D01*
X33004Y1560D02*
X33004Y880D01*
X32004Y880D02*
X32004Y1560D01*
X27524Y2180D02*
X27524Y2860D01*
X26524Y2860D02*
X26524Y2180D01*
X25524Y2180D02*
X25524Y2860D01*
X24524Y2860D02*
X24524Y2180D01*
X37377Y21413D02*
X38057Y21413D01*
X38057Y22413D02*
X37377Y22413D01*
X37377Y23413D02*
X38057Y23413D01*
X38057Y24413D02*
X37377Y24413D01*
X21638Y28046D02*
X21638Y28726D01*
X22638Y28726D02*
X22638Y28046D01*
X23638Y28046D02*
X23638Y28726D01*
D12*
X18569Y28437D03*
X18569Y35737D03*
X2769Y35737D03*
X2769Y28437D03*
D13*
X28287Y26413D03*
D14*
X28287Y25413D03*
X28287Y24413D03*
X28287Y23413D03*
X28287Y22413D03*
X28287Y21413D03*
X28287Y20413D03*
X28287Y19413D03*
X33287Y19413D03*
X33287Y20413D03*
X33287Y21413D03*
X33287Y22413D03*
X33287Y23413D03*
X33287Y24413D03*
X33287Y25413D03*
X33287Y26413D03*
D15*
X31965Y4169D03*
X32965Y4169D03*
X33965Y4169D03*
X34965Y4169D03*
X35965Y4169D03*
X36965Y4169D03*
X35965Y14169D03*
X34965Y14169D03*
X33965Y14169D03*
X32965Y14169D03*
D16*
X24606Y34839D02*
X24606Y35869D01*
X22638Y35869D02*
X22638Y34839D01*
X31417Y34721D02*
X31417Y35751D01*
X33386Y35751D02*
X33386Y34721D01*
D11*
X28126Y10576D02*
X28126Y9896D01*
X27126Y9896D02*
X27126Y10576D01*
X26126Y10576D02*
X26126Y9896D01*
D17*
X28761Y6059D03*
X27145Y8587D03*
D18*
X5945Y16890D03*
X6945Y16890D03*
X7945Y16890D03*
X8945Y16890D03*
X9945Y16890D03*
X10945Y16890D03*
X11945Y16890D03*
X12945Y16890D03*
X13945Y16890D03*
X14945Y16890D03*
X15945Y16890D03*
X16945Y16890D03*
X17945Y16890D03*
X18945Y16890D03*
X19945Y16890D03*
X5945Y26890D03*
X6945Y26890D03*
X7945Y26890D03*
X8945Y26890D03*
X9945Y26890D03*
X10945Y26890D03*
X11945Y26890D03*
X12945Y26890D03*
X13945Y26890D03*
X14945Y26890D03*
X15945Y26890D03*
X16945Y26890D03*
X17945Y26890D03*
X18945Y26890D03*
X19945Y26890D03*
X5709Y2756D03*
X6709Y2756D03*
X7709Y2756D03*
X8709Y2756D03*
X9709Y2756D03*
X10709Y2756D03*
X11709Y2756D03*
X12709Y2756D03*
X13709Y2756D03*
X14709Y2756D03*
X15709Y2756D03*
X16709Y2756D03*
X17709Y2756D03*
X18709Y2756D03*
X19709Y2756D03*
X5709Y12756D03*
X6709Y12756D03*
X7709Y12756D03*
X8709Y12756D03*
X9709Y12756D03*
X10709Y12756D03*
X11709Y12756D03*
X12709Y12756D03*
X13709Y12756D03*
X14709Y12756D03*
X15709Y12756D03*
X16709Y12756D03*
X17709Y12756D03*
X18709Y12756D03*
X19709Y12756D03*
D11*
X14709Y1521D02*
X14709Y841D01*
X13709Y841D02*
X13709Y1521D01*
X12709Y1521D02*
X12709Y841D01*
X11709Y841D02*
X11709Y1521D01*
X10709Y1521D02*
X10709Y841D01*
X9709Y841D02*
X9709Y1521D01*
X8709Y1521D02*
X8709Y841D01*
X7709Y841D02*
X7709Y1521D01*
X6709Y1521D02*
X6709Y841D01*
X11949Y15014D02*
X11949Y15694D01*
X10949Y15694D02*
X10949Y15014D01*
X9949Y15014D02*
X9949Y15694D01*
X8949Y15694D02*
X8949Y15014D01*
X7949Y15014D02*
X7949Y15694D01*
X6949Y15694D02*
X6949Y15014D01*
D19*
X0Y0D02*
X39370Y0D01*
X39370Y39370D01*
X0Y39370D01*
X0Y0D01*
X37992Y37380D02*
X37989Y37338D01*
X37983Y37297D01*
X37974Y37255D01*
X37962Y37215D01*
X37948Y37175D01*
X37930Y37137D01*
X37910Y37100D01*
X37887Y37065D01*
X37862Y37031D01*
X37834Y36999D01*
X37804Y36969D01*
X37772Y36941D01*
X37739Y36916D01*
X37703Y36893D01*
X37666Y36873D01*
X37628Y36856D01*
X37588Y36841D01*
X37548Y36829D01*
X37506Y36820D01*
X37465Y36814D01*
X37423Y36811D01*
X37380Y36811D01*
X37338Y36814D01*
X37297Y36820D01*
X37255Y36829D01*
X37215Y36841D01*
X37175Y36856D01*
X37137Y36873D01*
X37100Y36893D01*
X37065Y36916D01*
X37031Y36941D01*
X36999Y36969D01*
X36969Y36999D01*
X36941Y37031D01*
X36916Y37065D01*
X36893Y37100D01*
X36873Y37137D01*
X36856Y37175D01*
X36841Y37215D01*
X36829Y37255D01*
X36820Y37297D01*
X36814Y37338D01*
X36811Y37380D01*
X36811Y37423D01*
X36814Y37465D01*
X36820Y37506D01*
X36829Y37548D01*
X36841Y37588D01*
X36856Y37628D01*
X36873Y37666D01*
X36893Y37703D01*
X36916Y37739D01*
X36941Y37772D01*
X36969Y37804D01*
X36999Y37834D01*
X37031Y37862D01*
X37065Y37887D01*
X37100Y37910D01*
X37137Y37930D01*
X37175Y37948D01*
X37215Y37962D01*
X37255Y37974D01*
X37297Y37983D01*
X37338Y37989D01*
X37380Y37992D01*
X37423Y37992D01*
X37465Y37989D01*
X37506Y37983D01*
X37548Y37974D01*
X37588Y37962D01*
X37628Y37948D01*
X37666Y37930D01*
X37703Y37910D01*
X37739Y37887D01*
X37772Y37862D01*
X37804Y37834D01*
X37834Y37804D01*
X37862Y37772D01*
X37887Y37739D01*
X37910Y37703D01*
X37930Y37666D01*
X37948Y37628D01*
X37962Y37588D01*
X37974Y37548D01*
X37983Y37506D01*
X37989Y37465D01*
X37992Y37423D01*
X37992Y37380D01*
X37992Y1947D02*
X37989Y1905D01*
X37983Y1864D01*
X37974Y1822D01*
X37962Y1782D01*
X37948Y1742D01*
X37930Y1704D01*
X37910Y1667D01*
X37887Y1631D01*
X37862Y1598D01*
X37834Y1566D01*
X37804Y1536D01*
X37772Y1508D01*
X37739Y1483D01*
X37703Y1460D01*
X37666Y1440D01*
X37628Y1423D01*
X37588Y1408D01*
X37548Y1396D01*
X37506Y1387D01*
X37465Y1381D01*
X37423Y1378D01*
X37380Y1378D01*
X37338Y1381D01*
X37297Y1387D01*
X37255Y1396D01*
X37215Y1408D01*
X37175Y1423D01*
X37137Y1440D01*
X37100Y1460D01*
X37065Y1483D01*
X37031Y1508D01*
X36999Y1536D01*
X36969Y1566D01*
X36941Y1598D01*
X36916Y1631D01*
X36893Y1667D01*
X36873Y1704D01*
X36856Y1742D01*
X36841Y1782D01*
X36829Y1822D01*
X36820Y1864D01*
X36814Y1905D01*
X36811Y1947D01*
X36811Y1990D01*
X36814Y2032D01*
X36820Y2073D01*
X36829Y2115D01*
X36841Y2155D01*
X36856Y2195D01*
X36873Y2233D01*
X36893Y2270D01*
X36916Y2306D01*
X36941Y2339D01*
X36969Y2371D01*
X36999Y2401D01*
X37031Y2429D01*
X37065Y2454D01*
X37100Y2477D01*
X37137Y2497D01*
X37175Y2514D01*
X37215Y2529D01*
X37255Y2541D01*
X37297Y2550D01*
X37338Y2556D01*
X37380Y2559D01*
X37423Y2559D01*
X37465Y2556D01*
X37506Y2550D01*
X37548Y2541D01*
X37588Y2529D01*
X37628Y2514D01*
X37666Y2497D01*
X37703Y2477D01*
X37739Y2454D01*
X37772Y2429D01*
X37804Y2401D01*
X37834Y2371D01*
X37862Y2339D01*
X37887Y2306D01*
X37910Y2270D01*
X37930Y2233D01*
X37948Y2195D01*
X37962Y2155D01*
X37974Y2115D01*
X37983Y2073D01*
X37989Y2032D01*
X37992Y1990D01*
X37992Y1947D01*
X2559Y37380D02*
X2556Y37338D01*
X2550Y37297D01*
X2541Y37255D01*
X2529Y37215D01*
X2514Y37175D01*
X2497Y37137D01*
X2477Y37100D01*
X2454Y37065D01*
X2429Y37031D01*
X2401Y36999D01*
X2371Y36969D01*
X2339Y36941D01*
X2306Y36916D01*
X2270Y36893D01*
X2233Y36873D01*
X2195Y36856D01*
X2155Y36841D01*
X2115Y36829D01*
X2073Y36820D01*
X2032Y36814D01*
X1990Y36811D01*
X1947Y36811D01*
X1905Y36814D01*
X1864Y36820D01*
X1822Y36829D01*
X1782Y36841D01*
X1742Y36856D01*
X1704Y36873D01*
X1667Y36893D01*
X1631Y36916D01*
X1598Y36941D01*
X1566Y36969D01*
X1536Y36999D01*
X1508Y37031D01*
X1483Y37065D01*
X1460Y37100D01*
X1440Y37137D01*
X1423Y37175D01*
X1408Y37215D01*
X1396Y37255D01*
X1387Y37297D01*
X1381Y37338D01*
X1378Y37380D01*
X1378Y37423D01*
X1381Y37465D01*
X1387Y37506D01*
X1396Y37548D01*
X1408Y37588D01*
X1423Y37628D01*
X1440Y37666D01*
X1460Y37703D01*
X1483Y37739D01*
X1508Y37772D01*
X1536Y37804D01*
X1566Y37834D01*
X1598Y37862D01*
X1631Y37887D01*
X1667Y37910D01*
X1704Y37930D01*
X1742Y37948D01*
X1782Y37962D01*
X1822Y37974D01*
X1864Y37983D01*
X1905Y37989D01*
X1947Y37992D01*
X1990Y37992D01*
X2032Y37989D01*
X2073Y37983D01*
X2115Y37974D01*
X2155Y37962D01*
X2195Y37948D01*
X2233Y37930D01*
X2270Y37910D01*
X2306Y37887D01*
X2339Y37862D01*
X2371Y37834D01*
X2401Y37804D01*
X2429Y37772D01*
X2454Y37739D01*
X2477Y37703D01*
X2497Y37666D01*
X2514Y37628D01*
X2529Y37588D01*
X2541Y37548D01*
X2550Y37506D01*
X2556Y37465D01*
X2559Y37423D01*
X2559Y37380D01*
X2559Y1947D02*
X2556Y1905D01*
X2550Y1864D01*
X2541Y1822D01*
X2529Y1782D01*
X2514Y1742D01*
X2497Y1704D01*
X2477Y1667D01*
X2454Y1631D01*
X2429Y1598D01*
X2401Y1566D01*
X2371Y1536D01*
X2339Y1508D01*
X2306Y1483D01*
X2270Y1460D01*
X2233Y1440D01*
X2195Y1423D01*
X2155Y1408D01*
X2115Y1396D01*
X2073Y1387D01*
X2032Y1381D01*
X1990Y1378D01*
X1947Y1378D01*
X1905Y1381D01*
X1864Y1387D01*
X1822Y1396D01*
X1782Y1408D01*
X1742Y1423D01*
X1704Y1440D01*
X1667Y1460D01*
X1631Y1483D01*
X1598Y1508D01*
X1566Y1536D01*
X1536Y1566D01*
X1508Y1598D01*
X1483Y1631D01*
X1460Y1667D01*
X1440Y1704D01*
X1423Y1742D01*
X1408Y1782D01*
X1396Y1822D01*
X1387Y1864D01*
X1381Y1905D01*
X1378Y1947D01*
X1378Y1990D01*
X1381Y2032D01*
X1387Y2073D01*
X1396Y2115D01*
X1408Y2155D01*
X1423Y2195D01*
X1440Y2233D01*
X1460Y2270D01*
X1483Y2306D01*
X1508Y2339D01*
X1536Y2371D01*
X1566Y2401D01*
X1598Y2429D01*
X1631Y2454D01*
X1667Y2477D01*
X1704Y2497D01*
X1742Y2514D01*
X1782Y2529D01*
X1822Y2541D01*
X1864Y2550D01*
X1905Y2556D01*
X1947Y2559D01*
X1990Y2559D01*
X2032Y2556D01*
X2073Y2550D01*
X2115Y2541D01*
X2155Y2529D01*
X2195Y2514D01*
X2233Y2497D01*
X2270Y2477D01*
X2306Y2454D01*
X2339Y2429D01*
X2371Y2401D01*
X2401Y2371D01*
X2429Y2339D01*
X2454Y2306D01*
X2477Y2270D01*
X2497Y2233D01*
X2514Y2195D01*
X2529Y2155D01*
X2541Y2115D01*
X2550Y2073D01*
X2556Y2032D01*
X2559Y1990D01*
X2559Y1947D01*
X5360Y35316D02*
X5357Y35273D01*
X5351Y35232D01*
X5342Y35190D01*
X5330Y35150D01*
X5315Y35110D01*
X5298Y35072D01*
X5277Y35035D01*
X5255Y35000D01*
X5229Y34966D01*
X5202Y34934D01*
X5172Y34904D01*
X5140Y34876D01*
X5106Y34851D01*
X5071Y34828D01*
X5034Y34808D01*
X4995Y34791D01*
X4956Y34776D01*
X4915Y34764D01*
X4874Y34755D01*
X4832Y34749D01*
X4790Y34746D01*
X4748Y34746D01*
X4706Y34749D01*
X4664Y34755D01*
X4623Y34764D01*
X4583Y34776D01*
X4543Y34791D01*
X4505Y34808D01*
X4468Y34828D01*
X4432Y34851D01*
X4399Y34876D01*
X4367Y34904D01*
X4337Y34934D01*
X4309Y34966D01*
X4284Y35000D01*
X4261Y35035D01*
X4241Y35072D01*
X4223Y35110D01*
X4209Y35150D01*
X4197Y35190D01*
X4188Y35232D01*
X4182Y35273D01*
X4179Y35316D01*
X4179Y35358D01*
X4182Y35400D01*
X4188Y35442D01*
X4197Y35483D01*
X4209Y35523D01*
X4223Y35563D01*
X4241Y35601D01*
X4261Y35638D01*
X4284Y35674D01*
X4309Y35707D01*
X4337Y35739D01*
X4367Y35769D01*
X4399Y35797D01*
X4432Y35822D01*
X4468Y35845D01*
X4505Y35865D01*
X4543Y35883D01*
X4583Y35897D01*
X4623Y35909D01*
X4664Y35918D01*
X4706Y35924D01*
X4748Y35927D01*
X4790Y35927D01*
X4832Y35924D01*
X4874Y35918D01*
X4915Y35909D01*
X4956Y35897D01*
X4995Y35883D01*
X5034Y35865D01*
X5071Y35845D01*
X5106Y35822D01*
X5140Y35797D01*
X5172Y35769D01*
X5202Y35739D01*
X5229Y35707D01*
X5255Y35674D01*
X5277Y35638D01*
X5298Y35601D01*
X5315Y35563D01*
X5330Y35523D01*
X5342Y35483D01*
X5351Y35442D01*
X5357Y35400D01*
X5360Y35358D01*
X5360Y35316D01*
X17160Y28816D02*
X17157Y28773D01*
X17151Y28732D01*
X17142Y28690D01*
X17130Y28650D01*
X17115Y28610D01*
X17098Y28572D01*
X17077Y28535D01*
X17055Y28500D01*
X17029Y28466D01*
X17002Y28434D01*
X16972Y28404D01*
X16940Y28376D01*
X16906Y28351D01*
X16871Y28328D01*
X16834Y28308D01*
X16795Y28291D01*
X16756Y28276D01*
X16715Y28264D01*
X16674Y28255D01*
X16632Y28249D01*
X16590Y28246D01*
X16548Y28246D01*
X16506Y28249D01*
X16464Y28255D01*
X16423Y28264D01*
X16383Y28276D01*
X16343Y28291D01*
X16305Y28308D01*
X16268Y28328D01*
X16232Y28351D01*
X16199Y28376D01*
X16167Y28404D01*
X16137Y28434D01*
X16109Y28466D01*
X16084Y28500D01*
X16061Y28535D01*
X16041Y28572D01*
X16023Y28610D01*
X16009Y28650D01*
X15997Y28690D01*
X15988Y28732D01*
X15982Y28773D01*
X15979Y28816D01*
X15979Y28858D01*
X15982Y28900D01*
X15988Y28942D01*
X15997Y28983D01*
X16009Y29023D01*
X16023Y29063D01*
X16041Y29101D01*
X16061Y29138D01*
X16084Y29174D01*
X16109Y29207D01*
X16137Y29239D01*
X16167Y29269D01*
X16199Y29297D01*
X16232Y29322D01*
X16268Y29345D01*
X16305Y29365D01*
X16343Y29383D01*
X16383Y29397D01*
X16423Y29409D01*
X16464Y29418D01*
X16506Y29424D01*
X16548Y29427D01*
X16590Y29427D01*
X16632Y29424D01*
X16674Y29418D01*
X16715Y29409D01*
X16756Y29397D01*
X16795Y29383D01*
X16834Y29365D01*
X16871Y29345D01*
X16906Y29322D01*
X16940Y29297D01*
X16972Y29269D01*
X17002Y29239D01*
X17029Y29207D01*
X17055Y29174D01*
X17077Y29138D01*
X17098Y29101D01*
X17115Y29063D01*
X17130Y29023D01*
X17142Y28983D01*
X17151Y28942D01*
X17157Y28900D01*
X17160Y28858D01*
X17160Y28816D01*
M02*
