G04 EAGLE Gerber RS-274X export*
G75*
%MOIN*%
%FSLAX34Y34*%
%LPD*%
%INBottom Copper*%
%IPPOS*%
%AMOC8*
5,1,8,0,0,1.08239X$1,22.5*%
G01*
%ADD10C,0.054400*%
%ADD11C,0.068000*%
%ADD12R,0.100000X0.100000*%
%ADD13R,0.068268X0.068268*%
%ADD14C,0.068268*%
%ADD15R,0.060236X0.060236*%
%ADD16C,0.102992*%
%ADD17P,0.058882X8X145.100000*%
%ADD18C,0.076000*%
%ADD19C,0.024000*%
%ADD20C,0.032000*%
%ADD21C,0.040000*%
%ADD22C,0.050000*%
%ADD23C,0.020000*%
%ADD24C,0.010000*%

G36*
X6387Y401D02*
X6387Y401D01*
X6391Y401D01*
X6393Y402D01*
X6396Y402D01*
X6400Y404D01*
X6404Y405D01*
X6406Y406D01*
X6409Y407D01*
X6412Y409D01*
X6416Y411D01*
X6418Y413D01*
X6420Y414D01*
X6423Y417D01*
X6426Y420D01*
X6428Y422D01*
X6430Y424D01*
X6432Y428D01*
X6434Y431D01*
X6435Y434D01*
X6437Y436D01*
X6438Y440D01*
X6440Y444D01*
X6440Y446D01*
X6441Y449D01*
X6441Y453D01*
X6442Y457D01*
X6442Y460D01*
X6442Y463D01*
X6441Y467D01*
X6441Y471D01*
X6440Y473D01*
X6440Y476D01*
X6438Y480D01*
X6437Y484D01*
X6436Y486D01*
X6435Y489D01*
X6432Y492D01*
X6430Y496D01*
X6427Y499D01*
X6427Y500D01*
X6426Y500D01*
X6425Y502D01*
X6372Y554D01*
X6332Y610D01*
X6300Y672D01*
X6279Y738D01*
X6268Y806D01*
X6268Y1082D01*
X6669Y1082D01*
X6670Y1082D01*
X6671Y1082D01*
X6677Y1083D01*
X6682Y1083D01*
X6683Y1084D01*
X6685Y1084D01*
X6690Y1086D01*
X6695Y1088D01*
X6696Y1089D01*
X6697Y1089D01*
X6702Y1092D01*
X6706Y1095D01*
X6707Y1096D01*
X6708Y1097D01*
X6712Y1101D01*
X6716Y1105D01*
X6717Y1106D01*
X6717Y1107D01*
X6720Y1112D01*
X6723Y1117D01*
X6723Y1118D01*
X6724Y1119D01*
X6725Y1125D01*
X6727Y1130D01*
X6727Y1131D01*
X6727Y1133D01*
X6728Y1141D01*
X6728Y1162D01*
X6749Y1162D01*
X6750Y1162D01*
X6751Y1162D01*
X6757Y1163D01*
X6762Y1163D01*
X6763Y1164D01*
X6765Y1164D01*
X6770Y1166D01*
X6775Y1168D01*
X6776Y1169D01*
X6777Y1169D01*
X6782Y1172D01*
X6786Y1175D01*
X6787Y1176D01*
X6788Y1177D01*
X6792Y1181D01*
X6796Y1185D01*
X6797Y1186D01*
X6797Y1187D01*
X6800Y1192D01*
X6803Y1197D01*
X6803Y1198D01*
X6804Y1199D01*
X6805Y1205D01*
X6807Y1210D01*
X6807Y1211D01*
X6807Y1213D01*
X6808Y1221D01*
X6808Y1952D01*
X6812Y1951D01*
X6878Y1930D01*
X6940Y1898D01*
X6996Y1857D01*
X7045Y1808D01*
X7086Y1752D01*
X7103Y1718D01*
X7104Y1717D01*
X7104Y1715D01*
X7107Y1711D01*
X7110Y1707D01*
X7112Y1706D01*
X7113Y1705D01*
X7117Y1701D01*
X7120Y1698D01*
X7122Y1697D01*
X7123Y1696D01*
X7128Y1694D01*
X7132Y1691D01*
X7134Y1690D01*
X7135Y1690D01*
X7140Y1689D01*
X7145Y1687D01*
X7147Y1687D01*
X7149Y1687D01*
X7154Y1687D01*
X7159Y1686D01*
X7160Y1687D01*
X7162Y1687D01*
X7167Y1688D01*
X7172Y1689D01*
X7174Y1689D01*
X7175Y1690D01*
X7180Y1692D01*
X7185Y1694D01*
X7186Y1695D01*
X7188Y1696D01*
X7192Y1699D01*
X7196Y1702D01*
X7197Y1703D01*
X7198Y1704D01*
X7201Y1708D01*
X7205Y1712D01*
X7205Y1714D01*
X7207Y1715D01*
X7210Y1723D01*
X7253Y1826D01*
X7315Y1888D01*
X7318Y1892D01*
X7322Y1896D01*
X7323Y1897D01*
X7323Y1898D01*
X7326Y1903D01*
X7328Y1908D01*
X7329Y1909D01*
X7329Y1911D01*
X7330Y1916D01*
X7332Y1921D01*
X7332Y1923D01*
X7332Y1924D01*
X7332Y1926D01*
X7332Y1930D01*
X7332Y2291D01*
X7332Y2296D01*
X7331Y2302D01*
X7331Y2303D01*
X7331Y2304D01*
X7329Y2309D01*
X7327Y2315D01*
X7327Y2316D01*
X7326Y2317D01*
X7323Y2322D01*
X7320Y2326D01*
X7319Y2328D01*
X7319Y2329D01*
X7318Y2330D01*
X7315Y2333D01*
X7219Y2429D01*
X7204Y2466D01*
X7202Y2469D01*
X7200Y2473D01*
X7198Y2475D01*
X7197Y2478D01*
X7194Y2481D01*
X7192Y2484D01*
X7190Y2486D01*
X7188Y2488D01*
X7185Y2490D01*
X7182Y2493D01*
X7179Y2494D01*
X7177Y2496D01*
X7173Y2497D01*
X7169Y2499D01*
X7167Y2499D01*
X7164Y2500D01*
X7160Y2501D01*
X7156Y2502D01*
X7153Y2502D01*
X7150Y2502D01*
X7146Y2502D01*
X7143Y2502D01*
X7140Y2501D01*
X7137Y2501D01*
X7133Y2500D01*
X7129Y2499D01*
X7127Y2498D01*
X7124Y2497D01*
X7120Y2495D01*
X7117Y2493D01*
X7115Y2491D01*
X7112Y2490D01*
X7109Y2487D01*
X7106Y2484D01*
X7104Y2481D01*
X7103Y2480D01*
X7102Y2479D01*
X7101Y2478D01*
X7075Y2443D01*
X7022Y2389D01*
X6961Y2345D01*
X6893Y2310D01*
X6821Y2287D01*
X6806Y2285D01*
X6806Y2717D01*
X6806Y2719D01*
X6806Y2720D01*
X6805Y2726D01*
X6805Y2731D01*
X6804Y2732D01*
X6804Y2734D01*
X6802Y2739D01*
X6800Y2744D01*
X6799Y2745D01*
X6799Y2746D01*
X6796Y2751D01*
X6793Y2755D01*
X6792Y2756D01*
X6794Y2759D01*
X6795Y2760D01*
X6796Y2761D01*
X6798Y2766D01*
X6801Y2770D01*
X6802Y2772D01*
X6802Y2773D01*
X6804Y2778D01*
X6805Y2783D01*
X6805Y2785D01*
X6806Y2786D01*
X6806Y2794D01*
X6806Y3227D01*
X6821Y3225D01*
X6893Y3201D01*
X6961Y3167D01*
X7022Y3123D01*
X7075Y3069D01*
X7101Y3034D01*
X7104Y3031D01*
X7106Y3028D01*
X7108Y3026D01*
X7110Y3024D01*
X7113Y3022D01*
X7116Y3019D01*
X7119Y3018D01*
X7121Y3016D01*
X7125Y3015D01*
X7129Y3013D01*
X7131Y3012D01*
X7134Y3011D01*
X7138Y3011D01*
X7142Y3010D01*
X7145Y3010D01*
X7148Y3009D01*
X7152Y3010D01*
X7156Y3010D01*
X7158Y3010D01*
X7161Y3011D01*
X7165Y3012D01*
X7169Y3013D01*
X7171Y3014D01*
X7174Y3015D01*
X7178Y3017D01*
X7181Y3019D01*
X7183Y3021D01*
X7186Y3022D01*
X7189Y3025D01*
X7192Y3028D01*
X7193Y3030D01*
X7195Y3032D01*
X7197Y3035D01*
X7200Y3038D01*
X7202Y3042D01*
X7203Y3044D01*
X7204Y3046D01*
X7219Y3083D01*
X7381Y3246D01*
X7594Y3334D01*
X7824Y3334D01*
X8036Y3246D01*
X8167Y3115D01*
X8168Y3114D01*
X8169Y3113D01*
X8173Y3110D01*
X8177Y3106D01*
X8179Y3106D01*
X8180Y3105D01*
X8185Y3103D01*
X8190Y3100D01*
X8191Y3100D01*
X8192Y3100D01*
X8198Y3099D01*
X8203Y3098D01*
X8204Y3098D01*
X8206Y3097D01*
X8211Y3098D01*
X8217Y3098D01*
X8218Y3098D01*
X8219Y3098D01*
X8225Y3100D01*
X8230Y3101D01*
X8231Y3102D01*
X8232Y3102D01*
X8237Y3105D01*
X8242Y3108D01*
X8243Y3108D01*
X8244Y3109D01*
X8251Y3115D01*
X8381Y3246D01*
X8594Y3334D01*
X8824Y3334D01*
X9036Y3246D01*
X9167Y3115D01*
X9168Y3114D01*
X9169Y3113D01*
X9173Y3110D01*
X9177Y3106D01*
X9179Y3106D01*
X9180Y3105D01*
X9185Y3103D01*
X9190Y3100D01*
X9191Y3100D01*
X9192Y3100D01*
X9198Y3099D01*
X9203Y3098D01*
X9204Y3098D01*
X9206Y3097D01*
X9211Y3098D01*
X9217Y3098D01*
X9218Y3098D01*
X9219Y3098D01*
X9225Y3100D01*
X9230Y3101D01*
X9231Y3102D01*
X9232Y3102D01*
X9237Y3105D01*
X9242Y3108D01*
X9243Y3108D01*
X9244Y3109D01*
X9251Y3115D01*
X9381Y3246D01*
X9594Y3334D01*
X9824Y3334D01*
X10036Y3246D01*
X10167Y3115D01*
X10168Y3114D01*
X10169Y3113D01*
X10173Y3110D01*
X10177Y3106D01*
X10179Y3106D01*
X10180Y3105D01*
X10185Y3103D01*
X10190Y3100D01*
X10191Y3100D01*
X10192Y3100D01*
X10198Y3099D01*
X10203Y3098D01*
X10204Y3098D01*
X10206Y3097D01*
X10211Y3098D01*
X10217Y3098D01*
X10218Y3098D01*
X10219Y3098D01*
X10225Y3100D01*
X10230Y3101D01*
X10231Y3102D01*
X10232Y3102D01*
X10237Y3105D01*
X10242Y3108D01*
X10243Y3108D01*
X10244Y3109D01*
X10251Y3115D01*
X10381Y3246D01*
X10594Y3334D01*
X10824Y3334D01*
X11036Y3246D01*
X11167Y3115D01*
X11168Y3114D01*
X11169Y3113D01*
X11173Y3110D01*
X11177Y3106D01*
X11179Y3106D01*
X11180Y3105D01*
X11185Y3103D01*
X11190Y3100D01*
X11191Y3100D01*
X11192Y3100D01*
X11198Y3099D01*
X11203Y3098D01*
X11204Y3098D01*
X11206Y3097D01*
X11211Y3098D01*
X11217Y3098D01*
X11218Y3098D01*
X11219Y3098D01*
X11225Y3100D01*
X11230Y3101D01*
X11231Y3102D01*
X11232Y3102D01*
X11237Y3105D01*
X11242Y3108D01*
X11243Y3108D01*
X11244Y3109D01*
X11251Y3115D01*
X11381Y3246D01*
X11594Y3334D01*
X11824Y3334D01*
X12036Y3246D01*
X12167Y3115D01*
X12168Y3114D01*
X12169Y3113D01*
X12173Y3110D01*
X12177Y3106D01*
X12179Y3106D01*
X12180Y3105D01*
X12185Y3103D01*
X12190Y3100D01*
X12191Y3100D01*
X12192Y3100D01*
X12198Y3099D01*
X12203Y3098D01*
X12204Y3098D01*
X12206Y3097D01*
X12211Y3098D01*
X12217Y3098D01*
X12218Y3098D01*
X12219Y3098D01*
X12225Y3100D01*
X12230Y3101D01*
X12231Y3102D01*
X12232Y3102D01*
X12237Y3105D01*
X12242Y3108D01*
X12243Y3108D01*
X12244Y3109D01*
X12251Y3115D01*
X12381Y3246D01*
X12594Y3334D01*
X12824Y3334D01*
X13036Y3246D01*
X13167Y3115D01*
X13168Y3114D01*
X13169Y3113D01*
X13173Y3110D01*
X13177Y3106D01*
X13179Y3106D01*
X13180Y3105D01*
X13185Y3103D01*
X13190Y3100D01*
X13191Y3100D01*
X13192Y3100D01*
X13198Y3099D01*
X13203Y3098D01*
X13204Y3098D01*
X13206Y3097D01*
X13211Y3098D01*
X13217Y3098D01*
X13218Y3098D01*
X13219Y3098D01*
X13225Y3100D01*
X13230Y3101D01*
X13231Y3102D01*
X13232Y3102D01*
X13237Y3105D01*
X13242Y3108D01*
X13243Y3108D01*
X13244Y3109D01*
X13251Y3115D01*
X13381Y3246D01*
X13594Y3334D01*
X13824Y3334D01*
X14036Y3246D01*
X14167Y3115D01*
X14168Y3114D01*
X14169Y3113D01*
X14173Y3110D01*
X14177Y3106D01*
X14179Y3106D01*
X14180Y3105D01*
X14185Y3103D01*
X14190Y3100D01*
X14191Y3100D01*
X14192Y3100D01*
X14198Y3099D01*
X14203Y3098D01*
X14204Y3098D01*
X14206Y3097D01*
X14211Y3098D01*
X14217Y3098D01*
X14218Y3098D01*
X14219Y3098D01*
X14225Y3100D01*
X14230Y3101D01*
X14231Y3102D01*
X14232Y3102D01*
X14237Y3105D01*
X14242Y3108D01*
X14243Y3108D01*
X14244Y3109D01*
X14251Y3115D01*
X14381Y3246D01*
X14594Y3334D01*
X14824Y3334D01*
X15036Y3246D01*
X15167Y3115D01*
X15168Y3114D01*
X15169Y3113D01*
X15173Y3110D01*
X15177Y3106D01*
X15179Y3106D01*
X15180Y3105D01*
X15185Y3103D01*
X15190Y3100D01*
X15191Y3100D01*
X15192Y3100D01*
X15198Y3099D01*
X15203Y3098D01*
X15204Y3098D01*
X15206Y3097D01*
X15211Y3098D01*
X15217Y3098D01*
X15218Y3098D01*
X15219Y3098D01*
X15225Y3100D01*
X15230Y3101D01*
X15231Y3102D01*
X15232Y3102D01*
X15237Y3105D01*
X15242Y3108D01*
X15243Y3108D01*
X15244Y3109D01*
X15251Y3115D01*
X15254Y3118D01*
X15254Y3119D01*
X15255Y3120D01*
X15259Y3124D01*
X15262Y3128D01*
X15263Y3130D01*
X15263Y3131D01*
X15266Y3136D01*
X15268Y3141D01*
X15268Y3142D01*
X15269Y3143D01*
X15270Y3149D01*
X15271Y3154D01*
X15271Y3155D01*
X15271Y3157D01*
X15271Y3162D01*
X15270Y3168D01*
X15270Y3169D01*
X15270Y3170D01*
X15268Y3176D01*
X15267Y3181D01*
X15266Y3182D01*
X15266Y3183D01*
X15263Y3188D01*
X15261Y3193D01*
X15260Y3194D01*
X15259Y3195D01*
X15254Y3202D01*
X14971Y3484D01*
X14967Y3487D01*
X14963Y3491D01*
X14962Y3492D01*
X14961Y3492D01*
X14956Y3495D01*
X14951Y3497D01*
X14950Y3498D01*
X14948Y3498D01*
X14943Y3499D01*
X14938Y3501D01*
X14936Y3501D01*
X14935Y3501D01*
X14933Y3501D01*
X14929Y3501D01*
X4252Y3501D01*
X4106Y3562D01*
X2034Y5633D01*
X1974Y5779D01*
X1974Y11850D01*
X2034Y11996D01*
X2154Y12116D01*
X4585Y14547D01*
X4705Y14667D01*
X4851Y14727D01*
X6504Y14727D01*
X6505Y14727D01*
X6507Y14727D01*
X6512Y14728D01*
X6517Y14729D01*
X6519Y14729D01*
X6520Y14729D01*
X6525Y14731D01*
X6530Y14733D01*
X6532Y14734D01*
X6533Y14735D01*
X6537Y14738D01*
X6542Y14741D01*
X6543Y14742D01*
X6544Y14743D01*
X6547Y14747D01*
X6551Y14751D01*
X6552Y14752D01*
X6553Y14753D01*
X6555Y14758D01*
X6558Y14762D01*
X6558Y14764D01*
X6559Y14765D01*
X6561Y14770D01*
X6562Y14775D01*
X6562Y14777D01*
X6563Y14778D01*
X6563Y14784D01*
X6563Y14789D01*
X6563Y14790D01*
X6563Y14792D01*
X6562Y14797D01*
X6561Y14802D01*
X6560Y14804D01*
X6560Y14805D01*
X6557Y14813D01*
X6540Y14845D01*
X6519Y14911D01*
X6508Y14980D01*
X6508Y15255D01*
X6909Y15255D01*
X6910Y15255D01*
X6911Y15255D01*
X6917Y15256D01*
X6922Y15257D01*
X6924Y15257D01*
X6925Y15257D01*
X6930Y15259D01*
X6935Y15261D01*
X6936Y15262D01*
X6937Y15262D01*
X6942Y15266D01*
X6947Y15269D01*
X6948Y15270D01*
X6949Y15270D01*
X6952Y15275D01*
X6956Y15279D01*
X6957Y15280D01*
X6958Y15281D01*
X6960Y15286D01*
X6963Y15290D01*
X6963Y15292D01*
X6964Y15293D01*
X6965Y15298D01*
X6967Y15303D01*
X6967Y15305D01*
X6967Y15306D01*
X6968Y15314D01*
X6968Y15335D01*
X6989Y15335D01*
X6990Y15335D01*
X6991Y15335D01*
X6997Y15336D01*
X7002Y15337D01*
X7004Y15337D01*
X7005Y15337D01*
X7010Y15339D01*
X7015Y15341D01*
X7016Y15342D01*
X7018Y15342D01*
X7022Y15346D01*
X7027Y15349D01*
X7028Y15350D01*
X7029Y15350D01*
X7032Y15355D01*
X7036Y15359D01*
X7037Y15360D01*
X7038Y15361D01*
X7040Y15366D01*
X7043Y15370D01*
X7043Y15372D01*
X7044Y15373D01*
X7045Y15378D01*
X7047Y15383D01*
X7047Y15385D01*
X7047Y15386D01*
X7048Y15394D01*
X7048Y16125D01*
X7052Y16124D01*
X7118Y16103D01*
X7180Y16071D01*
X7236Y16031D01*
X7285Y15981D01*
X7326Y15925D01*
X7343Y15892D01*
X7344Y15890D01*
X7345Y15889D01*
X7348Y15885D01*
X7350Y15880D01*
X7352Y15879D01*
X7353Y15878D01*
X7357Y15875D01*
X7360Y15871D01*
X7362Y15870D01*
X7363Y15869D01*
X7368Y15867D01*
X7372Y15864D01*
X7374Y15864D01*
X7375Y15863D01*
X7380Y15862D01*
X7385Y15860D01*
X7387Y15860D01*
X7389Y15860D01*
X7394Y15860D01*
X7399Y15859D01*
X7401Y15860D01*
X7402Y15860D01*
X7407Y15861D01*
X7412Y15862D01*
X7414Y15862D01*
X7416Y15863D01*
X7420Y15865D01*
X7425Y15867D01*
X7426Y15868D01*
X7428Y15869D01*
X7432Y15872D01*
X7436Y15875D01*
X7437Y15876D01*
X7438Y15878D01*
X7441Y15882D01*
X7445Y15885D01*
X7446Y15887D01*
X7447Y15888D01*
X7450Y15896D01*
X7493Y15999D01*
X7555Y16061D01*
X7558Y16064D01*
X7560Y16066D01*
X7560Y16067D01*
X7562Y16069D01*
X7563Y16070D01*
X7564Y16072D01*
X7566Y16076D01*
X7568Y16081D01*
X7569Y16083D01*
X7569Y16084D01*
X7571Y16089D01*
X7572Y16094D01*
X7572Y16096D01*
X7572Y16097D01*
X7572Y16099D01*
X7572Y16103D01*
X7572Y16421D01*
X7572Y16426D01*
X7572Y16431D01*
X7571Y16433D01*
X7571Y16434D01*
X7569Y16439D01*
X7568Y16445D01*
X7567Y16446D01*
X7566Y16447D01*
X7563Y16452D01*
X7561Y16456D01*
X7559Y16458D01*
X7559Y16459D01*
X7558Y16460D01*
X7555Y16463D01*
X7455Y16563D01*
X7440Y16600D01*
X7438Y16603D01*
X7437Y16605D01*
X7436Y16607D01*
X7435Y16609D01*
X7433Y16612D01*
X7431Y16614D01*
X7428Y16618D01*
X7426Y16620D01*
X7424Y16622D01*
X7421Y16624D01*
X7418Y16626D01*
X7415Y16628D01*
X7413Y16629D01*
X7409Y16631D01*
X7406Y16633D01*
X7403Y16633D01*
X7400Y16634D01*
X7396Y16635D01*
X7392Y16636D01*
X7389Y16636D01*
X7387Y16636D01*
X7383Y16636D01*
X7379Y16636D01*
X7376Y16635D01*
X7373Y16635D01*
X7369Y16634D01*
X7365Y16633D01*
X7363Y16632D01*
X7360Y16631D01*
X7357Y16629D01*
X7353Y16627D01*
X7351Y16625D01*
X7348Y16624D01*
X7346Y16621D01*
X7343Y16618D01*
X7340Y16615D01*
X7339Y16614D01*
X7338Y16613D01*
X7337Y16612D01*
X7312Y16577D01*
X7258Y16523D01*
X7197Y16479D01*
X7129Y16444D01*
X7057Y16421D01*
X7043Y16418D01*
X7043Y16851D01*
X7042Y16853D01*
X7043Y16854D01*
X7042Y16859D01*
X7041Y16865D01*
X7041Y16866D01*
X7040Y16867D01*
X7038Y16873D01*
X7036Y16878D01*
X7036Y16879D01*
X7035Y16880D01*
X7032Y16885D01*
X7029Y16889D01*
X7028Y16890D01*
X7031Y16892D01*
X7031Y16894D01*
X7032Y16895D01*
X7035Y16899D01*
X7037Y16904D01*
X7038Y16905D01*
X7038Y16907D01*
X7040Y16912D01*
X7042Y16917D01*
X7042Y16919D01*
X7042Y16920D01*
X7043Y16928D01*
X7043Y17361D01*
X7057Y17359D01*
X7129Y17335D01*
X7197Y17301D01*
X7258Y17256D01*
X7312Y17203D01*
X7337Y17168D01*
X7340Y17165D01*
X7342Y17162D01*
X7344Y17160D01*
X7346Y17158D01*
X7350Y17155D01*
X7353Y17153D01*
X7355Y17152D01*
X7358Y17150D01*
X7361Y17149D01*
X7365Y17147D01*
X7368Y17146D01*
X7370Y17145D01*
X7374Y17145D01*
X7378Y17144D01*
X7381Y17144D01*
X7384Y17143D01*
X7388Y17144D01*
X7392Y17144D01*
X7395Y17144D01*
X7398Y17145D01*
X7401Y17146D01*
X7405Y17147D01*
X7408Y17148D01*
X7410Y17149D01*
X7414Y17151D01*
X7417Y17153D01*
X7420Y17155D01*
X7422Y17156D01*
X7425Y17159D01*
X7428Y17161D01*
X7430Y17164D01*
X7432Y17166D01*
X7434Y17169D01*
X7436Y17172D01*
X7438Y17176D01*
X7439Y17177D01*
X7439Y17178D01*
X7440Y17180D01*
X7455Y17217D01*
X7618Y17379D01*
X7830Y17467D01*
X8060Y17467D01*
X8272Y17379D01*
X8403Y17249D01*
X8404Y17248D01*
X8405Y17247D01*
X8409Y17243D01*
X8414Y17240D01*
X8415Y17239D01*
X8416Y17239D01*
X8421Y17237D01*
X8426Y17234D01*
X8427Y17234D01*
X8429Y17233D01*
X8434Y17233D01*
X8439Y17231D01*
X8441Y17231D01*
X8442Y17231D01*
X8447Y17232D01*
X8453Y17232D01*
X8454Y17232D01*
X8456Y17232D01*
X8461Y17234D01*
X8466Y17235D01*
X8467Y17236D01*
X8469Y17236D01*
X8473Y17239D01*
X8478Y17241D01*
X8479Y17242D01*
X8480Y17243D01*
X8487Y17249D01*
X8618Y17379D01*
X8830Y17467D01*
X9060Y17467D01*
X9272Y17379D01*
X9403Y17249D01*
X9404Y17248D01*
X9405Y17247D01*
X9409Y17243D01*
X9414Y17240D01*
X9415Y17239D01*
X9416Y17239D01*
X9421Y17237D01*
X9426Y17234D01*
X9427Y17234D01*
X9429Y17233D01*
X9434Y17233D01*
X9439Y17231D01*
X9441Y17231D01*
X9442Y17231D01*
X9447Y17232D01*
X9453Y17232D01*
X9454Y17232D01*
X9456Y17232D01*
X9461Y17234D01*
X9466Y17235D01*
X9467Y17236D01*
X9469Y17236D01*
X9473Y17239D01*
X9478Y17241D01*
X9479Y17242D01*
X9480Y17243D01*
X9487Y17249D01*
X9618Y17379D01*
X9830Y17467D01*
X10060Y17467D01*
X10272Y17379D01*
X10403Y17249D01*
X10404Y17248D01*
X10405Y17247D01*
X10409Y17243D01*
X10414Y17240D01*
X10415Y17239D01*
X10416Y17239D01*
X10421Y17237D01*
X10426Y17234D01*
X10427Y17234D01*
X10429Y17233D01*
X10434Y17233D01*
X10439Y17231D01*
X10441Y17231D01*
X10442Y17231D01*
X10447Y17232D01*
X10453Y17232D01*
X10454Y17232D01*
X10456Y17232D01*
X10461Y17234D01*
X10466Y17235D01*
X10467Y17236D01*
X10469Y17236D01*
X10473Y17239D01*
X10478Y17241D01*
X10479Y17242D01*
X10480Y17243D01*
X10487Y17249D01*
X10618Y17379D01*
X10830Y17467D01*
X11060Y17467D01*
X11272Y17379D01*
X11403Y17249D01*
X11404Y17248D01*
X11405Y17247D01*
X11409Y17243D01*
X11414Y17240D01*
X11415Y17239D01*
X11416Y17239D01*
X11421Y17237D01*
X11426Y17234D01*
X11427Y17234D01*
X11429Y17233D01*
X11434Y17233D01*
X11439Y17231D01*
X11441Y17231D01*
X11442Y17231D01*
X11447Y17232D01*
X11453Y17232D01*
X11454Y17232D01*
X11456Y17232D01*
X11461Y17234D01*
X11466Y17235D01*
X11467Y17236D01*
X11469Y17236D01*
X11473Y17239D01*
X11478Y17241D01*
X11479Y17242D01*
X11480Y17243D01*
X11487Y17249D01*
X11618Y17379D01*
X11830Y17467D01*
X12060Y17467D01*
X12272Y17379D01*
X12289Y17362D01*
X12292Y17360D01*
X12295Y17357D01*
X12298Y17355D01*
X12300Y17354D01*
X12304Y17352D01*
X12307Y17350D01*
X12310Y17349D01*
X12312Y17348D01*
X12316Y17347D01*
X12320Y17346D01*
X12323Y17346D01*
X12326Y17345D01*
X12330Y17345D01*
X12334Y17345D01*
X12337Y17345D01*
X12339Y17345D01*
X12343Y17346D01*
X12347Y17347D01*
X12350Y17348D01*
X12352Y17349D01*
X12356Y17351D01*
X12360Y17352D01*
X12362Y17354D01*
X12365Y17355D01*
X12368Y17358D01*
X12371Y17360D01*
X12373Y17362D01*
X12375Y17364D01*
X12377Y17367D01*
X12380Y17370D01*
X12381Y17373D01*
X12383Y17375D01*
X12384Y17379D01*
X12386Y17382D01*
X12387Y17385D01*
X12388Y17388D01*
X12389Y17392D01*
X12390Y17396D01*
X12390Y17400D01*
X12390Y17401D01*
X12390Y17402D01*
X12390Y17404D01*
X12390Y18622D01*
X12457Y18783D01*
X13965Y20291D01*
X14126Y20358D01*
X24716Y20358D01*
X24721Y20358D01*
X24727Y20359D01*
X24728Y20359D01*
X24730Y20359D01*
X24735Y20361D01*
X24740Y20363D01*
X24741Y20363D01*
X24742Y20364D01*
X24747Y20367D01*
X24751Y20369D01*
X24753Y20371D01*
X24754Y20371D01*
X24755Y20372D01*
X24758Y20375D01*
X26436Y22053D01*
X26439Y22057D01*
X26443Y22061D01*
X26444Y22063D01*
X26445Y22064D01*
X26447Y22069D01*
X26449Y22073D01*
X26450Y22075D01*
X26450Y22076D01*
X26451Y22081D01*
X26453Y22087D01*
X26453Y22089D01*
X26453Y22090D01*
X26453Y22091D01*
X26453Y22095D01*
X26453Y25677D01*
X26520Y25838D01*
X27465Y26783D01*
X27626Y26850D01*
X27737Y26850D01*
X27742Y26850D01*
X27748Y26851D01*
X27749Y26851D01*
X27751Y26851D01*
X27756Y26853D01*
X27761Y26855D01*
X27762Y26855D01*
X27763Y26856D01*
X27768Y26859D01*
X27773Y26862D01*
X27774Y26863D01*
X27775Y26863D01*
X27776Y26864D01*
X27779Y26867D01*
X27834Y26922D01*
X27907Y26952D01*
X28668Y26952D01*
X28686Y26945D01*
X28688Y26944D01*
X28690Y26943D01*
X28695Y26942D01*
X28700Y26941D01*
X28702Y26941D01*
X28704Y26940D01*
X28708Y26941D01*
X28713Y26940D01*
X28715Y26941D01*
X28717Y26941D01*
X28722Y26942D01*
X28727Y26943D01*
X28728Y26944D01*
X28730Y26944D01*
X28735Y26946D01*
X28739Y26948D01*
X28741Y26950D01*
X28743Y26950D01*
X28746Y26954D01*
X28750Y26957D01*
X28751Y26958D01*
X28753Y26959D01*
X28756Y26963D01*
X28759Y26967D01*
X28760Y26969D01*
X28761Y26970D01*
X28763Y26975D01*
X28765Y26979D01*
X28765Y26981D01*
X28766Y26983D01*
X28767Y26988D01*
X28768Y26992D01*
X28768Y26994D01*
X28768Y26997D01*
X28768Y27001D01*
X28768Y27006D01*
X28768Y27008D01*
X28767Y27010D01*
X28766Y27015D01*
X28765Y27019D01*
X28764Y27021D01*
X28763Y27023D01*
X28761Y27027D01*
X28759Y27032D01*
X28758Y27033D01*
X28757Y27035D01*
X28751Y27041D01*
X28569Y27223D01*
X28565Y27227D01*
X28561Y27230D01*
X28559Y27231D01*
X28558Y27232D01*
X28553Y27234D01*
X28549Y27237D01*
X28547Y27237D01*
X28546Y27238D01*
X28541Y27239D01*
X28535Y27240D01*
X28534Y27240D01*
X28533Y27241D01*
X28531Y27241D01*
X28527Y27241D01*
X27708Y27241D01*
X27548Y27307D01*
X26992Y27863D01*
X26926Y28023D01*
X26926Y28511D01*
X26926Y28512D01*
X26925Y28518D01*
X26924Y28525D01*
X26924Y28526D01*
X26921Y28534D01*
X26917Y28544D01*
X26915Y28548D01*
X26913Y28552D01*
X26912Y28554D01*
X26910Y28556D01*
X26908Y28559D01*
X26905Y28563D01*
X26903Y28564D01*
X26901Y28566D01*
X26898Y28569D01*
X26895Y28571D01*
X26892Y28572D01*
X26890Y28574D01*
X26886Y28576D01*
X26882Y28577D01*
X26880Y28578D01*
X26877Y28579D01*
X26873Y28580D01*
X26869Y28580D01*
X26866Y28581D01*
X26864Y28581D01*
X26860Y28581D01*
X26856Y28581D01*
X26853Y28580D01*
X26850Y28580D01*
X26846Y28578D01*
X26842Y28577D01*
X26840Y28576D01*
X26837Y28575D01*
X26834Y28573D01*
X26830Y28571D01*
X26828Y28570D01*
X26826Y28568D01*
X26823Y28565D01*
X26820Y28563D01*
X26818Y28561D01*
X26816Y28559D01*
X26814Y28555D01*
X26811Y28552D01*
X26809Y28548D01*
X26809Y28547D01*
X26808Y28546D01*
X26807Y28544D01*
X26760Y28430D01*
X26628Y28298D01*
X26456Y28227D01*
X26269Y28227D01*
X26243Y28237D01*
X26240Y28238D01*
X26237Y28240D01*
X26234Y28240D01*
X26230Y28241D01*
X26227Y28241D01*
X26224Y28242D01*
X26220Y28242D01*
X26217Y28242D01*
X26213Y28241D01*
X26210Y28241D01*
X26207Y28240D01*
X26203Y28239D01*
X26200Y28238D01*
X26197Y28237D01*
X26194Y28235D01*
X26191Y28234D01*
X26188Y28232D01*
X26185Y28230D01*
X26181Y28226D01*
X26180Y28226D01*
X26180Y28225D01*
X26179Y28225D01*
X26004Y28050D01*
X25858Y27989D01*
X24235Y27989D01*
X24233Y27989D01*
X24232Y27989D01*
X24227Y27989D01*
X24221Y27988D01*
X24220Y27987D01*
X24219Y27987D01*
X24213Y27985D01*
X24208Y27983D01*
X24207Y27983D01*
X24206Y27982D01*
X24201Y27979D01*
X24197Y27976D01*
X24196Y27975D01*
X24195Y27974D01*
X24191Y27970D01*
X24187Y27966D01*
X24187Y27965D01*
X24186Y27964D01*
X24183Y27959D01*
X24180Y27954D01*
X24180Y27953D01*
X24179Y27952D01*
X24178Y27947D01*
X24177Y27942D01*
X24102Y27761D01*
X24101Y27760D01*
X24100Y27754D01*
X24098Y27748D01*
X24098Y27747D01*
X24097Y27738D01*
X24097Y25472D01*
X24037Y25327D01*
X21366Y22656D01*
X21221Y22596D01*
X8150Y22596D01*
X8004Y22656D01*
X5609Y25051D01*
X5549Y25197D01*
X5549Y26445D01*
X5548Y26450D01*
X5548Y26455D01*
X5547Y26457D01*
X5547Y26458D01*
X5545Y26463D01*
X5544Y26468D01*
X5543Y26470D01*
X5542Y26471D01*
X5539Y26476D01*
X5537Y26480D01*
X5535Y26482D01*
X5535Y26483D01*
X5534Y26484D01*
X5531Y26487D01*
X5455Y26563D01*
X5367Y26775D01*
X5367Y27005D01*
X5455Y27217D01*
X5618Y27379D01*
X5830Y27467D01*
X6060Y27467D01*
X6272Y27379D01*
X6435Y27217D01*
X6450Y27180D01*
X6452Y27176D01*
X6453Y27173D01*
X6455Y27170D01*
X6457Y27168D01*
X6459Y27165D01*
X6462Y27162D01*
X6464Y27160D01*
X6466Y27158D01*
X6469Y27156D01*
X6472Y27153D01*
X6475Y27152D01*
X6477Y27150D01*
X6481Y27149D01*
X6484Y27147D01*
X6487Y27146D01*
X6490Y27145D01*
X6494Y27145D01*
X6497Y27144D01*
X6500Y27144D01*
X6503Y27143D01*
X6507Y27144D01*
X6511Y27144D01*
X6514Y27144D01*
X6517Y27145D01*
X6520Y27146D01*
X6524Y27147D01*
X6527Y27148D01*
X6530Y27149D01*
X6533Y27151D01*
X6537Y27153D01*
X6539Y27154D01*
X6541Y27156D01*
X6544Y27159D01*
X6547Y27161D01*
X6550Y27165D01*
X6551Y27166D01*
X6553Y27168D01*
X6578Y27203D01*
X6632Y27256D01*
X6693Y27301D01*
X6760Y27335D01*
X6832Y27359D01*
X6847Y27361D01*
X6847Y26928D01*
X6847Y26927D01*
X6847Y26926D01*
X6848Y26920D01*
X6849Y26915D01*
X6849Y26913D01*
X6849Y26912D01*
X6852Y26907D01*
X6853Y26902D01*
X6854Y26901D01*
X6855Y26900D01*
X6858Y26895D01*
X6861Y26890D01*
X6862Y26890D01*
X6859Y26887D01*
X6859Y26886D01*
X6858Y26885D01*
X6855Y26880D01*
X6852Y26875D01*
X6852Y26874D01*
X6851Y26873D01*
X6850Y26868D01*
X6848Y26862D01*
X6848Y26861D01*
X6848Y26860D01*
X6847Y26851D01*
X6847Y26418D01*
X6832Y26421D01*
X6760Y26444D01*
X6693Y26479D01*
X6632Y26523D01*
X6578Y26577D01*
X6553Y26612D01*
X6550Y26615D01*
X6548Y26618D01*
X6545Y26620D01*
X6543Y26622D01*
X6540Y26624D01*
X6537Y26627D01*
X6534Y26628D01*
X6532Y26630D01*
X6528Y26631D01*
X6525Y26633D01*
X6522Y26633D01*
X6519Y26634D01*
X6515Y26635D01*
X6512Y26636D01*
X6509Y26636D01*
X6506Y26636D01*
X6502Y26636D01*
X6498Y26636D01*
X6495Y26635D01*
X6492Y26635D01*
X6489Y26634D01*
X6485Y26633D01*
X6482Y26631D01*
X6479Y26631D01*
X6476Y26628D01*
X6472Y26627D01*
X6470Y26625D01*
X6468Y26623D01*
X6465Y26621D01*
X6462Y26618D01*
X6460Y26616D01*
X6458Y26614D01*
X6456Y26610D01*
X6454Y26607D01*
X6452Y26603D01*
X6451Y26602D01*
X6451Y26601D01*
X6450Y26600D01*
X6435Y26563D01*
X6359Y26487D01*
X6355Y26482D01*
X6352Y26478D01*
X6351Y26477D01*
X6350Y26476D01*
X6348Y26471D01*
X6345Y26466D01*
X6345Y26465D01*
X6344Y26464D01*
X6343Y26458D01*
X6342Y26453D01*
X6342Y26451D01*
X6341Y26450D01*
X6342Y26449D01*
X6341Y26445D01*
X6341Y25464D01*
X6342Y25459D01*
X6342Y25454D01*
X6343Y25452D01*
X6343Y25451D01*
X6345Y25446D01*
X6346Y25441D01*
X6347Y25439D01*
X6347Y25438D01*
X6350Y25433D01*
X6353Y25429D01*
X6354Y25427D01*
X6355Y25426D01*
X6356Y25425D01*
X6357Y25424D01*
X6358Y25424D01*
X6358Y25423D01*
X6359Y25422D01*
X8375Y23406D01*
X8379Y23402D01*
X8383Y23399D01*
X8385Y23398D01*
X8386Y23397D01*
X8391Y23395D01*
X8395Y23393D01*
X8397Y23392D01*
X8398Y23392D01*
X8403Y23390D01*
X8409Y23389D01*
X8411Y23389D01*
X8412Y23389D01*
X8413Y23389D01*
X8417Y23388D01*
X20953Y23388D01*
X20958Y23389D01*
X20964Y23389D01*
X20965Y23390D01*
X20967Y23390D01*
X20972Y23392D01*
X20977Y23393D01*
X20978Y23394D01*
X20979Y23395D01*
X20984Y23398D01*
X20989Y23400D01*
X20990Y23402D01*
X20991Y23402D01*
X20992Y23403D01*
X20995Y23406D01*
X23287Y25698D01*
X23290Y25702D01*
X23294Y25706D01*
X23295Y25708D01*
X23296Y25709D01*
X23298Y25714D01*
X23300Y25718D01*
X23301Y25720D01*
X23301Y25721D01*
X23302Y25726D01*
X23304Y25731D01*
X23304Y25733D01*
X23304Y25734D01*
X23304Y25736D01*
X23304Y25740D01*
X23304Y27594D01*
X23304Y27600D01*
X23303Y27605D01*
X23303Y27606D01*
X23303Y27608D01*
X23301Y27613D01*
X23299Y27618D01*
X23299Y27619D01*
X23298Y27621D01*
X23295Y27625D01*
X23293Y27630D01*
X23291Y27631D01*
X23291Y27632D01*
X23290Y27633D01*
X23287Y27636D01*
X23180Y27744D01*
X23179Y27744D01*
X23178Y27745D01*
X23173Y27749D01*
X23169Y27752D01*
X23168Y27753D01*
X23167Y27753D01*
X23162Y27756D01*
X23157Y27758D01*
X23155Y27758D01*
X23154Y27759D01*
X23149Y27760D01*
X23143Y27761D01*
X23142Y27761D01*
X23141Y27761D01*
X23135Y27761D01*
X23130Y27760D01*
X23128Y27760D01*
X23127Y27760D01*
X23122Y27758D01*
X23116Y27757D01*
X23115Y27756D01*
X23114Y27756D01*
X23109Y27753D01*
X23104Y27751D01*
X23103Y27750D01*
X23102Y27749D01*
X23096Y27744D01*
X22942Y27590D01*
X22838Y27547D01*
X22837Y27547D01*
X22832Y27543D01*
X22826Y27540D01*
X22825Y27540D01*
X22819Y27534D01*
X20807Y25522D01*
X20662Y25462D01*
X17669Y25462D01*
X17524Y25522D01*
X17412Y25634D01*
X17397Y25671D01*
X17396Y25672D01*
X17393Y25678D01*
X17390Y25683D01*
X17389Y25684D01*
X17384Y25690D01*
X16722Y26352D01*
X16721Y26353D01*
X16716Y26357D01*
X16711Y26360D01*
X16711Y26361D01*
X16710Y26361D01*
X16703Y26365D01*
X16618Y26400D01*
X16487Y26531D01*
X16486Y26532D01*
X16485Y26533D01*
X16480Y26536D01*
X16476Y26539D01*
X16475Y26540D01*
X16474Y26541D01*
X16469Y26543D01*
X16464Y26545D01*
X16462Y26546D01*
X16461Y26546D01*
X16456Y26547D01*
X16450Y26548D01*
X16449Y26548D01*
X16448Y26548D01*
X16442Y26548D01*
X16437Y26548D01*
X16436Y26547D01*
X16434Y26547D01*
X16429Y26546D01*
X16424Y26544D01*
X16422Y26544D01*
X16421Y26543D01*
X16416Y26541D01*
X16411Y26538D01*
X16411Y26537D01*
X16409Y26537D01*
X16403Y26531D01*
X16272Y26400D01*
X16060Y26312D01*
X15830Y26312D01*
X15618Y26400D01*
X15487Y26531D01*
X15486Y26532D01*
X15485Y26533D01*
X15480Y26536D01*
X15476Y26539D01*
X15475Y26540D01*
X15474Y26541D01*
X15469Y26543D01*
X15464Y26545D01*
X15462Y26546D01*
X15461Y26546D01*
X15456Y26547D01*
X15450Y26548D01*
X15449Y26548D01*
X15448Y26548D01*
X15442Y26548D01*
X15437Y26548D01*
X15436Y26547D01*
X15434Y26547D01*
X15429Y26546D01*
X15424Y26544D01*
X15422Y26544D01*
X15421Y26543D01*
X15416Y26541D01*
X15411Y26538D01*
X15411Y26537D01*
X15409Y26537D01*
X15403Y26531D01*
X15272Y26400D01*
X15060Y26312D01*
X14830Y26312D01*
X14618Y26400D01*
X14487Y26531D01*
X14486Y26532D01*
X14485Y26533D01*
X14480Y26536D01*
X14476Y26539D01*
X14475Y26540D01*
X14474Y26541D01*
X14469Y26543D01*
X14464Y26545D01*
X14462Y26546D01*
X14461Y26546D01*
X14456Y26547D01*
X14450Y26548D01*
X14449Y26548D01*
X14448Y26548D01*
X14442Y26548D01*
X14437Y26548D01*
X14436Y26547D01*
X14434Y26547D01*
X14429Y26546D01*
X14424Y26544D01*
X14422Y26544D01*
X14421Y26543D01*
X14416Y26541D01*
X14411Y26538D01*
X14411Y26537D01*
X14409Y26537D01*
X14403Y26531D01*
X14272Y26400D01*
X14060Y26312D01*
X13830Y26312D01*
X13618Y26400D01*
X13487Y26531D01*
X13486Y26532D01*
X13485Y26533D01*
X13480Y26536D01*
X13476Y26539D01*
X13475Y26540D01*
X13474Y26541D01*
X13469Y26543D01*
X13464Y26545D01*
X13462Y26546D01*
X13461Y26546D01*
X13456Y26547D01*
X13450Y26548D01*
X13449Y26548D01*
X13448Y26548D01*
X13442Y26548D01*
X13437Y26548D01*
X13436Y26547D01*
X13434Y26547D01*
X13429Y26546D01*
X13424Y26544D01*
X13422Y26544D01*
X13421Y26543D01*
X13416Y26541D01*
X13411Y26538D01*
X13411Y26537D01*
X13409Y26537D01*
X13403Y26531D01*
X13272Y26400D01*
X13060Y26312D01*
X12830Y26312D01*
X12618Y26400D01*
X12487Y26531D01*
X12486Y26532D01*
X12485Y26533D01*
X12480Y26536D01*
X12476Y26539D01*
X12475Y26540D01*
X12474Y26541D01*
X12469Y26543D01*
X12464Y26545D01*
X12462Y26546D01*
X12461Y26546D01*
X12456Y26547D01*
X12450Y26548D01*
X12449Y26548D01*
X12448Y26548D01*
X12442Y26548D01*
X12437Y26548D01*
X12436Y26547D01*
X12434Y26547D01*
X12429Y26546D01*
X12424Y26544D01*
X12422Y26544D01*
X12421Y26543D01*
X12416Y26541D01*
X12411Y26538D01*
X12411Y26537D01*
X12409Y26537D01*
X12403Y26531D01*
X12272Y26400D01*
X12060Y26312D01*
X11830Y26312D01*
X11618Y26400D01*
X11487Y26531D01*
X11486Y26532D01*
X11485Y26533D01*
X11480Y26536D01*
X11476Y26539D01*
X11475Y26540D01*
X11474Y26541D01*
X11469Y26543D01*
X11464Y26545D01*
X11462Y26546D01*
X11461Y26546D01*
X11456Y26547D01*
X11450Y26548D01*
X11449Y26548D01*
X11448Y26548D01*
X11442Y26548D01*
X11437Y26548D01*
X11436Y26547D01*
X11434Y26547D01*
X11429Y26546D01*
X11424Y26544D01*
X11422Y26544D01*
X11421Y26543D01*
X11416Y26541D01*
X11411Y26538D01*
X11411Y26537D01*
X11409Y26537D01*
X11403Y26531D01*
X11272Y26400D01*
X11060Y26312D01*
X10830Y26312D01*
X10618Y26400D01*
X10487Y26531D01*
X10486Y26532D01*
X10485Y26533D01*
X10480Y26536D01*
X10476Y26539D01*
X10475Y26540D01*
X10474Y26541D01*
X10469Y26543D01*
X10464Y26545D01*
X10462Y26546D01*
X10461Y26546D01*
X10456Y26547D01*
X10450Y26548D01*
X10449Y26548D01*
X10448Y26548D01*
X10442Y26548D01*
X10437Y26548D01*
X10436Y26547D01*
X10434Y26547D01*
X10429Y26546D01*
X10424Y26544D01*
X10422Y26544D01*
X10421Y26543D01*
X10416Y26541D01*
X10411Y26538D01*
X10411Y26537D01*
X10409Y26537D01*
X10403Y26531D01*
X10272Y26400D01*
X10060Y26312D01*
X9830Y26312D01*
X9618Y26400D01*
X9487Y26531D01*
X9486Y26532D01*
X9485Y26533D01*
X9480Y26536D01*
X9476Y26539D01*
X9475Y26540D01*
X9474Y26541D01*
X9469Y26543D01*
X9464Y26545D01*
X9462Y26546D01*
X9461Y26546D01*
X9456Y26547D01*
X9450Y26548D01*
X9449Y26548D01*
X9448Y26548D01*
X9442Y26548D01*
X9437Y26548D01*
X9436Y26547D01*
X9434Y26547D01*
X9429Y26546D01*
X9424Y26544D01*
X9422Y26544D01*
X9421Y26543D01*
X9416Y26541D01*
X9411Y26538D01*
X9411Y26537D01*
X9409Y26537D01*
X9403Y26531D01*
X9272Y26400D01*
X9060Y26312D01*
X8830Y26312D01*
X8618Y26400D01*
X8487Y26531D01*
X8486Y26532D01*
X8485Y26533D01*
X8480Y26536D01*
X8476Y26539D01*
X8475Y26540D01*
X8474Y26541D01*
X8469Y26543D01*
X8464Y26545D01*
X8462Y26546D01*
X8461Y26546D01*
X8456Y26547D01*
X8450Y26548D01*
X8449Y26548D01*
X8448Y26548D01*
X8442Y26548D01*
X8437Y26548D01*
X8436Y26547D01*
X8434Y26547D01*
X8429Y26546D01*
X8424Y26544D01*
X8422Y26544D01*
X8421Y26543D01*
X8416Y26541D01*
X8411Y26538D01*
X8411Y26537D01*
X8409Y26537D01*
X8403Y26531D01*
X8272Y26400D01*
X8060Y26312D01*
X7830Y26312D01*
X7618Y26400D01*
X7455Y26563D01*
X7440Y26600D01*
X7438Y26603D01*
X7436Y26607D01*
X7435Y26609D01*
X7433Y26612D01*
X7431Y26614D01*
X7428Y26618D01*
X7426Y26620D01*
X7424Y26622D01*
X7421Y26624D01*
X7418Y26626D01*
X7415Y26628D01*
X7413Y26629D01*
X7409Y26631D01*
X7406Y26633D01*
X7403Y26633D01*
X7400Y26634D01*
X7396Y26635D01*
X7392Y26636D01*
X7389Y26636D01*
X7387Y26636D01*
X7383Y26636D01*
X7379Y26636D01*
X7376Y26635D01*
X7373Y26635D01*
X7369Y26634D01*
X7365Y26633D01*
X7363Y26632D01*
X7360Y26631D01*
X7357Y26629D01*
X7353Y26627D01*
X7351Y26625D01*
X7348Y26624D01*
X7346Y26621D01*
X7343Y26618D01*
X7340Y26615D01*
X7339Y26614D01*
X7338Y26613D01*
X7337Y26612D01*
X7312Y26577D01*
X7258Y26523D01*
X7197Y26479D01*
X7129Y26444D01*
X7057Y26421D01*
X7043Y26418D01*
X7043Y26851D01*
X7042Y26853D01*
X7043Y26854D01*
X7042Y26859D01*
X7041Y26865D01*
X7041Y26866D01*
X7040Y26867D01*
X7038Y26873D01*
X7036Y26878D01*
X7036Y26879D01*
X7035Y26880D01*
X7032Y26885D01*
X7029Y26889D01*
X7028Y26890D01*
X7031Y26892D01*
X7031Y26894D01*
X7032Y26895D01*
X7035Y26899D01*
X7037Y26904D01*
X7038Y26905D01*
X7038Y26907D01*
X7040Y26912D01*
X7042Y26917D01*
X7042Y26919D01*
X7042Y26920D01*
X7043Y26928D01*
X7043Y27361D01*
X7057Y27359D01*
X7129Y27335D01*
X7197Y27301D01*
X7258Y27256D01*
X7312Y27203D01*
X7337Y27168D01*
X7340Y27165D01*
X7342Y27162D01*
X7344Y27160D01*
X7346Y27158D01*
X7350Y27155D01*
X7353Y27153D01*
X7355Y27152D01*
X7358Y27150D01*
X7361Y27149D01*
X7365Y27147D01*
X7368Y27146D01*
X7370Y27145D01*
X7374Y27145D01*
X7378Y27144D01*
X7381Y27144D01*
X7384Y27143D01*
X7388Y27144D01*
X7392Y27144D01*
X7395Y27144D01*
X7398Y27145D01*
X7401Y27146D01*
X7405Y27147D01*
X7408Y27148D01*
X7410Y27149D01*
X7414Y27151D01*
X7417Y27153D01*
X7420Y27155D01*
X7422Y27156D01*
X7425Y27159D01*
X7428Y27161D01*
X7430Y27164D01*
X7432Y27166D01*
X7434Y27169D01*
X7436Y27172D01*
X7438Y27176D01*
X7439Y27177D01*
X7439Y27178D01*
X7440Y27180D01*
X7455Y27217D01*
X7618Y27379D01*
X7830Y27467D01*
X8060Y27467D01*
X8272Y27379D01*
X8403Y27249D01*
X8404Y27248D01*
X8405Y27247D01*
X8409Y27243D01*
X8414Y27240D01*
X8415Y27239D01*
X8416Y27239D01*
X8421Y27237D01*
X8426Y27234D01*
X8427Y27234D01*
X8429Y27233D01*
X8434Y27233D01*
X8439Y27231D01*
X8441Y27231D01*
X8442Y27231D01*
X8447Y27232D01*
X8453Y27232D01*
X8454Y27232D01*
X8456Y27232D01*
X8461Y27234D01*
X8466Y27235D01*
X8467Y27236D01*
X8469Y27236D01*
X8473Y27239D01*
X8478Y27241D01*
X8479Y27242D01*
X8480Y27243D01*
X8487Y27249D01*
X8618Y27379D01*
X8830Y27467D01*
X9060Y27467D01*
X9272Y27379D01*
X9403Y27249D01*
X9404Y27248D01*
X9405Y27247D01*
X9409Y27243D01*
X9414Y27240D01*
X9415Y27239D01*
X9416Y27239D01*
X9421Y27237D01*
X9426Y27234D01*
X9427Y27234D01*
X9429Y27233D01*
X9434Y27233D01*
X9439Y27231D01*
X9441Y27231D01*
X9442Y27231D01*
X9447Y27232D01*
X9453Y27232D01*
X9454Y27232D01*
X9456Y27232D01*
X9461Y27234D01*
X9466Y27235D01*
X9467Y27236D01*
X9469Y27236D01*
X9473Y27239D01*
X9478Y27241D01*
X9479Y27242D01*
X9480Y27243D01*
X9487Y27249D01*
X9618Y27379D01*
X9830Y27467D01*
X10060Y27467D01*
X10272Y27379D01*
X10403Y27249D01*
X10404Y27248D01*
X10405Y27247D01*
X10409Y27243D01*
X10414Y27240D01*
X10415Y27239D01*
X10416Y27239D01*
X10421Y27237D01*
X10426Y27234D01*
X10427Y27234D01*
X10429Y27233D01*
X10434Y27233D01*
X10439Y27231D01*
X10441Y27231D01*
X10442Y27231D01*
X10447Y27232D01*
X10453Y27232D01*
X10454Y27232D01*
X10456Y27232D01*
X10461Y27234D01*
X10466Y27235D01*
X10467Y27236D01*
X10469Y27236D01*
X10473Y27239D01*
X10478Y27241D01*
X10479Y27242D01*
X10480Y27243D01*
X10487Y27249D01*
X10618Y27379D01*
X10830Y27467D01*
X11060Y27467D01*
X11272Y27379D01*
X11403Y27249D01*
X11404Y27248D01*
X11405Y27247D01*
X11409Y27243D01*
X11414Y27240D01*
X11415Y27239D01*
X11416Y27239D01*
X11421Y27237D01*
X11426Y27234D01*
X11427Y27234D01*
X11429Y27233D01*
X11434Y27233D01*
X11439Y27231D01*
X11441Y27231D01*
X11442Y27231D01*
X11447Y27232D01*
X11453Y27232D01*
X11454Y27232D01*
X11456Y27232D01*
X11461Y27234D01*
X11466Y27235D01*
X11467Y27236D01*
X11469Y27236D01*
X11473Y27239D01*
X11478Y27241D01*
X11479Y27242D01*
X11480Y27243D01*
X11487Y27249D01*
X11618Y27379D01*
X11830Y27467D01*
X12060Y27467D01*
X12272Y27379D01*
X12403Y27249D01*
X12404Y27248D01*
X12405Y27247D01*
X12409Y27243D01*
X12414Y27240D01*
X12415Y27239D01*
X12416Y27239D01*
X12421Y27237D01*
X12426Y27234D01*
X12427Y27234D01*
X12429Y27233D01*
X12434Y27233D01*
X12439Y27231D01*
X12441Y27231D01*
X12442Y27231D01*
X12447Y27232D01*
X12453Y27232D01*
X12454Y27232D01*
X12456Y27232D01*
X12461Y27234D01*
X12466Y27235D01*
X12467Y27236D01*
X12469Y27236D01*
X12473Y27239D01*
X12478Y27241D01*
X12479Y27242D01*
X12480Y27243D01*
X12487Y27249D01*
X12618Y27379D01*
X12830Y27467D01*
X13060Y27467D01*
X13272Y27379D01*
X13403Y27249D01*
X13404Y27248D01*
X13405Y27247D01*
X13409Y27243D01*
X13414Y27240D01*
X13415Y27239D01*
X13416Y27239D01*
X13421Y27237D01*
X13426Y27234D01*
X13427Y27234D01*
X13429Y27233D01*
X13434Y27233D01*
X13439Y27231D01*
X13441Y27231D01*
X13442Y27231D01*
X13447Y27232D01*
X13453Y27232D01*
X13454Y27232D01*
X13456Y27232D01*
X13461Y27234D01*
X13466Y27235D01*
X13467Y27236D01*
X13469Y27236D01*
X13473Y27239D01*
X13478Y27241D01*
X13479Y27242D01*
X13480Y27243D01*
X13487Y27249D01*
X13618Y27379D01*
X13830Y27467D01*
X14060Y27467D01*
X14272Y27379D01*
X14403Y27249D01*
X14404Y27248D01*
X14405Y27247D01*
X14409Y27243D01*
X14414Y27240D01*
X14415Y27239D01*
X14416Y27239D01*
X14421Y27237D01*
X14426Y27234D01*
X14427Y27234D01*
X14429Y27233D01*
X14434Y27233D01*
X14439Y27231D01*
X14441Y27231D01*
X14442Y27231D01*
X14447Y27232D01*
X14453Y27232D01*
X14454Y27232D01*
X14456Y27232D01*
X14461Y27234D01*
X14466Y27235D01*
X14467Y27236D01*
X14469Y27236D01*
X14473Y27239D01*
X14478Y27241D01*
X14479Y27242D01*
X14480Y27243D01*
X14487Y27249D01*
X14618Y27379D01*
X14830Y27467D01*
X15060Y27467D01*
X15272Y27379D01*
X15403Y27249D01*
X15404Y27248D01*
X15405Y27247D01*
X15409Y27243D01*
X15414Y27240D01*
X15415Y27239D01*
X15416Y27239D01*
X15421Y27237D01*
X15426Y27234D01*
X15427Y27234D01*
X15429Y27233D01*
X15434Y27233D01*
X15439Y27231D01*
X15441Y27231D01*
X15442Y27231D01*
X15447Y27232D01*
X15453Y27232D01*
X15454Y27232D01*
X15456Y27232D01*
X15461Y27234D01*
X15466Y27235D01*
X15467Y27236D01*
X15469Y27236D01*
X15473Y27239D01*
X15478Y27241D01*
X15479Y27242D01*
X15480Y27243D01*
X15487Y27249D01*
X15618Y27379D01*
X15830Y27467D01*
X16060Y27467D01*
X16272Y27379D01*
X16403Y27249D01*
X16404Y27248D01*
X16405Y27247D01*
X16409Y27243D01*
X16414Y27240D01*
X16415Y27239D01*
X16416Y27239D01*
X16421Y27237D01*
X16426Y27234D01*
X16427Y27234D01*
X16429Y27233D01*
X16434Y27233D01*
X16439Y27231D01*
X16441Y27231D01*
X16442Y27231D01*
X16447Y27232D01*
X16453Y27232D01*
X16454Y27232D01*
X16456Y27232D01*
X16461Y27234D01*
X16466Y27235D01*
X16467Y27236D01*
X16469Y27236D01*
X16473Y27239D01*
X16478Y27241D01*
X16479Y27242D01*
X16480Y27243D01*
X16487Y27249D01*
X16618Y27379D01*
X16830Y27467D01*
X17060Y27467D01*
X17272Y27379D01*
X17403Y27249D01*
X17404Y27248D01*
X17405Y27247D01*
X17409Y27243D01*
X17414Y27240D01*
X17415Y27239D01*
X17416Y27239D01*
X17421Y27237D01*
X17426Y27234D01*
X17427Y27234D01*
X17429Y27233D01*
X17434Y27233D01*
X17439Y27231D01*
X17441Y27231D01*
X17442Y27231D01*
X17447Y27232D01*
X17453Y27232D01*
X17454Y27232D01*
X17456Y27232D01*
X17461Y27234D01*
X17466Y27235D01*
X17467Y27236D01*
X17469Y27236D01*
X17473Y27239D01*
X17478Y27241D01*
X17479Y27242D01*
X17480Y27243D01*
X17487Y27249D01*
X17618Y27379D01*
X17830Y27467D01*
X18060Y27467D01*
X18272Y27379D01*
X18403Y27249D01*
X18404Y27248D01*
X18405Y27247D01*
X18409Y27243D01*
X18414Y27240D01*
X18415Y27239D01*
X18416Y27239D01*
X18421Y27237D01*
X18426Y27234D01*
X18427Y27234D01*
X18429Y27233D01*
X18434Y27233D01*
X18439Y27231D01*
X18441Y27231D01*
X18442Y27231D01*
X18447Y27232D01*
X18453Y27232D01*
X18454Y27232D01*
X18456Y27232D01*
X18461Y27234D01*
X18466Y27235D01*
X18467Y27236D01*
X18469Y27236D01*
X18473Y27239D01*
X18478Y27241D01*
X18479Y27242D01*
X18480Y27243D01*
X18487Y27249D01*
X18618Y27379D01*
X18830Y27467D01*
X19060Y27467D01*
X19272Y27379D01*
X19403Y27249D01*
X19404Y27248D01*
X19405Y27247D01*
X19409Y27243D01*
X19414Y27240D01*
X19415Y27239D01*
X19416Y27239D01*
X19421Y27237D01*
X19426Y27234D01*
X19427Y27234D01*
X19429Y27233D01*
X19434Y27233D01*
X19439Y27231D01*
X19441Y27231D01*
X19442Y27231D01*
X19447Y27232D01*
X19453Y27232D01*
X19454Y27232D01*
X19456Y27232D01*
X19461Y27234D01*
X19466Y27235D01*
X19467Y27236D01*
X19469Y27236D01*
X19473Y27239D01*
X19478Y27241D01*
X19479Y27242D01*
X19480Y27243D01*
X19487Y27249D01*
X19618Y27379D01*
X19830Y27467D01*
X20060Y27467D01*
X20272Y27379D01*
X20435Y27217D01*
X20522Y27005D01*
X20522Y26775D01*
X20435Y26563D01*
X20272Y26400D01*
X20196Y26369D01*
X20194Y26368D01*
X20192Y26367D01*
X20188Y26364D01*
X20184Y26362D01*
X20183Y26361D01*
X20181Y26359D01*
X20178Y26356D01*
X20174Y26353D01*
X20173Y26351D01*
X20171Y26350D01*
X20169Y26345D01*
X20166Y26342D01*
X20166Y26340D01*
X20165Y26338D01*
X20163Y26333D01*
X20161Y26329D01*
X20161Y26327D01*
X20160Y26325D01*
X20160Y26320D01*
X20159Y26315D01*
X20160Y26313D01*
X20159Y26311D01*
X20160Y26307D01*
X20161Y26302D01*
X20161Y26300D01*
X20162Y26298D01*
X20163Y26293D01*
X20165Y26289D01*
X20166Y26287D01*
X20167Y26285D01*
X20170Y26281D01*
X20172Y26277D01*
X20174Y26276D01*
X20175Y26274D01*
X20178Y26271D01*
X20182Y26268D01*
X20183Y26266D01*
X20185Y26265D01*
X20189Y26263D01*
X20193Y26260D01*
X20195Y26260D01*
X20197Y26259D01*
X20202Y26257D01*
X20206Y26256D01*
X20208Y26256D01*
X20210Y26255D01*
X20219Y26255D01*
X20394Y26255D01*
X20399Y26255D01*
X20405Y26256D01*
X20406Y26256D01*
X20408Y26256D01*
X20413Y26258D01*
X20418Y26260D01*
X20419Y26260D01*
X20420Y26261D01*
X20425Y26264D01*
X20429Y26266D01*
X20431Y26268D01*
X20432Y26268D01*
X20433Y26269D01*
X20436Y26272D01*
X21720Y27556D01*
X21723Y27559D01*
X21724Y27561D01*
X21727Y27564D01*
X21727Y27565D01*
X21728Y27566D01*
X21730Y27571D01*
X21733Y27576D01*
X21733Y27577D01*
X21734Y27579D01*
X21735Y27584D01*
X21736Y27589D01*
X21737Y27591D01*
X21737Y27592D01*
X21737Y27594D01*
X21737Y27598D01*
X21737Y28346D01*
X21737Y28347D01*
X21737Y28348D01*
X21736Y28354D01*
X21735Y28359D01*
X21735Y28361D01*
X21735Y28362D01*
X21733Y28367D01*
X21731Y28372D01*
X21730Y28373D01*
X21730Y28375D01*
X21726Y28379D01*
X21723Y28384D01*
X21722Y28385D01*
X21722Y28386D01*
X21721Y28386D01*
X21725Y28390D01*
X21726Y28391D01*
X21727Y28392D01*
X21729Y28397D01*
X21732Y28402D01*
X21732Y28403D01*
X21733Y28404D01*
X21734Y28410D01*
X21736Y28415D01*
X21736Y28416D01*
X21736Y28417D01*
X21737Y28426D01*
X21737Y29156D01*
X21741Y29156D01*
X21807Y29134D01*
X21869Y29103D01*
X21925Y29062D01*
X21974Y29013D01*
X22015Y28957D01*
X22032Y28923D01*
X22033Y28922D01*
X22034Y28920D01*
X22037Y28916D01*
X22039Y28912D01*
X22041Y28911D01*
X22042Y28909D01*
X22046Y28906D01*
X22049Y28903D01*
X22051Y28902D01*
X22052Y28901D01*
X22057Y28898D01*
X22061Y28896D01*
X22063Y28895D01*
X22064Y28894D01*
X22069Y28893D01*
X22074Y28892D01*
X22076Y28892D01*
X22078Y28891D01*
X22083Y28891D01*
X22088Y28891D01*
X22090Y28891D01*
X22091Y28891D01*
X22096Y28892D01*
X22101Y28893D01*
X22103Y28894D01*
X22105Y28894D01*
X22109Y28897D01*
X22114Y28899D01*
X22115Y28900D01*
X22117Y28900D01*
X22121Y28904D01*
X22125Y28907D01*
X22126Y28908D01*
X22127Y28909D01*
X22130Y28913D01*
X22134Y28917D01*
X22135Y28918D01*
X22136Y28920D01*
X22139Y28927D01*
X22182Y29030D01*
X22333Y29182D01*
X22531Y29263D01*
X22745Y29263D01*
X22942Y29182D01*
X23096Y29028D01*
X23097Y29027D01*
X23098Y29026D01*
X23102Y29023D01*
X23107Y29020D01*
X23108Y29019D01*
X23109Y29018D01*
X23114Y29016D01*
X23119Y29014D01*
X23120Y29013D01*
X23121Y29013D01*
X23127Y29012D01*
X23132Y29011D01*
X23134Y29011D01*
X23135Y29011D01*
X23140Y29011D01*
X23146Y29011D01*
X23147Y29012D01*
X23148Y29012D01*
X23154Y29013D01*
X23159Y29015D01*
X23160Y29015D01*
X23162Y29016D01*
X23166Y29018D01*
X23171Y29021D01*
X23172Y29022D01*
X23173Y29022D01*
X23180Y29028D01*
X23333Y29182D01*
X23531Y29263D01*
X23745Y29263D01*
X23942Y29182D01*
X24094Y29030D01*
X24177Y28829D01*
X24177Y28828D01*
X24177Y28827D01*
X24178Y28825D01*
X24180Y28820D01*
X24182Y28815D01*
X24182Y28814D01*
X24183Y28813D01*
X24186Y28808D01*
X24189Y28804D01*
X24190Y28803D01*
X24191Y28802D01*
X24195Y28798D01*
X24199Y28794D01*
X24200Y28794D01*
X24201Y28793D01*
X24206Y28790D01*
X24211Y28787D01*
X24212Y28787D01*
X24213Y28786D01*
X24218Y28785D01*
X24224Y28783D01*
X24225Y28783D01*
X24226Y28783D01*
X24235Y28782D01*
X25591Y28782D01*
X25596Y28783D01*
X25602Y28783D01*
X25603Y28784D01*
X25604Y28784D01*
X25609Y28786D01*
X25615Y28787D01*
X25616Y28788D01*
X25617Y28788D01*
X25622Y28791D01*
X25626Y28794D01*
X25628Y28795D01*
X25629Y28796D01*
X25630Y28797D01*
X25633Y28800D01*
X25875Y29042D01*
X25879Y29046D01*
X25882Y29050D01*
X25883Y29052D01*
X25884Y29053D01*
X25886Y29058D01*
X25889Y29062D01*
X25889Y29064D01*
X25890Y29065D01*
X25891Y29070D01*
X25892Y29076D01*
X25892Y29077D01*
X25892Y29078D01*
X25892Y29080D01*
X25893Y29084D01*
X25893Y29334D01*
X25961Y29500D01*
X25962Y29500D01*
X25962Y29501D01*
X25963Y29507D01*
X25965Y29513D01*
X25965Y29514D01*
X25966Y29523D01*
X25966Y31414D01*
X25966Y31415D01*
X25966Y31416D01*
X25965Y31422D01*
X25964Y31428D01*
X25964Y31429D01*
X25961Y31437D01*
X25893Y31603D01*
X25893Y32334D01*
X25964Y32507D01*
X26096Y32639D01*
X26269Y32710D01*
X26456Y32710D01*
X26628Y32639D01*
X26760Y32507D01*
X26807Y32393D01*
X26809Y32389D01*
X26811Y32385D01*
X26813Y32383D01*
X26814Y32381D01*
X26817Y32378D01*
X26819Y32374D01*
X26821Y32373D01*
X26823Y32371D01*
X26827Y32368D01*
X26830Y32366D01*
X26832Y32365D01*
X26835Y32363D01*
X26838Y32361D01*
X26842Y32360D01*
X26845Y32359D01*
X26847Y32358D01*
X26851Y32357D01*
X26855Y32357D01*
X26858Y32357D01*
X26861Y32356D01*
X26865Y32356D01*
X26869Y32356D01*
X26872Y32357D01*
X26874Y32357D01*
X26878Y32359D01*
X26882Y32360D01*
X26885Y32361D01*
X26887Y32362D01*
X26891Y32364D01*
X26894Y32366D01*
X26897Y32367D01*
X26899Y32369D01*
X26902Y32372D01*
X26905Y32374D01*
X26907Y32376D01*
X26909Y32378D01*
X26911Y32382D01*
X26913Y32385D01*
X26915Y32389D01*
X26916Y32390D01*
X26916Y32391D01*
X26917Y32393D01*
X26964Y32507D01*
X27096Y32639D01*
X27269Y32710D01*
X27456Y32710D01*
X27628Y32639D01*
X27760Y32507D01*
X27807Y32393D01*
X27809Y32389D01*
X27811Y32385D01*
X27813Y32383D01*
X27814Y32381D01*
X27817Y32378D01*
X27819Y32374D01*
X27821Y32373D01*
X27823Y32371D01*
X27827Y32368D01*
X27830Y32366D01*
X27832Y32365D01*
X27835Y32363D01*
X27838Y32361D01*
X27842Y32360D01*
X27845Y32359D01*
X27847Y32358D01*
X27851Y32357D01*
X27855Y32357D01*
X27858Y32357D01*
X27861Y32356D01*
X27865Y32356D01*
X27869Y32356D01*
X27872Y32357D01*
X27874Y32357D01*
X27878Y32359D01*
X27882Y32360D01*
X27885Y32361D01*
X27887Y32362D01*
X27891Y32364D01*
X27894Y32366D01*
X27897Y32367D01*
X27899Y32369D01*
X27902Y32372D01*
X27905Y32374D01*
X27907Y32376D01*
X27909Y32378D01*
X27911Y32382D01*
X27913Y32385D01*
X27915Y32389D01*
X27916Y32390D01*
X27916Y32391D01*
X27917Y32393D01*
X27964Y32507D01*
X28096Y32639D01*
X28269Y32710D01*
X28456Y32710D01*
X28628Y32639D01*
X28760Y32507D01*
X28832Y32334D01*
X28832Y31603D01*
X28760Y31430D01*
X28628Y31298D01*
X28456Y31227D01*
X28269Y31227D01*
X28096Y31298D01*
X27964Y31430D01*
X27917Y31544D01*
X27915Y31548D01*
X27913Y31552D01*
X27912Y31554D01*
X27910Y31556D01*
X27908Y31559D01*
X27905Y31563D01*
X27903Y31564D01*
X27901Y31566D01*
X27898Y31569D01*
X27895Y31571D01*
X27892Y31572D01*
X27890Y31574D01*
X27886Y31576D01*
X27882Y31577D01*
X27880Y31578D01*
X27877Y31579D01*
X27873Y31580D01*
X27869Y31580D01*
X27866Y31581D01*
X27864Y31581D01*
X27860Y31581D01*
X27856Y31581D01*
X27853Y31580D01*
X27850Y31580D01*
X27846Y31578D01*
X27842Y31577D01*
X27840Y31576D01*
X27837Y31575D01*
X27834Y31573D01*
X27830Y31571D01*
X27828Y31570D01*
X27826Y31568D01*
X27823Y31565D01*
X27820Y31563D01*
X27818Y31561D01*
X27816Y31559D01*
X27814Y31555D01*
X27811Y31552D01*
X27809Y31548D01*
X27809Y31547D01*
X27808Y31546D01*
X27807Y31544D01*
X27760Y31430D01*
X27628Y31298D01*
X27456Y31227D01*
X27269Y31227D01*
X27096Y31298D01*
X26964Y31430D01*
X26917Y31544D01*
X26915Y31548D01*
X26913Y31552D01*
X26912Y31554D01*
X26910Y31556D01*
X26908Y31559D01*
X26905Y31563D01*
X26903Y31564D01*
X26901Y31566D01*
X26898Y31569D01*
X26895Y31571D01*
X26892Y31572D01*
X26890Y31574D01*
X26886Y31576D01*
X26882Y31577D01*
X26880Y31578D01*
X26877Y31579D01*
X26873Y31580D01*
X26869Y31580D01*
X26866Y31581D01*
X26864Y31581D01*
X26860Y31581D01*
X26856Y31581D01*
X26853Y31580D01*
X26850Y31580D01*
X26846Y31578D01*
X26842Y31577D01*
X26840Y31576D01*
X26837Y31575D01*
X26834Y31573D01*
X26830Y31571D01*
X26828Y31570D01*
X26826Y31568D01*
X26823Y31565D01*
X26820Y31563D01*
X26818Y31561D01*
X26816Y31559D01*
X26814Y31555D01*
X26811Y31552D01*
X26809Y31548D01*
X26809Y31547D01*
X26808Y31546D01*
X26807Y31544D01*
X26763Y31437D01*
X26763Y31436D01*
X26761Y31430D01*
X26759Y31424D01*
X26759Y31423D01*
X26759Y31414D01*
X26759Y29523D01*
X26759Y29522D01*
X26759Y29521D01*
X26759Y29515D01*
X26760Y29509D01*
X26760Y29508D01*
X26763Y29500D01*
X26807Y29393D01*
X26809Y29389D01*
X26811Y29385D01*
X26813Y29383D01*
X26814Y29381D01*
X26817Y29378D01*
X26819Y29374D01*
X26821Y29373D01*
X26823Y29371D01*
X26827Y29368D01*
X26830Y29366D01*
X26832Y29365D01*
X26835Y29363D01*
X26838Y29361D01*
X26842Y29360D01*
X26845Y29359D01*
X26847Y29358D01*
X26851Y29357D01*
X26855Y29357D01*
X26858Y29357D01*
X26861Y29356D01*
X26865Y29356D01*
X26869Y29356D01*
X26872Y29357D01*
X26874Y29357D01*
X26878Y29359D01*
X26882Y29360D01*
X26885Y29361D01*
X26887Y29362D01*
X26891Y29364D01*
X26894Y29366D01*
X26897Y29367D01*
X26899Y29369D01*
X26902Y29372D01*
X26905Y29374D01*
X26907Y29376D01*
X26909Y29378D01*
X26911Y29382D01*
X26913Y29385D01*
X26915Y29389D01*
X26916Y29390D01*
X26916Y29391D01*
X26917Y29393D01*
X26964Y29507D01*
X27096Y29639D01*
X27269Y29710D01*
X27456Y29710D01*
X27628Y29639D01*
X27760Y29507D01*
X27807Y29393D01*
X27809Y29389D01*
X27811Y29385D01*
X27813Y29383D01*
X27814Y29381D01*
X27817Y29378D01*
X27819Y29374D01*
X27821Y29373D01*
X27823Y29371D01*
X27827Y29368D01*
X27830Y29366D01*
X27832Y29365D01*
X27835Y29363D01*
X27838Y29361D01*
X27842Y29360D01*
X27845Y29359D01*
X27847Y29358D01*
X27851Y29357D01*
X27855Y29357D01*
X27858Y29357D01*
X27861Y29356D01*
X27865Y29356D01*
X27869Y29356D01*
X27872Y29357D01*
X27874Y29357D01*
X27878Y29359D01*
X27882Y29360D01*
X27885Y29361D01*
X27887Y29362D01*
X27891Y29364D01*
X27894Y29366D01*
X27897Y29367D01*
X27899Y29369D01*
X27902Y29372D01*
X27905Y29374D01*
X27907Y29376D01*
X27909Y29378D01*
X27911Y29382D01*
X27913Y29385D01*
X27915Y29389D01*
X27916Y29390D01*
X27916Y29391D01*
X27917Y29393D01*
X27921Y29403D01*
X27922Y29404D01*
X27923Y29410D01*
X27925Y29416D01*
X27925Y29417D01*
X27925Y29418D01*
X27926Y29426D01*
X27926Y30063D01*
X27992Y30224D01*
X29071Y31302D01*
X29108Y31340D01*
X29109Y31341D01*
X29110Y31341D01*
X29113Y31346D01*
X29117Y31350D01*
X29117Y31351D01*
X29118Y31352D01*
X29120Y31358D01*
X29123Y31363D01*
X29123Y31364D01*
X29123Y31365D01*
X29124Y31370D01*
X29125Y31376D01*
X29125Y31377D01*
X29126Y31378D01*
X29125Y31384D01*
X29125Y31390D01*
X29125Y31391D01*
X29125Y31392D01*
X29123Y31397D01*
X29122Y31403D01*
X29121Y31404D01*
X29121Y31405D01*
X29118Y31410D01*
X29115Y31415D01*
X29114Y31416D01*
X29114Y31417D01*
X29108Y31423D01*
X29078Y31454D01*
X29043Y31501D01*
X29017Y31553D01*
X28999Y31609D01*
X28989Y31667D01*
X28989Y31889D01*
X29342Y31889D01*
X29343Y31889D01*
X29345Y31889D01*
X29350Y31890D01*
X29356Y31891D01*
X29357Y31891D01*
X29358Y31891D01*
X29362Y31893D01*
X29366Y31892D01*
X29371Y31890D01*
X29373Y31890D01*
X29374Y31890D01*
X29382Y31889D01*
X29735Y31889D01*
X29735Y31667D01*
X29726Y31609D01*
X29715Y31577D01*
X29715Y31573D01*
X29713Y31570D01*
X29713Y31567D01*
X29713Y31564D01*
X29713Y31560D01*
X29712Y31556D01*
X29713Y31553D01*
X29713Y31550D01*
X29714Y31546D01*
X29715Y31543D01*
X29716Y31540D01*
X29717Y31537D01*
X29718Y31533D01*
X29720Y31530D01*
X29722Y31527D01*
X29723Y31525D01*
X29726Y31522D01*
X29728Y31519D01*
X29730Y31517D01*
X29732Y31514D01*
X29735Y31512D01*
X29738Y31510D01*
X29741Y31508D01*
X29743Y31507D01*
X29747Y31505D01*
X29750Y31503D01*
X29753Y31503D01*
X29756Y31501D01*
X29760Y31501D01*
X29763Y31500D01*
X29768Y31500D01*
X29769Y31499D01*
X29770Y31499D01*
X29772Y31499D01*
X29953Y31499D01*
X29957Y31500D01*
X29960Y31500D01*
X29963Y31501D01*
X29966Y31501D01*
X29970Y31502D01*
X29974Y31503D01*
X29976Y31504D01*
X29979Y31506D01*
X29982Y31508D01*
X29986Y31509D01*
X29988Y31511D01*
X29991Y31513D01*
X29993Y31516D01*
X29996Y31518D01*
X29998Y31521D01*
X30000Y31523D01*
X30002Y31526D01*
X30004Y31529D01*
X30005Y31532D01*
X30007Y31535D01*
X30008Y31538D01*
X30010Y31542D01*
X30010Y31545D01*
X30011Y31548D01*
X30011Y31551D01*
X30012Y31555D01*
X30012Y31558D01*
X30012Y31561D01*
X30011Y31565D01*
X30011Y31569D01*
X30010Y31573D01*
X30010Y31575D01*
X30009Y31577D01*
X29999Y31609D01*
X29989Y31667D01*
X29989Y31889D01*
X30342Y31889D01*
X30343Y31889D01*
X30345Y31889D01*
X30350Y31890D01*
X30356Y31891D01*
X30357Y31891D01*
X30358Y31891D01*
X30362Y31893D01*
X30366Y31892D01*
X30371Y31890D01*
X30373Y31890D01*
X30374Y31890D01*
X30382Y31889D01*
X30735Y31889D01*
X30735Y31667D01*
X30726Y31609D01*
X30715Y31577D01*
X30715Y31573D01*
X30713Y31570D01*
X30713Y31567D01*
X30713Y31564D01*
X30713Y31560D01*
X30712Y31556D01*
X30713Y31553D01*
X30713Y31550D01*
X30714Y31546D01*
X30715Y31543D01*
X30716Y31540D01*
X30717Y31537D01*
X30718Y31533D01*
X30720Y31530D01*
X30722Y31527D01*
X30723Y31525D01*
X30726Y31522D01*
X30728Y31519D01*
X30730Y31517D01*
X30732Y31514D01*
X30735Y31512D01*
X30738Y31510D01*
X30741Y31508D01*
X30743Y31507D01*
X30747Y31505D01*
X30750Y31503D01*
X30753Y31503D01*
X30756Y31501D01*
X30760Y31501D01*
X30763Y31500D01*
X30768Y31500D01*
X30769Y31499D01*
X30770Y31499D01*
X30772Y31499D01*
X30847Y31499D01*
X30853Y31500D01*
X30859Y31501D01*
X30860Y31501D01*
X30866Y31503D01*
X30872Y31505D01*
X30873Y31505D01*
X30873Y31506D01*
X30878Y31509D01*
X30884Y31512D01*
X30884Y31513D01*
X30885Y31513D01*
X30889Y31517D01*
X30893Y31522D01*
X30894Y31522D01*
X30894Y31523D01*
X30897Y31528D01*
X30900Y31533D01*
X30901Y31534D01*
X30901Y31535D01*
X30903Y31540D01*
X30905Y31546D01*
X30905Y31547D01*
X30905Y31548D01*
X30906Y31554D01*
X30906Y31560D01*
X30906Y31561D01*
X30905Y31567D01*
X30904Y31573D01*
X30904Y31574D01*
X30904Y31575D01*
X30903Y31576D01*
X30902Y31581D01*
X30893Y31603D01*
X30893Y32334D01*
X30964Y32507D01*
X31096Y32639D01*
X31269Y32710D01*
X31456Y32710D01*
X31628Y32639D01*
X31760Y32507D01*
X31807Y32393D01*
X31809Y32389D01*
X31811Y32385D01*
X31813Y32383D01*
X31814Y32381D01*
X31817Y32378D01*
X31819Y32374D01*
X31821Y32373D01*
X31823Y32371D01*
X31827Y32368D01*
X31830Y32366D01*
X31832Y32365D01*
X31835Y32363D01*
X31838Y32361D01*
X31842Y32360D01*
X31845Y32359D01*
X31847Y32358D01*
X31851Y32357D01*
X31855Y32357D01*
X31858Y32357D01*
X31861Y32356D01*
X31865Y32356D01*
X31869Y32356D01*
X31872Y32357D01*
X31874Y32357D01*
X31878Y32359D01*
X31882Y32360D01*
X31885Y32361D01*
X31887Y32362D01*
X31891Y32364D01*
X31894Y32366D01*
X31897Y32367D01*
X31899Y32369D01*
X31902Y32372D01*
X31905Y32374D01*
X31907Y32376D01*
X31909Y32378D01*
X31911Y32382D01*
X31913Y32385D01*
X31915Y32389D01*
X31916Y32390D01*
X31916Y32391D01*
X31917Y32393D01*
X31964Y32507D01*
X32096Y32639D01*
X32269Y32710D01*
X32456Y32710D01*
X32628Y32639D01*
X32760Y32507D01*
X32807Y32393D01*
X32809Y32389D01*
X32811Y32385D01*
X32813Y32383D01*
X32814Y32381D01*
X32817Y32378D01*
X32819Y32374D01*
X32821Y32373D01*
X32823Y32371D01*
X32827Y32368D01*
X32830Y32366D01*
X32832Y32365D01*
X32835Y32363D01*
X32838Y32361D01*
X32842Y32360D01*
X32845Y32359D01*
X32847Y32358D01*
X32851Y32357D01*
X32855Y32357D01*
X32858Y32357D01*
X32861Y32356D01*
X32865Y32356D01*
X32869Y32356D01*
X32872Y32357D01*
X32874Y32357D01*
X32878Y32359D01*
X32882Y32360D01*
X32885Y32361D01*
X32887Y32362D01*
X32891Y32364D01*
X32894Y32366D01*
X32897Y32367D01*
X32899Y32369D01*
X32902Y32372D01*
X32905Y32374D01*
X32907Y32376D01*
X32909Y32378D01*
X32911Y32382D01*
X32913Y32385D01*
X32915Y32389D01*
X32916Y32390D01*
X32916Y32391D01*
X32917Y32393D01*
X32964Y32507D01*
X33096Y32639D01*
X33200Y32681D01*
X33205Y32684D01*
X33210Y32687D01*
X33211Y32688D01*
X33212Y32688D01*
X33216Y32692D01*
X33221Y32696D01*
X33221Y32697D01*
X33222Y32697D01*
X33225Y32702D01*
X33229Y32707D01*
X33229Y32708D01*
X33229Y32709D01*
X33232Y32714D01*
X33234Y32720D01*
X33234Y32721D01*
X33235Y32727D01*
X33236Y32733D01*
X33236Y32734D01*
X33236Y32735D01*
X33236Y32741D01*
X33235Y32747D01*
X33235Y32748D01*
X33233Y32754D01*
X33231Y32760D01*
X33231Y32761D01*
X33228Y32766D01*
X33224Y32772D01*
X33224Y32773D01*
X33223Y32774D01*
X33219Y32778D01*
X33144Y32853D01*
X33139Y32857D01*
X33135Y32860D01*
X33134Y32861D01*
X33133Y32862D01*
X33128Y32864D01*
X33123Y32867D01*
X33122Y32867D01*
X33121Y32868D01*
X33115Y32869D01*
X33110Y32870D01*
X33108Y32870D01*
X33107Y32870D01*
X33106Y32870D01*
X33102Y32871D01*
X32236Y32871D01*
X32076Y32937D01*
X31047Y33965D01*
X30981Y34126D01*
X30980Y34131D01*
X30980Y34136D01*
X30980Y34137D01*
X30979Y34139D01*
X30978Y34144D01*
X30976Y34149D01*
X30975Y34150D01*
X30975Y34152D01*
X30972Y34156D01*
X30969Y34161D01*
X30968Y34162D01*
X30967Y34163D01*
X30966Y34164D01*
X30964Y34167D01*
X30813Y34318D01*
X30705Y34580D01*
X30705Y35893D01*
X30813Y36155D01*
X31014Y36355D01*
X31276Y36464D01*
X31559Y36464D01*
X31821Y36355D01*
X32021Y36155D01*
X32130Y35893D01*
X32130Y34580D01*
X32021Y34318D01*
X32017Y34314D01*
X32016Y34312D01*
X32015Y34312D01*
X32012Y34307D01*
X32009Y34303D01*
X32008Y34302D01*
X32007Y34301D01*
X32005Y34295D01*
X32003Y34290D01*
X32003Y34289D01*
X32002Y34288D01*
X32001Y34283D01*
X32000Y34277D01*
X32000Y34276D01*
X32000Y34275D01*
X32000Y34269D01*
X32000Y34264D01*
X32001Y34262D01*
X32001Y34261D01*
X32003Y34256D01*
X32004Y34250D01*
X32005Y34249D01*
X32005Y34248D01*
X32008Y34243D01*
X32010Y34238D01*
X32011Y34237D01*
X32012Y34236D01*
X32017Y34230D01*
X32486Y33761D01*
X32490Y33757D01*
X32494Y33754D01*
X32496Y33753D01*
X32497Y33752D01*
X32502Y33750D01*
X32507Y33748D01*
X32508Y33747D01*
X32509Y33747D01*
X32514Y33745D01*
X32520Y33744D01*
X32522Y33744D01*
X32523Y33744D01*
X32524Y33744D01*
X32528Y33743D01*
X33394Y33743D01*
X33554Y33677D01*
X34543Y32688D01*
X34610Y32528D01*
X34610Y31449D01*
X34543Y31288D01*
X33948Y30693D01*
X33788Y30627D01*
X29654Y30627D01*
X29649Y30626D01*
X29643Y30626D01*
X29642Y30625D01*
X29641Y30625D01*
X29636Y30623D01*
X29630Y30622D01*
X29629Y30621D01*
X29628Y30620D01*
X29623Y30618D01*
X29619Y30615D01*
X29617Y30614D01*
X29616Y30613D01*
X29615Y30612D01*
X29612Y30609D01*
X28816Y29813D01*
X28813Y29809D01*
X28809Y29805D01*
X28808Y29803D01*
X28807Y29802D01*
X28805Y29797D01*
X28803Y29793D01*
X28802Y29791D01*
X28802Y29790D01*
X28801Y29785D01*
X28799Y29780D01*
X28799Y29778D01*
X28799Y29777D01*
X28799Y29775D01*
X28799Y29771D01*
X28799Y29426D01*
X28799Y29425D01*
X28799Y29419D01*
X28800Y29412D01*
X28800Y29411D01*
X28803Y29403D01*
X28832Y29334D01*
X28832Y28603D01*
X28760Y28430D01*
X28628Y28298D01*
X28457Y28227D01*
X28455Y28227D01*
X28453Y28226D01*
X28449Y28223D01*
X28445Y28221D01*
X28444Y28219D01*
X28442Y28218D01*
X28439Y28215D01*
X28435Y28212D01*
X28434Y28210D01*
X28432Y28209D01*
X28430Y28204D01*
X28427Y28200D01*
X28427Y28199D01*
X28426Y28197D01*
X28424Y28192D01*
X28422Y28188D01*
X28422Y28186D01*
X28421Y28184D01*
X28421Y28179D01*
X28420Y28174D01*
X28421Y28172D01*
X28421Y28170D01*
X28421Y28165D01*
X28422Y28161D01*
X28422Y28159D01*
X28423Y28157D01*
X28425Y28152D01*
X28426Y28148D01*
X28427Y28146D01*
X28428Y28144D01*
X28431Y28140D01*
X28433Y28136D01*
X28435Y28135D01*
X28436Y28133D01*
X28439Y28130D01*
X28443Y28126D01*
X28445Y28125D01*
X28446Y28124D01*
X28450Y28122D01*
X28454Y28119D01*
X28456Y28119D01*
X28458Y28118D01*
X28463Y28116D01*
X28467Y28115D01*
X28469Y28115D01*
X28471Y28114D01*
X28480Y28114D01*
X28819Y28114D01*
X28979Y28047D01*
X29740Y27287D01*
X29806Y27126D01*
X29806Y18535D01*
X29740Y18375D01*
X26468Y15103D01*
X26307Y15036D01*
X25560Y15036D01*
X25554Y15035D01*
X25549Y15035D01*
X25548Y15035D01*
X25546Y15035D01*
X25541Y15033D01*
X25536Y15031D01*
X25535Y15030D01*
X25533Y15030D01*
X25529Y15027D01*
X25524Y15024D01*
X25523Y15023D01*
X25522Y15022D01*
X25521Y15022D01*
X25521Y15021D01*
X25518Y15019D01*
X21743Y11244D01*
X21583Y11178D01*
X15133Y11178D01*
X15129Y11177D01*
X15125Y11177D01*
X15123Y11177D01*
X15120Y11176D01*
X15116Y11175D01*
X15112Y11174D01*
X15110Y11173D01*
X15107Y11172D01*
X15104Y11169D01*
X15100Y11168D01*
X15098Y11166D01*
X15096Y11164D01*
X15093Y11161D01*
X15090Y11159D01*
X15088Y11156D01*
X15086Y11154D01*
X15084Y11151D01*
X15082Y11148D01*
X15081Y11145D01*
X15079Y11143D01*
X15078Y11139D01*
X15077Y11135D01*
X15076Y11132D01*
X15075Y11130D01*
X15075Y11126D01*
X15074Y11122D01*
X15074Y11119D01*
X15074Y11116D01*
X15075Y11112D01*
X15075Y11108D01*
X15076Y11105D01*
X15076Y11103D01*
X15078Y11099D01*
X15079Y11095D01*
X15081Y11092D01*
X15082Y11090D01*
X15084Y11087D01*
X15086Y11083D01*
X15089Y11080D01*
X15090Y11079D01*
X15090Y11078D01*
X15092Y11077D01*
X15365Y10803D01*
X15369Y10800D01*
X15374Y10796D01*
X15375Y10795D01*
X15376Y10795D01*
X15381Y10792D01*
X15386Y10790D01*
X15387Y10789D01*
X15388Y10789D01*
X15394Y10788D01*
X15399Y10786D01*
X15401Y10786D01*
X15402Y10786D01*
X15403Y10786D01*
X15407Y10786D01*
X21719Y10786D01*
X21724Y10786D01*
X21730Y10787D01*
X21731Y10787D01*
X21732Y10787D01*
X21737Y10789D01*
X21743Y10791D01*
X21744Y10791D01*
X21745Y10792D01*
X21750Y10795D01*
X21754Y10797D01*
X21756Y10799D01*
X21757Y10799D01*
X21758Y10800D01*
X21761Y10803D01*
X25461Y14504D01*
X25622Y14570D01*
X27787Y14570D01*
X27792Y14571D01*
X27798Y14571D01*
X27799Y14572D01*
X27800Y14572D01*
X27805Y14574D01*
X27811Y14575D01*
X27812Y14576D01*
X27813Y14576D01*
X27818Y14579D01*
X27822Y14582D01*
X27824Y14583D01*
X27825Y14584D01*
X27826Y14585D01*
X27829Y14588D01*
X30885Y17644D01*
X30888Y17648D01*
X30892Y17652D01*
X30892Y17653D01*
X30893Y17654D01*
X30896Y17659D01*
X30898Y17664D01*
X30899Y17665D01*
X30899Y17667D01*
X30900Y17672D01*
X30902Y17677D01*
X30902Y17679D01*
X30902Y17680D01*
X30902Y17682D01*
X30902Y17686D01*
X30902Y27213D01*
X30969Y27373D01*
X31909Y28313D01*
X31912Y28317D01*
X31915Y28321D01*
X31916Y28323D01*
X31917Y28324D01*
X31919Y28329D01*
X31922Y28333D01*
X31922Y28335D01*
X31923Y28336D01*
X31924Y28341D01*
X31925Y28346D01*
X31925Y28348D01*
X31926Y28349D01*
X31926Y28351D01*
X31926Y28355D01*
X31926Y28511D01*
X31926Y28512D01*
X31925Y28518D01*
X31924Y28525D01*
X31924Y28526D01*
X31921Y28534D01*
X31917Y28544D01*
X31915Y28548D01*
X31913Y28552D01*
X31912Y28554D01*
X31910Y28556D01*
X31908Y28559D01*
X31905Y28563D01*
X31903Y28564D01*
X31901Y28566D01*
X31898Y28569D01*
X31895Y28571D01*
X31892Y28572D01*
X31890Y28574D01*
X31886Y28576D01*
X31882Y28577D01*
X31880Y28578D01*
X31877Y28579D01*
X31873Y28580D01*
X31869Y28580D01*
X31866Y28581D01*
X31864Y28581D01*
X31860Y28581D01*
X31856Y28581D01*
X31853Y28580D01*
X31850Y28580D01*
X31846Y28578D01*
X31842Y28577D01*
X31840Y28576D01*
X31837Y28575D01*
X31834Y28573D01*
X31830Y28571D01*
X31828Y28570D01*
X31826Y28568D01*
X31823Y28565D01*
X31820Y28563D01*
X31818Y28561D01*
X31816Y28559D01*
X31814Y28555D01*
X31811Y28552D01*
X31809Y28548D01*
X31809Y28547D01*
X31808Y28546D01*
X31807Y28544D01*
X31760Y28430D01*
X31628Y28298D01*
X31456Y28227D01*
X31269Y28227D01*
X31096Y28298D01*
X30964Y28430D01*
X30893Y28603D01*
X30893Y29334D01*
X30921Y29403D01*
X30922Y29404D01*
X30923Y29410D01*
X30925Y29416D01*
X30925Y29417D01*
X30925Y29418D01*
X30926Y29426D01*
X30926Y29756D01*
X30992Y29916D01*
X31446Y30370D01*
X31606Y30436D01*
X33929Y30436D01*
X33934Y30437D01*
X33939Y30437D01*
X33941Y30438D01*
X33942Y30438D01*
X33947Y30440D01*
X33952Y30441D01*
X33954Y30442D01*
X33955Y30443D01*
X33959Y30445D01*
X33964Y30448D01*
X33966Y30449D01*
X33966Y30450D01*
X33967Y30451D01*
X33970Y30454D01*
X35058Y31541D01*
X35061Y31546D01*
X35065Y31550D01*
X35066Y31551D01*
X35067Y31552D01*
X35069Y31557D01*
X35071Y31562D01*
X35072Y31563D01*
X35072Y31564D01*
X35073Y31570D01*
X35075Y31575D01*
X35075Y31577D01*
X35075Y31578D01*
X35075Y31579D01*
X35075Y31583D01*
X35075Y34047D01*
X35075Y34052D01*
X35074Y34057D01*
X35074Y34059D01*
X35074Y34060D01*
X35072Y34065D01*
X35071Y34070D01*
X35070Y34072D01*
X35069Y34073D01*
X35066Y34078D01*
X35064Y34082D01*
X35062Y34084D01*
X35061Y34086D01*
X35058Y34089D01*
X34364Y34783D01*
X34360Y34786D01*
X34356Y34789D01*
X34355Y34790D01*
X34353Y34791D01*
X34349Y34793D01*
X34344Y34796D01*
X34342Y34796D01*
X34341Y34797D01*
X34336Y34798D01*
X34331Y34799D01*
X34329Y34799D01*
X34328Y34800D01*
X34326Y34800D01*
X34322Y34800D01*
X34158Y34800D01*
X34156Y34800D01*
X34155Y34800D01*
X34150Y34799D01*
X34144Y34798D01*
X34143Y34798D01*
X34142Y34798D01*
X34136Y34796D01*
X34131Y34794D01*
X34130Y34793D01*
X34129Y34792D01*
X34124Y34789D01*
X34120Y34786D01*
X34119Y34785D01*
X34118Y34785D01*
X34114Y34780D01*
X34110Y34776D01*
X34110Y34775D01*
X34109Y34774D01*
X34106Y34769D01*
X34103Y34765D01*
X34103Y34763D01*
X34102Y34762D01*
X34101Y34757D01*
X34099Y34752D01*
X34099Y34750D01*
X34099Y34749D01*
X34098Y34741D01*
X34098Y34580D01*
X33990Y34318D01*
X33789Y34117D01*
X33528Y34009D01*
X33244Y34009D01*
X32982Y34117D01*
X32782Y34318D01*
X32673Y34580D01*
X32673Y35893D01*
X32782Y36155D01*
X32982Y36355D01*
X33244Y36464D01*
X33528Y36464D01*
X33789Y36355D01*
X33990Y36155D01*
X34098Y35893D01*
X34098Y35732D01*
X34099Y35731D01*
X34098Y35729D01*
X34099Y35724D01*
X34100Y35718D01*
X34100Y35717D01*
X34101Y35716D01*
X34103Y35711D01*
X34105Y35705D01*
X34105Y35704D01*
X34106Y35703D01*
X34109Y35699D01*
X34112Y35694D01*
X34113Y35693D01*
X34114Y35692D01*
X34118Y35688D01*
X34122Y35685D01*
X34123Y35684D01*
X34124Y35683D01*
X34129Y35680D01*
X34134Y35678D01*
X34135Y35677D01*
X34136Y35677D01*
X34141Y35675D01*
X34147Y35674D01*
X34148Y35673D01*
X34149Y35673D01*
X34158Y35673D01*
X34613Y35673D01*
X34617Y35673D01*
X34621Y35673D01*
X34624Y35674D01*
X34627Y35674D01*
X34630Y35676D01*
X34634Y35677D01*
X34637Y35678D01*
X34639Y35679D01*
X34643Y35681D01*
X34647Y35683D01*
X34649Y35685D01*
X34651Y35686D01*
X34654Y35689D01*
X34657Y35692D01*
X34658Y35694D01*
X34660Y35696D01*
X34662Y35700D01*
X34665Y35703D01*
X34666Y35705D01*
X34667Y35708D01*
X34668Y35712D01*
X34670Y35715D01*
X34671Y35718D01*
X34671Y35721D01*
X34672Y35725D01*
X34672Y35729D01*
X34672Y35732D01*
X34672Y35734D01*
X34672Y35738D01*
X34671Y35742D01*
X34671Y35745D01*
X34670Y35748D01*
X34669Y35752D01*
X34667Y35756D01*
X34666Y35758D01*
X34665Y35760D01*
X34663Y35764D01*
X34661Y35767D01*
X34658Y35770D01*
X34657Y35772D01*
X34656Y35772D01*
X34655Y35774D01*
X33560Y36869D01*
X33556Y36872D01*
X33552Y36875D01*
X33551Y36876D01*
X33550Y36877D01*
X33545Y36879D01*
X33540Y36882D01*
X33538Y36882D01*
X33537Y36883D01*
X33532Y36884D01*
X33527Y36885D01*
X33525Y36885D01*
X33524Y36886D01*
X33522Y36886D01*
X33518Y36886D01*
X30064Y36886D01*
X30059Y36885D01*
X30054Y36885D01*
X30052Y36884D01*
X30051Y36884D01*
X30046Y36882D01*
X30041Y36881D01*
X30039Y36880D01*
X30038Y36880D01*
X30033Y36877D01*
X30029Y36874D01*
X30027Y36873D01*
X30027Y36872D01*
X30026Y36871D01*
X30022Y36869D01*
X26136Y32982D01*
X25961Y32909D01*
X21613Y32909D01*
X21438Y32982D01*
X21295Y33124D01*
X19308Y35112D01*
X19307Y35113D01*
X19306Y35114D01*
X19301Y35117D01*
X19297Y35120D01*
X19296Y35121D01*
X19295Y35122D01*
X19290Y35124D01*
X19285Y35126D01*
X19283Y35126D01*
X19282Y35127D01*
X19277Y35128D01*
X19271Y35129D01*
X19270Y35129D01*
X19269Y35129D01*
X19263Y35129D01*
X19258Y35129D01*
X19257Y35128D01*
X19255Y35128D01*
X19250Y35127D01*
X19245Y35125D01*
X19243Y35125D01*
X19242Y35124D01*
X19237Y35121D01*
X19233Y35119D01*
X19232Y35118D01*
X19230Y35117D01*
X19224Y35112D01*
X19181Y35069D01*
X19109Y35039D01*
X18030Y35039D01*
X17957Y35069D01*
X17902Y35125D01*
X17872Y35197D01*
X17872Y36276D01*
X17902Y36349D01*
X17957Y36404D01*
X18030Y36434D01*
X19109Y36434D01*
X19181Y36404D01*
X19237Y36349D01*
X19267Y36276D01*
X19267Y36272D01*
X19267Y36271D01*
X19267Y36270D01*
X19268Y36264D01*
X19268Y36259D01*
X19269Y36257D01*
X19269Y36256D01*
X19271Y36251D01*
X19273Y36246D01*
X19274Y36245D01*
X19274Y36244D01*
X19278Y36239D01*
X19281Y36234D01*
X19281Y36233D01*
X19282Y36232D01*
X19286Y36229D01*
X19290Y36225D01*
X19292Y36224D01*
X19292Y36223D01*
X19297Y36221D01*
X19302Y36218D01*
X19303Y36218D01*
X19305Y36217D01*
X19310Y36216D01*
X19315Y36214D01*
X19316Y36214D01*
X19318Y36214D01*
X19326Y36213D01*
X19451Y36213D01*
X19627Y36140D01*
X21887Y33880D01*
X21892Y33876D01*
X21896Y33873D01*
X21897Y33872D01*
X21898Y33871D01*
X21903Y33869D01*
X21908Y33866D01*
X21909Y33866D01*
X21910Y33865D01*
X21916Y33864D01*
X21921Y33863D01*
X21923Y33863D01*
X21924Y33862D01*
X21925Y33862D01*
X21929Y33862D01*
X25644Y33862D01*
X25650Y33863D01*
X25655Y33863D01*
X25656Y33864D01*
X25658Y33864D01*
X25663Y33866D01*
X25668Y33867D01*
X25669Y33868D01*
X25671Y33868D01*
X25675Y33871D01*
X25680Y33874D01*
X25681Y33875D01*
X25682Y33876D01*
X25683Y33877D01*
X25686Y33880D01*
X29369Y37563D01*
X29372Y37566D01*
X29375Y37569D01*
X29376Y37571D01*
X29378Y37573D01*
X29380Y37577D01*
X29382Y37581D01*
X29382Y37583D01*
X29384Y37586D01*
X29384Y37590D01*
X29386Y37594D01*
X29386Y37596D01*
X29386Y37599D01*
X29386Y37603D01*
X29387Y37607D01*
X29386Y37610D01*
X29386Y37613D01*
X29385Y37617D01*
X29384Y37621D01*
X29383Y37623D01*
X29383Y37626D01*
X29381Y37629D01*
X29379Y37633D01*
X29378Y37636D01*
X29376Y37638D01*
X29374Y37641D01*
X29371Y37644D01*
X29369Y37646D01*
X29367Y37648D01*
X29364Y37651D01*
X29361Y37653D01*
X29359Y37655D01*
X29356Y37656D01*
X29353Y37658D01*
X29349Y37660D01*
X29346Y37660D01*
X29344Y37662D01*
X29340Y37662D01*
X29336Y37663D01*
X29332Y37664D01*
X29330Y37664D01*
X29329Y37664D01*
X29327Y37664D01*
X25921Y37664D01*
X25916Y37663D01*
X25910Y37663D01*
X25909Y37662D01*
X25908Y37662D01*
X25902Y37660D01*
X25897Y37659D01*
X25896Y37658D01*
X25895Y37658D01*
X25890Y37655D01*
X25886Y37652D01*
X25884Y37651D01*
X25883Y37650D01*
X25882Y37649D01*
X25879Y37646D01*
X25080Y36848D01*
X25077Y36843D01*
X25073Y36839D01*
X25073Y36838D01*
X25072Y36837D01*
X25070Y36832D01*
X25067Y36827D01*
X25067Y36826D01*
X25066Y36825D01*
X25065Y36819D01*
X25064Y36814D01*
X25063Y36812D01*
X25063Y36811D01*
X25063Y36810D01*
X25063Y36806D01*
X25063Y36445D01*
X25064Y36440D01*
X25064Y36434D01*
X25064Y36433D01*
X25065Y36431D01*
X25066Y36426D01*
X25068Y36421D01*
X25069Y36420D01*
X25069Y36419D01*
X25072Y36414D01*
X25075Y36409D01*
X25076Y36408D01*
X25077Y36407D01*
X25078Y36406D01*
X25080Y36403D01*
X25210Y36273D01*
X25319Y36011D01*
X25319Y34698D01*
X25210Y34436D01*
X25010Y34235D01*
X24748Y34127D01*
X24465Y34127D01*
X24203Y34235D01*
X24002Y34436D01*
X23894Y34698D01*
X23894Y36011D01*
X24002Y36273D01*
X24093Y36364D01*
X24096Y36368D01*
X24100Y36372D01*
X24100Y36373D01*
X24101Y36374D01*
X24104Y36379D01*
X24106Y36384D01*
X24107Y36385D01*
X24107Y36387D01*
X24108Y36392D01*
X24110Y36397D01*
X24110Y36399D01*
X24110Y36400D01*
X24110Y36401D01*
X24110Y36406D01*
X24110Y36766D01*
X24110Y36772D01*
X24109Y36777D01*
X24109Y36778D01*
X24109Y36780D01*
X24107Y36785D01*
X24105Y36790D01*
X24105Y36791D01*
X24104Y36793D01*
X24101Y36797D01*
X24098Y36802D01*
X24097Y36803D01*
X24097Y36804D01*
X24096Y36805D01*
X24093Y36808D01*
X23757Y37144D01*
X23753Y37147D01*
X23749Y37151D01*
X23748Y37152D01*
X23746Y37153D01*
X23742Y37155D01*
X23737Y37157D01*
X23735Y37158D01*
X23734Y37158D01*
X23729Y37159D01*
X23724Y37161D01*
X23722Y37161D01*
X23721Y37161D01*
X23719Y37161D01*
X23715Y37161D01*
X4420Y37161D01*
X4415Y37161D01*
X4409Y37160D01*
X4408Y37160D01*
X4406Y37160D01*
X4401Y37158D01*
X4396Y37156D01*
X4395Y37156D01*
X4394Y37155D01*
X4389Y37152D01*
X4384Y37150D01*
X4383Y37148D01*
X4382Y37148D01*
X4381Y37147D01*
X4378Y37144D01*
X3484Y36250D01*
X3481Y36246D01*
X3477Y36242D01*
X3477Y36241D01*
X3476Y36240D01*
X3473Y36235D01*
X3471Y36230D01*
X3471Y36229D01*
X3470Y36227D01*
X3469Y36222D01*
X3467Y36217D01*
X3467Y36215D01*
X3467Y36214D01*
X3467Y36213D01*
X3467Y36208D01*
X3467Y35197D01*
X3437Y35125D01*
X3381Y35069D01*
X3309Y35039D01*
X2230Y35039D01*
X2157Y35069D01*
X2102Y35125D01*
X2072Y35197D01*
X2072Y36276D01*
X2093Y36328D01*
X2095Y36334D01*
X2097Y36340D01*
X2097Y36341D01*
X2097Y36348D01*
X2098Y36354D01*
X2098Y36355D01*
X2097Y36361D01*
X2096Y36367D01*
X2095Y36368D01*
X2093Y36374D01*
X2091Y36380D01*
X2090Y36380D01*
X2090Y36381D01*
X2086Y36386D01*
X2083Y36391D01*
X2082Y36391D01*
X2082Y36392D01*
X2077Y36396D01*
X2072Y36400D01*
X2071Y36401D01*
X2066Y36403D01*
X2060Y36406D01*
X2059Y36407D01*
X2053Y36408D01*
X2047Y36410D01*
X2046Y36410D01*
X2044Y36410D01*
X2039Y36410D01*
X1838Y36410D01*
X1586Y36478D01*
X1360Y36608D01*
X1175Y36793D01*
X1045Y37019D01*
X977Y37271D01*
X977Y37532D01*
X1045Y37784D01*
X1175Y38010D01*
X1360Y38195D01*
X1586Y38325D01*
X1838Y38393D01*
X2099Y38393D01*
X2351Y38325D01*
X2577Y38195D01*
X2762Y38010D01*
X2892Y37784D01*
X2960Y37532D01*
X2960Y37271D01*
X2945Y37214D01*
X2944Y37209D01*
X2943Y37205D01*
X2943Y37203D01*
X2943Y37201D01*
X2943Y37196D01*
X2943Y37191D01*
X2944Y37189D01*
X2944Y37187D01*
X2945Y37183D01*
X2947Y37178D01*
X2947Y37176D01*
X2948Y37174D01*
X2951Y37170D01*
X2953Y37166D01*
X2954Y37164D01*
X2955Y37163D01*
X2959Y37159D01*
X2962Y37155D01*
X2963Y37154D01*
X2965Y37153D01*
X2969Y37150D01*
X2973Y37147D01*
X2975Y37147D01*
X2976Y37146D01*
X2981Y37144D01*
X2985Y37142D01*
X2987Y37142D01*
X2989Y37141D01*
X2994Y37141D01*
X2999Y37140D01*
X3001Y37140D01*
X3003Y37140D01*
X3008Y37140D01*
X3013Y37141D01*
X3014Y37141D01*
X3016Y37142D01*
X3021Y37143D01*
X3026Y37145D01*
X3027Y37146D01*
X3029Y37146D01*
X3033Y37149D01*
X3037Y37152D01*
X3039Y37153D01*
X3040Y37154D01*
X3041Y37155D01*
X3044Y37157D01*
X3928Y38042D01*
X4103Y38114D01*
X24032Y38114D01*
X24207Y38042D01*
X24349Y37899D01*
X24525Y37723D01*
X24526Y37723D01*
X24527Y37722D01*
X24531Y37718D01*
X24536Y37715D01*
X24537Y37714D01*
X24538Y37714D01*
X24543Y37711D01*
X24548Y37709D01*
X24549Y37709D01*
X24551Y37708D01*
X24556Y37707D01*
X24561Y37706D01*
X24563Y37706D01*
X24564Y37706D01*
X24570Y37706D01*
X24575Y37707D01*
X24576Y37707D01*
X24578Y37707D01*
X24583Y37709D01*
X24588Y37710D01*
X24589Y37711D01*
X24591Y37711D01*
X24595Y37714D01*
X24600Y37716D01*
X24601Y37717D01*
X24602Y37718D01*
X24609Y37723D01*
X25429Y38544D01*
X25604Y38616D01*
X34356Y38616D01*
X34531Y38544D01*
X34674Y38402D01*
X37609Y35467D01*
X37681Y35292D01*
X37681Y29748D01*
X37609Y29573D01*
X35644Y27609D01*
X35502Y27466D01*
X35327Y27394D01*
X34218Y27394D01*
X34213Y27393D01*
X34207Y27393D01*
X34206Y27392D01*
X34204Y27392D01*
X34199Y27390D01*
X34194Y27389D01*
X34193Y27388D01*
X34192Y27388D01*
X34187Y27385D01*
X34182Y27382D01*
X34181Y27381D01*
X34180Y27380D01*
X34179Y27379D01*
X34176Y27376D01*
X33781Y26981D01*
X33778Y26977D01*
X33774Y26973D01*
X33774Y26972D01*
X33773Y26971D01*
X33770Y26966D01*
X33768Y26961D01*
X33767Y26960D01*
X33767Y26958D01*
X33766Y26953D01*
X33764Y26948D01*
X33764Y26946D01*
X33764Y26945D01*
X33764Y26944D01*
X33764Y26940D01*
X33764Y26683D01*
X33764Y26682D01*
X33765Y26676D01*
X33765Y26670D01*
X33766Y26669D01*
X33768Y26661D01*
X33826Y26521D01*
X33826Y26306D01*
X33744Y26108D01*
X33593Y25956D01*
X33492Y25915D01*
X33491Y25914D01*
X33489Y25913D01*
X33485Y25911D01*
X33480Y25908D01*
X33479Y25907D01*
X33478Y25906D01*
X33474Y25902D01*
X33470Y25899D01*
X33469Y25898D01*
X33468Y25896D01*
X33465Y25892D01*
X33463Y25888D01*
X33462Y25886D01*
X33461Y25885D01*
X33459Y25880D01*
X33458Y25875D01*
X33457Y25873D01*
X33457Y25872D01*
X33456Y25867D01*
X33456Y25862D01*
X33456Y25860D01*
X33456Y25858D01*
X33456Y25853D01*
X33457Y25848D01*
X33457Y25846D01*
X33458Y25845D01*
X33460Y25840D01*
X33461Y25835D01*
X33462Y25834D01*
X33463Y25832D01*
X33466Y25828D01*
X33468Y25823D01*
X33470Y25822D01*
X33471Y25821D01*
X33474Y25817D01*
X33478Y25814D01*
X33479Y25813D01*
X33481Y25812D01*
X33488Y25807D01*
X33519Y25791D01*
X33575Y25751D01*
X33625Y25701D01*
X33666Y25645D01*
X33697Y25583D01*
X33719Y25517D01*
X33719Y25513D01*
X33328Y25513D01*
X33326Y25513D01*
X33325Y25513D01*
X33320Y25512D01*
X33314Y25511D01*
X33313Y25511D01*
X33312Y25511D01*
X33307Y25509D01*
X33301Y25507D01*
X33300Y25506D01*
X33299Y25506D01*
X33295Y25502D01*
X33290Y25499D01*
X33289Y25498D01*
X33288Y25498D01*
X33287Y25497D01*
X33283Y25501D01*
X33282Y25502D01*
X33281Y25503D01*
X33276Y25505D01*
X33271Y25508D01*
X33270Y25508D01*
X33269Y25509D01*
X33263Y25510D01*
X33258Y25512D01*
X33257Y25512D01*
X33255Y25512D01*
X33247Y25513D01*
X32856Y25513D01*
X32856Y25517D01*
X32878Y25583D01*
X32909Y25645D01*
X32950Y25701D01*
X32999Y25751D01*
X33056Y25791D01*
X33087Y25807D01*
X33088Y25808D01*
X33090Y25809D01*
X33094Y25812D01*
X33098Y25815D01*
X33099Y25816D01*
X33101Y25817D01*
X33104Y25821D01*
X33108Y25825D01*
X33108Y25826D01*
X33109Y25828D01*
X33112Y25832D01*
X33114Y25837D01*
X33115Y25838D01*
X33116Y25840D01*
X33117Y25845D01*
X33118Y25850D01*
X33118Y25851D01*
X33119Y25853D01*
X33119Y25858D01*
X33119Y25863D01*
X33119Y25865D01*
X33119Y25867D01*
X33118Y25872D01*
X33117Y25877D01*
X33116Y25878D01*
X33116Y25880D01*
X33113Y25885D01*
X33111Y25889D01*
X33110Y25891D01*
X33110Y25892D01*
X33106Y25896D01*
X33103Y25900D01*
X33102Y25901D01*
X33101Y25903D01*
X33097Y25906D01*
X33093Y25909D01*
X33092Y25910D01*
X33090Y25911D01*
X33083Y25915D01*
X32982Y25956D01*
X32831Y26108D01*
X32748Y26306D01*
X32748Y26521D01*
X32807Y26661D01*
X32807Y26662D01*
X32809Y26668D01*
X32810Y26674D01*
X32810Y26675D01*
X32811Y26683D01*
X32811Y27256D01*
X32884Y27431D01*
X33026Y27574D01*
X33627Y28174D01*
X33628Y28176D01*
X33630Y28177D01*
X33632Y28181D01*
X33635Y28185D01*
X33636Y28187D01*
X33637Y28189D01*
X33639Y28193D01*
X33641Y28197D01*
X33641Y28199D01*
X33642Y28201D01*
X33643Y28206D01*
X33644Y28211D01*
X33644Y28213D01*
X33644Y28215D01*
X33644Y28220D01*
X33644Y28224D01*
X33643Y28226D01*
X33643Y28228D01*
X33641Y28233D01*
X33640Y28238D01*
X33639Y28239D01*
X33639Y28241D01*
X33636Y28245D01*
X33634Y28250D01*
X33632Y28251D01*
X33631Y28253D01*
X33628Y28256D01*
X33625Y28260D01*
X33623Y28261D01*
X33622Y28263D01*
X33618Y28265D01*
X33614Y28268D01*
X33612Y28269D01*
X33610Y28270D01*
X33606Y28271D01*
X33601Y28273D01*
X33599Y28274D01*
X33597Y28274D01*
X33593Y28275D01*
X33588Y28275D01*
X33586Y28275D01*
X33584Y28276D01*
X33579Y28275D01*
X33574Y28275D01*
X33572Y28274D01*
X33570Y28274D01*
X33562Y28271D01*
X33456Y28227D01*
X33269Y28227D01*
X33096Y28298D01*
X32964Y28430D01*
X32917Y28544D01*
X32915Y28548D01*
X32913Y28552D01*
X32912Y28554D01*
X32910Y28556D01*
X32908Y28559D01*
X32905Y28563D01*
X32903Y28564D01*
X32901Y28566D01*
X32898Y28569D01*
X32895Y28571D01*
X32892Y28572D01*
X32890Y28574D01*
X32886Y28576D01*
X32882Y28577D01*
X32880Y28578D01*
X32877Y28579D01*
X32873Y28580D01*
X32869Y28580D01*
X32866Y28581D01*
X32864Y28581D01*
X32860Y28581D01*
X32856Y28581D01*
X32853Y28580D01*
X32850Y28580D01*
X32846Y28578D01*
X32842Y28577D01*
X32840Y28576D01*
X32837Y28575D01*
X32834Y28573D01*
X32830Y28571D01*
X32828Y28570D01*
X32826Y28568D01*
X32823Y28565D01*
X32820Y28563D01*
X32818Y28561D01*
X32816Y28559D01*
X32814Y28555D01*
X32811Y28552D01*
X32809Y28548D01*
X32809Y28547D01*
X32808Y28546D01*
X32807Y28544D01*
X32803Y28534D01*
X32803Y28533D01*
X32801Y28527D01*
X32799Y28521D01*
X32799Y28520D01*
X32799Y28519D01*
X32799Y28511D01*
X32799Y28063D01*
X32732Y27902D01*
X31792Y26963D01*
X31789Y26958D01*
X31785Y26954D01*
X31785Y26953D01*
X31784Y26952D01*
X31782Y26947D01*
X31779Y26942D01*
X31779Y26941D01*
X31778Y26940D01*
X31777Y26934D01*
X31776Y26929D01*
X31775Y26927D01*
X31775Y26926D01*
X31775Y26925D01*
X31775Y26921D01*
X31775Y17394D01*
X31708Y17233D01*
X28239Y13764D01*
X28079Y13698D01*
X25914Y13698D01*
X25909Y13697D01*
X25903Y13697D01*
X25902Y13696D01*
X25900Y13696D01*
X25895Y13694D01*
X25890Y13693D01*
X25889Y13692D01*
X25888Y13691D01*
X25883Y13688D01*
X25878Y13686D01*
X25877Y13684D01*
X25876Y13684D01*
X25875Y13683D01*
X25872Y13680D01*
X22296Y10104D01*
X22293Y10101D01*
X22290Y10098D01*
X22289Y10095D01*
X22287Y10093D01*
X22285Y10089D01*
X22283Y10086D01*
X22283Y10083D01*
X22281Y10081D01*
X22281Y10077D01*
X22279Y10073D01*
X22279Y10070D01*
X22279Y10067D01*
X22279Y10063D01*
X22278Y10059D01*
X22279Y10057D01*
X22279Y10054D01*
X22280Y10050D01*
X22281Y10046D01*
X22282Y10043D01*
X22282Y10041D01*
X22284Y10037D01*
X22286Y10033D01*
X22287Y10031D01*
X22289Y10028D01*
X22291Y10025D01*
X22294Y10022D01*
X22296Y10020D01*
X22298Y10018D01*
X22301Y10016D01*
X22304Y10013D01*
X22306Y10012D01*
X22309Y10010D01*
X22312Y10009D01*
X22316Y10007D01*
X22319Y10006D01*
X22321Y10005D01*
X22325Y10004D01*
X22329Y10003D01*
X22333Y10003D01*
X22335Y10003D01*
X22336Y10003D01*
X22338Y10003D01*
X22528Y10003D01*
X22533Y10003D01*
X22539Y10004D01*
X22540Y10004D01*
X22541Y10004D01*
X22546Y10006D01*
X22552Y10008D01*
X22553Y10008D01*
X22554Y10009D01*
X22559Y10012D01*
X22563Y10014D01*
X22565Y10016D01*
X22566Y10016D01*
X22567Y10017D01*
X22570Y10020D01*
X25642Y13092D01*
X25787Y13152D01*
X32961Y13152D01*
X32966Y13153D01*
X32972Y13153D01*
X32973Y13154D01*
X32974Y13154D01*
X32979Y13156D01*
X32985Y13157D01*
X32986Y13158D01*
X32987Y13158D01*
X32992Y13161D01*
X32996Y13164D01*
X32998Y13165D01*
X32999Y13166D01*
X33000Y13167D01*
X33003Y13170D01*
X33501Y13668D01*
X33502Y13669D01*
X33503Y13669D01*
X33506Y13674D01*
X33509Y13678D01*
X33510Y13679D01*
X33511Y13680D01*
X33513Y13686D01*
X33515Y13691D01*
X33515Y13692D01*
X33516Y13693D01*
X33517Y13699D01*
X33518Y13704D01*
X33518Y13705D01*
X33518Y13707D01*
X33518Y13712D01*
X33518Y13718D01*
X33517Y13719D01*
X33517Y13720D01*
X33515Y13725D01*
X33514Y13731D01*
X33514Y13732D01*
X33513Y13733D01*
X33510Y13738D01*
X33508Y13743D01*
X33507Y13744D01*
X33506Y13745D01*
X33501Y13751D01*
X33496Y13756D01*
X33467Y13825D01*
X33464Y13831D01*
X33461Y13837D01*
X33460Y13837D01*
X33456Y13842D01*
X33452Y13847D01*
X33451Y13847D01*
X33446Y13851D01*
X33440Y13855D01*
X33434Y13857D01*
X33428Y13860D01*
X33427Y13860D01*
X33421Y13861D01*
X33414Y13862D01*
X33407Y13861D01*
X33400Y13860D01*
X33394Y13858D01*
X33388Y13856D01*
X33387Y13856D01*
X33382Y13852D01*
X33376Y13849D01*
X33371Y13844D01*
X33366Y13839D01*
X33361Y13832D01*
X33346Y13806D01*
X33328Y13787D01*
X33305Y13774D01*
X33279Y13767D01*
X33052Y13767D01*
X33052Y14141D01*
X33052Y14142D01*
X33052Y14143D01*
X33051Y14149D01*
X33051Y14154D01*
X33050Y14155D01*
X33050Y14157D01*
X33048Y14162D01*
X33046Y14167D01*
X33045Y14168D01*
X33045Y14169D01*
X33045Y14170D01*
X33047Y14174D01*
X33048Y14175D01*
X33048Y14176D01*
X33050Y14182D01*
X33051Y14187D01*
X33051Y14188D01*
X33052Y14189D01*
X33052Y14198D01*
X33052Y14571D01*
X33279Y14571D01*
X33305Y14564D01*
X33328Y14551D01*
X33346Y14532D01*
X33361Y14507D01*
X33361Y14506D01*
X33365Y14501D01*
X33369Y14496D01*
X33370Y14495D01*
X33375Y14491D01*
X33380Y14487D01*
X33386Y14484D01*
X33392Y14481D01*
X33392Y14480D01*
X33399Y14479D01*
X33405Y14477D01*
X33406Y14477D01*
X33412Y14477D01*
X33419Y14477D01*
X33426Y14479D01*
X33432Y14480D01*
X33433Y14480D01*
X33438Y14483D01*
X33444Y14486D01*
X33445Y14486D01*
X33450Y14491D01*
X33455Y14495D01*
X33459Y14500D01*
X33463Y14506D01*
X33464Y14506D01*
X33467Y14513D01*
X33496Y14582D01*
X33551Y14638D01*
X33624Y14668D01*
X34305Y14668D01*
X34378Y14638D01*
X34423Y14593D01*
X34424Y14592D01*
X34425Y14591D01*
X34429Y14588D01*
X34433Y14585D01*
X34435Y14584D01*
X34436Y14583D01*
X34441Y14581D01*
X34446Y14579D01*
X34447Y14578D01*
X34448Y14578D01*
X34454Y14577D01*
X34459Y14576D01*
X34460Y14576D01*
X34462Y14576D01*
X34467Y14576D01*
X34473Y14576D01*
X34474Y14577D01*
X34475Y14577D01*
X34481Y14578D01*
X34486Y14580D01*
X34487Y14580D01*
X34488Y14581D01*
X34493Y14583D01*
X34498Y14586D01*
X34499Y14587D01*
X34500Y14587D01*
X34506Y14593D01*
X34551Y14638D01*
X34624Y14668D01*
X35305Y14668D01*
X35378Y14638D01*
X35423Y14593D01*
X35424Y14592D01*
X35425Y14591D01*
X35429Y14588D01*
X35433Y14585D01*
X35435Y14584D01*
X35436Y14583D01*
X35441Y14581D01*
X35446Y14579D01*
X35447Y14578D01*
X35448Y14578D01*
X35454Y14577D01*
X35459Y14576D01*
X35460Y14576D01*
X35462Y14576D01*
X35467Y14576D01*
X35473Y14576D01*
X35474Y14577D01*
X35475Y14577D01*
X35481Y14578D01*
X35486Y14580D01*
X35487Y14580D01*
X35488Y14581D01*
X35493Y14583D01*
X35498Y14586D01*
X35499Y14587D01*
X35500Y14587D01*
X35506Y14593D01*
X35551Y14637D01*
X35554Y14642D01*
X35558Y14646D01*
X35558Y14647D01*
X35559Y14648D01*
X35562Y14653D01*
X35564Y14658D01*
X35565Y14659D01*
X35565Y14660D01*
X35566Y14666D01*
X35567Y14667D01*
X35567Y14669D01*
X35568Y14671D01*
X35568Y14673D01*
X35568Y14674D01*
X35568Y14675D01*
X35568Y14679D01*
X35568Y19044D01*
X35568Y19049D01*
X35567Y19054D01*
X35567Y19056D01*
X35567Y19057D01*
X35565Y19062D01*
X35563Y19067D01*
X35563Y19069D01*
X35562Y19070D01*
X35559Y19074D01*
X35556Y19079D01*
X35555Y19081D01*
X35554Y19082D01*
X35551Y19085D01*
X34637Y20000D01*
X34632Y20003D01*
X34628Y20007D01*
X34627Y20007D01*
X34626Y20008D01*
X34621Y20010D01*
X34616Y20013D01*
X34615Y20013D01*
X34614Y20014D01*
X34608Y20015D01*
X34603Y20016D01*
X34601Y20017D01*
X34600Y20017D01*
X34599Y20017D01*
X34595Y20017D01*
X33678Y20017D01*
X33672Y20016D01*
X33667Y20016D01*
X33666Y20016D01*
X33664Y20015D01*
X33659Y20014D01*
X33654Y20012D01*
X33653Y20011D01*
X33651Y20011D01*
X33647Y20008D01*
X33642Y20005D01*
X33641Y20004D01*
X33640Y20003D01*
X33639Y20002D01*
X33636Y20000D01*
X33593Y19956D01*
X33492Y19915D01*
X33491Y19914D01*
X33489Y19913D01*
X33485Y19911D01*
X33480Y19908D01*
X33479Y19907D01*
X33478Y19906D01*
X33474Y19902D01*
X33470Y19899D01*
X33469Y19898D01*
X33468Y19896D01*
X33465Y19892D01*
X33463Y19888D01*
X33462Y19886D01*
X33461Y19885D01*
X33459Y19880D01*
X33458Y19875D01*
X33457Y19873D01*
X33457Y19872D01*
X33456Y19867D01*
X33456Y19862D01*
X33456Y19860D01*
X33456Y19858D01*
X33456Y19853D01*
X33457Y19848D01*
X33457Y19846D01*
X33458Y19845D01*
X33460Y19840D01*
X33461Y19835D01*
X33462Y19834D01*
X33463Y19832D01*
X33466Y19828D01*
X33468Y19823D01*
X33470Y19822D01*
X33471Y19821D01*
X33474Y19817D01*
X33478Y19814D01*
X33479Y19813D01*
X33481Y19812D01*
X33488Y19807D01*
X33519Y19791D01*
X33575Y19751D01*
X33625Y19701D01*
X33666Y19645D01*
X33697Y19583D01*
X33719Y19517D01*
X33719Y19513D01*
X33328Y19513D01*
X33326Y19513D01*
X33325Y19513D01*
X33320Y19512D01*
X33314Y19511D01*
X33313Y19511D01*
X33312Y19511D01*
X33307Y19509D01*
X33301Y19507D01*
X33300Y19506D01*
X33299Y19506D01*
X33295Y19502D01*
X33290Y19499D01*
X33289Y19498D01*
X33288Y19498D01*
X33287Y19497D01*
X33283Y19501D01*
X33282Y19502D01*
X33281Y19503D01*
X33276Y19505D01*
X33271Y19508D01*
X33270Y19508D01*
X33269Y19509D01*
X33263Y19510D01*
X33258Y19512D01*
X33257Y19512D01*
X33255Y19512D01*
X33247Y19513D01*
X32856Y19513D01*
X32856Y19517D01*
X32878Y19583D01*
X32909Y19645D01*
X32950Y19701D01*
X32999Y19751D01*
X33056Y19791D01*
X33087Y19807D01*
X33088Y19808D01*
X33090Y19809D01*
X33094Y19812D01*
X33098Y19815D01*
X33099Y19816D01*
X33101Y19817D01*
X33104Y19821D01*
X33108Y19825D01*
X33108Y19826D01*
X33109Y19828D01*
X33112Y19832D01*
X33114Y19837D01*
X33115Y19838D01*
X33116Y19840D01*
X33117Y19845D01*
X33118Y19850D01*
X33118Y19851D01*
X33119Y19853D01*
X33119Y19858D01*
X33119Y19863D01*
X33119Y19865D01*
X33119Y19867D01*
X33118Y19872D01*
X33117Y19877D01*
X33116Y19878D01*
X33116Y19880D01*
X33113Y19885D01*
X33111Y19889D01*
X33110Y19891D01*
X33110Y19892D01*
X33106Y19896D01*
X33103Y19900D01*
X33102Y19901D01*
X33101Y19903D01*
X33097Y19906D01*
X33093Y19909D01*
X33092Y19910D01*
X33090Y19911D01*
X33083Y19915D01*
X32982Y19956D01*
X32831Y20108D01*
X32748Y20306D01*
X32748Y20521D01*
X32831Y20719D01*
X32983Y20871D01*
X32984Y20873D01*
X32985Y20873D01*
X32988Y20878D01*
X32992Y20882D01*
X32992Y20883D01*
X32993Y20884D01*
X32995Y20890D01*
X32998Y20895D01*
X32998Y20896D01*
X32998Y20897D01*
X32999Y20902D01*
X33000Y20908D01*
X33000Y20909D01*
X33001Y20910D01*
X33000Y20916D01*
X33000Y20921D01*
X33000Y20923D01*
X33000Y20924D01*
X32998Y20929D01*
X32997Y20935D01*
X32996Y20936D01*
X32996Y20937D01*
X32993Y20942D01*
X32990Y20947D01*
X32990Y20948D01*
X32989Y20949D01*
X32983Y20955D01*
X32831Y21108D01*
X32748Y21306D01*
X32748Y21521D01*
X32831Y21719D01*
X32983Y21871D01*
X32984Y21873D01*
X32985Y21873D01*
X32988Y21878D01*
X32992Y21882D01*
X32992Y21883D01*
X32993Y21884D01*
X32995Y21890D01*
X32998Y21895D01*
X32998Y21896D01*
X32998Y21897D01*
X32999Y21902D01*
X33000Y21908D01*
X33000Y21909D01*
X33001Y21910D01*
X33000Y21916D01*
X33000Y21921D01*
X33000Y21923D01*
X33000Y21924D01*
X32998Y21929D01*
X32997Y21935D01*
X32996Y21936D01*
X32996Y21937D01*
X32993Y21942D01*
X32990Y21947D01*
X32990Y21948D01*
X32989Y21949D01*
X32983Y21955D01*
X32831Y22108D01*
X32748Y22306D01*
X32748Y22521D01*
X32831Y22719D01*
X32983Y22871D01*
X32984Y22873D01*
X32985Y22873D01*
X32988Y22878D01*
X32992Y22882D01*
X32992Y22883D01*
X32993Y22884D01*
X32995Y22890D01*
X32998Y22895D01*
X32998Y22896D01*
X32998Y22897D01*
X32999Y22902D01*
X33000Y22908D01*
X33000Y22909D01*
X33001Y22910D01*
X33000Y22916D01*
X33000Y22921D01*
X33000Y22923D01*
X33000Y22924D01*
X32998Y22929D01*
X32997Y22935D01*
X32996Y22936D01*
X32996Y22937D01*
X32993Y22942D01*
X32990Y22947D01*
X32990Y22948D01*
X32989Y22949D01*
X32983Y22955D01*
X32831Y23108D01*
X32748Y23306D01*
X32748Y23521D01*
X32831Y23719D01*
X32983Y23871D01*
X32984Y23873D01*
X32985Y23873D01*
X32988Y23878D01*
X32992Y23882D01*
X32992Y23883D01*
X32993Y23884D01*
X32995Y23890D01*
X32998Y23895D01*
X32998Y23896D01*
X32998Y23897D01*
X32999Y23902D01*
X33000Y23908D01*
X33000Y23909D01*
X33001Y23910D01*
X33000Y23916D01*
X33000Y23921D01*
X33000Y23923D01*
X33000Y23924D01*
X32998Y23929D01*
X32997Y23935D01*
X32996Y23936D01*
X32996Y23937D01*
X32993Y23942D01*
X32990Y23947D01*
X32990Y23948D01*
X32989Y23949D01*
X32983Y23955D01*
X32831Y24108D01*
X32748Y24306D01*
X32748Y24521D01*
X32831Y24719D01*
X32982Y24870D01*
X33083Y24912D01*
X33084Y24913D01*
X33086Y24913D01*
X33090Y24916D01*
X33095Y24919D01*
X33096Y24920D01*
X33097Y24921D01*
X33101Y24924D01*
X33105Y24928D01*
X33106Y24929D01*
X33107Y24930D01*
X33109Y24935D01*
X33112Y24939D01*
X33113Y24941D01*
X33114Y24942D01*
X33115Y24947D01*
X33117Y24952D01*
X33117Y24953D01*
X33118Y24955D01*
X33118Y24960D01*
X33119Y24965D01*
X33119Y24967D01*
X33119Y24969D01*
X33118Y24974D01*
X33118Y24979D01*
X33117Y24980D01*
X33117Y24982D01*
X33115Y24987D01*
X33114Y24992D01*
X33113Y24993D01*
X33112Y24995D01*
X33109Y24999D01*
X33106Y25003D01*
X33105Y25005D01*
X33104Y25006D01*
X33100Y25009D01*
X33097Y25013D01*
X33095Y25014D01*
X33094Y25015D01*
X33087Y25019D01*
X33056Y25035D01*
X32999Y25076D01*
X32950Y25125D01*
X32909Y25182D01*
X32878Y25244D01*
X32856Y25310D01*
X32856Y25314D01*
X33247Y25314D01*
X33248Y25314D01*
X33250Y25314D01*
X33255Y25315D01*
X33261Y25315D01*
X33262Y25316D01*
X33263Y25316D01*
X33268Y25318D01*
X33273Y25320D01*
X33274Y25321D01*
X33276Y25321D01*
X33280Y25324D01*
X33285Y25327D01*
X33286Y25328D01*
X33287Y25329D01*
X33288Y25330D01*
X33292Y25326D01*
X33293Y25325D01*
X33294Y25324D01*
X33299Y25322D01*
X33304Y25319D01*
X33305Y25318D01*
X33306Y25318D01*
X33312Y25316D01*
X33317Y25315D01*
X33318Y25315D01*
X33319Y25314D01*
X33328Y25314D01*
X33719Y25314D01*
X33719Y25310D01*
X33697Y25244D01*
X33666Y25182D01*
X33625Y25125D01*
X33575Y25076D01*
X33535Y25047D01*
X33534Y25046D01*
X33532Y25045D01*
X33529Y25041D01*
X33525Y25038D01*
X33524Y25036D01*
X33523Y25035D01*
X33520Y25030D01*
X33517Y25026D01*
X33517Y25025D01*
X33516Y25023D01*
X33514Y25018D01*
X33513Y25014D01*
X33512Y25012D01*
X33512Y25010D01*
X33511Y25005D01*
X33511Y25000D01*
X33511Y24998D01*
X33511Y24996D01*
X33512Y24991D01*
X33512Y24987D01*
X33513Y24985D01*
X33513Y24983D01*
X33515Y24978D01*
X33516Y24974D01*
X33517Y24972D01*
X33518Y24970D01*
X33521Y24966D01*
X33524Y24962D01*
X33525Y24961D01*
X33526Y24959D01*
X33530Y24956D01*
X33533Y24952D01*
X33535Y24951D01*
X33536Y24950D01*
X33541Y24948D01*
X33545Y24945D01*
X33547Y24945D01*
X33548Y24944D01*
X33553Y24943D01*
X33558Y24941D01*
X33560Y24941D01*
X33562Y24940D01*
X33570Y24940D01*
X37231Y24940D01*
X37232Y24940D01*
X37238Y24941D01*
X37244Y24941D01*
X37245Y24941D01*
X37245Y24942D01*
X37253Y24944D01*
X37270Y24951D01*
X38163Y24951D01*
X38361Y24869D01*
X38512Y24718D01*
X38594Y24520D01*
X38594Y24306D01*
X38512Y24109D01*
X38359Y23955D01*
X38358Y23954D01*
X38357Y23953D01*
X38354Y23949D01*
X38350Y23945D01*
X38350Y23943D01*
X38349Y23942D01*
X38347Y23937D01*
X38344Y23932D01*
X38344Y23931D01*
X38344Y23930D01*
X38343Y23924D01*
X38342Y23919D01*
X38342Y23918D01*
X38341Y23916D01*
X38342Y23911D01*
X38342Y23905D01*
X38342Y23904D01*
X38342Y23903D01*
X38344Y23897D01*
X38345Y23892D01*
X38346Y23891D01*
X38346Y23890D01*
X38349Y23885D01*
X38352Y23880D01*
X38353Y23879D01*
X38353Y23878D01*
X38359Y23871D01*
X38512Y23718D01*
X38594Y23520D01*
X38594Y23306D01*
X38512Y23109D01*
X38359Y22955D01*
X38358Y22954D01*
X38357Y22953D01*
X38354Y22949D01*
X38350Y22945D01*
X38350Y22943D01*
X38349Y22942D01*
X38347Y22937D01*
X38344Y22932D01*
X38344Y22931D01*
X38344Y22930D01*
X38343Y22924D01*
X38342Y22919D01*
X38342Y22918D01*
X38341Y22916D01*
X38342Y22911D01*
X38342Y22905D01*
X38342Y22904D01*
X38342Y22903D01*
X38344Y22897D01*
X38345Y22892D01*
X38346Y22891D01*
X38346Y22890D01*
X38349Y22885D01*
X38352Y22880D01*
X38353Y22879D01*
X38353Y22878D01*
X38359Y22871D01*
X38512Y22718D01*
X38594Y22520D01*
X38594Y22306D01*
X38512Y22109D01*
X38359Y21955D01*
X38358Y21954D01*
X38357Y21953D01*
X38354Y21949D01*
X38350Y21945D01*
X38350Y21943D01*
X38349Y21942D01*
X38347Y21937D01*
X38344Y21932D01*
X38344Y21931D01*
X38344Y21930D01*
X38343Y21924D01*
X38342Y21919D01*
X38342Y21918D01*
X38341Y21916D01*
X38342Y21911D01*
X38342Y21905D01*
X38342Y21904D01*
X38342Y21903D01*
X38344Y21897D01*
X38345Y21892D01*
X38346Y21891D01*
X38346Y21890D01*
X38349Y21885D01*
X38352Y21880D01*
X38353Y21879D01*
X38353Y21878D01*
X38359Y21871D01*
X38512Y21718D01*
X38594Y21520D01*
X38594Y21306D01*
X38512Y21109D01*
X38361Y20958D01*
X38163Y20876D01*
X37270Y20876D01*
X37253Y20883D01*
X37252Y20883D01*
X37246Y20885D01*
X37240Y20886D01*
X37239Y20886D01*
X37231Y20887D01*
X34974Y20887D01*
X34971Y20887D01*
X34969Y20887D01*
X34965Y20886D01*
X34960Y20885D01*
X34958Y20885D01*
X34956Y20884D01*
X34952Y20882D01*
X34947Y20881D01*
X34945Y20880D01*
X34944Y20879D01*
X34940Y20876D01*
X34936Y20873D01*
X34934Y20872D01*
X34933Y20871D01*
X34930Y20867D01*
X34926Y20864D01*
X34925Y20862D01*
X34924Y20860D01*
X34922Y20856D01*
X34919Y20852D01*
X34919Y20850D01*
X34918Y20848D01*
X34917Y20843D01*
X34915Y20839D01*
X34915Y20837D01*
X34915Y20835D01*
X34915Y20830D01*
X34914Y20825D01*
X34915Y20823D01*
X34915Y20821D01*
X34916Y20816D01*
X34916Y20812D01*
X34917Y20810D01*
X34918Y20808D01*
X34920Y20804D01*
X34922Y20799D01*
X34923Y20797D01*
X34924Y20796D01*
X34927Y20792D01*
X34930Y20788D01*
X34931Y20787D01*
X34932Y20785D01*
X34936Y20782D01*
X34940Y20779D01*
X34942Y20778D01*
X34943Y20777D01*
X34951Y20773D01*
X35008Y20749D01*
X36301Y19457D01*
X36361Y19311D01*
X36361Y14679D01*
X36361Y14678D01*
X36361Y14677D01*
X36362Y14674D01*
X36362Y14669D01*
X36362Y14667D01*
X36362Y14666D01*
X36363Y14664D01*
X36364Y14663D01*
X36364Y14661D01*
X36366Y14656D01*
X36367Y14654D01*
X36367Y14653D01*
X36370Y14648D01*
X36373Y14644D01*
X36374Y14642D01*
X36375Y14641D01*
X36376Y14640D01*
X36378Y14637D01*
X36433Y14582D01*
X36463Y14510D01*
X36463Y13829D01*
X36433Y13756D01*
X36378Y13701D01*
X36375Y13697D01*
X36371Y13693D01*
X36371Y13692D01*
X36370Y13690D01*
X36368Y13686D01*
X36365Y13681D01*
X36365Y13679D01*
X36364Y13678D01*
X36363Y13673D01*
X36362Y13668D01*
X36361Y13666D01*
X36361Y13665D01*
X36361Y13663D01*
X36361Y13659D01*
X36361Y13169D01*
X36301Y13024D01*
X33297Y10020D01*
X33177Y9900D01*
X33032Y9840D01*
X30189Y9840D01*
X30183Y9839D01*
X30178Y9839D01*
X30177Y9838D01*
X30175Y9838D01*
X30170Y9836D01*
X30165Y9835D01*
X30164Y9834D01*
X30162Y9834D01*
X30158Y9831D01*
X30153Y9828D01*
X30152Y9827D01*
X30151Y9826D01*
X30150Y9825D01*
X30147Y9823D01*
X29805Y9480D01*
X29801Y9476D01*
X29798Y9472D01*
X29797Y9471D01*
X29796Y9470D01*
X29794Y9465D01*
X29791Y9460D01*
X29791Y9459D01*
X29790Y9457D01*
X29789Y9452D01*
X29788Y9447D01*
X29788Y9445D01*
X29787Y9444D01*
X29787Y9442D01*
X29787Y9438D01*
X29787Y6610D01*
X29727Y6465D01*
X29607Y6345D01*
X29232Y5969D01*
X29228Y5965D01*
X29224Y5960D01*
X29224Y5959D01*
X29223Y5959D01*
X29221Y5953D01*
X29218Y5948D01*
X29218Y5947D01*
X29217Y5946D01*
X29217Y5945D01*
X29216Y5940D01*
X29177Y5766D01*
X29177Y5764D01*
X29176Y5762D01*
X29176Y5753D01*
X29176Y1378D01*
X29116Y1232D01*
X28571Y688D01*
X28425Y627D01*
X27165Y627D01*
X27020Y688D01*
X26307Y1400D01*
X26188Y1520D01*
X26127Y1665D01*
X26127Y1791D01*
X26127Y1797D01*
X26126Y1802D01*
X26126Y1803D01*
X26126Y1805D01*
X26124Y1810D01*
X26122Y1815D01*
X26122Y1816D01*
X26121Y1818D01*
X26118Y1822D01*
X26115Y1827D01*
X26114Y1828D01*
X26114Y1829D01*
X26113Y1830D01*
X26110Y1833D01*
X26066Y1878D01*
X26064Y1878D01*
X26064Y1879D01*
X26059Y1883D01*
X26055Y1886D01*
X26054Y1887D01*
X26053Y1887D01*
X26047Y1889D01*
X26042Y1892D01*
X26041Y1892D01*
X26040Y1893D01*
X26035Y1893D01*
X26029Y1895D01*
X26028Y1895D01*
X26027Y1895D01*
X26021Y1894D01*
X26016Y1894D01*
X26014Y1894D01*
X26013Y1894D01*
X26008Y1892D01*
X26002Y1891D01*
X26001Y1890D01*
X26000Y1890D01*
X25995Y1887D01*
X25990Y1885D01*
X25989Y1884D01*
X25988Y1883D01*
X25982Y1878D01*
X25937Y1833D01*
X25934Y1829D01*
X25930Y1825D01*
X25930Y1824D01*
X25929Y1822D01*
X25927Y1818D01*
X25924Y1813D01*
X25924Y1811D01*
X25923Y1810D01*
X25922Y1805D01*
X25921Y1800D01*
X25920Y1798D01*
X25920Y1797D01*
X25920Y1795D01*
X25920Y1791D01*
X25920Y1705D01*
X25860Y1559D01*
X25225Y924D01*
X25079Y864D01*
X16220Y864D01*
X16075Y924D01*
X15373Y1626D01*
X15360Y1656D01*
X15359Y1658D01*
X15359Y1660D01*
X15356Y1664D01*
X15354Y1668D01*
X15352Y1669D01*
X15351Y1671D01*
X15348Y1674D01*
X15344Y1678D01*
X15343Y1679D01*
X15341Y1680D01*
X15337Y1683D01*
X15333Y1686D01*
X15331Y1686D01*
X15330Y1687D01*
X15325Y1689D01*
X15320Y1690D01*
X15318Y1691D01*
X15317Y1691D01*
X15312Y1692D01*
X15307Y1692D01*
X15305Y1692D01*
X15303Y1692D01*
X15298Y1692D01*
X15293Y1691D01*
X15291Y1691D01*
X15289Y1690D01*
X15285Y1688D01*
X15280Y1687D01*
X15279Y1686D01*
X15277Y1685D01*
X15273Y1682D01*
X15269Y1680D01*
X15267Y1678D01*
X15266Y1677D01*
X15263Y1673D01*
X15259Y1670D01*
X15258Y1668D01*
X15257Y1667D01*
X15254Y1663D01*
X15252Y1659D01*
X15251Y1657D01*
X15250Y1655D01*
X15249Y1650D01*
X15248Y1646D01*
X15247Y1644D01*
X15247Y1642D01*
X15246Y1633D01*
X15246Y734D01*
X15164Y537D01*
X15130Y502D01*
X15127Y499D01*
X15124Y496D01*
X15123Y493D01*
X15121Y491D01*
X15120Y488D01*
X15117Y484D01*
X15117Y481D01*
X15115Y479D01*
X15115Y475D01*
X15113Y471D01*
X15113Y468D01*
X15113Y466D01*
X15113Y461D01*
X15112Y457D01*
X15113Y455D01*
X15113Y452D01*
X15114Y448D01*
X15115Y444D01*
X15116Y441D01*
X15116Y439D01*
X15118Y435D01*
X15120Y431D01*
X15121Y429D01*
X15123Y427D01*
X15125Y424D01*
X15128Y420D01*
X15130Y418D01*
X15132Y416D01*
X15135Y414D01*
X15138Y411D01*
X15140Y410D01*
X15143Y408D01*
X15146Y407D01*
X15150Y405D01*
X15153Y404D01*
X15155Y403D01*
X15159Y402D01*
X15163Y401D01*
X15167Y401D01*
X15169Y401D01*
X15170Y401D01*
X15172Y401D01*
X31580Y401D01*
X31584Y401D01*
X31588Y401D01*
X31591Y402D01*
X31594Y402D01*
X31598Y404D01*
X31602Y405D01*
X31604Y406D01*
X31607Y407D01*
X31610Y409D01*
X31614Y411D01*
X31616Y413D01*
X31618Y414D01*
X31621Y417D01*
X31624Y420D01*
X31626Y422D01*
X31628Y424D01*
X31630Y428D01*
X31632Y431D01*
X31633Y434D01*
X31635Y436D01*
X31636Y440D01*
X31637Y444D01*
X31638Y446D01*
X31639Y449D01*
X31639Y453D01*
X31640Y457D01*
X31639Y460D01*
X31640Y463D01*
X31639Y467D01*
X31639Y471D01*
X31638Y473D01*
X31637Y476D01*
X31636Y480D01*
X31635Y484D01*
X31633Y486D01*
X31632Y489D01*
X31630Y492D01*
X31628Y496D01*
X31625Y499D01*
X31624Y500D01*
X31623Y500D01*
X31622Y502D01*
X31548Y576D01*
X31466Y774D01*
X31466Y1667D01*
X31548Y1865D01*
X31550Y1867D01*
X31554Y1871D01*
X31557Y1875D01*
X31558Y1877D01*
X31559Y1878D01*
X31561Y1883D01*
X31564Y1887D01*
X31564Y1889D01*
X31565Y1890D01*
X31566Y1895D01*
X31567Y1901D01*
X31567Y1902D01*
X31567Y1903D01*
X31567Y1905D01*
X31568Y1909D01*
X31568Y3660D01*
X31567Y3661D01*
X31568Y3662D01*
X31567Y3666D01*
X31567Y3671D01*
X31566Y3672D01*
X31566Y3673D01*
X31565Y3675D01*
X31565Y3676D01*
X31565Y3678D01*
X31564Y3678D01*
X31563Y3684D01*
X31562Y3685D01*
X31561Y3686D01*
X31560Y3688D01*
X31558Y3691D01*
X31556Y3695D01*
X31555Y3697D01*
X31554Y3698D01*
X31553Y3699D01*
X31550Y3702D01*
X31496Y3756D01*
X31466Y3829D01*
X31466Y4510D01*
X31496Y4582D01*
X31551Y4638D01*
X31624Y4668D01*
X32305Y4668D01*
X32378Y4638D01*
X32423Y4593D01*
X32424Y4592D01*
X32425Y4591D01*
X32429Y4588D01*
X32433Y4585D01*
X32435Y4584D01*
X32436Y4583D01*
X32441Y4581D01*
X32446Y4579D01*
X32447Y4578D01*
X32448Y4578D01*
X32454Y4577D01*
X32459Y4576D01*
X32460Y4576D01*
X32462Y4576D01*
X32467Y4576D01*
X32473Y4576D01*
X32474Y4577D01*
X32475Y4577D01*
X32481Y4578D01*
X32486Y4580D01*
X32487Y4580D01*
X32488Y4581D01*
X32493Y4583D01*
X32498Y4586D01*
X32499Y4587D01*
X32500Y4587D01*
X32506Y4593D01*
X32551Y4638D01*
X32624Y4668D01*
X33305Y4668D01*
X33378Y4638D01*
X33423Y4593D01*
X33424Y4592D01*
X33425Y4591D01*
X33429Y4588D01*
X33433Y4585D01*
X33435Y4584D01*
X33436Y4583D01*
X33441Y4581D01*
X33446Y4579D01*
X33447Y4578D01*
X33448Y4578D01*
X33454Y4577D01*
X33459Y4576D01*
X33460Y4576D01*
X33462Y4576D01*
X33467Y4576D01*
X33473Y4576D01*
X33474Y4577D01*
X33475Y4577D01*
X33481Y4578D01*
X33486Y4580D01*
X33487Y4580D01*
X33488Y4581D01*
X33493Y4583D01*
X33498Y4586D01*
X33499Y4587D01*
X33500Y4587D01*
X33506Y4593D01*
X33551Y4638D01*
X33624Y4668D01*
X34305Y4668D01*
X34378Y4638D01*
X34423Y4593D01*
X34424Y4592D01*
X34425Y4591D01*
X34429Y4588D01*
X34433Y4585D01*
X34435Y4584D01*
X34436Y4583D01*
X34441Y4581D01*
X34446Y4579D01*
X34447Y4578D01*
X34448Y4578D01*
X34454Y4577D01*
X34459Y4576D01*
X34460Y4576D01*
X34462Y4576D01*
X34467Y4576D01*
X34473Y4576D01*
X34474Y4577D01*
X34475Y4577D01*
X34481Y4578D01*
X34486Y4580D01*
X34487Y4580D01*
X34488Y4581D01*
X34493Y4583D01*
X34498Y4586D01*
X34499Y4587D01*
X34500Y4587D01*
X34506Y4593D01*
X34551Y4638D01*
X34624Y4668D01*
X35305Y4668D01*
X35378Y4638D01*
X35423Y4593D01*
X35424Y4592D01*
X35425Y4591D01*
X35429Y4588D01*
X35433Y4585D01*
X35435Y4584D01*
X35436Y4583D01*
X35441Y4581D01*
X35446Y4579D01*
X35447Y4578D01*
X35448Y4578D01*
X35454Y4577D01*
X35459Y4576D01*
X35460Y4576D01*
X35462Y4576D01*
X35467Y4576D01*
X35473Y4576D01*
X35474Y4577D01*
X35475Y4577D01*
X35481Y4578D01*
X35486Y4580D01*
X35487Y4580D01*
X35488Y4581D01*
X35493Y4583D01*
X35498Y4586D01*
X35499Y4587D01*
X35500Y4587D01*
X35506Y4593D01*
X35551Y4638D01*
X35624Y4668D01*
X36305Y4668D01*
X36378Y4638D01*
X36423Y4593D01*
X36424Y4592D01*
X36425Y4591D01*
X36429Y4588D01*
X36433Y4585D01*
X36435Y4584D01*
X36436Y4583D01*
X36441Y4581D01*
X36446Y4579D01*
X36447Y4578D01*
X36448Y4578D01*
X36454Y4577D01*
X36459Y4576D01*
X36460Y4576D01*
X36462Y4576D01*
X36467Y4576D01*
X36473Y4576D01*
X36474Y4577D01*
X36475Y4577D01*
X36481Y4578D01*
X36486Y4580D01*
X36487Y4580D01*
X36488Y4581D01*
X36493Y4583D01*
X36498Y4586D01*
X36499Y4587D01*
X36500Y4587D01*
X36506Y4593D01*
X36551Y4638D01*
X36624Y4668D01*
X37305Y4668D01*
X37378Y4638D01*
X37433Y4582D01*
X37463Y4510D01*
X37463Y3829D01*
X37433Y3756D01*
X37378Y3701D01*
X37305Y3671D01*
X36624Y3671D01*
X36551Y3701D01*
X36506Y3746D01*
X36505Y3746D01*
X36505Y3747D01*
X36500Y3751D01*
X36496Y3754D01*
X36495Y3755D01*
X36494Y3755D01*
X36488Y3758D01*
X36483Y3760D01*
X36482Y3760D01*
X36481Y3761D01*
X36475Y3762D01*
X36470Y3763D01*
X36469Y3763D01*
X36467Y3763D01*
X36462Y3763D01*
X36456Y3762D01*
X36455Y3762D01*
X36454Y3762D01*
X36449Y3760D01*
X36443Y3759D01*
X36442Y3758D01*
X36441Y3758D01*
X36436Y3755D01*
X36431Y3753D01*
X36430Y3752D01*
X36429Y3751D01*
X36423Y3746D01*
X36378Y3701D01*
X36305Y3671D01*
X35624Y3671D01*
X35551Y3701D01*
X35541Y3711D01*
X35538Y3713D01*
X35535Y3716D01*
X35533Y3717D01*
X35531Y3719D01*
X35527Y3721D01*
X35524Y3723D01*
X35521Y3724D01*
X35518Y3725D01*
X35514Y3726D01*
X35511Y3727D01*
X35508Y3727D01*
X35505Y3728D01*
X35501Y3728D01*
X35497Y3728D01*
X35494Y3727D01*
X35491Y3727D01*
X35487Y3726D01*
X35483Y3726D01*
X35481Y3725D01*
X35478Y3724D01*
X35475Y3722D01*
X35471Y3721D01*
X35469Y3719D01*
X35466Y3718D01*
X35463Y3715D01*
X35460Y3713D01*
X35458Y3711D01*
X35456Y3709D01*
X35453Y3705D01*
X35451Y3702D01*
X35449Y3700D01*
X35448Y3698D01*
X35446Y3694D01*
X35444Y3690D01*
X35444Y3688D01*
X35443Y3685D01*
X35442Y3681D01*
X35441Y3677D01*
X35441Y3673D01*
X35440Y3672D01*
X35440Y3671D01*
X35440Y3669D01*
X35440Y1909D01*
X35441Y1904D01*
X35441Y1898D01*
X35442Y1897D01*
X35442Y1895D01*
X35444Y1890D01*
X35445Y1885D01*
X35446Y1884D01*
X35446Y1883D01*
X35449Y1878D01*
X35452Y1873D01*
X35453Y1872D01*
X35454Y1871D01*
X35455Y1870D01*
X35458Y1867D01*
X35460Y1865D01*
X35542Y1667D01*
X35542Y774D01*
X35460Y576D01*
X35386Y502D01*
X35383Y499D01*
X35380Y496D01*
X35379Y493D01*
X35377Y491D01*
X35375Y488D01*
X35373Y484D01*
X35373Y481D01*
X35371Y479D01*
X35371Y475D01*
X35369Y471D01*
X35369Y468D01*
X35369Y466D01*
X35369Y461D01*
X35368Y457D01*
X35369Y455D01*
X35369Y452D01*
X35370Y448D01*
X35371Y444D01*
X35372Y441D01*
X35372Y439D01*
X35374Y435D01*
X35376Y431D01*
X35377Y429D01*
X35379Y427D01*
X35381Y424D01*
X35384Y420D01*
X35386Y418D01*
X35388Y416D01*
X35391Y414D01*
X35394Y411D01*
X35396Y410D01*
X35399Y408D01*
X35402Y407D01*
X35406Y405D01*
X35409Y404D01*
X35411Y403D01*
X35415Y402D01*
X35419Y401D01*
X35423Y401D01*
X35425Y401D01*
X35426Y401D01*
X35428Y401D01*
X38910Y401D01*
X38911Y401D01*
X38913Y401D01*
X38918Y402D01*
X38924Y402D01*
X38925Y403D01*
X38926Y403D01*
X38931Y405D01*
X38936Y407D01*
X38938Y408D01*
X38939Y408D01*
X38943Y411D01*
X38948Y414D01*
X38949Y415D01*
X38950Y416D01*
X38953Y420D01*
X38957Y424D01*
X38958Y425D01*
X38959Y426D01*
X38961Y431D01*
X38964Y436D01*
X38965Y437D01*
X38965Y438D01*
X38967Y444D01*
X38968Y449D01*
X38968Y450D01*
X38969Y452D01*
X38969Y460D01*
X38969Y38910D01*
X38969Y38911D01*
X38969Y38913D01*
X38968Y38918D01*
X38968Y38924D01*
X38967Y38925D01*
X38967Y38926D01*
X38965Y38931D01*
X38963Y38936D01*
X38962Y38938D01*
X38962Y38939D01*
X38959Y38943D01*
X38956Y38948D01*
X38955Y38949D01*
X38954Y38950D01*
X38950Y38953D01*
X38946Y38957D01*
X38945Y38958D01*
X38944Y38959D01*
X38939Y38961D01*
X38934Y38964D01*
X38933Y38965D01*
X38932Y38965D01*
X38926Y38967D01*
X38921Y38968D01*
X38920Y38968D01*
X38919Y38969D01*
X38910Y38969D01*
X460Y38969D01*
X459Y38969D01*
X457Y38969D01*
X452Y38968D01*
X446Y38968D01*
X445Y38967D01*
X444Y38967D01*
X439Y38965D01*
X434Y38963D01*
X433Y38962D01*
X431Y38962D01*
X427Y38959D01*
X422Y38956D01*
X421Y38955D01*
X420Y38954D01*
X417Y38950D01*
X413Y38946D01*
X412Y38945D01*
X411Y38944D01*
X409Y38939D01*
X406Y38934D01*
X405Y38933D01*
X405Y38932D01*
X403Y38926D01*
X402Y38921D01*
X402Y38920D01*
X401Y38919D01*
X401Y38910D01*
X401Y460D01*
X401Y459D01*
X401Y457D01*
X402Y452D01*
X402Y446D01*
X403Y445D01*
X403Y444D01*
X405Y439D01*
X407Y434D01*
X408Y433D01*
X408Y431D01*
X411Y427D01*
X414Y422D01*
X415Y421D01*
X416Y420D01*
X420Y417D01*
X424Y413D01*
X425Y412D01*
X426Y411D01*
X431Y409D01*
X436Y406D01*
X437Y405D01*
X438Y405D01*
X444Y403D01*
X449Y402D01*
X450Y402D01*
X452Y401D01*
X460Y401D01*
X6383Y401D01*
X6387Y401D01*
G37*
G36*
X28163Y1421D02*
X28163Y1421D01*
X28168Y1421D01*
X28170Y1421D01*
X28171Y1422D01*
X28176Y1423D01*
X28181Y1425D01*
X28183Y1426D01*
X28184Y1426D01*
X28189Y1429D01*
X28193Y1432D01*
X28195Y1433D01*
X28196Y1434D01*
X28197Y1435D01*
X28200Y1437D01*
X28366Y1604D01*
X28368Y1607D01*
X28371Y1609D01*
X28371Y1610D01*
X28373Y1612D01*
X28373Y1613D01*
X28374Y1614D01*
X28377Y1619D01*
X28377Y1620D01*
X28378Y1621D01*
X28379Y1624D01*
X28379Y1625D01*
X28380Y1627D01*
X28381Y1632D01*
X28383Y1637D01*
X28383Y1639D01*
X28383Y1640D01*
X28383Y1641D01*
X28383Y1645D01*
X28383Y5761D01*
X28383Y5767D01*
X28382Y5772D01*
X28382Y5773D01*
X28382Y5774D01*
X28380Y5780D01*
X28378Y5785D01*
X28377Y5787D01*
X28376Y5788D01*
X28374Y5793D01*
X28260Y5970D01*
X28344Y6350D01*
X28673Y6560D01*
X28674Y6560D01*
X28676Y6560D01*
X28677Y6560D01*
X28682Y6561D01*
X28687Y6561D01*
X28689Y6561D01*
X28691Y6562D01*
X28696Y6563D01*
X28700Y6565D01*
X28702Y6566D01*
X28704Y6566D01*
X28708Y6569D01*
X28712Y6572D01*
X28714Y6573D01*
X28715Y6574D01*
X28716Y6575D01*
X28719Y6577D01*
X28977Y6836D01*
X28980Y6840D01*
X28984Y6844D01*
X28985Y6845D01*
X28986Y6847D01*
X28988Y6851D01*
X28990Y6856D01*
X28991Y6858D01*
X28991Y6859D01*
X28993Y6864D01*
X28994Y6869D01*
X28994Y6871D01*
X28994Y6872D01*
X28994Y6874D01*
X28994Y6878D01*
X28994Y10657D01*
X28994Y10662D01*
X28994Y10667D01*
X28993Y10669D01*
X28993Y10670D01*
X28991Y10675D01*
X28990Y10680D01*
X28989Y10682D01*
X28988Y10683D01*
X28985Y10688D01*
X28983Y10692D01*
X28981Y10694D01*
X28980Y10695D01*
X28977Y10699D01*
X28593Y11082D01*
X28589Y11086D01*
X28585Y11089D01*
X28584Y11090D01*
X28583Y11091D01*
X28578Y11093D01*
X28573Y11096D01*
X28572Y11096D01*
X28570Y11097D01*
X28565Y11098D01*
X28560Y11099D01*
X28558Y11099D01*
X28557Y11099D01*
X28556Y11099D01*
X28551Y11100D01*
X28315Y11100D01*
X28311Y11099D01*
X28306Y11099D01*
X28304Y11098D01*
X28302Y11098D01*
X28298Y11097D01*
X28293Y11096D01*
X28291Y11094D01*
X28289Y11094D01*
X28285Y11091D01*
X28281Y11089D01*
X28279Y11087D01*
X28277Y11086D01*
X28274Y11083D01*
X28271Y11080D01*
X28270Y11078D01*
X28268Y11076D01*
X28266Y11072D01*
X28263Y11069D01*
X28262Y11067D01*
X28261Y11064D01*
X28260Y11060D01*
X28258Y11056D01*
X28258Y11054D01*
X28257Y11051D01*
X28257Y11047D01*
X28256Y11043D01*
X28256Y11040D01*
X28256Y11038D01*
X28257Y11034D01*
X28257Y11029D01*
X28258Y11027D01*
X28258Y11024D01*
X28260Y11020D01*
X28261Y11016D01*
X28262Y11014D01*
X28263Y11012D01*
X28266Y11008D01*
X28268Y11004D01*
X28270Y11003D01*
X28271Y11001D01*
X28275Y10998D01*
X28278Y10995D01*
X28280Y10993D01*
X28282Y10992D01*
X28285Y10990D01*
X28289Y10987D01*
X28292Y10986D01*
X28294Y10985D01*
X28357Y10953D01*
X28413Y10912D01*
X28462Y10863D01*
X28503Y10807D01*
X28534Y10745D01*
X28556Y10679D01*
X28567Y10611D01*
X28567Y10335D01*
X28166Y10335D01*
X28165Y10335D01*
X28163Y10335D01*
X28158Y10335D01*
X28152Y10334D01*
X28151Y10333D01*
X28150Y10333D01*
X28145Y10331D01*
X28140Y10329D01*
X28139Y10329D01*
X28137Y10328D01*
X28133Y10325D01*
X28128Y10322D01*
X28127Y10321D01*
X28126Y10320D01*
X28123Y10316D01*
X28119Y10312D01*
X28118Y10311D01*
X28117Y10310D01*
X28115Y10305D01*
X28112Y10300D01*
X28111Y10299D01*
X28111Y10298D01*
X28109Y10292D01*
X28108Y10287D01*
X28108Y10286D01*
X28107Y10285D01*
X28107Y10276D01*
X28107Y10255D01*
X28086Y10255D01*
X28085Y10255D01*
X28083Y10255D01*
X28078Y10255D01*
X28072Y10254D01*
X28071Y10253D01*
X28070Y10253D01*
X28065Y10251D01*
X28060Y10249D01*
X28059Y10249D01*
X28057Y10248D01*
X28053Y10245D01*
X28048Y10242D01*
X28047Y10241D01*
X28046Y10240D01*
X28043Y10236D01*
X28039Y10232D01*
X28038Y10231D01*
X28037Y10230D01*
X28035Y10225D01*
X28032Y10220D01*
X28031Y10219D01*
X28031Y10218D01*
X28029Y10212D01*
X28028Y10207D01*
X28028Y10206D01*
X28027Y10205D01*
X28027Y10196D01*
X28027Y9466D01*
X28023Y9466D01*
X27957Y9488D01*
X27895Y9519D01*
X27839Y9560D01*
X27790Y9609D01*
X27749Y9665D01*
X27732Y9699D01*
X27731Y9700D01*
X27730Y9702D01*
X27727Y9706D01*
X27724Y9710D01*
X27723Y9711D01*
X27722Y9713D01*
X27718Y9716D01*
X27714Y9720D01*
X27713Y9720D01*
X27712Y9722D01*
X27707Y9724D01*
X27703Y9726D01*
X27701Y9727D01*
X27699Y9728D01*
X27694Y9729D01*
X27690Y9730D01*
X27688Y9730D01*
X27686Y9731D01*
X27681Y9731D01*
X27676Y9731D01*
X27674Y9731D01*
X27672Y9731D01*
X27667Y9730D01*
X27662Y9729D01*
X27661Y9728D01*
X27659Y9728D01*
X27655Y9725D01*
X27650Y9723D01*
X27648Y9722D01*
X27647Y9722D01*
X27643Y9718D01*
X27639Y9715D01*
X27638Y9714D01*
X27636Y9713D01*
X27633Y9709D01*
X27630Y9705D01*
X27629Y9704D01*
X27628Y9702D01*
X27624Y9695D01*
X27582Y9592D01*
X27540Y9550D01*
X27536Y9545D01*
X27533Y9541D01*
X27532Y9540D01*
X27531Y9539D01*
X27529Y9534D01*
X27526Y9529D01*
X27526Y9528D01*
X27525Y9527D01*
X27524Y9521D01*
X27523Y9516D01*
X27523Y9514D01*
X27523Y9513D01*
X27523Y9512D01*
X27522Y9508D01*
X27522Y8885D01*
X27523Y8879D01*
X27523Y8873D01*
X27524Y8872D01*
X27524Y8871D01*
X27526Y8866D01*
X27528Y8860D01*
X27528Y8859D01*
X27529Y8858D01*
X27529Y8857D01*
X27532Y8853D01*
X27645Y8676D01*
X27561Y8296D01*
X27233Y8086D01*
X27232Y8086D01*
X27230Y8086D01*
X27228Y8086D01*
X27223Y8085D01*
X27218Y8085D01*
X27216Y8084D01*
X27215Y8084D01*
X27210Y8082D01*
X27205Y8081D01*
X27204Y8080D01*
X27202Y8079D01*
X27198Y8076D01*
X27193Y8074D01*
X27191Y8072D01*
X27190Y8072D01*
X27189Y8071D01*
X27187Y8068D01*
X25830Y6711D01*
X25684Y6651D01*
X10315Y6651D01*
X10169Y6711D01*
X7361Y9520D01*
X7301Y9665D01*
X7301Y9823D01*
X7308Y9841D01*
X7308Y9842D01*
X7310Y9848D01*
X7312Y9854D01*
X7312Y9855D01*
X7312Y9863D01*
X7312Y12311D01*
X7312Y12312D01*
X7312Y12313D01*
X7312Y12315D01*
X7312Y12316D01*
X7311Y12322D01*
X7311Y12323D01*
X7311Y12324D01*
X7309Y12329D01*
X7307Y12335D01*
X7307Y12336D01*
X7306Y12337D01*
X7303Y12342D01*
X7300Y12346D01*
X7299Y12348D01*
X7299Y12349D01*
X7298Y12350D01*
X7295Y12353D01*
X7219Y12429D01*
X7204Y12466D01*
X7202Y12469D01*
X7200Y12473D01*
X7198Y12475D01*
X7197Y12478D01*
X7194Y12481D01*
X7192Y12484D01*
X7190Y12486D01*
X7188Y12488D01*
X7185Y12490D01*
X7182Y12493D01*
X7179Y12494D01*
X7177Y12496D01*
X7173Y12497D01*
X7169Y12499D01*
X7167Y12499D01*
X7164Y12500D01*
X7160Y12501D01*
X7156Y12502D01*
X7153Y12502D01*
X7150Y12502D01*
X7146Y12502D01*
X7143Y12502D01*
X7140Y12501D01*
X7137Y12501D01*
X7133Y12500D01*
X7129Y12499D01*
X7127Y12498D01*
X7124Y12497D01*
X7120Y12495D01*
X7117Y12493D01*
X7115Y12491D01*
X7112Y12490D01*
X7109Y12487D01*
X7106Y12484D01*
X7104Y12481D01*
X7103Y12480D01*
X7102Y12479D01*
X7101Y12478D01*
X7075Y12443D01*
X7022Y12389D01*
X6961Y12345D01*
X6893Y12310D01*
X6821Y12287D01*
X6806Y12285D01*
X6806Y12717D01*
X6806Y12719D01*
X6806Y12720D01*
X6805Y12726D01*
X6805Y12731D01*
X6804Y12732D01*
X6804Y12734D01*
X6802Y12739D01*
X6800Y12744D01*
X6799Y12745D01*
X6799Y12746D01*
X6796Y12751D01*
X6793Y12755D01*
X6792Y12756D01*
X6791Y12757D01*
X6787Y12761D01*
X6783Y12765D01*
X6782Y12765D01*
X6781Y12766D01*
X6776Y12769D01*
X6771Y12772D01*
X6770Y12772D01*
X6769Y12773D01*
X6763Y12774D01*
X6758Y12776D01*
X6757Y12776D01*
X6756Y12776D01*
X6747Y12777D01*
X6670Y12777D01*
X6669Y12777D01*
X6668Y12777D01*
X6662Y12776D01*
X6657Y12775D01*
X6655Y12775D01*
X6654Y12775D01*
X6649Y12772D01*
X6644Y12771D01*
X6643Y12770D01*
X6642Y12769D01*
X6637Y12766D01*
X6632Y12763D01*
X6632Y12762D01*
X6630Y12761D01*
X6627Y12757D01*
X6623Y12753D01*
X6622Y12752D01*
X6621Y12751D01*
X6619Y12746D01*
X6616Y12741D01*
X6616Y12740D01*
X6615Y12739D01*
X6614Y12734D01*
X6612Y12728D01*
X6612Y12727D01*
X6612Y12726D01*
X6611Y12717D01*
X6611Y12285D01*
X6596Y12287D01*
X6524Y12310D01*
X6457Y12345D01*
X6395Y12389D01*
X6342Y12443D01*
X6316Y12478D01*
X6314Y12481D01*
X6311Y12484D01*
X6309Y12486D01*
X6307Y12488D01*
X6304Y12490D01*
X6301Y12493D01*
X6298Y12494D01*
X6296Y12496D01*
X6292Y12497D01*
X6289Y12499D01*
X6286Y12499D01*
X6283Y12501D01*
X6279Y12501D01*
X6275Y12502D01*
X6272Y12502D01*
X6270Y12502D01*
X6266Y12502D01*
X6262Y12502D01*
X6259Y12501D01*
X6256Y12501D01*
X6252Y12500D01*
X6248Y12499D01*
X6246Y12498D01*
X6243Y12497D01*
X6240Y12495D01*
X6236Y12493D01*
X6234Y12491D01*
X6232Y12489D01*
X6229Y12487D01*
X6226Y12484D01*
X6224Y12482D01*
X6222Y12480D01*
X6220Y12476D01*
X6217Y12473D01*
X6216Y12469D01*
X6215Y12468D01*
X6214Y12467D01*
X6214Y12466D01*
X6198Y12429D01*
X6122Y12353D01*
X6119Y12349D01*
X6115Y12345D01*
X6115Y12343D01*
X6114Y12342D01*
X6112Y12337D01*
X6109Y12332D01*
X6109Y12331D01*
X6108Y12330D01*
X6107Y12324D01*
X6106Y12319D01*
X6105Y12317D01*
X6105Y12316D01*
X6105Y12315D01*
X6105Y12311D01*
X6105Y10464D01*
X6106Y10459D01*
X6106Y10454D01*
X6106Y10452D01*
X6107Y10451D01*
X6108Y10446D01*
X6110Y10441D01*
X6111Y10439D01*
X6111Y10438D01*
X6114Y10433D01*
X6117Y10429D01*
X6118Y10427D01*
X6119Y10426D01*
X6120Y10425D01*
X6122Y10422D01*
X10934Y5611D01*
X10938Y5607D01*
X10942Y5604D01*
X10944Y5603D01*
X10945Y5602D01*
X10950Y5600D01*
X10955Y5597D01*
X10956Y5597D01*
X10957Y5596D01*
X10962Y5595D01*
X10968Y5594D01*
X10970Y5594D01*
X10971Y5593D01*
X10972Y5593D01*
X10976Y5593D01*
X25669Y5593D01*
X25815Y5533D01*
X26860Y4488D01*
X26920Y4343D01*
X26920Y3248D01*
X26921Y3243D01*
X26921Y3237D01*
X26921Y3236D01*
X26922Y3235D01*
X26923Y3230D01*
X26925Y3224D01*
X26926Y3223D01*
X26926Y3222D01*
X26929Y3217D01*
X26932Y3213D01*
X26933Y3211D01*
X26934Y3210D01*
X26935Y3209D01*
X26937Y3206D01*
X26979Y3164D01*
X27022Y3061D01*
X27023Y3060D01*
X27023Y3058D01*
X27026Y3054D01*
X27029Y3049D01*
X27030Y3048D01*
X27031Y3047D01*
X27034Y3043D01*
X27038Y3039D01*
X27039Y3038D01*
X27041Y3037D01*
X27045Y3034D01*
X27049Y3032D01*
X27051Y3031D01*
X27052Y3030D01*
X27057Y3028D01*
X27062Y3027D01*
X27064Y3026D01*
X27065Y3026D01*
X27070Y3025D01*
X27075Y3025D01*
X27077Y3025D01*
X27079Y3025D01*
X27084Y3026D01*
X27089Y3026D01*
X27091Y3027D01*
X27092Y3027D01*
X27097Y3029D01*
X27102Y3030D01*
X27103Y3031D01*
X27105Y3032D01*
X27109Y3035D01*
X27113Y3037D01*
X27115Y3039D01*
X27116Y3040D01*
X27119Y3043D01*
X27123Y3047D01*
X27124Y3049D01*
X27125Y3050D01*
X27130Y3057D01*
X27147Y3091D01*
X27187Y3147D01*
X27236Y3196D01*
X27293Y3237D01*
X27354Y3268D01*
X27420Y3290D01*
X27424Y3290D01*
X27424Y2560D01*
X27425Y2558D01*
X27424Y2557D01*
X27425Y2552D01*
X27426Y2546D01*
X27426Y2545D01*
X27427Y2544D01*
X27429Y2539D01*
X27431Y2533D01*
X27431Y2532D01*
X27432Y2531D01*
X27435Y2527D01*
X27438Y2522D01*
X27439Y2521D01*
X27440Y2520D01*
X27440Y2519D01*
X27436Y2515D01*
X27436Y2514D01*
X27435Y2513D01*
X27432Y2508D01*
X27429Y2504D01*
X27429Y2502D01*
X27428Y2501D01*
X27427Y2496D01*
X27425Y2491D01*
X27425Y2489D01*
X27425Y2488D01*
X27424Y2480D01*
X27424Y1749D01*
X27420Y1750D01*
X27354Y1771D01*
X27293Y1803D01*
X27236Y1844D01*
X27187Y1893D01*
X27147Y1949D01*
X27130Y1982D01*
X27129Y1984D01*
X27128Y1985D01*
X27125Y1989D01*
X27122Y1994D01*
X27121Y1995D01*
X27120Y1996D01*
X27116Y2000D01*
X27112Y2003D01*
X27111Y2004D01*
X27109Y2005D01*
X27105Y2007D01*
X27100Y2010D01*
X27099Y2010D01*
X27097Y2011D01*
X27092Y2012D01*
X27087Y2014D01*
X27085Y2014D01*
X27084Y2014D01*
X27079Y2014D01*
X27074Y2015D01*
X27072Y2014D01*
X27070Y2014D01*
X27065Y2013D01*
X27060Y2012D01*
X27058Y2012D01*
X27057Y2011D01*
X27052Y2009D01*
X27048Y2007D01*
X27046Y2006D01*
X27045Y2005D01*
X27041Y2002D01*
X27037Y1999D01*
X27035Y1998D01*
X27034Y1996D01*
X27031Y1992D01*
X27028Y1989D01*
X27027Y1987D01*
X27026Y1986D01*
X27022Y1978D01*
X26987Y1893D01*
X26986Y1890D01*
X26985Y1887D01*
X26984Y1883D01*
X26983Y1880D01*
X26983Y1877D01*
X26982Y1873D01*
X26983Y1870D01*
X26982Y1866D01*
X26983Y1863D01*
X26983Y1860D01*
X26984Y1856D01*
X26985Y1853D01*
X26986Y1850D01*
X26987Y1847D01*
X26989Y1844D01*
X26990Y1841D01*
X26992Y1838D01*
X26994Y1835D01*
X26998Y1831D01*
X26999Y1830D01*
X26999Y1829D01*
X27000Y1829D01*
X27391Y1437D01*
X27395Y1434D01*
X27399Y1430D01*
X27400Y1430D01*
X27402Y1429D01*
X27406Y1427D01*
X27411Y1424D01*
X27413Y1424D01*
X27414Y1423D01*
X27419Y1422D01*
X27424Y1421D01*
X27426Y1420D01*
X27427Y1420D01*
X27429Y1420D01*
X27433Y1420D01*
X28158Y1420D01*
X28163Y1421D01*
G37*
%LPC*%
G36*
X37271Y36410D02*
X37271Y36410D01*
X37019Y36478D01*
X36793Y36608D01*
X36608Y36793D01*
X36478Y37019D01*
X36410Y37271D01*
X36410Y37532D01*
X36478Y37784D01*
X36608Y38010D01*
X36793Y38195D01*
X37019Y38325D01*
X37271Y38393D01*
X37532Y38393D01*
X37784Y38325D01*
X38010Y38195D01*
X38195Y38010D01*
X38325Y37784D01*
X38393Y37532D01*
X38393Y37271D01*
X38325Y37019D01*
X38195Y36793D01*
X38010Y36608D01*
X37784Y36478D01*
X37532Y36410D01*
X37271Y36410D01*
G37*
%LPD*%
%LPC*%
G36*
X16439Y27845D02*
X16439Y27845D01*
X16187Y27913D01*
X15961Y28043D01*
X15776Y28228D01*
X15646Y28454D01*
X15578Y28706D01*
X15578Y28967D01*
X15646Y29219D01*
X15776Y29445D01*
X15961Y29630D01*
X16187Y29760D01*
X16439Y29828D01*
X16700Y29828D01*
X16952Y29760D01*
X17178Y29630D01*
X17363Y29445D01*
X17493Y29219D01*
X17561Y28967D01*
X17561Y28706D01*
X17493Y28454D01*
X17363Y28228D01*
X17178Y28043D01*
X16952Y27913D01*
X16700Y27845D01*
X16439Y27845D01*
G37*
%LPD*%
%LPC*%
G36*
X4639Y34345D02*
X4639Y34345D01*
X4387Y34413D01*
X4161Y34543D01*
X3976Y34728D01*
X3846Y34954D01*
X3778Y35206D01*
X3778Y35467D01*
X3846Y35719D01*
X3976Y35945D01*
X4161Y36130D01*
X4387Y36260D01*
X4639Y36328D01*
X4900Y36328D01*
X5152Y36260D01*
X5378Y36130D01*
X5563Y35945D01*
X5693Y35719D01*
X5761Y35467D01*
X5761Y35206D01*
X5693Y34954D01*
X5563Y34728D01*
X5378Y34543D01*
X5152Y34413D01*
X4900Y34345D01*
X4639Y34345D01*
G37*
%LPD*%
%LPC*%
G36*
X1838Y977D02*
X1838Y977D01*
X1586Y1045D01*
X1360Y1175D01*
X1175Y1360D01*
X1045Y1586D01*
X977Y1838D01*
X977Y2099D01*
X1045Y2351D01*
X1175Y2577D01*
X1360Y2762D01*
X1586Y2892D01*
X1838Y2960D01*
X2099Y2960D01*
X2351Y2892D01*
X2577Y2762D01*
X2762Y2577D01*
X2892Y2351D01*
X2960Y2099D01*
X2960Y1838D01*
X2892Y1586D01*
X2762Y1360D01*
X2577Y1175D01*
X2351Y1045D01*
X2099Y977D01*
X1838Y977D01*
G37*
%LPD*%
%LPC*%
G36*
X37271Y977D02*
X37271Y977D01*
X37019Y1045D01*
X36793Y1175D01*
X36608Y1360D01*
X36478Y1586D01*
X36410Y1838D01*
X36410Y2099D01*
X36478Y2351D01*
X36608Y2577D01*
X36793Y2762D01*
X37019Y2892D01*
X37271Y2960D01*
X37532Y2960D01*
X37784Y2892D01*
X38010Y2762D01*
X38195Y2577D01*
X38325Y2351D01*
X38393Y2099D01*
X38393Y1838D01*
X38325Y1586D01*
X38195Y1360D01*
X38010Y1175D01*
X37784Y1045D01*
X37532Y977D01*
X37271Y977D01*
G37*
%LPD*%
%LPC*%
G36*
X5594Y2178D02*
X5594Y2178D01*
X5381Y2266D01*
X5219Y2429D01*
X5131Y2641D01*
X5131Y2871D01*
X5219Y3083D01*
X5381Y3246D01*
X5594Y3334D01*
X5824Y3334D01*
X6036Y3246D01*
X6198Y3083D01*
X6214Y3046D01*
X6216Y3043D01*
X6217Y3039D01*
X6219Y3037D01*
X6220Y3034D01*
X6223Y3031D01*
X6225Y3028D01*
X6228Y3026D01*
X6230Y3024D01*
X6233Y3022D01*
X6236Y3019D01*
X6238Y3018D01*
X6241Y3016D01*
X6244Y3015D01*
X6248Y3013D01*
X6251Y3012D01*
X6253Y3011D01*
X6257Y3011D01*
X6261Y3010D01*
X6264Y3010D01*
X6267Y3009D01*
X6271Y3010D01*
X6275Y3010D01*
X6278Y3010D01*
X6281Y3011D01*
X6284Y3012D01*
X6288Y3013D01*
X6291Y3014D01*
X6293Y3015D01*
X6297Y3017D01*
X6300Y3019D01*
X6303Y3021D01*
X6305Y3022D01*
X6308Y3025D01*
X6311Y3027D01*
X6314Y3031D01*
X6315Y3032D01*
X6315Y3033D01*
X6316Y3034D01*
X6342Y3069D01*
X6395Y3123D01*
X6457Y3167D01*
X6524Y3201D01*
X6596Y3225D01*
X6611Y3227D01*
X6611Y2794D01*
X6611Y2793D01*
X6611Y2792D01*
X6612Y2786D01*
X6613Y2781D01*
X6613Y2780D01*
X6613Y2778D01*
X6615Y2773D01*
X6617Y2768D01*
X6618Y2767D01*
X6618Y2766D01*
X6622Y2761D01*
X6625Y2757D01*
X6625Y2756D01*
X6623Y2753D01*
X6622Y2752D01*
X6621Y2751D01*
X6619Y2746D01*
X6616Y2741D01*
X6616Y2740D01*
X6615Y2739D01*
X6614Y2734D01*
X6612Y2728D01*
X6612Y2727D01*
X6612Y2726D01*
X6611Y2717D01*
X6611Y2285D01*
X6596Y2287D01*
X6524Y2310D01*
X6457Y2345D01*
X6395Y2389D01*
X6342Y2443D01*
X6316Y2478D01*
X6314Y2481D01*
X6311Y2484D01*
X6309Y2486D01*
X6307Y2488D01*
X6304Y2490D01*
X6301Y2493D01*
X6298Y2494D01*
X6296Y2496D01*
X6292Y2497D01*
X6289Y2499D01*
X6286Y2499D01*
X6283Y2501D01*
X6279Y2501D01*
X6275Y2502D01*
X6272Y2502D01*
X6270Y2502D01*
X6266Y2502D01*
X6262Y2502D01*
X6259Y2501D01*
X6256Y2501D01*
X6252Y2500D01*
X6248Y2499D01*
X6246Y2498D01*
X6243Y2497D01*
X6240Y2495D01*
X6236Y2493D01*
X6234Y2491D01*
X6232Y2489D01*
X6229Y2487D01*
X6226Y2484D01*
X6224Y2482D01*
X6222Y2480D01*
X6220Y2476D01*
X6217Y2473D01*
X6216Y2469D01*
X6215Y2468D01*
X6214Y2467D01*
X6214Y2466D01*
X6198Y2429D01*
X6036Y2266D01*
X5824Y2178D01*
X5594Y2178D01*
G37*
%LPD*%
%LPC*%
G36*
X5830Y16312D02*
X5830Y16312D01*
X5618Y16400D01*
X5455Y16563D01*
X5367Y16775D01*
X5367Y17005D01*
X5455Y17217D01*
X5618Y17379D01*
X5830Y17467D01*
X6060Y17467D01*
X6272Y17379D01*
X6435Y17217D01*
X6450Y17180D01*
X6452Y17176D01*
X6453Y17173D01*
X6455Y17170D01*
X6457Y17168D01*
X6459Y17165D01*
X6462Y17162D01*
X6464Y17160D01*
X6466Y17158D01*
X6469Y17156D01*
X6472Y17153D01*
X6475Y17152D01*
X6477Y17150D01*
X6481Y17149D01*
X6484Y17147D01*
X6487Y17146D01*
X6490Y17145D01*
X6494Y17145D01*
X6497Y17144D01*
X6500Y17144D01*
X6503Y17143D01*
X6507Y17144D01*
X6511Y17144D01*
X6514Y17144D01*
X6517Y17145D01*
X6520Y17146D01*
X6524Y17147D01*
X6527Y17148D01*
X6530Y17149D01*
X6533Y17151D01*
X6537Y17153D01*
X6539Y17154D01*
X6541Y17156D01*
X6544Y17159D01*
X6547Y17161D01*
X6550Y17165D01*
X6551Y17166D01*
X6553Y17168D01*
X6578Y17203D01*
X6632Y17256D01*
X6693Y17301D01*
X6760Y17335D01*
X6832Y17359D01*
X6847Y17361D01*
X6847Y16928D01*
X6847Y16927D01*
X6847Y16926D01*
X6848Y16920D01*
X6849Y16915D01*
X6849Y16913D01*
X6849Y16912D01*
X6852Y16907D01*
X6853Y16902D01*
X6854Y16901D01*
X6855Y16900D01*
X6858Y16895D01*
X6861Y16890D01*
X6862Y16890D01*
X6859Y16887D01*
X6859Y16886D01*
X6858Y16885D01*
X6855Y16880D01*
X6852Y16875D01*
X6852Y16874D01*
X6851Y16873D01*
X6850Y16868D01*
X6848Y16862D01*
X6848Y16861D01*
X6848Y16860D01*
X6847Y16851D01*
X6847Y16418D01*
X6832Y16421D01*
X6760Y16444D01*
X6693Y16479D01*
X6632Y16523D01*
X6578Y16577D01*
X6553Y16612D01*
X6550Y16614D01*
X6549Y16616D01*
X6548Y16618D01*
X6545Y16620D01*
X6543Y16622D01*
X6540Y16624D01*
X6537Y16627D01*
X6534Y16628D01*
X6532Y16630D01*
X6528Y16631D01*
X6525Y16633D01*
X6522Y16633D01*
X6519Y16634D01*
X6515Y16635D01*
X6512Y16636D01*
X6509Y16636D01*
X6506Y16636D01*
X6502Y16636D01*
X6498Y16636D01*
X6495Y16635D01*
X6492Y16635D01*
X6489Y16634D01*
X6485Y16633D01*
X6482Y16631D01*
X6479Y16631D01*
X6476Y16628D01*
X6472Y16627D01*
X6470Y16625D01*
X6468Y16623D01*
X6465Y16621D01*
X6462Y16618D01*
X6460Y16616D01*
X6458Y16614D01*
X6456Y16610D01*
X6454Y16607D01*
X6452Y16603D01*
X6451Y16602D01*
X6451Y16601D01*
X6450Y16600D01*
X6435Y16563D01*
X6272Y16400D01*
X6060Y16312D01*
X5830Y16312D01*
G37*
%LPD*%
%LPC*%
G36*
X22757Y35474D02*
X22757Y35474D01*
X22757Y36475D01*
X22758Y36474D01*
X22836Y36454D01*
X22911Y36423D01*
X22981Y36382D01*
X23045Y36333D01*
X23102Y36276D01*
X23151Y36212D01*
X23191Y36142D01*
X23222Y36068D01*
X23243Y35990D01*
X23254Y35910D01*
X23254Y35474D01*
X22757Y35474D01*
G37*
%LPD*%
%LPC*%
G36*
X22757Y35235D02*
X22757Y35235D01*
X23254Y35235D01*
X23254Y34799D01*
X23243Y34719D01*
X23222Y34641D01*
X23191Y34566D01*
X23151Y34497D01*
X23102Y34433D01*
X23045Y34375D01*
X22981Y34326D01*
X22911Y34286D01*
X22836Y34255D01*
X22758Y34234D01*
X22757Y34234D01*
X22757Y35235D01*
G37*
%LPD*%
%LPC*%
G36*
X22022Y35474D02*
X22022Y35474D01*
X22022Y35910D01*
X22033Y35990D01*
X22054Y36068D01*
X22084Y36142D01*
X22125Y36212D01*
X22174Y36276D01*
X22231Y36333D01*
X22295Y36382D01*
X22365Y36423D01*
X22439Y36454D01*
X22517Y36474D01*
X22519Y36475D01*
X22519Y35474D01*
X22022Y35474D01*
G37*
%LPD*%
%LPC*%
G36*
X22517Y34234D02*
X22517Y34234D01*
X22439Y34255D01*
X22365Y34286D01*
X22295Y34326D01*
X22231Y34375D01*
X22174Y34433D01*
X22125Y34497D01*
X22084Y34566D01*
X22054Y34641D01*
X22033Y34719D01*
X22022Y34799D01*
X22022Y35235D01*
X22519Y35235D01*
X22519Y34234D01*
X22517Y34234D01*
G37*
%LPD*%
%LPC*%
G36*
X18657Y28524D02*
X18657Y28524D01*
X18657Y29037D01*
X19083Y29037D01*
X19108Y29030D01*
X19131Y29017D01*
X19150Y28998D01*
X19163Y28976D01*
X19170Y28950D01*
X19170Y28524D01*
X18657Y28524D01*
G37*
%LPD*%
%LPC*%
G36*
X2857Y28524D02*
X2857Y28524D01*
X2857Y29037D01*
X3283Y29037D01*
X3308Y29030D01*
X3331Y29017D01*
X3350Y28998D01*
X3363Y28976D01*
X3370Y28950D01*
X3370Y28524D01*
X2857Y28524D01*
G37*
%LPD*%
%LPC*%
G36*
X17969Y28524D02*
X17969Y28524D01*
X17969Y28950D01*
X17975Y28976D01*
X17989Y28998D01*
X18007Y29017D01*
X18030Y29030D01*
X18056Y29037D01*
X18481Y29037D01*
X18481Y28524D01*
X17969Y28524D01*
G37*
%LPD*%
%LPC*%
G36*
X2169Y28524D02*
X2169Y28524D01*
X2169Y28950D01*
X2175Y28976D01*
X2189Y28998D01*
X2207Y29017D01*
X2230Y29030D01*
X2256Y29037D01*
X2681Y29037D01*
X2681Y28524D01*
X2169Y28524D01*
G37*
%LPD*%
%LPC*%
G36*
X2857Y27836D02*
X2857Y27836D01*
X2857Y28349D01*
X3370Y28349D01*
X3370Y27923D01*
X3363Y27898D01*
X3350Y27875D01*
X3331Y27856D01*
X3308Y27843D01*
X3283Y27836D01*
X2857Y27836D01*
G37*
%LPD*%
%LPC*%
G36*
X18657Y27836D02*
X18657Y27836D01*
X18657Y28349D01*
X19170Y28349D01*
X19170Y27923D01*
X19163Y27898D01*
X19150Y27875D01*
X19131Y27856D01*
X19108Y27843D01*
X19083Y27836D01*
X18657Y27836D01*
G37*
%LPD*%
%LPC*%
G36*
X2256Y27836D02*
X2256Y27836D01*
X2230Y27843D01*
X2207Y27856D01*
X2189Y27875D01*
X2175Y27898D01*
X2169Y27923D01*
X2169Y28349D01*
X2681Y28349D01*
X2681Y27836D01*
X2256Y27836D01*
G37*
%LPD*%
%LPC*%
G36*
X18056Y27836D02*
X18056Y27836D01*
X18030Y27843D01*
X18007Y27856D01*
X17989Y27875D01*
X17975Y27898D01*
X17969Y27923D01*
X17969Y28349D01*
X18481Y28349D01*
X18481Y27836D01*
X18056Y27836D01*
G37*
%LPD*%
%LPC*%
G36*
X27623Y2619D02*
X27623Y2619D01*
X27623Y3290D01*
X27627Y3290D01*
X27693Y3268D01*
X27755Y3237D01*
X27811Y3196D01*
X27860Y3147D01*
X27901Y3091D01*
X27932Y3029D01*
X27954Y2963D01*
X27964Y2894D01*
X27964Y2619D01*
X27623Y2619D01*
G37*
%LPD*%
%LPC*%
G36*
X28225Y10137D02*
X28225Y10137D01*
X28567Y10137D01*
X28567Y9862D01*
X28556Y9793D01*
X28534Y9727D01*
X28503Y9665D01*
X28462Y9609D01*
X28413Y9560D01*
X28357Y9519D01*
X28295Y9488D01*
X28229Y9466D01*
X28225Y9466D01*
X28225Y10137D01*
G37*
%LPD*%
%LPC*%
G36*
X27623Y2420D02*
X27623Y2420D01*
X27964Y2420D01*
X27964Y2145D01*
X27954Y2076D01*
X27932Y2010D01*
X27901Y1949D01*
X27860Y1893D01*
X27811Y1844D01*
X27755Y1803D01*
X27693Y1771D01*
X27627Y1750D01*
X27623Y1749D01*
X27623Y2420D01*
G37*
%LPD*%
%LPC*%
G36*
X21535Y27616D02*
X21535Y27616D01*
X21469Y27637D01*
X21407Y27669D01*
X21351Y27710D01*
X21302Y27759D01*
X21261Y27815D01*
X21229Y27877D01*
X21208Y27943D01*
X21197Y28011D01*
X21197Y28287D01*
X21539Y28287D01*
X21539Y27615D01*
X21535Y27616D01*
G37*
%LPD*%
%LPC*%
G36*
X6268Y1280D02*
X6268Y1280D01*
X6268Y1556D01*
X6279Y1624D01*
X6300Y1690D01*
X6332Y1752D01*
X6372Y1808D01*
X6422Y1857D01*
X6478Y1898D01*
X6539Y1930D01*
X6605Y1951D01*
X6609Y1952D01*
X6609Y1280D01*
X6268Y1280D01*
G37*
%LPD*%
%LPC*%
G36*
X6508Y15454D02*
X6508Y15454D01*
X6508Y15729D01*
X6519Y15798D01*
X6540Y15864D01*
X6572Y15925D01*
X6613Y15981D01*
X6662Y16031D01*
X6718Y16071D01*
X6780Y16103D01*
X6846Y16124D01*
X6850Y16125D01*
X6850Y15454D01*
X6508Y15454D01*
G37*
%LPD*%
%LPC*%
G36*
X21197Y28485D02*
X21197Y28485D01*
X21197Y28761D01*
X21208Y28829D01*
X21229Y28895D01*
X21261Y28957D01*
X21302Y29013D01*
X21351Y29062D01*
X21407Y29103D01*
X21469Y29134D01*
X21535Y29156D01*
X21539Y29156D01*
X21539Y28485D01*
X21197Y28485D01*
G37*
%LPD*%
%LPC*%
G36*
X30441Y28889D02*
X30441Y28889D01*
X30735Y28889D01*
X30735Y28667D01*
X30726Y28609D01*
X30708Y28553D01*
X30681Y28501D01*
X30647Y28454D01*
X30605Y28412D01*
X30558Y28378D01*
X30505Y28351D01*
X30449Y28333D01*
X30441Y28332D01*
X30441Y28889D01*
G37*
%LPD*%
%LPC*%
G36*
X29441Y28889D02*
X29441Y28889D01*
X29735Y28889D01*
X29735Y28667D01*
X29726Y28609D01*
X29708Y28553D01*
X29681Y28501D01*
X29647Y28454D01*
X29605Y28412D01*
X29558Y28378D01*
X29505Y28351D01*
X29449Y28333D01*
X29441Y28332D01*
X29441Y28889D01*
G37*
%LPD*%
%LPC*%
G36*
X30441Y32048D02*
X30441Y32048D01*
X30441Y32605D01*
X30449Y32604D01*
X30505Y32586D01*
X30558Y32559D01*
X30605Y32525D01*
X30647Y32483D01*
X30681Y32436D01*
X30708Y32384D01*
X30726Y32328D01*
X30735Y32270D01*
X30735Y32048D01*
X30441Y32048D01*
G37*
%LPD*%
%LPC*%
G36*
X30441Y29048D02*
X30441Y29048D01*
X30441Y29605D01*
X30449Y29604D01*
X30505Y29586D01*
X30558Y29559D01*
X30605Y29525D01*
X30647Y29483D01*
X30681Y29436D01*
X30708Y29384D01*
X30726Y29328D01*
X30735Y29270D01*
X30735Y29048D01*
X30441Y29048D01*
G37*
%LPD*%
%LPC*%
G36*
X29441Y29048D02*
X29441Y29048D01*
X29441Y29605D01*
X29449Y29604D01*
X29505Y29586D01*
X29558Y29559D01*
X29605Y29525D01*
X29647Y29483D01*
X29681Y29436D01*
X29708Y29384D01*
X29726Y29328D01*
X29735Y29270D01*
X29735Y29048D01*
X29441Y29048D01*
G37*
%LPD*%
%LPC*%
G36*
X29441Y32048D02*
X29441Y32048D01*
X29441Y32605D01*
X29449Y32604D01*
X29505Y32586D01*
X29558Y32559D01*
X29605Y32525D01*
X29647Y32483D01*
X29681Y32436D01*
X29708Y32384D01*
X29726Y32328D01*
X29735Y32270D01*
X29735Y32048D01*
X29441Y32048D01*
G37*
%LPD*%
%LPC*%
G36*
X29275Y28333D02*
X29275Y28333D01*
X29219Y28351D01*
X29167Y28378D01*
X29119Y28412D01*
X29078Y28454D01*
X29043Y28501D01*
X29017Y28553D01*
X28999Y28609D01*
X28989Y28667D01*
X28989Y28889D01*
X29283Y28889D01*
X29283Y28332D01*
X29275Y28333D01*
G37*
%LPD*%
%LPC*%
G36*
X29989Y32048D02*
X29989Y32048D01*
X29989Y32270D01*
X29999Y32328D01*
X30017Y32384D01*
X30043Y32436D01*
X30078Y32483D01*
X30119Y32525D01*
X30167Y32559D01*
X30219Y32586D01*
X30275Y32604D01*
X30283Y32605D01*
X30283Y32048D01*
X29989Y32048D01*
G37*
%LPD*%
%LPC*%
G36*
X28989Y29048D02*
X28989Y29048D01*
X28989Y29270D01*
X28999Y29328D01*
X29017Y29384D01*
X29043Y29436D01*
X29078Y29483D01*
X29119Y29525D01*
X29167Y29559D01*
X29219Y29586D01*
X29275Y29604D01*
X29283Y29605D01*
X29283Y29048D01*
X28989Y29048D01*
G37*
%LPD*%
%LPC*%
G36*
X28989Y32048D02*
X28989Y32048D01*
X28989Y32270D01*
X28999Y32328D01*
X29017Y32384D01*
X29043Y32436D01*
X29078Y32483D01*
X29119Y32525D01*
X29167Y32559D01*
X29219Y32586D01*
X29275Y32604D01*
X29283Y32605D01*
X29283Y32048D01*
X28989Y32048D01*
G37*
%LPD*%
%LPC*%
G36*
X30275Y28333D02*
X30275Y28333D01*
X30219Y28351D01*
X30167Y28378D01*
X30119Y28412D01*
X30078Y28454D01*
X30043Y28501D01*
X30017Y28553D01*
X29999Y28609D01*
X29989Y28667D01*
X29989Y28889D01*
X30283Y28889D01*
X30283Y28332D01*
X30275Y28333D01*
G37*
%LPD*%
%LPC*%
G36*
X29989Y29048D02*
X29989Y29048D01*
X29989Y29270D01*
X29999Y29328D01*
X30017Y29384D01*
X30043Y29436D01*
X30078Y29483D01*
X30119Y29525D01*
X30167Y29559D01*
X30219Y29586D01*
X30275Y29604D01*
X30283Y29605D01*
X30283Y29048D01*
X29989Y29048D01*
G37*
%LPD*%
%LPC*%
G36*
X32650Y13767D02*
X32650Y13767D01*
X32624Y13774D01*
X32602Y13787D01*
X32583Y13806D01*
X32570Y13829D01*
X32563Y13855D01*
X32563Y14081D01*
X32877Y14081D01*
X32877Y13767D01*
X32650Y13767D01*
G37*
%LPD*%
%LPC*%
G36*
X32563Y14257D02*
X32563Y14257D01*
X32563Y14484D01*
X32570Y14509D01*
X32583Y14532D01*
X32602Y14551D01*
X32624Y14564D01*
X32650Y14571D01*
X32877Y14571D01*
X32877Y14257D01*
X32563Y14257D01*
G37*
%LPD*%
%LPC*%
G36*
X33184Y18982D02*
X33184Y18982D01*
X33118Y19004D01*
X33056Y19035D01*
X32999Y19076D01*
X32950Y19125D01*
X32909Y19182D01*
X32878Y19244D01*
X32856Y19310D01*
X32856Y19314D01*
X33188Y19314D01*
X33188Y18982D01*
X33184Y18982D01*
G37*
%LPD*%
%LPC*%
G36*
X33387Y19314D02*
X33387Y19314D01*
X33719Y19314D01*
X33719Y19310D01*
X33697Y19244D01*
X33666Y19182D01*
X33625Y19125D01*
X33575Y19076D01*
X33519Y19035D01*
X33457Y19004D01*
X33391Y18982D01*
X33387Y18982D01*
X33387Y19314D01*
G37*
%LPD*%
%LPC*%
G36*
X22637Y35354D02*
X22637Y35354D01*
X22637Y35355D01*
X22639Y35355D01*
X22639Y35354D01*
X22637Y35354D01*
G37*
%LPD*%
D10*
X26362Y28697D02*
X26362Y29241D01*
X27362Y29241D02*
X27362Y28697D01*
X32362Y28697D02*
X32362Y29241D01*
X33362Y29241D02*
X33362Y28697D01*
X28362Y28697D02*
X28362Y29241D01*
X29362Y29241D02*
X29362Y28697D01*
X31362Y28697D02*
X31362Y29241D01*
X30362Y29241D02*
X30362Y28697D01*
X33362Y31697D02*
X33362Y32241D01*
X32362Y32241D02*
X32362Y31697D01*
X31362Y31697D02*
X31362Y32241D01*
X30362Y32241D02*
X30362Y31697D01*
X29362Y31697D02*
X29362Y32241D01*
X28362Y32241D02*
X28362Y31697D01*
X27362Y31697D02*
X27362Y32241D01*
X26362Y32241D02*
X26362Y31697D01*
D11*
X35004Y1560D02*
X35004Y880D01*
X34004Y880D02*
X34004Y1560D01*
X33004Y1560D02*
X33004Y880D01*
X32004Y880D02*
X32004Y1560D01*
X27524Y2180D02*
X27524Y2860D01*
X26524Y2860D02*
X26524Y2180D01*
X25524Y2180D02*
X25524Y2860D01*
X24524Y2860D02*
X24524Y2180D01*
X37377Y21413D02*
X38057Y21413D01*
X38057Y22413D02*
X37377Y22413D01*
X37377Y23413D02*
X38057Y23413D01*
X38057Y24413D02*
X37377Y24413D01*
X21638Y28046D02*
X21638Y28726D01*
X22638Y28726D02*
X22638Y28046D01*
X23638Y28046D02*
X23638Y28726D01*
D12*
X18569Y28437D03*
X18569Y35737D03*
X2769Y35737D03*
X2769Y28437D03*
D13*
X28287Y26413D03*
D14*
X28287Y25413D03*
X28287Y24413D03*
X28287Y23413D03*
X28287Y22413D03*
X28287Y21413D03*
X28287Y20413D03*
X28287Y19413D03*
X33287Y19413D03*
X33287Y20413D03*
X33287Y21413D03*
X33287Y22413D03*
X33287Y23413D03*
X33287Y24413D03*
X33287Y25413D03*
X33287Y26413D03*
D15*
X31965Y4169D03*
X32965Y4169D03*
X33965Y4169D03*
X34965Y4169D03*
X35965Y4169D03*
X36965Y4169D03*
X35965Y14169D03*
X34965Y14169D03*
X33965Y14169D03*
X32965Y14169D03*
D16*
X24606Y34839D02*
X24606Y35869D01*
X22638Y35869D02*
X22638Y34839D01*
X31417Y34721D02*
X31417Y35751D01*
X33386Y35751D02*
X33386Y34721D01*
D11*
X28126Y10576D02*
X28126Y9896D01*
X27126Y9896D02*
X27126Y10576D01*
X26126Y10576D02*
X26126Y9896D01*
D17*
X28761Y6059D03*
X27145Y8587D03*
D18*
X5945Y16890D03*
X6945Y16890D03*
X7945Y16890D03*
X8945Y16890D03*
X9945Y16890D03*
X10945Y16890D03*
X11945Y16890D03*
X12945Y16890D03*
X13945Y16890D03*
X14945Y16890D03*
X15945Y16890D03*
X16945Y16890D03*
X17945Y16890D03*
X18945Y16890D03*
X19945Y16890D03*
X5945Y26890D03*
X6945Y26890D03*
X7945Y26890D03*
X8945Y26890D03*
X9945Y26890D03*
X10945Y26890D03*
X11945Y26890D03*
X12945Y26890D03*
X13945Y26890D03*
X14945Y26890D03*
X15945Y26890D03*
X16945Y26890D03*
X17945Y26890D03*
X18945Y26890D03*
X19945Y26890D03*
X5709Y2756D03*
X6709Y2756D03*
X7709Y2756D03*
X8709Y2756D03*
X9709Y2756D03*
X10709Y2756D03*
X11709Y2756D03*
X12709Y2756D03*
X13709Y2756D03*
X14709Y2756D03*
X15709Y2756D03*
X16709Y2756D03*
X17709Y2756D03*
X18709Y2756D03*
X19709Y2756D03*
X5709Y12756D03*
X6709Y12756D03*
X7709Y12756D03*
X8709Y12756D03*
X9709Y12756D03*
X10709Y12756D03*
X11709Y12756D03*
X12709Y12756D03*
X13709Y12756D03*
X14709Y12756D03*
X15709Y12756D03*
X16709Y12756D03*
X17709Y12756D03*
X18709Y12756D03*
X19709Y12756D03*
D11*
X14709Y1521D02*
X14709Y841D01*
X13709Y841D02*
X13709Y1521D01*
X12709Y1521D02*
X12709Y841D01*
X11709Y841D02*
X11709Y1521D01*
X10709Y1521D02*
X10709Y841D01*
X9709Y841D02*
X9709Y1521D01*
X8709Y1521D02*
X8709Y841D01*
X7709Y841D02*
X7709Y1521D01*
X6709Y1521D02*
X6709Y841D01*
X11949Y15014D02*
X11949Y15694D01*
X10949Y15694D02*
X10949Y15014D01*
X9949Y15014D02*
X9949Y15694D01*
X8949Y15694D02*
X8949Y15014D01*
X7949Y15014D02*
X7949Y15694D01*
X6949Y15694D02*
X6949Y15014D01*
D19*
X28761Y6059D02*
X29391Y6689D01*
X33287Y20413D02*
X34783Y20413D01*
X35965Y19232D02*
X35965Y14169D01*
X35965Y19232D02*
X34783Y20413D01*
X35965Y14169D02*
X35965Y13248D01*
X32953Y10236D01*
X26126Y10236D02*
X26126Y11008D01*
X26614Y11496D01*
X28740Y11496D01*
X29391Y10845D01*
X29391Y9627D01*
X29391Y6689D01*
X30000Y10236D02*
X32953Y10236D01*
X30000Y10236D02*
X29391Y9627D01*
X5709Y10276D02*
X5709Y12756D01*
X10787Y5197D02*
X25591Y5197D01*
X26524Y4264D01*
X26524Y2520D01*
X10787Y5197D02*
X5709Y10276D01*
X28761Y6059D02*
X28780Y6041D01*
X28780Y1457D01*
X28346Y1024D01*
X27244Y1024D01*
X26524Y1744D01*
X26524Y2520D01*
D20*
X29362Y28969D02*
X30362Y28969D01*
D19*
X8583Y28437D02*
X2769Y28437D01*
X10630Y30484D02*
X16522Y30484D01*
X18569Y28437D01*
X10630Y30484D02*
X8583Y28437D01*
D21*
X22638Y35354D02*
X22638Y35512D01*
X21299Y36850D01*
X13701Y36850D01*
X10394Y33543D02*
X10394Y30236D01*
X8594Y28437D01*
X8583Y28437D01*
X10394Y33543D02*
X13701Y36850D01*
D19*
X18569Y28437D02*
X21587Y28437D01*
X21638Y28386D01*
X5398Y28437D02*
X2769Y28437D01*
X5398Y28437D02*
X6945Y26890D01*
D20*
X34965Y4169D02*
X35004Y4130D01*
X35004Y1220D01*
X34004Y4130D02*
X33965Y4169D01*
X34004Y4130D02*
X34004Y1220D01*
X32004Y4130D02*
X31965Y4169D01*
X32004Y4130D02*
X32004Y1220D01*
X33004Y4130D02*
X32965Y4169D01*
X33004Y4130D02*
X33004Y1220D01*
D19*
X27145Y8587D02*
X25605Y7047D01*
X10394Y7047D01*
X7697Y9744D01*
X7709Y9756D02*
X7709Y12756D01*
X7709Y9756D02*
X7697Y9744D01*
X27126Y10236D02*
X27126Y8605D01*
X27145Y8587D01*
D21*
X33362Y28969D02*
X34677Y28969D01*
X36299Y34803D02*
X33740Y37362D01*
X29843Y37362D01*
X21707Y33386D02*
X19357Y35737D01*
X18569Y35737D01*
X34677Y28969D02*
X36299Y30591D01*
X36299Y34803D01*
X29843Y37362D02*
X25866Y33386D01*
X21707Y33386D01*
D20*
X21924Y10349D02*
X15202Y10349D01*
X13752Y11799D01*
X25709Y14134D02*
X27992Y14134D01*
X25709Y14134D02*
X21924Y10349D01*
X27992Y14134D02*
X31339Y17480D01*
X32362Y28150D02*
X32362Y28969D01*
X31339Y27126D02*
X31339Y17480D01*
X31339Y27126D02*
X32362Y28150D01*
D19*
X13752Y11799D02*
X13709Y11843D01*
X13709Y12756D01*
D20*
X31362Y28969D02*
X31362Y29669D01*
X31693Y30000D02*
X34134Y30000D01*
X35512Y31378D01*
X34528Y35236D02*
X33386Y35236D01*
X31693Y30000D02*
X31362Y29669D01*
X35512Y31378D02*
X35512Y34252D01*
X34528Y35236D01*
D19*
X22717Y9606D02*
X13661Y9606D01*
X22717Y9606D02*
X25866Y12756D01*
X33965Y13571D02*
X33965Y14169D01*
X33965Y13571D02*
X33150Y12756D01*
X25866Y12756D01*
X11709Y12756D02*
X11709Y11559D01*
X13661Y9606D01*
X26142Y12126D02*
X33583Y12126D01*
X22874Y8858D02*
X13228Y8858D01*
X22874Y8858D02*
X26142Y12126D01*
X34965Y13508D02*
X34965Y14169D01*
X34965Y13508D02*
X33583Y12126D01*
X10709Y12756D02*
X10709Y11378D01*
X13228Y8858D01*
D20*
X28362Y28969D02*
X28362Y29976D01*
X33701Y31063D02*
X34173Y31535D01*
X34173Y32441D01*
X31417Y34213D02*
X31417Y35236D01*
X29449Y31063D02*
X28362Y29976D01*
X29449Y31063D02*
X33701Y31063D01*
X34173Y32441D02*
X33307Y33307D01*
X32323Y33307D01*
X31417Y34213D01*
D22*
X33287Y24413D02*
X37717Y24413D01*
X37717Y22413D02*
X33287Y22413D01*
X33287Y21413D02*
X37717Y21413D01*
D21*
X2769Y35737D02*
X2769Y36209D01*
X4198Y37638D01*
X37205Y35197D02*
X37205Y29843D01*
X35232Y27870D01*
X33996Y27870D01*
X33287Y27161D01*
X33287Y26413D01*
X37205Y35197D02*
X34261Y38140D01*
X24606Y35354D02*
X24587Y35374D01*
X24587Y36988D02*
X24587Y37028D01*
X24587Y36988D02*
X24587Y35374D01*
X24587Y36988D02*
X23937Y37638D01*
X4198Y37638D01*
X24587Y37028D02*
X25699Y38140D01*
X34261Y38140D01*
D19*
X28287Y22413D02*
X28287Y21413D01*
D20*
X24921Y19921D02*
X14213Y19921D01*
X24921Y19921D02*
X26890Y21890D01*
X27713Y26413D02*
X28287Y26413D01*
X14213Y19921D02*
X12827Y18535D01*
X26890Y21890D02*
X26890Y25591D01*
X27713Y26413D01*
X12945Y16890D02*
X12827Y17008D01*
X12827Y18535D01*
X28228Y20354D02*
X28287Y20413D01*
X28228Y20354D02*
X27047Y20354D01*
X25551Y18858D01*
X15079Y18858D01*
X13945Y17724D01*
X13945Y16890D01*
X27445Y19413D02*
X28287Y19413D01*
X25984Y17953D02*
X15394Y17953D01*
X25984Y17953D02*
X27445Y19413D01*
D19*
X15394Y17953D02*
X14945Y17504D01*
X14945Y16890D01*
D22*
X33287Y23413D02*
X37717Y23413D01*
D19*
X25524Y2520D02*
X25524Y1783D01*
X25000Y1260D01*
X16299Y1260D01*
X15673Y3343D02*
X15118Y3898D01*
X4929Y14331D02*
X2370Y11772D01*
X4929Y14331D02*
X15256Y14331D01*
X15945Y15020D02*
X15945Y16890D01*
X15945Y15020D02*
X15256Y14331D01*
X2370Y11772D02*
X2370Y5858D01*
X4331Y3898D01*
X15118Y3898D01*
X15673Y2791D02*
X15709Y2756D01*
X15673Y2791D02*
X15673Y3343D01*
X15709Y2756D02*
X15709Y1850D01*
X16299Y1260D01*
X23894Y2520D02*
X24524Y2520D01*
X23894Y2520D02*
X23264Y1890D01*
X19575Y1890D01*
X5591Y4567D02*
X3622Y6535D01*
X3622Y11772D01*
X5551Y13701D02*
X17902Y13701D01*
X17783Y4567D02*
X5591Y4567D01*
X3622Y11772D02*
X5551Y13701D01*
X18945Y14744D02*
X18945Y16890D01*
X18945Y14744D02*
X17902Y13701D01*
X17783Y4567D02*
X18713Y3638D01*
X18709Y3634D02*
X18709Y2756D01*
X18709Y3634D02*
X18713Y3638D01*
X18709Y2756D02*
X19575Y1890D01*
D20*
X29370Y18622D02*
X29370Y27039D01*
X26220Y15472D02*
X25354Y15472D01*
X21496Y11614D01*
X26220Y15472D02*
X29370Y18622D01*
X21496Y11614D02*
X15157Y11614D01*
X14752Y12020D01*
X27362Y28110D02*
X27362Y28969D01*
X28732Y27677D02*
X29370Y27039D01*
X27795Y27677D02*
X27362Y28110D01*
X27795Y27677D02*
X28732Y27677D01*
D19*
X14709Y12063D02*
X14752Y12020D01*
X14709Y12063D02*
X14709Y12756D01*
X17748Y25858D02*
X20583Y25858D01*
X22638Y27913D01*
X22638Y28386D01*
D23*
X16945Y26890D02*
X16945Y26661D01*
X17748Y25858D01*
D19*
X23638Y28386D02*
X23701Y28386D01*
X25780Y28386D01*
X26362Y28969D01*
X26362Y31969D01*
X21142Y22992D02*
X8228Y22992D01*
X21142Y22992D02*
X23701Y25551D01*
X23701Y28386D01*
X5945Y26890D02*
X5945Y25276D01*
X8228Y22992D01*
D23*
X14709Y2756D02*
X14709Y1181D01*
X13709Y1181D02*
X13709Y2756D01*
X12709Y2756D02*
X12709Y1181D01*
X11709Y1181D02*
X11709Y2756D01*
X10709Y2756D02*
X10709Y1181D01*
X9709Y1181D02*
X9709Y2756D01*
X8720Y2744D02*
X8709Y2756D01*
X8709Y2732D02*
X8709Y1181D01*
X8709Y2732D02*
X8720Y2744D01*
X7720Y2744D02*
X7709Y2756D01*
X7709Y2732D02*
X7709Y1181D01*
X7709Y2732D02*
X7720Y2744D01*
X11949Y15354D02*
X11949Y16886D01*
X11945Y16890D01*
X10949Y16886D02*
X10949Y15354D01*
X10949Y16886D02*
X10945Y16890D01*
X9949Y16886D02*
X9949Y15354D01*
X9949Y16886D02*
X9945Y16890D01*
X8949Y16886D02*
X8949Y15354D01*
X8949Y16886D02*
X8945Y16890D01*
X7949Y16886D02*
X7949Y15354D01*
X7949Y16886D02*
X7945Y16890D01*
D24*
X0Y0D02*
X39370Y0D01*
X39370Y39370D01*
X0Y39370D01*
X0Y0D01*
X37992Y37380D02*
X37989Y37338D01*
X37983Y37297D01*
X37974Y37255D01*
X37962Y37215D01*
X37948Y37175D01*
X37930Y37137D01*
X37910Y37100D01*
X37887Y37065D01*
X37862Y37031D01*
X37834Y36999D01*
X37804Y36969D01*
X37772Y36941D01*
X37739Y36916D01*
X37703Y36893D01*
X37666Y36873D01*
X37628Y36856D01*
X37588Y36841D01*
X37548Y36829D01*
X37506Y36820D01*
X37465Y36814D01*
X37423Y36811D01*
X37380Y36811D01*
X37338Y36814D01*
X37297Y36820D01*
X37255Y36829D01*
X37215Y36841D01*
X37175Y36856D01*
X37137Y36873D01*
X37100Y36893D01*
X37065Y36916D01*
X37031Y36941D01*
X36999Y36969D01*
X36969Y36999D01*
X36941Y37031D01*
X36916Y37065D01*
X36893Y37100D01*
X36873Y37137D01*
X36856Y37175D01*
X36841Y37215D01*
X36829Y37255D01*
X36820Y37297D01*
X36814Y37338D01*
X36811Y37380D01*
X36811Y37423D01*
X36814Y37465D01*
X36820Y37506D01*
X36829Y37548D01*
X36841Y37588D01*
X36856Y37628D01*
X36873Y37666D01*
X36893Y37703D01*
X36916Y37739D01*
X36941Y37772D01*
X36969Y37804D01*
X36999Y37834D01*
X37031Y37862D01*
X37065Y37887D01*
X37100Y37910D01*
X37137Y37930D01*
X37175Y37948D01*
X37215Y37962D01*
X37255Y37974D01*
X37297Y37983D01*
X37338Y37989D01*
X37380Y37992D01*
X37423Y37992D01*
X37465Y37989D01*
X37506Y37983D01*
X37548Y37974D01*
X37588Y37962D01*
X37628Y37948D01*
X37666Y37930D01*
X37703Y37910D01*
X37739Y37887D01*
X37772Y37862D01*
X37804Y37834D01*
X37834Y37804D01*
X37862Y37772D01*
X37887Y37739D01*
X37910Y37703D01*
X37930Y37666D01*
X37948Y37628D01*
X37962Y37588D01*
X37974Y37548D01*
X37983Y37506D01*
X37989Y37465D01*
X37992Y37423D01*
X37992Y37380D01*
X37992Y1947D02*
X37989Y1905D01*
X37983Y1864D01*
X37974Y1822D01*
X37962Y1782D01*
X37948Y1742D01*
X37930Y1704D01*
X37910Y1667D01*
X37887Y1631D01*
X37862Y1598D01*
X37834Y1566D01*
X37804Y1536D01*
X37772Y1508D01*
X37739Y1483D01*
X37703Y1460D01*
X37666Y1440D01*
X37628Y1423D01*
X37588Y1408D01*
X37548Y1396D01*
X37506Y1387D01*
X37465Y1381D01*
X37423Y1378D01*
X37380Y1378D01*
X37338Y1381D01*
X37297Y1387D01*
X37255Y1396D01*
X37215Y1408D01*
X37175Y1423D01*
X37137Y1440D01*
X37100Y1460D01*
X37065Y1483D01*
X37031Y1508D01*
X36999Y1536D01*
X36969Y1566D01*
X36941Y1598D01*
X36916Y1631D01*
X36893Y1667D01*
X36873Y1704D01*
X36856Y1742D01*
X36841Y1782D01*
X36829Y1822D01*
X36820Y1864D01*
X36814Y1905D01*
X36811Y1947D01*
X36811Y1990D01*
X36814Y2032D01*
X36820Y2073D01*
X36829Y2115D01*
X36841Y2155D01*
X36856Y2195D01*
X36873Y2233D01*
X36893Y2270D01*
X36916Y2306D01*
X36941Y2339D01*
X36969Y2371D01*
X36999Y2401D01*
X37031Y2429D01*
X37065Y2454D01*
X37100Y2477D01*
X37137Y2497D01*
X37175Y2514D01*
X37215Y2529D01*
X37255Y2541D01*
X37297Y2550D01*
X37338Y2556D01*
X37380Y2559D01*
X37423Y2559D01*
X37465Y2556D01*
X37506Y2550D01*
X37548Y2541D01*
X37588Y2529D01*
X37628Y2514D01*
X37666Y2497D01*
X37703Y2477D01*
X37739Y2454D01*
X37772Y2429D01*
X37804Y2401D01*
X37834Y2371D01*
X37862Y2339D01*
X37887Y2306D01*
X37910Y2270D01*
X37930Y2233D01*
X37948Y2195D01*
X37962Y2155D01*
X37974Y2115D01*
X37983Y2073D01*
X37989Y2032D01*
X37992Y1990D01*
X37992Y1947D01*
X2559Y37380D02*
X2556Y37338D01*
X2550Y37297D01*
X2541Y37255D01*
X2529Y37215D01*
X2514Y37175D01*
X2497Y37137D01*
X2477Y37100D01*
X2454Y37065D01*
X2429Y37031D01*
X2401Y36999D01*
X2371Y36969D01*
X2339Y36941D01*
X2306Y36916D01*
X2270Y36893D01*
X2233Y36873D01*
X2195Y36856D01*
X2155Y36841D01*
X2115Y36829D01*
X2073Y36820D01*
X2032Y36814D01*
X1990Y36811D01*
X1947Y36811D01*
X1905Y36814D01*
X1864Y36820D01*
X1822Y36829D01*
X1782Y36841D01*
X1742Y36856D01*
X1704Y36873D01*
X1667Y36893D01*
X1631Y36916D01*
X1598Y36941D01*
X1566Y36969D01*
X1536Y36999D01*
X1508Y37031D01*
X1483Y37065D01*
X1460Y37100D01*
X1440Y37137D01*
X1423Y37175D01*
X1408Y37215D01*
X1396Y37255D01*
X1387Y37297D01*
X1381Y37338D01*
X1378Y37380D01*
X1378Y37423D01*
X1381Y37465D01*
X1387Y37506D01*
X1396Y37548D01*
X1408Y37588D01*
X1423Y37628D01*
X1440Y37666D01*
X1460Y37703D01*
X1483Y37739D01*
X1508Y37772D01*
X1536Y37804D01*
X1566Y37834D01*
X1598Y37862D01*
X1631Y37887D01*
X1667Y37910D01*
X1704Y37930D01*
X1742Y37948D01*
X1782Y37962D01*
X1822Y37974D01*
X1864Y37983D01*
X1905Y37989D01*
X1947Y37992D01*
X1990Y37992D01*
X2032Y37989D01*
X2073Y37983D01*
X2115Y37974D01*
X2155Y37962D01*
X2195Y37948D01*
X2233Y37930D01*
X2270Y37910D01*
X2306Y37887D01*
X2339Y37862D01*
X2371Y37834D01*
X2401Y37804D01*
X2429Y37772D01*
X2454Y37739D01*
X2477Y37703D01*
X2497Y37666D01*
X2514Y37628D01*
X2529Y37588D01*
X2541Y37548D01*
X2550Y37506D01*
X2556Y37465D01*
X2559Y37423D01*
X2559Y37380D01*
X2559Y1947D02*
X2556Y1905D01*
X2550Y1864D01*
X2541Y1822D01*
X2529Y1782D01*
X2514Y1742D01*
X2497Y1704D01*
X2477Y1667D01*
X2454Y1631D01*
X2429Y1598D01*
X2401Y1566D01*
X2371Y1536D01*
X2339Y1508D01*
X2306Y1483D01*
X2270Y1460D01*
X2233Y1440D01*
X2195Y1423D01*
X2155Y1408D01*
X2115Y1396D01*
X2073Y1387D01*
X2032Y1381D01*
X1990Y1378D01*
X1947Y1378D01*
X1905Y1381D01*
X1864Y1387D01*
X1822Y1396D01*
X1782Y1408D01*
X1742Y1423D01*
X1704Y1440D01*
X1667Y1460D01*
X1631Y1483D01*
X1598Y1508D01*
X1566Y1536D01*
X1536Y1566D01*
X1508Y1598D01*
X1483Y1631D01*
X1460Y1667D01*
X1440Y1704D01*
X1423Y1742D01*
X1408Y1782D01*
X1396Y1822D01*
X1387Y1864D01*
X1381Y1905D01*
X1378Y1947D01*
X1378Y1990D01*
X1381Y2032D01*
X1387Y2073D01*
X1396Y2115D01*
X1408Y2155D01*
X1423Y2195D01*
X1440Y2233D01*
X1460Y2270D01*
X1483Y2306D01*
X1508Y2339D01*
X1536Y2371D01*
X1566Y2401D01*
X1598Y2429D01*
X1631Y2454D01*
X1667Y2477D01*
X1704Y2497D01*
X1742Y2514D01*
X1782Y2529D01*
X1822Y2541D01*
X1864Y2550D01*
X1905Y2556D01*
X1947Y2559D01*
X1990Y2559D01*
X2032Y2556D01*
X2073Y2550D01*
X2115Y2541D01*
X2155Y2529D01*
X2195Y2514D01*
X2233Y2497D01*
X2270Y2477D01*
X2306Y2454D01*
X2339Y2429D01*
X2371Y2401D01*
X2401Y2371D01*
X2429Y2339D01*
X2454Y2306D01*
X2477Y2270D01*
X2497Y2233D01*
X2514Y2195D01*
X2529Y2155D01*
X2541Y2115D01*
X2550Y2073D01*
X2556Y2032D01*
X2559Y1990D01*
X2559Y1947D01*
X5360Y35316D02*
X5357Y35273D01*
X5351Y35232D01*
X5342Y35190D01*
X5330Y35150D01*
X5315Y35110D01*
X5298Y35072D01*
X5277Y35035D01*
X5255Y35000D01*
X5229Y34966D01*
X5202Y34934D01*
X5172Y34904D01*
X5140Y34876D01*
X5106Y34851D01*
X5071Y34828D01*
X5034Y34808D01*
X4995Y34791D01*
X4956Y34776D01*
X4915Y34764D01*
X4874Y34755D01*
X4832Y34749D01*
X4790Y34746D01*
X4748Y34746D01*
X4706Y34749D01*
X4664Y34755D01*
X4623Y34764D01*
X4583Y34776D01*
X4543Y34791D01*
X4505Y34808D01*
X4468Y34828D01*
X4432Y34851D01*
X4399Y34876D01*
X4367Y34904D01*
X4337Y34934D01*
X4309Y34966D01*
X4284Y35000D01*
X4261Y35035D01*
X4241Y35072D01*
X4223Y35110D01*
X4209Y35150D01*
X4197Y35190D01*
X4188Y35232D01*
X4182Y35273D01*
X4179Y35316D01*
X4179Y35358D01*
X4182Y35400D01*
X4188Y35442D01*
X4197Y35483D01*
X4209Y35523D01*
X4223Y35563D01*
X4241Y35601D01*
X4261Y35638D01*
X4284Y35674D01*
X4309Y35707D01*
X4337Y35739D01*
X4367Y35769D01*
X4399Y35797D01*
X4432Y35822D01*
X4468Y35845D01*
X4505Y35865D01*
X4543Y35883D01*
X4583Y35897D01*
X4623Y35909D01*
X4664Y35918D01*
X4706Y35924D01*
X4748Y35927D01*
X4790Y35927D01*
X4832Y35924D01*
X4874Y35918D01*
X4915Y35909D01*
X4956Y35897D01*
X4995Y35883D01*
X5034Y35865D01*
X5071Y35845D01*
X5106Y35822D01*
X5140Y35797D01*
X5172Y35769D01*
X5202Y35739D01*
X5229Y35707D01*
X5255Y35674D01*
X5277Y35638D01*
X5298Y35601D01*
X5315Y35563D01*
X5330Y35523D01*
X5342Y35483D01*
X5351Y35442D01*
X5357Y35400D01*
X5360Y35358D01*
X5360Y35316D01*
X17160Y28816D02*
X17157Y28773D01*
X17151Y28732D01*
X17142Y28690D01*
X17130Y28650D01*
X17115Y28610D01*
X17098Y28572D01*
X17077Y28535D01*
X17055Y28500D01*
X17029Y28466D01*
X17002Y28434D01*
X16972Y28404D01*
X16940Y28376D01*
X16906Y28351D01*
X16871Y28328D01*
X16834Y28308D01*
X16795Y28291D01*
X16756Y28276D01*
X16715Y28264D01*
X16674Y28255D01*
X16632Y28249D01*
X16590Y28246D01*
X16548Y28246D01*
X16506Y28249D01*
X16464Y28255D01*
X16423Y28264D01*
X16383Y28276D01*
X16343Y28291D01*
X16305Y28308D01*
X16268Y28328D01*
X16232Y28351D01*
X16199Y28376D01*
X16167Y28404D01*
X16137Y28434D01*
X16109Y28466D01*
X16084Y28500D01*
X16061Y28535D01*
X16041Y28572D01*
X16023Y28610D01*
X16009Y28650D01*
X15997Y28690D01*
X15988Y28732D01*
X15982Y28773D01*
X15979Y28816D01*
X15979Y28858D01*
X15982Y28900D01*
X15988Y28942D01*
X15997Y28983D01*
X16009Y29023D01*
X16023Y29063D01*
X16041Y29101D01*
X16061Y29138D01*
X16084Y29174D01*
X16109Y29207D01*
X16137Y29239D01*
X16167Y29269D01*
X16199Y29297D01*
X16232Y29322D01*
X16268Y29345D01*
X16305Y29365D01*
X16343Y29383D01*
X16383Y29397D01*
X16423Y29409D01*
X16464Y29418D01*
X16506Y29424D01*
X16548Y29427D01*
X16590Y29427D01*
X16632Y29424D01*
X16674Y29418D01*
X16715Y29409D01*
X16756Y29397D01*
X16795Y29383D01*
X16834Y29365D01*
X16871Y29345D01*
X16906Y29322D01*
X16940Y29297D01*
X16972Y29269D01*
X17002Y29239D01*
X17029Y29207D01*
X17055Y29174D01*
X17077Y29138D01*
X17098Y29101D01*
X17115Y29063D01*
X17130Y29023D01*
X17142Y28983D01*
X17151Y28942D01*
X17157Y28900D01*
X17160Y28858D01*
X17160Y28816D01*
M02*
