M48
FMAT,2
INCH,TZ,000.000
T8C0.032
T7C0.035
T6C0.039
T5C0.040
T4C0.040
T3C0.063
T2C0.118
%
G90
M72
T2
X1657Y2884
X3740Y3740
X3740Y197
X197Y3740
X197Y197
X477Y3534
T3
X3142Y3524
X3339Y3524
X2264Y3535
X2461Y3535
T4
X2829Y2241
X2829Y2141
X2829Y2041
X2829Y1941
X3329Y1941
X3329Y2041
X3329Y2141
X3329Y2241
X3329Y2341
X3329Y2441
X3329Y2541
X3329Y2641
X2829Y2341
X2829Y2641
X2829Y2541
X2829Y2441
T5
X871Y118
X695Y1535
X795Y1535
X895Y1535
X995Y1535
X1095Y1535
X1195Y1535
X671Y118
X771Y118
X2813Y1024
X971Y118
X1071Y118
X1171Y118
X1271Y118
X1371Y118
X1471Y118
X2613Y1024
X2713Y1024
X3772Y2241
X2652Y252
X2752Y252
X3200Y122
X3300Y122
X3400Y122
X2552Y252
X2452Y252
X3772Y2141
X3772Y2341
X3772Y2441
X2164Y2839
X2264Y2839
X2364Y2839
X3500Y122
T6
X1594Y2689
X1694Y2689
X994Y2689
X1794Y2689
X1894Y2689
X1494Y2689
X1394Y2689
X1294Y2689
X1194Y2689
X1094Y2689
X1994Y1689
X894Y2689
X794Y2689
X694Y2689
X594Y2689
X1194Y1689
X1994Y2689
X571Y276
X671Y276
X771Y276
X871Y276
X971Y276
X1071Y276
X1171Y276
X1271Y276
X1371Y276
X1471Y276
X1571Y276
X1671Y276
X1771Y276
X1871Y276
X571Y1276
X1971Y1276
X1871Y1276
X1771Y1276
X1671Y1276
X1571Y1276
X1471Y1276
X1371Y1276
X1271Y1276
X1171Y1276
X1071Y1276
X971Y1276
X871Y1276
X771Y1276
X671Y1276
X1894Y1689
X1971Y276
X594Y1689
X694Y1689
X794Y1689
X894Y1689
X994Y1689
X1094Y1689
X1294Y1689
X1394Y1689
X1494Y1689
X1594Y1689
X1694Y1689
X1794Y1689
T7
X277Y3574
X3296Y1417
X3396Y1417
X3496Y1417
X3596Y1417
X3696Y417
X3596Y417
X3496Y417
X3396Y417
X3296Y417
X3196Y417
X1857Y2844
X1857Y3574
X277Y2844
T8
X2836Y2897
X3036Y2897
X2936Y2897
X3136Y2897
X2636Y2897
X3336Y2897
X3236Y2897
X2736Y2897
X2714Y859
X3336Y3197
X3236Y3197
X3136Y3197
X3036Y3197
X2936Y3197
X2836Y3197
X2736Y3197
X2636Y3197
X2876Y606
M30
