G04 EAGLE Gerber RS-274X export*
G75*
%MOIN*%
%FSLAX34Y34*%
%LPD*%
%INSilkscreen Top*%
%IPPOS*%
%AMOC8*
5,1,8,0,0,1.08239X$1,22.5*%
G01*
%ADD10C,0.006000*%
%ADD11C,0.005000*%
%ADD12C,0.004000*%
%ADD13C,0.003000*%
%ADD14C,0.008000*%
%ADD15C,0.007874*%
%ADD16R,0.015000X0.020000*%
%ADD17C,0.016000*%
%ADD18C,0.010000*%


D10*
X33862Y31619D02*
X25862Y31619D01*
X25862Y29319D02*
X33862Y29319D01*
X33862Y31619D01*
X25862Y31619D02*
X25862Y30869D01*
X25862Y30069D02*
X25862Y29319D01*
X25862Y30069D02*
X25901Y30071D01*
X25940Y30077D01*
X25978Y30086D01*
X26015Y30099D01*
X26051Y30116D01*
X26084Y30136D01*
X26116Y30160D01*
X26145Y30186D01*
X26171Y30215D01*
X26195Y30247D01*
X26215Y30280D01*
X26232Y30316D01*
X26245Y30353D01*
X26254Y30391D01*
X26260Y30430D01*
X26262Y30469D01*
X26260Y30508D01*
X26254Y30547D01*
X26245Y30585D01*
X26232Y30622D01*
X26215Y30658D01*
X26195Y30691D01*
X26171Y30723D01*
X26145Y30752D01*
X26116Y30778D01*
X26084Y30802D01*
X26051Y30822D01*
X26015Y30839D01*
X25978Y30852D01*
X25940Y30861D01*
X25901Y30867D01*
X25862Y30869D01*
D11*
X25687Y29344D02*
X25237Y29344D01*
X25687Y29344D02*
X25687Y29544D01*
X25350Y29968D02*
X25330Y29966D01*
X25311Y29961D01*
X25294Y29953D01*
X25277Y29942D01*
X25263Y29928D01*
X25252Y29912D01*
X25244Y29894D01*
X25239Y29875D01*
X25237Y29855D01*
X25239Y29832D01*
X25244Y29810D01*
X25253Y29789D01*
X25265Y29770D01*
X25280Y29752D01*
X25297Y29738D01*
X25316Y29726D01*
X25337Y29717D01*
X25438Y29930D02*
X25423Y29943D01*
X25407Y29954D01*
X25389Y29962D01*
X25370Y29966D01*
X25350Y29968D01*
X25437Y29930D02*
X25687Y29718D01*
X25687Y29968D01*
X25487Y30268D02*
X25487Y30418D01*
X25487Y30268D02*
X25485Y30251D01*
X25481Y30234D01*
X25474Y30218D01*
X25464Y30204D01*
X25451Y30191D01*
X25437Y30181D01*
X25421Y30174D01*
X25404Y30170D01*
X25387Y30168D01*
X25362Y30168D01*
X25341Y30170D01*
X25321Y30175D01*
X25303Y30183D01*
X25285Y30194D01*
X25270Y30208D01*
X25257Y30225D01*
X25248Y30243D01*
X25241Y30262D01*
X25237Y30283D01*
X25237Y30303D01*
X25241Y30324D01*
X25248Y30343D01*
X25257Y30361D01*
X25270Y30378D01*
X25285Y30392D01*
X25303Y30403D01*
X25321Y30411D01*
X25341Y30416D01*
X25362Y30418D01*
X25487Y30418D01*
X25513Y30416D01*
X25539Y30411D01*
X25564Y30403D01*
X25587Y30391D01*
X25609Y30377D01*
X25628Y30359D01*
X25646Y30340D01*
X25660Y30318D01*
X25672Y30295D01*
X25680Y30270D01*
X25685Y30244D01*
X25687Y30218D01*
X25687Y30618D02*
X25687Y30743D01*
X25685Y30764D01*
X25680Y30784D01*
X25672Y30802D01*
X25661Y30820D01*
X25647Y30835D01*
X25630Y30848D01*
X25612Y30857D01*
X25593Y30864D01*
X25572Y30868D01*
X25552Y30868D01*
X25531Y30864D01*
X25512Y30857D01*
X25494Y30848D01*
X25477Y30835D01*
X25463Y30820D01*
X25452Y30802D01*
X25444Y30784D01*
X25439Y30764D01*
X25437Y30743D01*
X25237Y30768D02*
X25237Y30618D01*
X25237Y30768D02*
X25239Y30786D01*
X25244Y30804D01*
X25252Y30821D01*
X25263Y30835D01*
X25277Y30848D01*
X25292Y30858D01*
X25310Y30864D01*
X25328Y30868D01*
X25346Y30868D01*
X25364Y30864D01*
X25382Y30858D01*
X25397Y30848D01*
X25411Y30835D01*
X25422Y30821D01*
X25430Y30804D01*
X25435Y30786D01*
X25437Y30768D01*
X25437Y30668D01*
X25237Y31083D02*
X25687Y31083D01*
X25237Y31083D02*
X25237Y31208D01*
X25239Y31228D01*
X25243Y31247D01*
X25251Y31265D01*
X25261Y31281D01*
X25274Y31296D01*
X25289Y31309D01*
X25305Y31319D01*
X25323Y31327D01*
X25342Y31331D01*
X25362Y31333D01*
X25562Y31333D01*
X25582Y31331D01*
X25601Y31327D01*
X25619Y31319D01*
X25635Y31309D01*
X25650Y31296D01*
X25663Y31281D01*
X25673Y31265D01*
X25681Y31247D01*
X25685Y31228D01*
X25687Y31208D01*
X25687Y31083D01*
D10*
X34754Y720D02*
X35254Y720D01*
X34754Y720D02*
X34504Y970D01*
X34504Y1470D02*
X34754Y1720D01*
X34504Y970D02*
X34254Y720D01*
X33754Y720D01*
X33504Y970D01*
X33504Y1470D02*
X33754Y1720D01*
X34254Y1720D01*
X34504Y1470D01*
X35504Y1470D02*
X35504Y970D01*
X35254Y720D01*
X35504Y1470D02*
X35254Y1720D01*
X34754Y1720D01*
X33504Y970D02*
X33254Y720D01*
X32754Y720D01*
X32504Y970D01*
X32504Y1470D02*
X32754Y1720D01*
X33254Y1720D01*
X33504Y1470D01*
X32254Y720D02*
X31754Y720D01*
X31504Y970D01*
X31504Y1470D01*
X31754Y1720D01*
X32504Y970D02*
X32254Y720D01*
X32504Y1470D02*
X32254Y1720D01*
X31754Y1720D01*
D11*
X35679Y1345D02*
X35804Y1445D01*
X35804Y995D01*
X35679Y995D02*
X35929Y995D01*
X31229Y1445D02*
X31129Y1095D01*
X31379Y1095D01*
X31304Y1195D02*
X31304Y995D01*
X31187Y95D02*
X31087Y95D01*
X31070Y97D01*
X31053Y101D01*
X31037Y108D01*
X31023Y118D01*
X31010Y131D01*
X31000Y145D01*
X30993Y161D01*
X30989Y178D01*
X30987Y195D01*
X30987Y445D01*
X30989Y462D01*
X30993Y479D01*
X31000Y495D01*
X31010Y509D01*
X31023Y522D01*
X31037Y532D01*
X31053Y539D01*
X31070Y543D01*
X31087Y545D01*
X31187Y545D01*
X31380Y95D02*
X31580Y95D01*
X31380Y95D02*
X31380Y545D01*
X31580Y545D01*
X31530Y345D02*
X31380Y345D01*
X31770Y545D02*
X31770Y95D01*
X31970Y95D01*
X32159Y95D02*
X32159Y545D01*
X32284Y545D01*
X32304Y543D01*
X32323Y539D01*
X32341Y531D01*
X32357Y521D01*
X32372Y508D01*
X32385Y493D01*
X32395Y477D01*
X32403Y459D01*
X32407Y440D01*
X32409Y420D01*
X32409Y220D01*
X32407Y200D01*
X32403Y181D01*
X32395Y163D01*
X32385Y147D01*
X32372Y132D01*
X32357Y119D01*
X32341Y109D01*
X32323Y101D01*
X32304Y97D01*
X32284Y95D01*
X32159Y95D01*
X32599Y95D02*
X32749Y545D01*
X32899Y95D01*
X32861Y208D02*
X32636Y208D01*
X33054Y45D02*
X33254Y45D01*
X33532Y95D02*
X33632Y95D01*
X33532Y95D02*
X33515Y97D01*
X33498Y101D01*
X33482Y108D01*
X33468Y118D01*
X33455Y131D01*
X33445Y145D01*
X33438Y161D01*
X33434Y178D01*
X33432Y195D01*
X33432Y445D01*
X33434Y462D01*
X33438Y479D01*
X33445Y495D01*
X33455Y509D01*
X33468Y522D01*
X33482Y532D01*
X33498Y539D01*
X33515Y543D01*
X33532Y545D01*
X33632Y545D01*
X33934Y545D02*
X33784Y95D01*
X34084Y95D02*
X33934Y545D01*
X34046Y208D02*
X33821Y208D01*
X34277Y95D02*
X34277Y545D01*
X34402Y545D01*
X34423Y543D01*
X34443Y538D01*
X34461Y530D01*
X34479Y519D01*
X34494Y505D01*
X34507Y488D01*
X34516Y470D01*
X34523Y451D01*
X34527Y430D01*
X34527Y410D01*
X34523Y389D01*
X34516Y370D01*
X34507Y352D01*
X34494Y335D01*
X34479Y321D01*
X34461Y310D01*
X34443Y302D01*
X34423Y297D01*
X34402Y295D01*
X34277Y295D01*
X34427Y295D02*
X34527Y95D01*
X34914Y345D02*
X34989Y345D01*
X34989Y95D01*
X34839Y95D01*
X34822Y97D01*
X34805Y101D01*
X34789Y108D01*
X34775Y118D01*
X34762Y131D01*
X34752Y145D01*
X34745Y161D01*
X34741Y178D01*
X34739Y195D01*
X34739Y445D01*
X34741Y462D01*
X34745Y479D01*
X34752Y495D01*
X34762Y509D01*
X34775Y522D01*
X34789Y532D01*
X34805Y539D01*
X34822Y543D01*
X34839Y545D01*
X34989Y545D01*
X35329Y545D02*
X35179Y95D01*
X35479Y95D02*
X35329Y545D01*
X35441Y208D02*
X35216Y208D01*
D10*
X27774Y2020D02*
X27274Y2020D01*
X27024Y2270D01*
X27024Y2770D02*
X27274Y3020D01*
X27024Y2270D02*
X26774Y2020D01*
X26274Y2020D01*
X26024Y2270D01*
X26024Y2770D02*
X26274Y3020D01*
X26774Y3020D01*
X27024Y2770D01*
X28024Y2770D02*
X28024Y2270D01*
X27774Y2020D01*
X28024Y2770D02*
X27774Y3020D01*
X27274Y3020D01*
X26024Y2270D02*
X25774Y2020D01*
X25274Y2020D01*
X25024Y2270D01*
X25024Y2770D02*
X25274Y3020D01*
X25774Y3020D01*
X26024Y2770D01*
X24774Y2020D02*
X24274Y2020D01*
X24024Y2270D01*
X24024Y2770D01*
X24274Y3020D01*
X25024Y2270D02*
X24774Y2020D01*
X25024Y2770D02*
X24774Y3020D01*
X24274Y3020D01*
D11*
X28199Y2645D02*
X28324Y2745D01*
X28324Y2295D01*
X28199Y2295D02*
X28449Y2295D01*
X23749Y2745D02*
X23649Y2395D01*
X23899Y2395D01*
X23824Y2495D02*
X23824Y2295D01*
X24746Y1845D02*
X24746Y1395D01*
X24746Y1845D02*
X24871Y1845D01*
X24892Y1843D01*
X24912Y1838D01*
X24930Y1830D01*
X24948Y1819D01*
X24963Y1805D01*
X24976Y1788D01*
X24985Y1770D01*
X24992Y1751D01*
X24996Y1730D01*
X24996Y1710D01*
X24992Y1689D01*
X24985Y1670D01*
X24976Y1652D01*
X24963Y1635D01*
X24948Y1621D01*
X24930Y1610D01*
X24912Y1602D01*
X24892Y1597D01*
X24871Y1595D01*
X24746Y1595D01*
X25149Y1395D02*
X25299Y1845D01*
X25449Y1395D01*
X25411Y1507D02*
X25186Y1507D01*
X25639Y1395D02*
X25639Y1845D01*
X25889Y1395D01*
X25889Y1845D01*
X26199Y1845D02*
X26199Y1395D01*
X26074Y1845D02*
X26324Y1845D01*
X26619Y1845D02*
X26469Y1395D01*
X26769Y1395D02*
X26619Y1845D01*
X26731Y1507D02*
X26506Y1507D01*
X26960Y1395D02*
X26960Y1845D01*
X26960Y1395D02*
X27160Y1395D01*
X27350Y1395D02*
X27350Y1845D01*
X27350Y1395D02*
X27550Y1395D01*
X27699Y1395D02*
X27849Y1845D01*
X27999Y1395D01*
X27961Y1507D02*
X27736Y1507D01*
D10*
X37217Y21163D02*
X37217Y21663D01*
X37467Y21913D01*
X37967Y21913D02*
X38217Y21663D01*
X37467Y21913D02*
X37217Y22163D01*
X37217Y22663D01*
X37467Y22913D01*
X37967Y22913D02*
X38217Y22663D01*
X38217Y22163D01*
X37967Y21913D01*
X37967Y20913D02*
X37467Y20913D01*
X37217Y21163D01*
X37967Y20913D02*
X38217Y21163D01*
X38217Y21663D01*
X37467Y22913D02*
X37217Y23163D01*
X37217Y23663D01*
X37467Y23913D01*
X37967Y23913D02*
X38217Y23663D01*
X38217Y23163D01*
X37967Y22913D01*
X37217Y24163D02*
X37217Y24663D01*
X37467Y24913D01*
X37967Y24913D01*
X38217Y24663D01*
X37467Y23913D02*
X37217Y24163D01*
X37967Y23913D02*
X38217Y24163D01*
X38217Y24663D01*
D11*
X37492Y20613D02*
X37592Y20488D01*
X37492Y20613D02*
X37942Y20613D01*
X37942Y20488D02*
X37942Y20738D01*
X37842Y25038D02*
X37492Y25138D01*
X37842Y25038D02*
X37842Y25288D01*
X37742Y25213D02*
X37942Y25213D01*
X37042Y20938D02*
X36592Y20938D01*
X37042Y21188D01*
X36592Y21188D01*
X37042Y21419D02*
X37042Y21619D01*
X37042Y21419D02*
X36592Y21419D01*
X36592Y21619D01*
X36792Y21569D02*
X36792Y21419D01*
X36592Y21813D02*
X37042Y21813D01*
X36842Y21963D02*
X36592Y21813D01*
X36842Y21963D02*
X36592Y22113D01*
X37042Y22113D01*
X37042Y22308D02*
X36592Y22458D01*
X37042Y22608D01*
X36929Y22571D02*
X36929Y22346D01*
X36692Y22783D02*
X36592Y22908D01*
X37042Y22908D01*
X37042Y22783D02*
X37042Y23033D01*
X36642Y23233D02*
X36592Y23233D01*
X36592Y23483D01*
X37042Y23358D01*
D10*
X21888Y28886D02*
X21388Y28886D01*
X21888Y28886D02*
X22138Y28636D01*
X22138Y28136D02*
X21888Y27886D01*
X22138Y28636D02*
X22388Y28886D01*
X22888Y28886D01*
X23138Y28636D01*
X23138Y28136D02*
X22888Y27886D01*
X22388Y27886D01*
X22138Y28136D01*
X21138Y28136D02*
X21138Y28636D01*
X21388Y28886D01*
X21138Y28136D02*
X21388Y27886D01*
X21888Y27886D01*
X23138Y28636D02*
X23388Y28886D01*
X23888Y28886D01*
X24138Y28636D01*
X24138Y28136D02*
X23888Y27886D01*
X23388Y27886D01*
X23138Y28136D01*
X24138Y28136D02*
X24138Y28636D01*
D11*
X20788Y28611D02*
X20663Y28511D01*
X20788Y28611D02*
X20788Y28161D01*
X20663Y28161D02*
X20913Y28161D01*
X21163Y29061D02*
X21163Y29511D01*
X21163Y29311D02*
X21413Y29311D01*
X21413Y29511D02*
X21413Y29061D01*
X21726Y29061D02*
X21826Y29061D01*
X21726Y29061D02*
X21709Y29063D01*
X21692Y29067D01*
X21676Y29074D01*
X21662Y29084D01*
X21649Y29097D01*
X21639Y29111D01*
X21632Y29127D01*
X21628Y29144D01*
X21626Y29161D01*
X21626Y29411D01*
X21628Y29428D01*
X21632Y29445D01*
X21639Y29461D01*
X21649Y29475D01*
X21662Y29488D01*
X21676Y29498D01*
X21692Y29505D01*
X21709Y29509D01*
X21726Y29511D01*
X21826Y29511D01*
X22041Y29449D02*
X22027Y29418D01*
X22017Y29386D01*
X22009Y29353D01*
X22005Y29320D01*
X22003Y29286D01*
X22040Y29448D02*
X22047Y29463D01*
X22056Y29477D01*
X22067Y29489D01*
X22081Y29498D01*
X22096Y29505D01*
X22112Y29510D01*
X22128Y29511D01*
X22144Y29510D01*
X22160Y29505D01*
X22175Y29498D01*
X22189Y29489D01*
X22200Y29477D01*
X22209Y29463D01*
X22216Y29448D01*
X22215Y29449D02*
X22229Y29418D01*
X22239Y29386D01*
X22247Y29353D01*
X22251Y29320D01*
X22253Y29286D01*
X22003Y29286D02*
X22005Y29252D01*
X22009Y29219D01*
X22017Y29186D01*
X22027Y29154D01*
X22041Y29123D01*
X22040Y29123D02*
X22047Y29108D01*
X22056Y29094D01*
X22067Y29082D01*
X22081Y29073D01*
X22096Y29066D01*
X22112Y29061D01*
X22128Y29060D01*
X22215Y29123D02*
X22229Y29154D01*
X22239Y29186D01*
X22247Y29219D01*
X22251Y29252D01*
X22253Y29286D01*
X22216Y29123D02*
X22209Y29108D01*
X22200Y29094D01*
X22189Y29082D01*
X22175Y29073D01*
X22160Y29066D01*
X22144Y29061D01*
X22128Y29060D01*
X22028Y29161D02*
X22228Y29411D01*
X22590Y29511D02*
X22610Y29509D01*
X22629Y29504D01*
X22647Y29496D01*
X22663Y29485D01*
X22677Y29471D01*
X22688Y29455D01*
X22696Y29437D01*
X22701Y29418D01*
X22703Y29398D01*
X22590Y29511D02*
X22567Y29509D01*
X22545Y29504D01*
X22524Y29495D01*
X22505Y29483D01*
X22487Y29468D01*
X22473Y29451D01*
X22461Y29432D01*
X22452Y29411D01*
X22665Y29310D02*
X22678Y29325D01*
X22689Y29341D01*
X22697Y29359D01*
X22701Y29378D01*
X22703Y29398D01*
X22665Y29311D02*
X22453Y29061D01*
X22703Y29061D01*
X22903Y29286D02*
X22905Y29320D01*
X22909Y29353D01*
X22917Y29386D01*
X22927Y29418D01*
X22941Y29449D01*
X22940Y29448D02*
X22947Y29463D01*
X22956Y29477D01*
X22967Y29489D01*
X22981Y29498D01*
X22996Y29505D01*
X23012Y29510D01*
X23028Y29511D01*
X23044Y29510D01*
X23060Y29505D01*
X23075Y29498D01*
X23089Y29489D01*
X23100Y29477D01*
X23109Y29463D01*
X23116Y29448D01*
X23115Y29449D02*
X23129Y29418D01*
X23139Y29386D01*
X23147Y29353D01*
X23151Y29320D01*
X23153Y29286D01*
X22903Y29286D02*
X22905Y29252D01*
X22909Y29219D01*
X22917Y29186D01*
X22927Y29154D01*
X22941Y29123D01*
X22940Y29123D02*
X22947Y29108D01*
X22956Y29094D01*
X22967Y29082D01*
X22981Y29073D01*
X22996Y29066D01*
X23012Y29061D01*
X23028Y29060D01*
X23115Y29123D02*
X23129Y29154D01*
X23139Y29186D01*
X23147Y29219D01*
X23151Y29252D01*
X23153Y29286D01*
X23116Y29123D02*
X23109Y29108D01*
X23100Y29094D01*
X23089Y29082D01*
X23075Y29073D01*
X23060Y29066D01*
X23044Y29061D01*
X23028Y29060D01*
X22928Y29161D02*
X23128Y29411D01*
X23375Y29511D02*
X23375Y29061D01*
X23375Y29511D02*
X23500Y29511D01*
X23521Y29509D01*
X23541Y29504D01*
X23559Y29496D01*
X23577Y29485D01*
X23592Y29471D01*
X23605Y29454D01*
X23614Y29436D01*
X23621Y29417D01*
X23625Y29396D01*
X23625Y29376D01*
X23621Y29355D01*
X23614Y29336D01*
X23605Y29318D01*
X23592Y29301D01*
X23577Y29287D01*
X23559Y29276D01*
X23541Y29268D01*
X23521Y29263D01*
X23500Y29261D01*
X23375Y29261D01*
X19169Y27837D02*
X2169Y27837D01*
X19169Y27837D02*
X19169Y36337D01*
X2169Y36337D01*
X2169Y27837D01*
X4069Y35337D02*
X4071Y35389D01*
X4077Y35441D01*
X4087Y35493D01*
X4100Y35543D01*
X4117Y35593D01*
X4138Y35641D01*
X4163Y35687D01*
X4191Y35731D01*
X4222Y35773D01*
X4256Y35813D01*
X4293Y35850D01*
X4333Y35884D01*
X4375Y35915D01*
X4419Y35943D01*
X4465Y35968D01*
X4513Y35989D01*
X4563Y36006D01*
X4613Y36019D01*
X4665Y36029D01*
X4717Y36035D01*
X4769Y36037D01*
X4821Y36035D01*
X4873Y36029D01*
X4925Y36019D01*
X4975Y36006D01*
X5025Y35989D01*
X5073Y35968D01*
X5119Y35943D01*
X5163Y35915D01*
X5205Y35884D01*
X5245Y35850D01*
X5282Y35813D01*
X5316Y35773D01*
X5347Y35731D01*
X5375Y35687D01*
X5400Y35641D01*
X5421Y35593D01*
X5438Y35543D01*
X5451Y35493D01*
X5461Y35441D01*
X5467Y35389D01*
X5469Y35337D01*
X5467Y35285D01*
X5461Y35233D01*
X5451Y35181D01*
X5438Y35131D01*
X5421Y35081D01*
X5400Y35033D01*
X5375Y34987D01*
X5347Y34943D01*
X5316Y34901D01*
X5282Y34861D01*
X5245Y34824D01*
X5205Y34790D01*
X5163Y34759D01*
X5119Y34731D01*
X5073Y34706D01*
X5025Y34685D01*
X4975Y34668D01*
X4925Y34655D01*
X4873Y34645D01*
X4821Y34639D01*
X4769Y34637D01*
X4717Y34639D01*
X4665Y34645D01*
X4613Y34655D01*
X4563Y34668D01*
X4513Y34685D01*
X4465Y34706D01*
X4419Y34731D01*
X4375Y34759D01*
X4333Y34790D01*
X4293Y34824D01*
X4256Y34861D01*
X4222Y34901D01*
X4191Y34943D01*
X4163Y34987D01*
X4138Y35033D01*
X4117Y35081D01*
X4100Y35131D01*
X4087Y35181D01*
X4077Y35233D01*
X4071Y35285D01*
X4069Y35337D01*
X15869Y28837D02*
X15871Y28889D01*
X15877Y28941D01*
X15887Y28993D01*
X15900Y29043D01*
X15917Y29093D01*
X15938Y29141D01*
X15963Y29187D01*
X15991Y29231D01*
X16022Y29273D01*
X16056Y29313D01*
X16093Y29350D01*
X16133Y29384D01*
X16175Y29415D01*
X16219Y29443D01*
X16265Y29468D01*
X16313Y29489D01*
X16363Y29506D01*
X16413Y29519D01*
X16465Y29529D01*
X16517Y29535D01*
X16569Y29537D01*
X16621Y29535D01*
X16673Y29529D01*
X16725Y29519D01*
X16775Y29506D01*
X16825Y29489D01*
X16873Y29468D01*
X16919Y29443D01*
X16963Y29415D01*
X17005Y29384D01*
X17045Y29350D01*
X17082Y29313D01*
X17116Y29273D01*
X17147Y29231D01*
X17175Y29187D01*
X17200Y29141D01*
X17221Y29093D01*
X17238Y29043D01*
X17251Y28993D01*
X17261Y28941D01*
X17267Y28889D01*
X17269Y28837D01*
X17267Y28785D01*
X17261Y28733D01*
X17251Y28681D01*
X17238Y28631D01*
X17221Y28581D01*
X17200Y28533D01*
X17175Y28487D01*
X17147Y28443D01*
X17116Y28401D01*
X17082Y28361D01*
X17045Y28324D01*
X17005Y28290D01*
X16963Y28259D01*
X16919Y28231D01*
X16873Y28206D01*
X16825Y28185D01*
X16775Y28168D01*
X16725Y28155D01*
X16673Y28145D01*
X16621Y28139D01*
X16569Y28137D01*
X16517Y28139D01*
X16465Y28145D01*
X16413Y28155D01*
X16363Y28168D01*
X16313Y28185D01*
X16265Y28206D01*
X16219Y28231D01*
X16175Y28259D01*
X16133Y28290D01*
X16093Y28324D01*
X16056Y28361D01*
X16022Y28401D01*
X15991Y28443D01*
X15963Y28487D01*
X15938Y28533D01*
X15917Y28581D01*
X15900Y28631D01*
X15887Y28681D01*
X15877Y28733D01*
X15871Y28785D01*
X15869Y28837D01*
X15169Y35737D02*
X11169Y35737D01*
X11169Y33737D01*
X15169Y33737D01*
X15169Y35737D01*
X11261Y35037D02*
X11263Y35086D01*
X11269Y35135D01*
X11279Y35183D01*
X11292Y35230D01*
X11310Y35275D01*
X11331Y35320D01*
X11355Y35362D01*
X11383Y35402D01*
X11414Y35440D01*
X11448Y35475D01*
X11484Y35508D01*
X11524Y35537D01*
X11565Y35564D01*
X11608Y35586D01*
X11653Y35605D01*
X11700Y35621D01*
X11747Y35633D01*
X11796Y35641D01*
X11845Y35645D01*
X11893Y35645D01*
X11942Y35641D01*
X11991Y35633D01*
X12038Y35621D01*
X12085Y35605D01*
X12130Y35586D01*
X12173Y35564D01*
X12214Y35537D01*
X12254Y35508D01*
X12290Y35475D01*
X12324Y35440D01*
X12355Y35402D01*
X12383Y35362D01*
X12407Y35320D01*
X12428Y35275D01*
X12446Y35230D01*
X12459Y35183D01*
X12469Y35135D01*
X12475Y35086D01*
X12477Y35037D01*
X12475Y34988D01*
X12469Y34939D01*
X12459Y34891D01*
X12446Y34844D01*
X12428Y34799D01*
X12407Y34754D01*
X12383Y34712D01*
X12355Y34672D01*
X12324Y34634D01*
X12290Y34599D01*
X12254Y34566D01*
X12214Y34537D01*
X12173Y34510D01*
X12130Y34488D01*
X12085Y34469D01*
X12038Y34453D01*
X11991Y34441D01*
X11942Y34433D01*
X11893Y34429D01*
X11845Y34429D01*
X11796Y34433D01*
X11747Y34441D01*
X11700Y34453D01*
X11653Y34469D01*
X11608Y34488D01*
X11565Y34510D01*
X11524Y34537D01*
X11484Y34566D01*
X11448Y34599D01*
X11414Y34634D01*
X11383Y34672D01*
X11355Y34712D01*
X11331Y34754D01*
X11310Y34799D01*
X11292Y34844D01*
X11279Y34891D01*
X11269Y34939D01*
X11263Y34988D01*
X11261Y35037D01*
X11269Y35037D02*
X12469Y35037D01*
X15169Y33037D02*
X15169Y28237D01*
X15169Y33037D02*
X10369Y33037D01*
X10369Y28237D01*
X15169Y28237D01*
X9969Y31837D02*
X9969Y35737D01*
X9969Y31837D02*
X5869Y31837D01*
X5869Y35737D01*
X9969Y35737D01*
D10*
X6199Y34507D02*
X6199Y33867D01*
X6484Y33867D01*
X6737Y33867D02*
X6737Y34507D01*
X6950Y34151D01*
X7164Y34507D01*
X7164Y33867D01*
X7805Y34347D02*
X7803Y34370D01*
X7799Y34392D01*
X7791Y34413D01*
X7780Y34434D01*
X7766Y34452D01*
X7750Y34468D01*
X7732Y34482D01*
X7711Y34493D01*
X7690Y34501D01*
X7668Y34505D01*
X7645Y34507D01*
X7619Y34505D01*
X7594Y34501D01*
X7569Y34493D01*
X7546Y34481D01*
X7524Y34468D01*
X7504Y34451D01*
X7486Y34432D01*
X7471Y34411D01*
X7459Y34389D01*
X7449Y34364D01*
X7752Y34222D02*
X7767Y34240D01*
X7781Y34259D01*
X7791Y34279D01*
X7799Y34301D01*
X7803Y34324D01*
X7805Y34347D01*
X7752Y34222D02*
X7449Y33867D01*
X7805Y33867D01*
X8065Y33867D02*
X8278Y33867D01*
X8300Y33869D01*
X8322Y33874D01*
X8342Y33882D01*
X8361Y33894D01*
X8378Y33909D01*
X8393Y33926D01*
X8405Y33945D01*
X8413Y33965D01*
X8418Y33987D01*
X8420Y34009D01*
X8420Y34080D01*
X8418Y34102D01*
X8413Y34124D01*
X8405Y34144D01*
X8393Y34163D01*
X8378Y34180D01*
X8361Y34195D01*
X8342Y34207D01*
X8322Y34215D01*
X8300Y34220D01*
X8278Y34222D01*
X8065Y34222D01*
X8065Y34507D01*
X8420Y34507D01*
X8822Y34151D02*
X9036Y34151D01*
X8822Y34151D02*
X8800Y34153D01*
X8778Y34158D01*
X8758Y34166D01*
X8739Y34178D01*
X8722Y34193D01*
X8707Y34210D01*
X8695Y34229D01*
X8687Y34249D01*
X8682Y34271D01*
X8680Y34293D01*
X8680Y34329D01*
X8682Y34354D01*
X8687Y34379D01*
X8696Y34403D01*
X8708Y34425D01*
X8723Y34446D01*
X8741Y34464D01*
X8762Y34479D01*
X8784Y34491D01*
X8808Y34500D01*
X8833Y34505D01*
X8858Y34507D01*
X8883Y34505D01*
X8908Y34500D01*
X8932Y34491D01*
X8954Y34479D01*
X8975Y34464D01*
X8993Y34446D01*
X9008Y34425D01*
X9020Y34403D01*
X9029Y34379D01*
X9034Y34354D01*
X9036Y34329D01*
X9036Y34151D01*
X9035Y34151D02*
X9033Y34119D01*
X9028Y34088D01*
X9019Y34057D01*
X9007Y34028D01*
X8991Y34000D01*
X8973Y33974D01*
X8952Y33950D01*
X8928Y33929D01*
X8902Y33911D01*
X8874Y33895D01*
X8845Y33883D01*
X8814Y33874D01*
X8783Y33869D01*
X8751Y33867D01*
X9296Y34222D02*
X9509Y34222D01*
X9531Y34220D01*
X9553Y34215D01*
X9573Y34207D01*
X9592Y34195D01*
X9609Y34180D01*
X9624Y34163D01*
X9636Y34144D01*
X9644Y34124D01*
X9649Y34102D01*
X9651Y34080D01*
X9651Y34044D01*
X9649Y34019D01*
X9644Y33994D01*
X9635Y33970D01*
X9623Y33948D01*
X9608Y33927D01*
X9590Y33909D01*
X9569Y33894D01*
X9547Y33882D01*
X9523Y33873D01*
X9498Y33868D01*
X9473Y33866D01*
X9448Y33868D01*
X9423Y33873D01*
X9399Y33882D01*
X9377Y33894D01*
X9356Y33909D01*
X9338Y33927D01*
X9323Y33948D01*
X9311Y33970D01*
X9302Y33994D01*
X9297Y34019D01*
X9295Y34044D01*
X9296Y34044D02*
X9296Y34222D01*
X9298Y34254D01*
X9303Y34285D01*
X9312Y34316D01*
X9324Y34345D01*
X9340Y34373D01*
X9358Y34399D01*
X9379Y34423D01*
X9403Y34444D01*
X9429Y34462D01*
X9457Y34478D01*
X9486Y34490D01*
X9517Y34499D01*
X9548Y34504D01*
X9580Y34506D01*
D11*
X2669Y31837D02*
X2671Y31914D01*
X2677Y31991D01*
X2687Y32068D01*
X2701Y32144D01*
X2718Y32219D01*
X2740Y32293D01*
X2765Y32366D01*
X2795Y32438D01*
X2827Y32508D01*
X2864Y32576D01*
X2903Y32642D01*
X2946Y32706D01*
X2993Y32768D01*
X3042Y32827D01*
X3095Y32884D01*
X3150Y32938D01*
X3208Y32989D01*
X3269Y33037D01*
X3332Y33082D01*
X3397Y33123D01*
X3464Y33161D01*
X3533Y33196D01*
X3604Y33226D01*
X3676Y33254D01*
X3750Y33277D01*
X3824Y33297D01*
X3900Y33313D01*
X3976Y33325D01*
X4053Y33333D01*
X4130Y33337D01*
X4208Y33337D01*
X4285Y33333D01*
X4362Y33325D01*
X4438Y33313D01*
X4514Y33297D01*
X4588Y33277D01*
X4662Y33254D01*
X4734Y33226D01*
X4805Y33196D01*
X4874Y33161D01*
X4941Y33123D01*
X5006Y33082D01*
X5069Y33037D01*
X5130Y32989D01*
X5188Y32938D01*
X5243Y32884D01*
X5296Y32827D01*
X5345Y32768D01*
X5392Y32706D01*
X5435Y32642D01*
X5474Y32576D01*
X5511Y32508D01*
X5543Y32438D01*
X5573Y32366D01*
X5598Y32293D01*
X5620Y32219D01*
X5637Y32144D01*
X5651Y32068D01*
X5661Y31991D01*
X5667Y31914D01*
X5669Y31837D01*
X5667Y31760D01*
X5661Y31683D01*
X5651Y31606D01*
X5637Y31530D01*
X5620Y31455D01*
X5598Y31381D01*
X5573Y31308D01*
X5543Y31236D01*
X5511Y31166D01*
X5474Y31098D01*
X5435Y31032D01*
X5392Y30968D01*
X5345Y30906D01*
X5296Y30847D01*
X5243Y30790D01*
X5188Y30736D01*
X5130Y30685D01*
X5069Y30637D01*
X5006Y30592D01*
X4941Y30551D01*
X4874Y30513D01*
X4805Y30478D01*
X4734Y30448D01*
X4662Y30420D01*
X4588Y30397D01*
X4514Y30377D01*
X4438Y30361D01*
X4362Y30349D01*
X4285Y30341D01*
X4208Y30337D01*
X4130Y30337D01*
X4053Y30341D01*
X3976Y30349D01*
X3900Y30361D01*
X3824Y30377D01*
X3750Y30397D01*
X3676Y30420D01*
X3604Y30448D01*
X3533Y30478D01*
X3464Y30513D01*
X3397Y30551D01*
X3332Y30592D01*
X3269Y30637D01*
X3208Y30685D01*
X3150Y30736D01*
X3095Y30790D01*
X3042Y30847D01*
X2993Y30906D01*
X2946Y30968D01*
X2903Y31032D01*
X2864Y31098D01*
X2827Y31166D01*
X2795Y31236D01*
X2765Y31308D01*
X2740Y31381D01*
X2718Y31455D01*
X2701Y31530D01*
X2687Y31606D01*
X2677Y31683D01*
X2671Y31760D01*
X2669Y31837D01*
X15669Y31837D02*
X15671Y31914D01*
X15677Y31991D01*
X15687Y32068D01*
X15701Y32144D01*
X15718Y32219D01*
X15740Y32293D01*
X15765Y32366D01*
X15795Y32438D01*
X15827Y32508D01*
X15864Y32576D01*
X15903Y32642D01*
X15946Y32706D01*
X15993Y32768D01*
X16042Y32827D01*
X16095Y32884D01*
X16150Y32938D01*
X16208Y32989D01*
X16269Y33037D01*
X16332Y33082D01*
X16397Y33123D01*
X16464Y33161D01*
X16533Y33196D01*
X16604Y33226D01*
X16676Y33254D01*
X16750Y33277D01*
X16824Y33297D01*
X16900Y33313D01*
X16976Y33325D01*
X17053Y33333D01*
X17130Y33337D01*
X17208Y33337D01*
X17285Y33333D01*
X17362Y33325D01*
X17438Y33313D01*
X17514Y33297D01*
X17588Y33277D01*
X17662Y33254D01*
X17734Y33226D01*
X17805Y33196D01*
X17874Y33161D01*
X17941Y33123D01*
X18006Y33082D01*
X18069Y33037D01*
X18130Y32989D01*
X18188Y32938D01*
X18243Y32884D01*
X18296Y32827D01*
X18345Y32768D01*
X18392Y32706D01*
X18435Y32642D01*
X18474Y32576D01*
X18511Y32508D01*
X18543Y32438D01*
X18573Y32366D01*
X18598Y32293D01*
X18620Y32219D01*
X18637Y32144D01*
X18651Y32068D01*
X18661Y31991D01*
X18667Y31914D01*
X18669Y31837D01*
X18667Y31760D01*
X18661Y31683D01*
X18651Y31606D01*
X18637Y31530D01*
X18620Y31455D01*
X18598Y31381D01*
X18573Y31308D01*
X18543Y31236D01*
X18511Y31166D01*
X18474Y31098D01*
X18435Y31032D01*
X18392Y30968D01*
X18345Y30906D01*
X18296Y30847D01*
X18243Y30790D01*
X18188Y30736D01*
X18130Y30685D01*
X18069Y30637D01*
X18006Y30592D01*
X17941Y30551D01*
X17874Y30513D01*
X17805Y30478D01*
X17734Y30448D01*
X17662Y30420D01*
X17588Y30397D01*
X17514Y30377D01*
X17438Y30361D01*
X17362Y30349D01*
X17285Y30341D01*
X17208Y30337D01*
X17130Y30337D01*
X17053Y30341D01*
X16976Y30349D01*
X16900Y30361D01*
X16824Y30377D01*
X16750Y30397D01*
X16676Y30420D01*
X16604Y30448D01*
X16533Y30478D01*
X16464Y30513D01*
X16397Y30551D01*
X16332Y30592D01*
X16269Y30637D01*
X16208Y30685D01*
X16150Y30736D01*
X16095Y30790D01*
X16042Y30847D01*
X15993Y30906D01*
X15946Y30968D01*
X15903Y31032D01*
X15864Y31098D01*
X15827Y31166D01*
X15795Y31236D01*
X15765Y31308D01*
X15740Y31381D01*
X15718Y31455D01*
X15701Y31530D01*
X15687Y31606D01*
X15677Y31683D01*
X15671Y31760D01*
X15669Y31837D01*
D12*
X2740Y34357D02*
X2740Y34817D01*
X2689Y34357D02*
X2792Y34357D01*
X2792Y34817D02*
X2689Y34817D01*
X2988Y34817D02*
X2988Y34357D01*
X3243Y34357D02*
X2988Y34817D01*
X3243Y34817D02*
X3243Y34357D01*
X3457Y34536D02*
X3764Y34536D01*
X3610Y34382D02*
X3610Y34689D01*
X2740Y29817D02*
X2740Y29357D01*
X2689Y29357D02*
X2792Y29357D01*
X2792Y29817D02*
X2689Y29817D01*
X2988Y29817D02*
X2988Y29357D01*
X3243Y29357D02*
X2988Y29817D01*
X3243Y29817D02*
X3243Y29357D01*
X3457Y29536D02*
X3764Y29536D01*
X17189Y29484D02*
X17189Y29689D01*
X17191Y29710D01*
X17196Y29731D01*
X17204Y29750D01*
X17216Y29768D01*
X17230Y29783D01*
X17247Y29796D01*
X17266Y29806D01*
X17286Y29813D01*
X17306Y29817D01*
X17328Y29817D01*
X17348Y29813D01*
X17368Y29806D01*
X17387Y29796D01*
X17404Y29783D01*
X17418Y29768D01*
X17430Y29750D01*
X17438Y29731D01*
X17443Y29710D01*
X17445Y29689D01*
X17445Y29484D01*
X17443Y29463D01*
X17438Y29442D01*
X17430Y29423D01*
X17418Y29405D01*
X17404Y29390D01*
X17387Y29377D01*
X17368Y29367D01*
X17348Y29360D01*
X17328Y29356D01*
X17306Y29356D01*
X17286Y29360D01*
X17266Y29367D01*
X17247Y29377D01*
X17230Y29390D01*
X17216Y29405D01*
X17204Y29423D01*
X17196Y29442D01*
X17191Y29463D01*
X17189Y29484D01*
X17654Y29484D02*
X17654Y29817D01*
X17654Y29484D02*
X17656Y29463D01*
X17661Y29442D01*
X17669Y29423D01*
X17681Y29405D01*
X17695Y29390D01*
X17712Y29377D01*
X17731Y29367D01*
X17751Y29360D01*
X17771Y29356D01*
X17793Y29356D01*
X17813Y29360D01*
X17833Y29367D01*
X17852Y29377D01*
X17869Y29390D01*
X17883Y29405D01*
X17895Y29423D01*
X17903Y29442D01*
X17908Y29463D01*
X17910Y29484D01*
X17910Y29817D01*
X18217Y29817D02*
X18217Y29357D01*
X18089Y29817D02*
X18345Y29817D01*
X18514Y29536D02*
X18820Y29536D01*
X17189Y34484D02*
X17189Y34689D01*
X17191Y34710D01*
X17196Y34731D01*
X17204Y34750D01*
X17216Y34768D01*
X17230Y34783D01*
X17247Y34796D01*
X17266Y34806D01*
X17286Y34813D01*
X17306Y34817D01*
X17328Y34817D01*
X17348Y34813D01*
X17368Y34806D01*
X17387Y34796D01*
X17404Y34783D01*
X17418Y34768D01*
X17430Y34750D01*
X17438Y34731D01*
X17443Y34710D01*
X17445Y34689D01*
X17445Y34484D01*
X17443Y34463D01*
X17438Y34442D01*
X17430Y34423D01*
X17418Y34405D01*
X17404Y34390D01*
X17387Y34377D01*
X17368Y34367D01*
X17348Y34360D01*
X17328Y34356D01*
X17306Y34356D01*
X17286Y34360D01*
X17266Y34367D01*
X17247Y34377D01*
X17230Y34390D01*
X17216Y34405D01*
X17204Y34423D01*
X17196Y34442D01*
X17191Y34463D01*
X17189Y34484D01*
X17654Y34484D02*
X17654Y34817D01*
X17654Y34484D02*
X17656Y34463D01*
X17661Y34442D01*
X17669Y34423D01*
X17681Y34405D01*
X17695Y34390D01*
X17712Y34377D01*
X17731Y34367D01*
X17751Y34360D01*
X17771Y34356D01*
X17793Y34356D01*
X17813Y34360D01*
X17833Y34367D01*
X17852Y34377D01*
X17869Y34390D01*
X17883Y34405D01*
X17895Y34423D01*
X17903Y34442D01*
X17908Y34463D01*
X17910Y34484D01*
X17910Y34817D01*
X18217Y34817D02*
X18217Y34357D01*
X18089Y34817D02*
X18345Y34817D01*
X18514Y34536D02*
X18820Y34536D01*
X18667Y34689D02*
X18667Y34382D01*
D11*
X10845Y30587D02*
X10847Y30675D01*
X10853Y30762D01*
X10863Y30849D01*
X10877Y30935D01*
X10895Y31021D01*
X10916Y31106D01*
X10942Y31190D01*
X10971Y31272D01*
X11004Y31354D01*
X11041Y31433D01*
X11081Y31511D01*
X11125Y31587D01*
X11172Y31660D01*
X11223Y31732D01*
X11277Y31801D01*
X11333Y31868D01*
X11393Y31932D01*
X11456Y31993D01*
X11521Y32051D01*
X11589Y32107D01*
X11659Y32159D01*
X11732Y32208D01*
X11807Y32253D01*
X11884Y32295D01*
X11963Y32334D01*
X12043Y32369D01*
X12125Y32400D01*
X12208Y32427D01*
X12292Y32451D01*
X12378Y32471D01*
X12464Y32487D01*
X12550Y32499D01*
X12638Y32507D01*
X12725Y32511D01*
X12813Y32511D01*
X12900Y32507D01*
X12988Y32499D01*
X13074Y32487D01*
X13160Y32471D01*
X13246Y32451D01*
X13330Y32427D01*
X13413Y32400D01*
X13495Y32369D01*
X13575Y32334D01*
X13654Y32295D01*
X13731Y32253D01*
X13806Y32208D01*
X13879Y32159D01*
X13949Y32107D01*
X14017Y32051D01*
X14082Y31993D01*
X14145Y31932D01*
X14205Y31868D01*
X14261Y31801D01*
X14315Y31732D01*
X14366Y31660D01*
X14413Y31587D01*
X14457Y31511D01*
X14497Y31433D01*
X14534Y31354D01*
X14567Y31272D01*
X14596Y31190D01*
X14622Y31106D01*
X14643Y31021D01*
X14661Y30935D01*
X14675Y30849D01*
X14685Y30762D01*
X14691Y30675D01*
X14693Y30587D01*
X14691Y30499D01*
X14685Y30412D01*
X14675Y30325D01*
X14661Y30239D01*
X14643Y30153D01*
X14622Y30068D01*
X14596Y29984D01*
X14567Y29902D01*
X14534Y29820D01*
X14497Y29741D01*
X14457Y29663D01*
X14413Y29587D01*
X14366Y29514D01*
X14315Y29442D01*
X14261Y29373D01*
X14205Y29306D01*
X14145Y29242D01*
X14082Y29181D01*
X14017Y29123D01*
X13949Y29067D01*
X13879Y29015D01*
X13806Y28966D01*
X13731Y28921D01*
X13654Y28879D01*
X13575Y28840D01*
X13495Y28805D01*
X13413Y28774D01*
X13330Y28747D01*
X13246Y28723D01*
X13160Y28703D01*
X13074Y28687D01*
X12988Y28675D01*
X12900Y28667D01*
X12813Y28663D01*
X12725Y28663D01*
X12638Y28667D01*
X12550Y28675D01*
X12464Y28687D01*
X12378Y28703D01*
X12292Y28723D01*
X12208Y28747D01*
X12125Y28774D01*
X12043Y28805D01*
X11963Y28840D01*
X11884Y28879D01*
X11807Y28921D01*
X11732Y28966D01*
X11659Y29015D01*
X11589Y29067D01*
X11521Y29123D01*
X11456Y29181D01*
X11393Y29242D01*
X11333Y29306D01*
X11277Y29373D01*
X11223Y29442D01*
X11172Y29514D01*
X11125Y29587D01*
X11081Y29663D01*
X11041Y29741D01*
X11004Y29820D01*
X10971Y29902D01*
X10942Y29984D01*
X10916Y30068D01*
X10895Y30153D01*
X10877Y30239D01*
X10863Y30325D01*
X10853Y30412D01*
X10847Y30499D01*
X10845Y30587D01*
X5069Y30687D02*
X3269Y30687D01*
X16269Y30687D02*
X18069Y30687D01*
X11569Y32087D02*
X11545Y32109D01*
X11518Y32128D01*
X11489Y32143D01*
X11458Y32156D01*
X11426Y32164D01*
X11394Y32169D01*
X11361Y32170D01*
X11328Y32167D01*
X11296Y32160D01*
X11265Y32150D01*
X11235Y32136D01*
X11207Y32119D01*
X11181Y32098D01*
X11158Y32075D01*
X11137Y32049D01*
X11120Y32021D01*
X11106Y31991D01*
X11096Y31960D01*
X11089Y31928D01*
X11086Y31895D01*
X11087Y31862D01*
X11092Y31830D01*
X11100Y31798D01*
X11113Y31767D01*
X11128Y31738D01*
X11147Y31711D01*
X11169Y31687D01*
X13969Y32087D02*
X13993Y32109D01*
X14020Y32128D01*
X14049Y32143D01*
X14080Y32156D01*
X14112Y32164D01*
X14144Y32169D01*
X14177Y32170D01*
X14210Y32167D01*
X14242Y32160D01*
X14273Y32150D01*
X14303Y32136D01*
X14331Y32119D01*
X14357Y32098D01*
X14380Y32075D01*
X14401Y32049D01*
X14418Y32021D01*
X14432Y31991D01*
X14442Y31960D01*
X14449Y31928D01*
X14452Y31895D01*
X14451Y31862D01*
X14446Y31830D01*
X14438Y31798D01*
X14425Y31767D01*
X14410Y31738D01*
X14391Y31711D01*
X14369Y31687D01*
X14469Y29687D02*
X14495Y29664D01*
X14518Y29638D01*
X14538Y29610D01*
X14555Y29580D01*
X14569Y29548D01*
X14579Y29515D01*
X14586Y29481D01*
X14589Y29446D01*
X14588Y29412D01*
X14583Y29377D01*
X14575Y29344D01*
X14563Y29311D01*
X14548Y29280D01*
X14529Y29251D01*
X14508Y29224D01*
X14483Y29199D01*
X14456Y29178D01*
X14427Y29159D01*
X14396Y29143D01*
X14364Y29131D01*
X14330Y29123D01*
X14296Y29118D01*
X14261Y29117D01*
X14227Y29120D01*
X14192Y29126D01*
X14159Y29136D01*
X14127Y29150D01*
X14097Y29167D01*
X14069Y29187D01*
X11469Y29187D02*
X11441Y29167D01*
X11411Y29150D01*
X11379Y29136D01*
X11346Y29126D01*
X11311Y29120D01*
X11277Y29117D01*
X11242Y29118D01*
X11208Y29123D01*
X11174Y29131D01*
X11142Y29143D01*
X11111Y29159D01*
X11082Y29178D01*
X11055Y29199D01*
X11030Y29224D01*
X11009Y29251D01*
X10990Y29280D01*
X10975Y29311D01*
X10963Y29344D01*
X10955Y29377D01*
X10950Y29412D01*
X10949Y29446D01*
X10952Y29481D01*
X10959Y29515D01*
X10969Y29548D01*
X10983Y29580D01*
X11000Y29610D01*
X11020Y29638D01*
X11043Y29664D01*
X11069Y29687D01*
X8269Y29387D02*
X6769Y29387D01*
X8269Y29387D02*
X8269Y28287D01*
X6769Y28287D01*
X6769Y29387D01*
X6069Y30287D02*
X6069Y31787D01*
X6069Y30287D02*
X6569Y30287D01*
X6569Y31787D01*
X6869Y31787D02*
X6869Y30287D01*
X7369Y30287D01*
X7369Y31787D01*
X7669Y31787D02*
X7669Y30287D01*
X8169Y30287D01*
X8169Y31787D01*
X8469Y31787D02*
X8469Y30287D01*
X8969Y30287D01*
X8969Y31787D01*
X9269Y31787D02*
X9269Y30287D01*
X9769Y30287D01*
X9769Y31787D01*
X10369Y34687D02*
X10869Y34687D01*
X10869Y33787D01*
X10369Y33787D01*
X10369Y34687D01*
X10369Y34987D02*
X10869Y34987D01*
X10869Y35787D01*
X10369Y35787D01*
X10369Y34987D01*
X15669Y35187D02*
X15669Y35887D01*
X15669Y35187D02*
X16169Y35187D01*
X16169Y35887D01*
X15669Y35887D01*
X16469Y35887D02*
X16469Y35187D01*
X16969Y35187D01*
X16969Y35887D01*
X16469Y35887D01*
X5069Y29787D02*
X5069Y29087D01*
X5469Y29087D01*
X5469Y29787D01*
X5069Y29787D01*
D13*
X12908Y34552D02*
X12784Y34922D01*
X13031Y34922D02*
X12908Y34552D01*
X13149Y34511D02*
X13314Y34511D01*
X13432Y34552D02*
X13556Y34922D01*
X13679Y34552D01*
X13648Y34644D02*
X13463Y34644D01*
X13825Y34552D02*
X13825Y34922D01*
X13928Y34922D01*
X13946Y34920D01*
X13963Y34916D01*
X13980Y34908D01*
X13994Y34898D01*
X14007Y34885D01*
X14017Y34871D01*
X14025Y34854D01*
X14029Y34837D01*
X14031Y34819D01*
X14030Y34819D02*
X14030Y34654D01*
X14031Y34654D02*
X14029Y34636D01*
X14025Y34619D01*
X14017Y34602D01*
X14007Y34588D01*
X13994Y34575D01*
X13979Y34565D01*
X13963Y34557D01*
X13946Y34553D01*
X13928Y34551D01*
X13928Y34552D02*
X13825Y34552D01*
X14284Y34634D02*
X14284Y34922D01*
X14284Y34634D02*
X14282Y34618D01*
X14278Y34603D01*
X14270Y34588D01*
X14260Y34576D01*
X14248Y34566D01*
X14233Y34558D01*
X14218Y34554D01*
X14202Y34552D01*
X14160Y34552D01*
X12467Y30722D02*
X12384Y30434D01*
X12590Y30434D01*
X12528Y30516D02*
X12528Y30352D01*
X12744Y30681D02*
X12744Y30722D01*
X12950Y30722D01*
X12847Y30352D01*
X13104Y30537D02*
X13106Y30572D01*
X13112Y30606D01*
X13121Y30639D01*
X13135Y30671D01*
X13142Y30685D01*
X13151Y30697D01*
X13163Y30708D01*
X13176Y30716D01*
X13191Y30720D01*
X13207Y30722D01*
X13223Y30720D01*
X13238Y30716D01*
X13251Y30708D01*
X13263Y30697D01*
X13272Y30685D01*
X13279Y30671D01*
X13293Y30639D01*
X13302Y30606D01*
X13308Y30572D01*
X13310Y30537D01*
X13104Y30537D02*
X13106Y30502D01*
X13112Y30468D01*
X13121Y30435D01*
X13135Y30403D01*
X13142Y30389D01*
X13151Y30377D01*
X13163Y30366D01*
X13176Y30358D01*
X13191Y30354D01*
X13207Y30352D01*
X13279Y30403D02*
X13293Y30435D01*
X13302Y30468D01*
X13308Y30502D01*
X13310Y30537D01*
X13279Y30403D02*
X13272Y30389D01*
X13263Y30377D01*
X13251Y30366D01*
X13238Y30358D01*
X13223Y30354D01*
X13207Y30352D01*
X13125Y30434D02*
X13289Y30639D01*
X3887Y32122D02*
X3784Y32039D01*
X3887Y32122D02*
X3887Y31752D01*
X3784Y31752D02*
X3990Y31752D01*
X4144Y31937D02*
X4146Y31972D01*
X4152Y32006D01*
X4161Y32039D01*
X4175Y32071D01*
X4182Y32085D01*
X4191Y32097D01*
X4203Y32108D01*
X4216Y32116D01*
X4231Y32120D01*
X4247Y32122D01*
X4263Y32120D01*
X4278Y32116D01*
X4291Y32108D01*
X4303Y32097D01*
X4312Y32085D01*
X4319Y32071D01*
X4333Y32039D01*
X4342Y32006D01*
X4348Y31972D01*
X4350Y31937D01*
X4144Y31937D02*
X4146Y31902D01*
X4152Y31868D01*
X4161Y31835D01*
X4175Y31803D01*
X4182Y31789D01*
X4191Y31777D01*
X4203Y31766D01*
X4216Y31758D01*
X4231Y31754D01*
X4247Y31752D01*
X4319Y31803D02*
X4333Y31835D01*
X4342Y31868D01*
X4348Y31902D01*
X4350Y31937D01*
X4319Y31803D02*
X4312Y31789D01*
X4303Y31777D01*
X4291Y31766D01*
X4278Y31758D01*
X4263Y31754D01*
X4247Y31752D01*
X4165Y31834D02*
X4329Y32039D01*
X4504Y31937D02*
X4506Y31972D01*
X4512Y32006D01*
X4521Y32039D01*
X4535Y32071D01*
X4542Y32085D01*
X4551Y32097D01*
X4563Y32108D01*
X4576Y32116D01*
X4591Y32120D01*
X4607Y32122D01*
X4623Y32120D01*
X4638Y32116D01*
X4651Y32108D01*
X4663Y32097D01*
X4672Y32085D01*
X4679Y32071D01*
X4693Y32039D01*
X4702Y32006D01*
X4708Y31972D01*
X4710Y31937D01*
X4504Y31937D02*
X4506Y31902D01*
X4512Y31868D01*
X4521Y31835D01*
X4535Y31803D01*
X4542Y31789D01*
X4551Y31777D01*
X4563Y31766D01*
X4576Y31758D01*
X4591Y31754D01*
X4607Y31752D01*
X4679Y31803D02*
X4693Y31835D01*
X4702Y31868D01*
X4708Y31902D01*
X4710Y31937D01*
X4679Y31803D02*
X4672Y31789D01*
X4663Y31777D01*
X4651Y31766D01*
X4638Y31758D01*
X4623Y31754D01*
X4607Y31752D01*
X4525Y31834D02*
X4689Y32039D01*
X16797Y32122D02*
X16815Y32120D01*
X16833Y32115D01*
X16849Y32106D01*
X16863Y32095D01*
X16874Y32081D01*
X16883Y32065D01*
X16888Y32047D01*
X16890Y32029D01*
X16797Y32122D02*
X16778Y32121D01*
X16760Y32116D01*
X16743Y32109D01*
X16727Y32099D01*
X16713Y32087D01*
X16701Y32073D01*
X16691Y32057D01*
X16684Y32040D01*
X16858Y31957D02*
X16869Y31969D01*
X16878Y31983D01*
X16884Y31997D01*
X16888Y32013D01*
X16889Y32029D01*
X16859Y31957D02*
X16684Y31752D01*
X16890Y31752D01*
X17250Y32029D02*
X17248Y32047D01*
X17243Y32065D01*
X17234Y32081D01*
X17223Y32095D01*
X17209Y32106D01*
X17193Y32115D01*
X17175Y32120D01*
X17157Y32122D01*
X17138Y32121D01*
X17120Y32116D01*
X17103Y32109D01*
X17087Y32099D01*
X17073Y32087D01*
X17061Y32073D01*
X17051Y32057D01*
X17044Y32040D01*
X17218Y31957D02*
X17229Y31969D01*
X17238Y31983D01*
X17244Y31997D01*
X17248Y32013D01*
X17249Y32029D01*
X17219Y31957D02*
X17044Y31752D01*
X17250Y31752D01*
X17404Y31937D02*
X17406Y31972D01*
X17412Y32006D01*
X17421Y32039D01*
X17435Y32071D01*
X17442Y32085D01*
X17451Y32097D01*
X17463Y32108D01*
X17476Y32116D01*
X17491Y32120D01*
X17507Y32122D01*
X17523Y32120D01*
X17538Y32116D01*
X17551Y32108D01*
X17563Y32097D01*
X17572Y32085D01*
X17579Y32071D01*
X17593Y32039D01*
X17602Y32006D01*
X17608Y31972D01*
X17610Y31937D01*
X17404Y31937D02*
X17406Y31902D01*
X17412Y31868D01*
X17421Y31835D01*
X17435Y31803D01*
X17442Y31789D01*
X17451Y31777D01*
X17463Y31766D01*
X17476Y31758D01*
X17491Y31754D01*
X17507Y31752D01*
X17579Y31803D02*
X17593Y31835D01*
X17602Y31868D01*
X17608Y31902D01*
X17610Y31937D01*
X17579Y31803D02*
X17572Y31789D01*
X17563Y31777D01*
X17551Y31766D01*
X17538Y31758D01*
X17523Y31754D01*
X17507Y31752D01*
X17425Y31834D02*
X17589Y32039D01*
D14*
X2209Y36882D02*
X2209Y37547D01*
X2209Y36882D02*
X2211Y36851D01*
X2216Y36821D01*
X2226Y36791D01*
X2238Y36763D01*
X2254Y36737D01*
X2273Y36712D01*
X2295Y36690D01*
X2320Y36671D01*
X2346Y36655D01*
X2374Y36643D01*
X2404Y36633D01*
X2434Y36628D01*
X2465Y36626D01*
X2496Y36628D01*
X2526Y36633D01*
X2556Y36643D01*
X2584Y36655D01*
X2610Y36671D01*
X2635Y36690D01*
X2657Y36712D01*
X2676Y36737D01*
X2692Y36763D01*
X2704Y36791D01*
X2714Y36821D01*
X2719Y36851D01*
X2721Y36882D01*
X2720Y36882D02*
X2720Y37547D01*
X3259Y37547D02*
X3259Y36627D01*
X3259Y37087D02*
X3132Y37163D01*
X3131Y37163D02*
X3112Y37176D01*
X3096Y37192D01*
X3082Y37211D01*
X3071Y37231D01*
X3063Y37253D01*
X3058Y37275D01*
X3057Y37298D01*
X3059Y37321D01*
X3065Y37344D01*
X3074Y37365D01*
X3087Y37385D01*
X3102Y37402D01*
X3119Y37417D01*
X3139Y37429D01*
X3160Y37439D01*
X3183Y37445D01*
X3183Y37444D02*
X3219Y37449D01*
X3256Y37451D01*
X3292Y37449D01*
X3328Y37444D01*
X3364Y37436D01*
X3399Y37425D01*
X3432Y37411D01*
X3464Y37393D01*
X3259Y37087D02*
X3387Y37010D01*
X3388Y37010D02*
X3407Y36997D01*
X3423Y36981D01*
X3437Y36962D01*
X3448Y36942D01*
X3456Y36920D01*
X3461Y36898D01*
X3462Y36875D01*
X3460Y36852D01*
X3454Y36829D01*
X3445Y36808D01*
X3432Y36788D01*
X3417Y36771D01*
X3400Y36756D01*
X3380Y36744D01*
X3359Y36734D01*
X3336Y36728D01*
X3336Y36729D02*
X3300Y36724D01*
X3263Y36722D01*
X3227Y36724D01*
X3191Y36729D01*
X3155Y36737D01*
X3120Y36748D01*
X3087Y36762D01*
X3055Y36780D01*
X3771Y37342D02*
X4027Y37547D01*
X4027Y36627D01*
X4282Y36627D02*
X3771Y36627D01*
X14209Y36627D02*
X14209Y37547D01*
X14209Y36627D02*
X14618Y36627D01*
X14924Y36627D02*
X14924Y37547D01*
X15231Y37036D01*
X15538Y37547D01*
X15538Y36627D01*
X16391Y37317D02*
X16389Y37345D01*
X16384Y37372D01*
X16376Y37399D01*
X16365Y37424D01*
X16350Y37448D01*
X16333Y37470D01*
X16314Y37489D01*
X16292Y37506D01*
X16268Y37521D01*
X16243Y37532D01*
X16216Y37540D01*
X16189Y37545D01*
X16161Y37547D01*
X16161Y37546D02*
X16127Y37544D01*
X16094Y37538D01*
X16062Y37529D01*
X16031Y37516D01*
X16001Y37499D01*
X15974Y37479D01*
X15949Y37456D01*
X15927Y37431D01*
X15908Y37403D01*
X15893Y37373D01*
X15880Y37342D01*
X16314Y37138D02*
X16334Y37159D01*
X16351Y37182D01*
X16365Y37207D01*
X16376Y37233D01*
X16384Y37260D01*
X16389Y37288D01*
X16391Y37317D01*
X16314Y37138D02*
X15880Y36627D01*
X16391Y36627D01*
X16702Y36627D02*
X17008Y36627D01*
X17035Y36629D01*
X17061Y36634D01*
X17086Y36643D01*
X17110Y36654D01*
X17132Y36669D01*
X17152Y36687D01*
X17170Y36707D01*
X17185Y36729D01*
X17196Y36753D01*
X17205Y36778D01*
X17210Y36804D01*
X17212Y36831D01*
X17213Y36831D02*
X17213Y36933D01*
X17212Y36933D02*
X17210Y36960D01*
X17205Y36986D01*
X17196Y37011D01*
X17185Y37035D01*
X17170Y37057D01*
X17152Y37077D01*
X17132Y37095D01*
X17110Y37110D01*
X17086Y37121D01*
X17061Y37130D01*
X17035Y37135D01*
X17008Y37137D01*
X17008Y37138D02*
X16702Y37138D01*
X16702Y37547D01*
X17213Y37547D01*
X17728Y37036D02*
X18035Y37036D01*
X17728Y37036D02*
X17701Y37038D01*
X17675Y37043D01*
X17650Y37052D01*
X17626Y37063D01*
X17604Y37078D01*
X17584Y37096D01*
X17566Y37116D01*
X17551Y37138D01*
X17540Y37162D01*
X17531Y37187D01*
X17526Y37213D01*
X17524Y37240D01*
X17524Y37291D01*
X17523Y37291D02*
X17525Y37322D01*
X17530Y37352D01*
X17540Y37382D01*
X17552Y37410D01*
X17568Y37436D01*
X17587Y37461D01*
X17609Y37483D01*
X17634Y37502D01*
X17660Y37518D01*
X17688Y37530D01*
X17718Y37540D01*
X17748Y37545D01*
X17779Y37547D01*
X17810Y37545D01*
X17840Y37540D01*
X17870Y37530D01*
X17898Y37518D01*
X17924Y37502D01*
X17949Y37483D01*
X17971Y37461D01*
X17990Y37436D01*
X18006Y37410D01*
X18018Y37382D01*
X18028Y37352D01*
X18033Y37322D01*
X18035Y37291D01*
X18035Y37036D01*
X18033Y36998D01*
X18028Y36961D01*
X18019Y36924D01*
X18007Y36888D01*
X17992Y36854D01*
X17974Y36821D01*
X17952Y36790D01*
X17928Y36760D01*
X17902Y36734D01*
X17872Y36710D01*
X17841Y36688D01*
X17808Y36670D01*
X17774Y36655D01*
X17738Y36643D01*
X17701Y36634D01*
X17664Y36629D01*
X17626Y36627D01*
X18346Y37138D02*
X18652Y37138D01*
X18652Y37137D02*
X18679Y37135D01*
X18705Y37130D01*
X18730Y37121D01*
X18754Y37110D01*
X18776Y37095D01*
X18796Y37077D01*
X18814Y37057D01*
X18829Y37035D01*
X18840Y37011D01*
X18849Y36986D01*
X18854Y36960D01*
X18856Y36933D01*
X18857Y36933D02*
X18857Y36882D01*
X18855Y36851D01*
X18850Y36821D01*
X18840Y36791D01*
X18828Y36763D01*
X18812Y36737D01*
X18793Y36712D01*
X18771Y36690D01*
X18746Y36671D01*
X18720Y36655D01*
X18692Y36643D01*
X18662Y36633D01*
X18632Y36628D01*
X18601Y36626D01*
X18570Y36628D01*
X18540Y36633D01*
X18510Y36643D01*
X18482Y36655D01*
X18456Y36671D01*
X18431Y36690D01*
X18409Y36712D01*
X18390Y36737D01*
X18374Y36763D01*
X18362Y36791D01*
X18352Y36821D01*
X18347Y36851D01*
X18345Y36882D01*
X18346Y36882D02*
X18346Y37138D01*
X18348Y37178D01*
X18354Y37218D01*
X18364Y37257D01*
X18377Y37295D01*
X18394Y37331D01*
X18415Y37365D01*
X18439Y37397D01*
X18466Y37427D01*
X18496Y37454D01*
X18528Y37478D01*
X18562Y37499D01*
X18598Y37516D01*
X18636Y37529D01*
X18675Y37539D01*
X18715Y37545D01*
X18755Y37547D01*
X19137Y36524D02*
X19546Y36524D01*
X19825Y36627D02*
X20081Y36627D01*
X20081Y36626D02*
X20112Y36628D01*
X20142Y36633D01*
X20172Y36643D01*
X20200Y36655D01*
X20226Y36671D01*
X20251Y36690D01*
X20273Y36712D01*
X20292Y36737D01*
X20308Y36763D01*
X20320Y36791D01*
X20330Y36821D01*
X20335Y36851D01*
X20337Y36882D01*
X20335Y36913D01*
X20330Y36943D01*
X20320Y36973D01*
X20308Y37001D01*
X20292Y37027D01*
X20273Y37052D01*
X20251Y37074D01*
X20226Y37093D01*
X20200Y37109D01*
X20172Y37121D01*
X20142Y37131D01*
X20112Y37136D01*
X20081Y37138D01*
X20132Y37547D02*
X19825Y37547D01*
X20132Y37546D02*
X20160Y37544D01*
X20187Y37538D01*
X20213Y37529D01*
X20238Y37516D01*
X20261Y37500D01*
X20281Y37481D01*
X20299Y37460D01*
X20313Y37436D01*
X20324Y37410D01*
X20332Y37384D01*
X20336Y37356D01*
X20336Y37328D01*
X20332Y37300D01*
X20324Y37274D01*
X20313Y37248D01*
X20299Y37224D01*
X20281Y37203D01*
X20261Y37184D01*
X20238Y37168D01*
X20213Y37155D01*
X20187Y37146D01*
X20160Y37140D01*
X20132Y37138D01*
X19928Y37138D01*
X20596Y36627D02*
X20903Y37547D01*
X21210Y36627D01*
X21133Y36857D02*
X20673Y36857D01*
D11*
X27787Y26913D02*
X33787Y26913D01*
X33787Y18913D01*
X27787Y18913D01*
X27787Y26913D01*
D15*
X27441Y26634D02*
X27443Y26646D01*
X27448Y26657D01*
X27457Y26666D01*
X27468Y26671D01*
X27480Y26673D01*
X27492Y26671D01*
X27503Y26666D01*
X27512Y26657D01*
X27517Y26646D01*
X27519Y26634D01*
X27517Y26622D01*
X27512Y26611D01*
X27503Y26602D01*
X27492Y26597D01*
X27480Y26595D01*
X27468Y26597D01*
X27457Y26602D01*
X27448Y26611D01*
X27443Y26622D01*
X27441Y26634D01*
D12*
X30744Y23945D02*
X30591Y23485D01*
X30898Y23485D02*
X30744Y23945D01*
X30859Y23600D02*
X30629Y23600D01*
X31066Y23587D02*
X31169Y23945D01*
X31066Y23587D02*
X31322Y23587D01*
X31245Y23689D02*
X31245Y23485D01*
X31619Y23689D02*
X31772Y23689D01*
X31619Y23689D02*
X31601Y23691D01*
X31584Y23695D01*
X31568Y23703D01*
X31553Y23713D01*
X31541Y23725D01*
X31531Y23740D01*
X31523Y23756D01*
X31519Y23773D01*
X31517Y23791D01*
X31516Y23791D02*
X31516Y23817D01*
X31518Y23838D01*
X31523Y23859D01*
X31531Y23878D01*
X31543Y23896D01*
X31557Y23911D01*
X31574Y23924D01*
X31593Y23934D01*
X31613Y23941D01*
X31633Y23945D01*
X31655Y23945D01*
X31675Y23941D01*
X31695Y23934D01*
X31714Y23924D01*
X31731Y23911D01*
X31745Y23896D01*
X31757Y23878D01*
X31765Y23859D01*
X31770Y23838D01*
X31772Y23817D01*
X31772Y23689D01*
X31770Y23662D01*
X31765Y23636D01*
X31756Y23611D01*
X31745Y23587D01*
X31730Y23565D01*
X31712Y23545D01*
X31692Y23527D01*
X31670Y23512D01*
X31646Y23501D01*
X31621Y23492D01*
X31595Y23487D01*
X31568Y23485D01*
X31966Y23612D02*
X31968Y23633D01*
X31973Y23654D01*
X31981Y23673D01*
X31993Y23691D01*
X32007Y23706D01*
X32024Y23719D01*
X32043Y23729D01*
X32063Y23736D01*
X32083Y23740D01*
X32105Y23740D01*
X32125Y23736D01*
X32145Y23729D01*
X32164Y23719D01*
X32181Y23706D01*
X32195Y23691D01*
X32207Y23673D01*
X32215Y23654D01*
X32220Y23633D01*
X32222Y23612D01*
X32220Y23591D01*
X32215Y23570D01*
X32207Y23551D01*
X32195Y23533D01*
X32181Y23518D01*
X32164Y23505D01*
X32145Y23495D01*
X32125Y23488D01*
X32105Y23484D01*
X32083Y23484D01*
X32063Y23488D01*
X32043Y23495D01*
X32024Y23505D01*
X32007Y23518D01*
X31993Y23533D01*
X31981Y23551D01*
X31973Y23570D01*
X31968Y23591D01*
X31966Y23612D01*
X31992Y23842D02*
X31994Y23861D01*
X31999Y23879D01*
X32007Y23896D01*
X32019Y23911D01*
X32033Y23923D01*
X32049Y23933D01*
X32066Y23940D01*
X32085Y23944D01*
X32103Y23944D01*
X32122Y23940D01*
X32139Y23933D01*
X32155Y23923D01*
X32169Y23911D01*
X32181Y23896D01*
X32189Y23879D01*
X32194Y23861D01*
X32196Y23842D01*
X32194Y23823D01*
X32189Y23805D01*
X32181Y23788D01*
X32169Y23773D01*
X32155Y23761D01*
X32139Y23751D01*
X32122Y23744D01*
X32103Y23740D01*
X32085Y23740D01*
X32066Y23744D01*
X32049Y23751D01*
X32033Y23761D01*
X32019Y23773D01*
X32007Y23788D01*
X31999Y23805D01*
X31994Y23823D01*
X31992Y23842D01*
X32416Y23612D02*
X32418Y23633D01*
X32423Y23654D01*
X32431Y23673D01*
X32443Y23691D01*
X32457Y23706D01*
X32474Y23719D01*
X32493Y23729D01*
X32513Y23736D01*
X32533Y23740D01*
X32555Y23740D01*
X32575Y23736D01*
X32595Y23729D01*
X32614Y23719D01*
X32631Y23706D01*
X32645Y23691D01*
X32657Y23673D01*
X32665Y23654D01*
X32670Y23633D01*
X32672Y23612D01*
X32670Y23591D01*
X32665Y23570D01*
X32657Y23551D01*
X32645Y23533D01*
X32631Y23518D01*
X32614Y23505D01*
X32595Y23495D01*
X32575Y23488D01*
X32555Y23484D01*
X32533Y23484D01*
X32513Y23488D01*
X32493Y23495D01*
X32474Y23505D01*
X32457Y23518D01*
X32443Y23533D01*
X32431Y23551D01*
X32423Y23570D01*
X32418Y23591D01*
X32416Y23612D01*
X32442Y23842D02*
X32444Y23861D01*
X32449Y23879D01*
X32457Y23896D01*
X32469Y23911D01*
X32483Y23923D01*
X32499Y23933D01*
X32516Y23940D01*
X32535Y23944D01*
X32553Y23944D01*
X32572Y23940D01*
X32589Y23933D01*
X32605Y23923D01*
X32619Y23911D01*
X32631Y23896D01*
X32639Y23879D01*
X32644Y23861D01*
X32646Y23842D01*
X32644Y23823D01*
X32639Y23805D01*
X32631Y23788D01*
X32619Y23773D01*
X32605Y23761D01*
X32589Y23751D01*
X32572Y23744D01*
X32553Y23740D01*
X32535Y23740D01*
X32516Y23744D01*
X32499Y23751D01*
X32483Y23761D01*
X32469Y23773D01*
X32457Y23788D01*
X32449Y23805D01*
X32444Y23823D01*
X32442Y23842D01*
D11*
X29965Y2169D02*
X38465Y2169D01*
X29965Y2169D02*
X29965Y16169D01*
X38465Y16169D01*
X38465Y2169D01*
D10*
X29435Y3199D02*
X28795Y3199D01*
X29435Y3555D01*
X28795Y3555D01*
X28795Y4013D02*
X29435Y3800D01*
X29435Y4226D02*
X28795Y4013D01*
X29275Y4173D02*
X29275Y3853D01*
X29435Y4477D02*
X28795Y4477D01*
X29150Y4690D01*
X28795Y4903D01*
X29435Y4903D01*
X29435Y5211D02*
X29435Y5495D01*
X29435Y5211D02*
X28795Y5211D01*
X28795Y5495D01*
X29079Y5424D02*
X29079Y5211D01*
X39295Y3199D02*
X39935Y3413D01*
X39295Y3626D01*
X39295Y4028D02*
X39935Y3815D01*
X39935Y4241D02*
X39295Y4028D01*
X39775Y4188D02*
X39775Y3868D01*
X39935Y4487D02*
X39295Y4487D01*
X39935Y4487D02*
X39935Y4772D01*
X39757Y5020D02*
X39295Y5020D01*
X39757Y5019D02*
X39782Y5021D01*
X39807Y5026D01*
X39831Y5035D01*
X39853Y5047D01*
X39874Y5062D01*
X39892Y5080D01*
X39907Y5101D01*
X39919Y5123D01*
X39928Y5147D01*
X39933Y5172D01*
X39935Y5197D01*
X39933Y5222D01*
X39928Y5247D01*
X39919Y5271D01*
X39907Y5293D01*
X39892Y5314D01*
X39874Y5332D01*
X39853Y5347D01*
X39831Y5359D01*
X39807Y5368D01*
X39782Y5373D01*
X39757Y5375D01*
X39295Y5375D01*
X39935Y5677D02*
X39935Y5962D01*
X39935Y5677D02*
X39295Y5677D01*
X39295Y5962D01*
X39579Y5890D02*
X39579Y5677D01*
D14*
X34425Y7209D02*
X33505Y7209D01*
X33913Y7209D02*
X33913Y7720D01*
X33505Y7720D02*
X34425Y7720D01*
X34425Y8008D02*
X33505Y8621D01*
X33505Y8008D02*
X34425Y8621D01*
X33607Y8881D02*
X33505Y8881D01*
X33505Y9392D01*
X34425Y9136D01*
X33709Y9703D02*
X33505Y9958D01*
X34425Y9958D01*
X34425Y9703D02*
X34425Y10214D01*
X33709Y10525D02*
X33505Y10780D01*
X34425Y10780D01*
X34425Y10525D02*
X34425Y11036D01*
X34331Y34488D02*
X30472Y34488D01*
X30472Y34309D02*
X34331Y34309D01*
X34331Y36099D02*
X30472Y36099D01*
X30472Y36291D02*
X34331Y36291D01*
X33386Y37619D02*
X33331Y37617D01*
X33276Y37613D01*
X33222Y37605D01*
X33222Y37604D02*
X33169Y37594D01*
X33117Y37580D01*
X33066Y37563D01*
X33065Y37563D02*
X33016Y37543D01*
X32969Y37520D01*
X32922Y37495D01*
X32923Y37495D02*
X32880Y37468D01*
X32839Y37438D01*
X32801Y37405D01*
X32800Y37405D02*
X32766Y37371D01*
X32733Y37334D01*
X32704Y37296D01*
X32682Y37264D01*
X32663Y37230D01*
X32646Y37194D01*
X32632Y37159D01*
X32620Y37123D01*
X32611Y37086D01*
X32610Y37087D02*
X32603Y37049D01*
X32599Y37012D01*
X32598Y36974D01*
X34161Y37085D02*
X34168Y37048D01*
X34172Y37011D01*
X34173Y36973D01*
X34161Y37086D02*
X34151Y37123D01*
X34139Y37159D01*
X34125Y37194D01*
X34126Y37195D02*
X34109Y37230D01*
X34089Y37264D01*
X34068Y37297D01*
X34067Y37296D02*
X34038Y37335D01*
X34005Y37372D01*
X33970Y37406D01*
X33971Y37405D02*
X33932Y37438D01*
X33892Y37468D01*
X33849Y37496D01*
X33849Y37495D02*
X33802Y37521D01*
X33755Y37543D01*
X33706Y37563D01*
X33655Y37580D01*
X33603Y37594D01*
X33550Y37605D01*
X33495Y37613D01*
X33441Y37617D01*
X33386Y37619D01*
X32188Y37108D02*
X32197Y37064D01*
X32203Y37019D01*
X32205Y36974D01*
X32188Y37108D02*
X32174Y37152D01*
X32157Y37195D01*
X32137Y37236D01*
X32117Y37271D01*
X32094Y37305D01*
X32069Y37337D01*
X32042Y37367D01*
X32042Y37366D02*
X32009Y37400D01*
X31974Y37430D01*
X31936Y37459D01*
X31897Y37485D01*
X31854Y37510D01*
X31810Y37533D01*
X31765Y37552D01*
X31719Y37569D01*
X31718Y37570D02*
X31670Y37585D01*
X31621Y37597D01*
X31571Y37607D01*
X31520Y37614D01*
X31520Y37613D02*
X31469Y37618D01*
X31417Y37619D01*
X31365Y37618D01*
X31314Y37613D01*
X31315Y37614D02*
X31264Y37607D01*
X31214Y37597D01*
X31165Y37585D01*
X31116Y37570D01*
X31070Y37553D01*
X31024Y37533D01*
X30980Y37511D01*
X30938Y37486D01*
X30899Y37460D01*
X30861Y37431D01*
X30826Y37400D01*
X30793Y37367D01*
X30793Y37366D02*
X30766Y37336D01*
X30742Y37304D01*
X30719Y37270D01*
X30698Y37236D01*
X30698Y37237D02*
X30677Y37195D01*
X30660Y37153D01*
X30647Y37109D01*
X30646Y37108D02*
X30637Y37064D01*
X30631Y37019D01*
X30629Y36974D01*
X30630Y36974D02*
X30631Y36936D01*
X30635Y36899D01*
X30642Y36861D01*
X30643Y36862D02*
X30652Y36825D01*
X30664Y36789D01*
X30678Y36754D01*
X30677Y36753D02*
X30695Y36718D01*
X30714Y36684D01*
X30735Y36651D01*
X30736Y36652D02*
X30765Y36613D01*
X30798Y36576D01*
X30833Y36542D01*
X30832Y36543D02*
X30871Y36510D01*
X30911Y36480D01*
X30954Y36452D01*
X30954Y36453D02*
X31001Y36427D01*
X31048Y36405D01*
X31097Y36385D01*
X31148Y36368D01*
X31200Y36354D01*
X31253Y36343D01*
X31308Y36335D01*
X31362Y36331D01*
X31417Y36329D01*
X32615Y36839D02*
X32606Y36883D01*
X32600Y36928D01*
X32598Y36974D01*
X32615Y36840D02*
X32629Y36796D01*
X32646Y36753D01*
X32666Y36712D01*
X32686Y36677D01*
X32709Y36643D01*
X32734Y36612D01*
X32761Y36582D01*
X32762Y36581D02*
X32795Y36548D01*
X32830Y36517D01*
X32868Y36488D01*
X32907Y36462D01*
X32906Y36463D02*
X32949Y36438D01*
X32993Y36415D01*
X33038Y36396D01*
X33084Y36379D01*
X33085Y36378D02*
X33133Y36363D01*
X33182Y36351D01*
X33232Y36341D01*
X33283Y36334D01*
X33283Y36335D02*
X33334Y36330D01*
X33386Y36329D01*
X33438Y36330D01*
X33489Y36335D01*
X33488Y36334D02*
X33539Y36341D01*
X33589Y36351D01*
X33638Y36363D01*
X33687Y36378D01*
X33733Y36395D01*
X33779Y36415D01*
X33823Y36438D01*
X33865Y36462D01*
X33904Y36488D01*
X33942Y36517D01*
X33977Y36548D01*
X34011Y36581D01*
X34010Y36581D02*
X34037Y36611D01*
X34061Y36643D01*
X34084Y36677D01*
X34105Y36711D01*
X34126Y36753D01*
X34143Y36795D01*
X34156Y36839D01*
X34165Y36883D01*
X34171Y36928D01*
X34173Y36973D01*
X31581Y36343D02*
X31527Y36335D01*
X31472Y36331D01*
X31417Y36329D01*
X31581Y36344D02*
X31634Y36354D01*
X31686Y36368D01*
X31737Y36385D01*
X31738Y36384D02*
X31787Y36404D01*
X31834Y36427D01*
X31881Y36452D01*
X31880Y36453D02*
X31923Y36480D01*
X31964Y36510D01*
X32002Y36543D01*
X32002Y36541D02*
X32037Y36575D01*
X32070Y36612D01*
X32099Y36651D01*
X32099Y36652D02*
X32121Y36684D01*
X32140Y36718D01*
X32157Y36754D01*
X32157Y36753D02*
X32171Y36788D01*
X32183Y36824D01*
X32192Y36861D01*
X32193Y36862D02*
X32200Y36899D01*
X32204Y36936D01*
X32205Y36974D01*
X30472Y32520D02*
X34331Y32520D01*
X34331Y34309D01*
X34331Y34488D01*
X34331Y36099D01*
X34331Y36291D01*
X34331Y37717D01*
X30472Y37717D01*
X30472Y36291D01*
X30472Y36099D01*
X30472Y34488D01*
X30472Y34309D01*
X30472Y32520D01*
X30827Y33110D02*
X32008Y33110D01*
X32008Y33760D01*
X30827Y33760D01*
X30827Y33110D01*
X30748Y32795D02*
X32087Y32795D01*
X32087Y34055D01*
X30748Y34055D01*
X30748Y32795D01*
X34370Y32756D02*
X34449Y32756D01*
X34528Y32697D01*
X34626Y32697D01*
X34626Y34488D01*
X34547Y34488D01*
X34449Y34429D01*
X34370Y34429D01*
X34370Y35689D02*
X34449Y35689D01*
X34528Y35610D01*
X34626Y35610D01*
X34626Y36713D01*
X34528Y36713D01*
X34449Y36654D01*
X34370Y36654D01*
X32795Y33209D02*
X32795Y33110D01*
X33976Y33110D01*
X33976Y33760D01*
X32795Y33760D01*
X32795Y33209D01*
X32717Y32795D02*
X34055Y32795D01*
X34055Y34055D01*
X32717Y34055D01*
X32717Y32795D01*
D12*
X30549Y38262D02*
X30422Y38262D01*
X30549Y38262D02*
X30570Y38260D01*
X30591Y38255D01*
X30610Y38247D01*
X30628Y38235D01*
X30643Y38221D01*
X30656Y38204D01*
X30666Y38185D01*
X30673Y38165D01*
X30677Y38145D01*
X30677Y38123D01*
X30673Y38103D01*
X30666Y38083D01*
X30656Y38064D01*
X30643Y38047D01*
X30628Y38033D01*
X30610Y38021D01*
X30591Y38013D01*
X30570Y38008D01*
X30549Y38006D01*
X30422Y38006D01*
X30422Y38466D01*
X30549Y38466D01*
X30568Y38464D01*
X30586Y38459D01*
X30603Y38451D01*
X30618Y38439D01*
X30630Y38425D01*
X30640Y38409D01*
X30647Y38392D01*
X30651Y38373D01*
X30651Y38355D01*
X30647Y38336D01*
X30640Y38319D01*
X30630Y38303D01*
X30618Y38289D01*
X30603Y38277D01*
X30586Y38269D01*
X30568Y38264D01*
X30549Y38262D01*
X30850Y38338D02*
X30850Y38134D01*
X30850Y38338D02*
X30852Y38359D01*
X30857Y38380D01*
X30865Y38399D01*
X30877Y38417D01*
X30891Y38432D01*
X30908Y38445D01*
X30927Y38455D01*
X30947Y38462D01*
X30967Y38466D01*
X30989Y38466D01*
X31009Y38462D01*
X31029Y38455D01*
X31048Y38445D01*
X31065Y38432D01*
X31079Y38417D01*
X31091Y38399D01*
X31099Y38380D01*
X31104Y38359D01*
X31106Y38338D01*
X31105Y38338D02*
X31105Y38134D01*
X31106Y38134D02*
X31104Y38113D01*
X31099Y38092D01*
X31091Y38073D01*
X31079Y38055D01*
X31065Y38040D01*
X31048Y38027D01*
X31029Y38017D01*
X31009Y38010D01*
X30989Y38006D01*
X30967Y38006D01*
X30947Y38010D01*
X30927Y38017D01*
X30908Y38027D01*
X30891Y38040D01*
X30877Y38055D01*
X30865Y38073D01*
X30857Y38092D01*
X30852Y38113D01*
X30850Y38134D01*
X31319Y38006D02*
X31319Y38466D01*
X31473Y38211D01*
X31626Y38466D01*
X31626Y38006D01*
X31862Y38262D02*
X31989Y38262D01*
X32010Y38260D01*
X32031Y38255D01*
X32050Y38247D01*
X32068Y38235D01*
X32083Y38221D01*
X32096Y38204D01*
X32106Y38185D01*
X32113Y38165D01*
X32117Y38145D01*
X32117Y38123D01*
X32113Y38103D01*
X32106Y38083D01*
X32096Y38064D01*
X32083Y38047D01*
X32068Y38033D01*
X32050Y38021D01*
X32031Y38013D01*
X32010Y38008D01*
X31989Y38006D01*
X31862Y38006D01*
X31862Y38466D01*
X31989Y38466D01*
X32008Y38464D01*
X32026Y38459D01*
X32043Y38451D01*
X32058Y38439D01*
X32070Y38425D01*
X32080Y38409D01*
X32087Y38392D01*
X32091Y38373D01*
X32091Y38355D01*
X32087Y38336D01*
X32080Y38319D01*
X32070Y38303D01*
X32058Y38289D01*
X32043Y38277D01*
X32026Y38269D01*
X32008Y38264D01*
X31989Y38262D01*
X32264Y38006D02*
X32418Y38466D01*
X32571Y38006D01*
X32533Y38121D02*
X32303Y38121D01*
D10*
X28101Y6349D02*
X28111Y6335D01*
X28124Y6324D01*
X28139Y6314D01*
X28155Y6308D01*
X28172Y6304D01*
X28190Y6303D01*
X28207Y6305D01*
X28223Y6311D01*
X28239Y6319D01*
X28744Y6642D02*
X28758Y6652D01*
X28769Y6665D01*
X28779Y6680D01*
X28785Y6696D01*
X28789Y6713D01*
X28790Y6731D01*
X28788Y6748D01*
X28782Y6764D01*
X28774Y6780D01*
X27805Y8297D02*
X27795Y8311D01*
X27782Y8322D01*
X27767Y8332D01*
X27751Y8338D01*
X27734Y8342D01*
X27716Y8343D01*
X27699Y8341D01*
X27683Y8335D01*
X27667Y8327D01*
X27161Y8003D02*
X27147Y7993D01*
X27136Y7980D01*
X27126Y7965D01*
X27120Y7949D01*
X27116Y7932D01*
X27115Y7914D01*
X27117Y7897D01*
X27123Y7881D01*
X27131Y7865D01*
X28239Y6319D02*
X28744Y6642D01*
X28101Y6349D02*
X28020Y6475D01*
X28035Y6545D01*
X28694Y6907D02*
X28775Y6780D01*
X28694Y6907D02*
X28625Y6922D01*
X27281Y7724D02*
X27212Y7739D01*
X27281Y7724D02*
X28035Y6545D01*
X27870Y8101D02*
X27886Y8170D01*
X27870Y8101D02*
X28625Y6922D01*
X27212Y7739D02*
X27131Y7866D01*
X27805Y8297D02*
X27886Y8170D01*
X27667Y8327D02*
X27161Y8004D01*
D16*
G36*
X27417Y8345D02*
X27498Y8219D01*
X27331Y8111D01*
X27250Y8237D01*
X27417Y8345D01*
G37*
G36*
X28575Y6534D02*
X28656Y6408D01*
X28489Y6300D01*
X28408Y6426D01*
X28575Y6534D01*
G37*
D13*
X6087Y17511D02*
X6087Y17614D01*
X6088Y17614D02*
X6086Y17633D01*
X6081Y17651D01*
X6073Y17668D01*
X6061Y17683D01*
X6047Y17696D01*
X6031Y17706D01*
X6013Y17713D01*
X5995Y17717D01*
X5975Y17717D01*
X5957Y17713D01*
X5939Y17706D01*
X5923Y17696D01*
X5909Y17683D01*
X5897Y17668D01*
X5889Y17651D01*
X5884Y17633D01*
X5882Y17614D01*
X5717Y17634D02*
X5717Y17511D01*
X5718Y17634D02*
X5720Y17651D01*
X5725Y17667D01*
X5734Y17682D01*
X5745Y17695D01*
X5759Y17705D01*
X5775Y17712D01*
X5791Y17716D01*
X5809Y17716D01*
X5825Y17712D01*
X5841Y17705D01*
X5855Y17695D01*
X5866Y17682D01*
X5875Y17667D01*
X5880Y17651D01*
X5882Y17634D01*
X5882Y17552D01*
X5717Y17851D02*
X6087Y17974D01*
X5717Y18097D01*
X6087Y18231D02*
X6087Y18334D01*
X6088Y18334D02*
X6086Y18353D01*
X6081Y18371D01*
X6073Y18388D01*
X6061Y18403D01*
X6047Y18416D01*
X6031Y18426D01*
X6013Y18433D01*
X5995Y18437D01*
X5975Y18437D01*
X5957Y18433D01*
X5939Y18426D01*
X5923Y18416D01*
X5909Y18403D01*
X5897Y18388D01*
X5889Y18371D01*
X5884Y18353D01*
X5882Y18334D01*
X5717Y18354D02*
X5717Y18231D01*
X5718Y18354D02*
X5720Y18371D01*
X5725Y18387D01*
X5734Y18402D01*
X5745Y18415D01*
X5759Y18425D01*
X5775Y18432D01*
X5791Y18436D01*
X5809Y18436D01*
X5825Y18432D01*
X5841Y18425D01*
X5855Y18415D01*
X5866Y18402D01*
X5875Y18387D01*
X5880Y18371D01*
X5882Y18354D01*
X5882Y18272D01*
X6882Y17717D02*
X6882Y17655D01*
X6882Y17717D02*
X7087Y17717D01*
X7087Y17593D01*
X7085Y17577D01*
X7081Y17562D01*
X7073Y17547D01*
X7063Y17535D01*
X7051Y17525D01*
X7036Y17517D01*
X7021Y17513D01*
X7005Y17511D01*
X6800Y17511D01*
X6784Y17513D01*
X6769Y17517D01*
X6754Y17525D01*
X6742Y17535D01*
X6732Y17547D01*
X6724Y17562D01*
X6720Y17577D01*
X6718Y17593D01*
X6717Y17593D02*
X6717Y17717D01*
X6717Y17895D02*
X7087Y17895D01*
X7087Y18101D02*
X6717Y17895D01*
X6717Y18101D02*
X7087Y18101D01*
X7087Y18279D02*
X6717Y18279D01*
X6717Y18382D01*
X6719Y18400D01*
X6723Y18417D01*
X6731Y18434D01*
X6741Y18448D01*
X6754Y18461D01*
X6769Y18471D01*
X6785Y18479D01*
X6802Y18483D01*
X6820Y18485D01*
X6985Y18485D01*
X7003Y18483D01*
X7020Y18479D01*
X7037Y18471D01*
X7051Y18461D01*
X7064Y18448D01*
X7074Y18433D01*
X7082Y18417D01*
X7086Y18400D01*
X7088Y18382D01*
X7087Y18382D02*
X7087Y18279D01*
X7717Y17511D02*
X8087Y17511D01*
X7717Y17511D02*
X7717Y17614D01*
X7719Y17632D01*
X7723Y17649D01*
X7731Y17666D01*
X7741Y17680D01*
X7754Y17693D01*
X7769Y17703D01*
X7785Y17711D01*
X7802Y17715D01*
X7820Y17717D01*
X7985Y17717D01*
X8003Y17715D01*
X8020Y17711D01*
X8037Y17703D01*
X8051Y17693D01*
X8064Y17680D01*
X8074Y17665D01*
X8082Y17649D01*
X8086Y17632D01*
X8088Y17614D01*
X8087Y17614D02*
X8087Y17511D01*
X7800Y17883D02*
X7717Y17986D01*
X8087Y17986D01*
X8087Y17883D02*
X8087Y18089D01*
X8087Y18243D02*
X8087Y18366D01*
X8085Y18382D01*
X8081Y18397D01*
X8073Y18412D01*
X8063Y18424D01*
X8051Y18434D01*
X8036Y18442D01*
X8021Y18446D01*
X8005Y18448D01*
X8005Y18449D02*
X7964Y18449D01*
X7964Y18448D02*
X7948Y18446D01*
X7933Y18442D01*
X7918Y18434D01*
X7906Y18424D01*
X7896Y18412D01*
X7888Y18397D01*
X7884Y18382D01*
X7882Y18366D01*
X7882Y18243D01*
X7717Y18243D01*
X7717Y18449D01*
X8717Y17511D02*
X9087Y17511D01*
X8717Y17511D02*
X8717Y17614D01*
X8719Y17632D01*
X8723Y17649D01*
X8731Y17666D01*
X8741Y17680D01*
X8754Y17693D01*
X8769Y17703D01*
X8785Y17711D01*
X8802Y17715D01*
X8820Y17717D01*
X8985Y17717D01*
X9003Y17715D01*
X9020Y17711D01*
X9037Y17703D01*
X9051Y17693D01*
X9064Y17680D01*
X9074Y17665D01*
X9082Y17649D01*
X9086Y17632D01*
X9088Y17614D01*
X9087Y17614D02*
X9087Y17511D01*
X8717Y17996D02*
X8719Y18014D01*
X8724Y18032D01*
X8733Y18048D01*
X8744Y18062D01*
X8758Y18073D01*
X8774Y18082D01*
X8792Y18087D01*
X8810Y18089D01*
X8717Y17996D02*
X8718Y17977D01*
X8723Y17959D01*
X8730Y17942D01*
X8740Y17926D01*
X8752Y17912D01*
X8766Y17900D01*
X8782Y17890D01*
X8799Y17883D01*
X8882Y18057D02*
X8870Y18068D01*
X8856Y18077D01*
X8842Y18083D01*
X8826Y18087D01*
X8810Y18088D01*
X8882Y18058D02*
X9087Y17883D01*
X9087Y18089D01*
X9717Y17511D02*
X10087Y17511D01*
X9717Y17511D02*
X9717Y17614D01*
X9719Y17632D01*
X9723Y17649D01*
X9731Y17666D01*
X9741Y17680D01*
X9754Y17693D01*
X9769Y17703D01*
X9785Y17711D01*
X9802Y17715D01*
X9820Y17717D01*
X9985Y17717D01*
X10003Y17715D01*
X10020Y17711D01*
X10037Y17703D01*
X10051Y17693D01*
X10064Y17680D01*
X10074Y17665D01*
X10082Y17649D01*
X10086Y17632D01*
X10088Y17614D01*
X10087Y17614D02*
X10087Y17511D01*
X10005Y17883D02*
X9717Y17965D01*
X10005Y17883D02*
X10005Y18089D01*
X9923Y18027D02*
X10087Y18027D01*
X10717Y17511D02*
X11087Y17511D01*
X10717Y17511D02*
X10717Y17614D01*
X10719Y17632D01*
X10723Y17649D01*
X10731Y17666D01*
X10741Y17680D01*
X10754Y17693D01*
X10769Y17703D01*
X10785Y17711D01*
X10802Y17715D01*
X10820Y17717D01*
X10985Y17717D01*
X11003Y17715D01*
X11020Y17711D01*
X11037Y17703D01*
X11051Y17693D01*
X11064Y17680D01*
X11074Y17665D01*
X11082Y17649D01*
X11086Y17632D01*
X11088Y17614D01*
X11087Y17614D02*
X11087Y17511D01*
X10800Y17883D02*
X10717Y17986D01*
X11087Y17986D01*
X11087Y17883D02*
X11087Y18089D01*
X10882Y18243D02*
X10882Y18366D01*
X10884Y18382D01*
X10888Y18397D01*
X10896Y18412D01*
X10906Y18424D01*
X10918Y18434D01*
X10933Y18442D01*
X10948Y18446D01*
X10964Y18448D01*
X10964Y18449D02*
X10985Y18449D01*
X11004Y18447D01*
X11022Y18442D01*
X11039Y18434D01*
X11054Y18422D01*
X11067Y18408D01*
X11077Y18392D01*
X11084Y18374D01*
X11088Y18356D01*
X11088Y18336D01*
X11084Y18318D01*
X11077Y18300D01*
X11067Y18284D01*
X11054Y18270D01*
X11039Y18258D01*
X11022Y18250D01*
X11004Y18245D01*
X10985Y18243D01*
X10882Y18243D01*
X10882Y18244D02*
X10859Y18246D01*
X10836Y18251D01*
X10814Y18259D01*
X10793Y18270D01*
X10775Y18284D01*
X10758Y18301D01*
X10744Y18319D01*
X10733Y18340D01*
X10725Y18362D01*
X10720Y18385D01*
X10718Y18408D01*
X11717Y17511D02*
X12087Y17511D01*
X11717Y17511D02*
X11717Y17614D01*
X11719Y17632D01*
X11723Y17649D01*
X11731Y17666D01*
X11741Y17680D01*
X11754Y17693D01*
X11769Y17703D01*
X11785Y17711D01*
X11802Y17715D01*
X11820Y17717D01*
X11985Y17717D01*
X12003Y17715D01*
X12020Y17711D01*
X12037Y17703D01*
X12051Y17693D01*
X12064Y17680D01*
X12074Y17665D01*
X12082Y17649D01*
X12086Y17632D01*
X12088Y17614D01*
X12087Y17614D02*
X12087Y17511D01*
X11800Y17883D02*
X11717Y17986D01*
X12087Y17986D01*
X12087Y17883D02*
X12087Y18089D01*
X11758Y18243D02*
X11717Y18243D01*
X11717Y18449D01*
X12087Y18346D01*
X12717Y17511D02*
X13087Y17511D01*
X12717Y17511D02*
X12717Y17614D01*
X12719Y17632D01*
X12723Y17649D01*
X12731Y17666D01*
X12741Y17680D01*
X12754Y17693D01*
X12769Y17703D01*
X12785Y17711D01*
X12802Y17715D01*
X12820Y17717D01*
X12985Y17717D01*
X13003Y17715D01*
X13020Y17711D01*
X13037Y17703D01*
X13051Y17693D01*
X13064Y17680D01*
X13074Y17665D01*
X13082Y17649D01*
X13086Y17632D01*
X13088Y17614D01*
X13087Y17614D02*
X13087Y17511D01*
X13087Y17883D02*
X13087Y18006D01*
X13085Y18022D01*
X13081Y18037D01*
X13073Y18052D01*
X13063Y18064D01*
X13051Y18074D01*
X13036Y18082D01*
X13021Y18086D01*
X13005Y18088D01*
X13005Y18089D02*
X12964Y18089D01*
X12964Y18088D02*
X12948Y18086D01*
X12933Y18082D01*
X12918Y18074D01*
X12906Y18064D01*
X12896Y18052D01*
X12888Y18037D01*
X12884Y18022D01*
X12882Y18006D01*
X12882Y17883D01*
X12717Y17883D01*
X12717Y18089D01*
X13717Y17511D02*
X14087Y17511D01*
X13717Y17511D02*
X13717Y17614D01*
X13719Y17632D01*
X13723Y17649D01*
X13731Y17666D01*
X13741Y17680D01*
X13754Y17693D01*
X13769Y17703D01*
X13785Y17711D01*
X13802Y17715D01*
X13820Y17717D01*
X13985Y17717D01*
X14003Y17715D01*
X14020Y17711D01*
X14037Y17703D01*
X14051Y17693D01*
X14064Y17680D01*
X14074Y17665D01*
X14082Y17649D01*
X14086Y17632D01*
X14088Y17614D01*
X14087Y17614D02*
X14087Y17511D01*
X13800Y17883D02*
X13717Y17986D01*
X14087Y17986D01*
X14087Y17883D02*
X14087Y18089D01*
X13985Y18243D02*
X13966Y18245D01*
X13948Y18250D01*
X13931Y18258D01*
X13916Y18270D01*
X13903Y18284D01*
X13893Y18300D01*
X13886Y18318D01*
X13882Y18336D01*
X13882Y18356D01*
X13886Y18374D01*
X13893Y18392D01*
X13903Y18408D01*
X13916Y18422D01*
X13931Y18434D01*
X13948Y18442D01*
X13966Y18447D01*
X13985Y18449D01*
X14004Y18447D01*
X14022Y18442D01*
X14039Y18434D01*
X14054Y18422D01*
X14067Y18408D01*
X14077Y18392D01*
X14084Y18374D01*
X14088Y18356D01*
X14088Y18336D01*
X14084Y18318D01*
X14077Y18300D01*
X14067Y18284D01*
X14054Y18270D01*
X14039Y18258D01*
X14022Y18250D01*
X14004Y18245D01*
X13985Y18243D01*
X13800Y18264D02*
X13783Y18266D01*
X13767Y18271D01*
X13752Y18280D01*
X13739Y18291D01*
X13729Y18305D01*
X13722Y18321D01*
X13718Y18337D01*
X13718Y18355D01*
X13722Y18371D01*
X13729Y18387D01*
X13739Y18401D01*
X13752Y18412D01*
X13767Y18421D01*
X13783Y18426D01*
X13800Y18428D01*
X13817Y18426D01*
X13833Y18421D01*
X13848Y18412D01*
X13861Y18401D01*
X13871Y18387D01*
X13878Y18371D01*
X13882Y18355D01*
X13882Y18337D01*
X13878Y18321D01*
X13871Y18305D01*
X13861Y18291D01*
X13848Y18280D01*
X13833Y18271D01*
X13817Y18266D01*
X13800Y18264D01*
X14717Y17511D02*
X15087Y17511D01*
X14717Y17511D02*
X14717Y17614D01*
X14719Y17632D01*
X14723Y17649D01*
X14731Y17666D01*
X14741Y17680D01*
X14754Y17693D01*
X14769Y17703D01*
X14785Y17711D01*
X14802Y17715D01*
X14820Y17717D01*
X14985Y17717D01*
X15003Y17715D01*
X15020Y17711D01*
X15037Y17703D01*
X15051Y17693D01*
X15064Y17680D01*
X15074Y17665D01*
X15082Y17649D01*
X15086Y17632D01*
X15088Y17614D01*
X15087Y17614D02*
X15087Y17511D01*
X14800Y17883D02*
X14717Y17986D01*
X15087Y17986D01*
X15087Y17883D02*
X15087Y18089D01*
X14923Y18325D02*
X14923Y18449D01*
X14923Y18325D02*
X14921Y18309D01*
X14917Y18294D01*
X14909Y18279D01*
X14899Y18267D01*
X14887Y18257D01*
X14872Y18249D01*
X14857Y18245D01*
X14841Y18243D01*
X14820Y18243D01*
X14801Y18245D01*
X14783Y18250D01*
X14766Y18258D01*
X14751Y18270D01*
X14738Y18284D01*
X14728Y18300D01*
X14721Y18318D01*
X14717Y18336D01*
X14717Y18356D01*
X14721Y18374D01*
X14728Y18392D01*
X14738Y18408D01*
X14751Y18422D01*
X14766Y18434D01*
X14783Y18442D01*
X14801Y18447D01*
X14820Y18449D01*
X14923Y18449D01*
X14923Y18448D02*
X14946Y18446D01*
X14969Y18441D01*
X14991Y18433D01*
X15012Y18422D01*
X15030Y18408D01*
X15047Y18391D01*
X15061Y18373D01*
X15072Y18352D01*
X15080Y18330D01*
X15085Y18307D01*
X15087Y18284D01*
X15717Y17511D02*
X16087Y17511D01*
X15717Y17511D02*
X15717Y17614D01*
X15719Y17632D01*
X15723Y17649D01*
X15731Y17666D01*
X15741Y17680D01*
X15754Y17693D01*
X15769Y17703D01*
X15785Y17711D01*
X15802Y17715D01*
X15820Y17717D01*
X15985Y17717D01*
X16003Y17715D01*
X16020Y17711D01*
X16037Y17703D01*
X16051Y17693D01*
X16064Y17680D01*
X16074Y17665D01*
X16082Y17649D01*
X16086Y17632D01*
X16088Y17614D01*
X16087Y17614D02*
X16087Y17511D01*
X15717Y17996D02*
X15719Y18014D01*
X15724Y18032D01*
X15733Y18048D01*
X15744Y18062D01*
X15758Y18073D01*
X15774Y18082D01*
X15792Y18087D01*
X15810Y18089D01*
X15717Y17996D02*
X15718Y17977D01*
X15723Y17959D01*
X15730Y17942D01*
X15740Y17926D01*
X15752Y17912D01*
X15766Y17900D01*
X15782Y17890D01*
X15799Y17883D01*
X15882Y18057D02*
X15870Y18068D01*
X15856Y18077D01*
X15842Y18083D01*
X15826Y18087D01*
X15810Y18088D01*
X15882Y18058D02*
X16087Y17883D01*
X16087Y18089D01*
X15800Y18243D02*
X15717Y18346D01*
X16087Y18346D01*
X16087Y18243D02*
X16087Y18449D01*
X16717Y17511D02*
X17087Y17511D01*
X16717Y17511D02*
X16717Y17614D01*
X16719Y17632D01*
X16723Y17649D01*
X16731Y17666D01*
X16741Y17680D01*
X16754Y17693D01*
X16769Y17703D01*
X16785Y17711D01*
X16802Y17715D01*
X16820Y17717D01*
X16985Y17717D01*
X17003Y17715D01*
X17020Y17711D01*
X17037Y17703D01*
X17051Y17693D01*
X17064Y17680D01*
X17074Y17665D01*
X17082Y17649D01*
X17086Y17632D01*
X17088Y17614D01*
X17087Y17614D02*
X17087Y17511D01*
X17087Y17883D02*
X17087Y17986D01*
X17088Y17986D02*
X17086Y18005D01*
X17081Y18023D01*
X17073Y18040D01*
X17061Y18055D01*
X17047Y18068D01*
X17031Y18078D01*
X17013Y18085D01*
X16995Y18089D01*
X16975Y18089D01*
X16957Y18085D01*
X16939Y18078D01*
X16923Y18068D01*
X16909Y18055D01*
X16897Y18040D01*
X16889Y18023D01*
X16884Y18005D01*
X16882Y17986D01*
X16717Y18006D02*
X16717Y17883D01*
X16718Y18006D02*
X16720Y18023D01*
X16725Y18039D01*
X16734Y18054D01*
X16745Y18067D01*
X16759Y18077D01*
X16775Y18084D01*
X16791Y18088D01*
X16809Y18088D01*
X16825Y18084D01*
X16841Y18077D01*
X16855Y18067D01*
X16866Y18054D01*
X16875Y18039D01*
X16880Y18023D01*
X16882Y18006D01*
X16882Y17924D01*
X17717Y17511D02*
X18087Y17511D01*
X17717Y17511D02*
X17717Y17614D01*
X17719Y17632D01*
X17723Y17649D01*
X17731Y17666D01*
X17741Y17680D01*
X17754Y17693D01*
X17769Y17703D01*
X17785Y17711D01*
X17802Y17715D01*
X17820Y17717D01*
X17985Y17717D01*
X18003Y17715D01*
X18020Y17711D01*
X18037Y17703D01*
X18051Y17693D01*
X18064Y17680D01*
X18074Y17665D01*
X18082Y17649D01*
X18086Y17632D01*
X18088Y17614D01*
X18087Y17614D02*
X18087Y17511D01*
X17800Y17883D02*
X17717Y17986D01*
X18087Y17986D01*
X18087Y17883D02*
X18087Y18089D01*
X18717Y17511D02*
X19087Y17511D01*
X18717Y17511D02*
X18717Y17614D01*
X18719Y17632D01*
X18723Y17649D01*
X18731Y17666D01*
X18741Y17680D01*
X18754Y17693D01*
X18769Y17703D01*
X18785Y17711D01*
X18802Y17715D01*
X18820Y17717D01*
X18985Y17717D01*
X19003Y17715D01*
X19020Y17711D01*
X19037Y17703D01*
X19051Y17693D01*
X19064Y17680D01*
X19074Y17665D01*
X19082Y17649D01*
X19086Y17632D01*
X19088Y17614D01*
X19087Y17614D02*
X19087Y17511D01*
X18717Y17996D02*
X18719Y18014D01*
X18724Y18032D01*
X18733Y18048D01*
X18744Y18062D01*
X18758Y18073D01*
X18774Y18082D01*
X18792Y18087D01*
X18810Y18089D01*
X18717Y17996D02*
X18718Y17977D01*
X18723Y17959D01*
X18730Y17942D01*
X18740Y17926D01*
X18752Y17912D01*
X18766Y17900D01*
X18782Y17890D01*
X18799Y17883D01*
X18882Y18057D02*
X18870Y18068D01*
X18856Y18077D01*
X18842Y18083D01*
X18826Y18087D01*
X18810Y18088D01*
X18882Y18058D02*
X19087Y17883D01*
X19087Y18089D01*
X18810Y18449D02*
X18792Y18447D01*
X18774Y18442D01*
X18758Y18433D01*
X18744Y18422D01*
X18733Y18408D01*
X18724Y18392D01*
X18719Y18374D01*
X18717Y18356D01*
X18718Y18337D01*
X18723Y18319D01*
X18730Y18302D01*
X18740Y18286D01*
X18752Y18272D01*
X18766Y18260D01*
X18782Y18250D01*
X18799Y18243D01*
X18882Y18417D02*
X18870Y18428D01*
X18856Y18437D01*
X18842Y18443D01*
X18826Y18447D01*
X18810Y18448D01*
X18882Y18418D02*
X19087Y18243D01*
X19087Y18449D01*
X19717Y17511D02*
X20087Y17511D01*
X19717Y17511D02*
X19717Y17614D01*
X19719Y17632D01*
X19723Y17649D01*
X19731Y17666D01*
X19741Y17680D01*
X19754Y17693D01*
X19769Y17703D01*
X19785Y17711D01*
X19802Y17715D01*
X19820Y17717D01*
X19985Y17717D01*
X20003Y17715D01*
X20020Y17711D01*
X20037Y17703D01*
X20051Y17693D01*
X20064Y17680D01*
X20074Y17665D01*
X20082Y17649D01*
X20086Y17632D01*
X20088Y17614D01*
X20087Y17614D02*
X20087Y17511D01*
X19717Y17996D02*
X19719Y18014D01*
X19724Y18032D01*
X19733Y18048D01*
X19744Y18062D01*
X19758Y18073D01*
X19774Y18082D01*
X19792Y18087D01*
X19810Y18089D01*
X19717Y17996D02*
X19718Y17977D01*
X19723Y17959D01*
X19730Y17942D01*
X19740Y17926D01*
X19752Y17912D01*
X19766Y17900D01*
X19782Y17890D01*
X19799Y17883D01*
X19882Y18057D02*
X19870Y18068D01*
X19856Y18077D01*
X19842Y18083D01*
X19826Y18087D01*
X19810Y18088D01*
X19882Y18058D02*
X20087Y17883D01*
X20087Y18089D01*
X20087Y18243D02*
X20087Y18346D01*
X20088Y18346D02*
X20086Y18365D01*
X20081Y18383D01*
X20073Y18400D01*
X20061Y18415D01*
X20047Y18428D01*
X20031Y18438D01*
X20013Y18445D01*
X19995Y18449D01*
X19975Y18449D01*
X19957Y18445D01*
X19939Y18438D01*
X19923Y18428D01*
X19909Y18415D01*
X19897Y18400D01*
X19889Y18383D01*
X19884Y18365D01*
X19882Y18346D01*
X19717Y18366D02*
X19717Y18243D01*
X19718Y18366D02*
X19720Y18383D01*
X19725Y18399D01*
X19734Y18414D01*
X19745Y18427D01*
X19759Y18437D01*
X19775Y18444D01*
X19791Y18448D01*
X19809Y18448D01*
X19825Y18444D01*
X19841Y18437D01*
X19855Y18427D01*
X19866Y18414D01*
X19875Y18399D01*
X19880Y18383D01*
X19882Y18366D01*
X19882Y18284D01*
X6194Y25481D02*
X5824Y25358D01*
X5824Y25604D02*
X6194Y25481D01*
X6194Y25769D02*
X5824Y25769D01*
X6194Y25728D02*
X6194Y25810D01*
X5824Y25810D02*
X5824Y25728D01*
X5824Y25966D02*
X6194Y25966D01*
X6194Y26172D02*
X5824Y25966D01*
X5824Y26172D02*
X6194Y26172D01*
X6988Y25563D02*
X6988Y25501D01*
X6988Y25563D02*
X7194Y25563D01*
X7194Y25440D01*
X7193Y25440D02*
X7191Y25424D01*
X7187Y25409D01*
X7179Y25394D01*
X7169Y25382D01*
X7157Y25372D01*
X7142Y25364D01*
X7127Y25360D01*
X7111Y25358D01*
X6906Y25358D01*
X6890Y25360D01*
X6875Y25364D01*
X6860Y25372D01*
X6848Y25382D01*
X6838Y25394D01*
X6830Y25409D01*
X6826Y25424D01*
X6824Y25440D01*
X6824Y25563D01*
X7824Y25358D02*
X8194Y25358D01*
X7824Y25358D02*
X7824Y25460D01*
X7823Y25460D02*
X7825Y25478D01*
X7829Y25495D01*
X7837Y25512D01*
X7847Y25526D01*
X7860Y25539D01*
X7875Y25549D01*
X7891Y25557D01*
X7908Y25561D01*
X7926Y25563D01*
X8091Y25563D01*
X8109Y25561D01*
X8126Y25557D01*
X8143Y25549D01*
X8157Y25539D01*
X8170Y25526D01*
X8180Y25511D01*
X8188Y25495D01*
X8192Y25478D01*
X8194Y25460D01*
X8194Y25358D01*
X7906Y25730D02*
X7824Y25832D01*
X8194Y25832D01*
X8194Y25730D02*
X8194Y25935D01*
X8194Y26090D02*
X8194Y26192D01*
X8192Y26211D01*
X8187Y26229D01*
X8179Y26246D01*
X8167Y26261D01*
X8153Y26274D01*
X8137Y26284D01*
X8119Y26291D01*
X8101Y26295D01*
X8081Y26295D01*
X8063Y26291D01*
X8045Y26284D01*
X8029Y26274D01*
X8015Y26261D01*
X8003Y26246D01*
X7995Y26229D01*
X7990Y26211D01*
X7988Y26192D01*
X7824Y26213D02*
X7824Y26090D01*
X7824Y26213D02*
X7826Y26230D01*
X7831Y26246D01*
X7840Y26261D01*
X7851Y26274D01*
X7865Y26284D01*
X7881Y26291D01*
X7897Y26295D01*
X7915Y26295D01*
X7931Y26291D01*
X7947Y26284D01*
X7961Y26274D01*
X7972Y26261D01*
X7981Y26246D01*
X7986Y26230D01*
X7988Y26213D01*
X7988Y26131D01*
X8824Y25358D02*
X9194Y25358D01*
X8824Y25358D02*
X8824Y25460D01*
X8823Y25460D02*
X8825Y25478D01*
X8829Y25495D01*
X8837Y25512D01*
X8847Y25526D01*
X8860Y25539D01*
X8875Y25549D01*
X8891Y25557D01*
X8908Y25561D01*
X8926Y25563D01*
X9091Y25563D01*
X9109Y25561D01*
X9126Y25557D01*
X9143Y25549D01*
X9157Y25539D01*
X9170Y25526D01*
X9180Y25511D01*
X9188Y25495D01*
X9192Y25478D01*
X9194Y25460D01*
X9194Y25358D01*
X8906Y25730D02*
X8824Y25832D01*
X9194Y25832D01*
X9194Y25730D02*
X9194Y25935D01*
X8916Y26296D02*
X8898Y26294D01*
X8880Y26289D01*
X8864Y26280D01*
X8850Y26269D01*
X8839Y26255D01*
X8830Y26239D01*
X8825Y26221D01*
X8823Y26203D01*
X8824Y26184D01*
X8829Y26166D01*
X8836Y26149D01*
X8846Y26133D01*
X8858Y26119D01*
X8872Y26107D01*
X8888Y26097D01*
X8905Y26090D01*
X8988Y26264D02*
X8976Y26275D01*
X8962Y26284D01*
X8948Y26290D01*
X8932Y26294D01*
X8916Y26295D01*
X8988Y26264D02*
X9194Y26090D01*
X9194Y26295D01*
X9824Y25358D02*
X10194Y25358D01*
X9824Y25358D02*
X9824Y25460D01*
X9823Y25460D02*
X9825Y25478D01*
X9829Y25495D01*
X9837Y25512D01*
X9847Y25526D01*
X9860Y25539D01*
X9875Y25549D01*
X9891Y25557D01*
X9908Y25561D01*
X9926Y25563D01*
X10091Y25563D01*
X10109Y25561D01*
X10126Y25557D01*
X10143Y25549D01*
X10157Y25539D01*
X10170Y25526D01*
X10180Y25511D01*
X10188Y25495D01*
X10192Y25478D01*
X10194Y25460D01*
X10194Y25358D01*
X9906Y25730D02*
X9824Y25832D01*
X10194Y25832D01*
X10194Y25730D02*
X10194Y25935D01*
X10111Y26090D02*
X9824Y26172D01*
X10111Y26090D02*
X10111Y26295D01*
X10029Y26233D02*
X10194Y26233D01*
X10824Y25358D02*
X11194Y25358D01*
X10824Y25358D02*
X10824Y25460D01*
X10823Y25460D02*
X10825Y25478D01*
X10829Y25495D01*
X10837Y25512D01*
X10847Y25526D01*
X10860Y25539D01*
X10875Y25549D01*
X10891Y25557D01*
X10908Y25561D01*
X10926Y25563D01*
X11091Y25563D01*
X11109Y25561D01*
X11126Y25557D01*
X11143Y25549D01*
X11157Y25539D01*
X11170Y25526D01*
X11180Y25511D01*
X11188Y25495D01*
X11192Y25478D01*
X11194Y25460D01*
X11194Y25358D01*
X10823Y25843D02*
X10825Y25861D01*
X10830Y25879D01*
X10839Y25895D01*
X10850Y25909D01*
X10864Y25920D01*
X10880Y25929D01*
X10898Y25934D01*
X10916Y25936D01*
X10823Y25843D02*
X10824Y25824D01*
X10829Y25806D01*
X10836Y25789D01*
X10846Y25773D01*
X10858Y25759D01*
X10872Y25747D01*
X10888Y25737D01*
X10905Y25730D01*
X10988Y25904D02*
X10976Y25915D01*
X10962Y25924D01*
X10948Y25930D01*
X10932Y25934D01*
X10916Y25935D01*
X10988Y25904D02*
X11194Y25730D01*
X11194Y25935D01*
X10865Y26090D02*
X10824Y26090D01*
X10824Y26295D01*
X11194Y26192D01*
X11824Y25358D02*
X12194Y25358D01*
X11824Y25358D02*
X11824Y25460D01*
X11823Y25460D02*
X11825Y25478D01*
X11829Y25495D01*
X11837Y25512D01*
X11847Y25526D01*
X11860Y25539D01*
X11875Y25549D01*
X11891Y25557D01*
X11908Y25561D01*
X11926Y25563D01*
X12091Y25563D01*
X12109Y25561D01*
X12126Y25557D01*
X12143Y25549D01*
X12157Y25539D01*
X12170Y25526D01*
X12180Y25511D01*
X12188Y25495D01*
X12192Y25478D01*
X12194Y25460D01*
X12194Y25358D01*
X11823Y25843D02*
X11825Y25861D01*
X11830Y25879D01*
X11839Y25895D01*
X11850Y25909D01*
X11864Y25920D01*
X11880Y25929D01*
X11898Y25934D01*
X11916Y25936D01*
X11823Y25843D02*
X11824Y25824D01*
X11829Y25806D01*
X11836Y25789D01*
X11846Y25773D01*
X11858Y25759D01*
X11872Y25747D01*
X11888Y25737D01*
X11905Y25730D01*
X11988Y25904D02*
X11976Y25915D01*
X11962Y25924D01*
X11948Y25930D01*
X11932Y25934D01*
X11916Y25935D01*
X11988Y25904D02*
X12194Y25730D01*
X12194Y25935D01*
X11988Y26090D02*
X11988Y26213D01*
X11990Y26229D01*
X11994Y26244D01*
X12002Y26259D01*
X12012Y26271D01*
X12024Y26281D01*
X12039Y26289D01*
X12054Y26293D01*
X12070Y26295D01*
X12091Y26295D01*
X12110Y26293D01*
X12128Y26288D01*
X12145Y26280D01*
X12160Y26268D01*
X12173Y26254D01*
X12183Y26238D01*
X12190Y26220D01*
X12194Y26202D01*
X12194Y26182D01*
X12190Y26164D01*
X12183Y26146D01*
X12173Y26130D01*
X12160Y26116D01*
X12145Y26104D01*
X12128Y26096D01*
X12110Y26091D01*
X12091Y26089D01*
X12091Y26090D02*
X11988Y26090D01*
X11965Y26092D01*
X11942Y26097D01*
X11920Y26105D01*
X11899Y26116D01*
X11881Y26130D01*
X11864Y26147D01*
X11850Y26165D01*
X11839Y26186D01*
X11831Y26208D01*
X11826Y26231D01*
X11824Y26254D01*
X12824Y25358D02*
X13194Y25358D01*
X12824Y25358D02*
X12824Y25460D01*
X12823Y25460D02*
X12825Y25478D01*
X12829Y25495D01*
X12837Y25512D01*
X12847Y25526D01*
X12860Y25539D01*
X12875Y25549D01*
X12891Y25557D01*
X12908Y25561D01*
X12926Y25563D01*
X13091Y25563D01*
X13109Y25561D01*
X13126Y25557D01*
X13143Y25549D01*
X13157Y25539D01*
X13170Y25526D01*
X13180Y25511D01*
X13188Y25495D01*
X13192Y25478D01*
X13194Y25460D01*
X13194Y25358D01*
X12823Y25843D02*
X12825Y25861D01*
X12830Y25879D01*
X12839Y25895D01*
X12850Y25909D01*
X12864Y25920D01*
X12880Y25929D01*
X12898Y25934D01*
X12916Y25936D01*
X12823Y25843D02*
X12824Y25824D01*
X12829Y25806D01*
X12836Y25789D01*
X12846Y25773D01*
X12858Y25759D01*
X12872Y25747D01*
X12888Y25737D01*
X12905Y25730D01*
X12988Y25904D02*
X12976Y25915D01*
X12962Y25924D01*
X12948Y25930D01*
X12932Y25934D01*
X12916Y25935D01*
X12988Y25904D02*
X13194Y25730D01*
X13194Y25935D01*
X13194Y26090D02*
X13194Y26213D01*
X13193Y26213D02*
X13191Y26229D01*
X13187Y26244D01*
X13179Y26259D01*
X13169Y26271D01*
X13157Y26281D01*
X13142Y26289D01*
X13127Y26293D01*
X13111Y26295D01*
X13070Y26295D01*
X13054Y26293D01*
X13039Y26289D01*
X13024Y26281D01*
X13012Y26271D01*
X13002Y26259D01*
X12994Y26244D01*
X12990Y26229D01*
X12988Y26213D01*
X12988Y26090D01*
X12824Y26090D01*
X12824Y26295D01*
X13824Y25358D02*
X14194Y25358D01*
X13824Y25358D02*
X13824Y25460D01*
X13823Y25460D02*
X13825Y25478D01*
X13829Y25495D01*
X13837Y25512D01*
X13847Y25526D01*
X13860Y25539D01*
X13875Y25549D01*
X13891Y25557D01*
X13908Y25561D01*
X13926Y25563D01*
X14091Y25563D01*
X14109Y25561D01*
X14126Y25557D01*
X14143Y25549D01*
X14157Y25539D01*
X14170Y25526D01*
X14180Y25511D01*
X14188Y25495D01*
X14192Y25478D01*
X14194Y25460D01*
X14194Y25358D01*
X14194Y25730D02*
X14194Y25832D01*
X14192Y25851D01*
X14187Y25869D01*
X14179Y25886D01*
X14167Y25901D01*
X14153Y25914D01*
X14137Y25924D01*
X14119Y25931D01*
X14101Y25935D01*
X14081Y25935D01*
X14063Y25931D01*
X14045Y25924D01*
X14029Y25914D01*
X14015Y25901D01*
X14003Y25886D01*
X13995Y25869D01*
X13990Y25851D01*
X13988Y25832D01*
X13824Y25853D02*
X13824Y25730D01*
X13824Y25853D02*
X13826Y25870D01*
X13831Y25886D01*
X13840Y25901D01*
X13851Y25914D01*
X13865Y25924D01*
X13881Y25931D01*
X13897Y25935D01*
X13915Y25935D01*
X13931Y25931D01*
X13947Y25924D01*
X13961Y25914D01*
X13972Y25901D01*
X13981Y25886D01*
X13986Y25870D01*
X13988Y25853D01*
X13988Y25771D01*
X14194Y26090D02*
X14194Y26192D01*
X14192Y26211D01*
X14187Y26229D01*
X14179Y26246D01*
X14167Y26261D01*
X14153Y26274D01*
X14137Y26284D01*
X14119Y26291D01*
X14101Y26295D01*
X14081Y26295D01*
X14063Y26291D01*
X14045Y26284D01*
X14029Y26274D01*
X14015Y26261D01*
X14003Y26246D01*
X13995Y26229D01*
X13990Y26211D01*
X13988Y26192D01*
X13824Y26213D02*
X13824Y26090D01*
X13824Y26213D02*
X13826Y26230D01*
X13831Y26246D01*
X13840Y26261D01*
X13851Y26274D01*
X13865Y26284D01*
X13881Y26291D01*
X13897Y26295D01*
X13915Y26295D01*
X13931Y26291D01*
X13947Y26284D01*
X13961Y26274D01*
X13972Y26261D01*
X13981Y26246D01*
X13986Y26230D01*
X13988Y26213D01*
X13988Y26131D01*
X14824Y25358D02*
X15194Y25358D01*
X14824Y25358D02*
X14824Y25460D01*
X14823Y25460D02*
X14825Y25478D01*
X14829Y25495D01*
X14837Y25512D01*
X14847Y25526D01*
X14860Y25539D01*
X14875Y25549D01*
X14891Y25557D01*
X14908Y25561D01*
X14926Y25563D01*
X15091Y25563D01*
X15109Y25561D01*
X15126Y25557D01*
X15143Y25549D01*
X15157Y25539D01*
X15170Y25526D01*
X15180Y25511D01*
X15188Y25495D01*
X15192Y25478D01*
X15194Y25460D01*
X15194Y25358D01*
X15194Y25730D02*
X15194Y25832D01*
X15192Y25851D01*
X15187Y25869D01*
X15179Y25886D01*
X15167Y25901D01*
X15153Y25914D01*
X15137Y25924D01*
X15119Y25931D01*
X15101Y25935D01*
X15081Y25935D01*
X15063Y25931D01*
X15045Y25924D01*
X15029Y25914D01*
X15015Y25901D01*
X15003Y25886D01*
X14995Y25869D01*
X14990Y25851D01*
X14988Y25832D01*
X14824Y25853D02*
X14824Y25730D01*
X14824Y25853D02*
X14826Y25870D01*
X14831Y25886D01*
X14840Y25901D01*
X14851Y25914D01*
X14865Y25924D01*
X14881Y25931D01*
X14897Y25935D01*
X14915Y25935D01*
X14931Y25931D01*
X14947Y25924D01*
X14961Y25914D01*
X14972Y25901D01*
X14981Y25886D01*
X14986Y25870D01*
X14988Y25853D01*
X14988Y25771D01*
X14823Y26203D02*
X14825Y26221D01*
X14830Y26239D01*
X14839Y26255D01*
X14850Y26269D01*
X14864Y26280D01*
X14880Y26289D01*
X14898Y26294D01*
X14916Y26296D01*
X14823Y26203D02*
X14824Y26184D01*
X14829Y26166D01*
X14836Y26149D01*
X14846Y26133D01*
X14858Y26119D01*
X14872Y26107D01*
X14888Y26097D01*
X14905Y26090D01*
X14988Y26264D02*
X14976Y26275D01*
X14962Y26284D01*
X14948Y26290D01*
X14932Y26294D01*
X14916Y26295D01*
X14988Y26264D02*
X15194Y26090D01*
X15194Y26295D01*
X15824Y25358D02*
X16194Y25358D01*
X15824Y25358D02*
X15824Y25460D01*
X15823Y25460D02*
X15825Y25478D01*
X15829Y25495D01*
X15837Y25512D01*
X15847Y25526D01*
X15860Y25539D01*
X15875Y25549D01*
X15891Y25557D01*
X15908Y25561D01*
X15926Y25563D01*
X16091Y25563D01*
X16109Y25561D01*
X16126Y25557D01*
X16143Y25549D01*
X16157Y25539D01*
X16170Y25526D01*
X16180Y25511D01*
X16188Y25495D01*
X16192Y25478D01*
X16194Y25460D01*
X16194Y25358D01*
X16194Y25730D02*
X16194Y25832D01*
X16192Y25851D01*
X16187Y25869D01*
X16179Y25886D01*
X16167Y25901D01*
X16153Y25914D01*
X16137Y25924D01*
X16119Y25931D01*
X16101Y25935D01*
X16081Y25935D01*
X16063Y25931D01*
X16045Y25924D01*
X16029Y25914D01*
X16015Y25901D01*
X16003Y25886D01*
X15995Y25869D01*
X15990Y25851D01*
X15988Y25832D01*
X15824Y25853D02*
X15824Y25730D01*
X15824Y25853D02*
X15826Y25870D01*
X15831Y25886D01*
X15840Y25901D01*
X15851Y25914D01*
X15865Y25924D01*
X15881Y25931D01*
X15897Y25935D01*
X15915Y25935D01*
X15931Y25931D01*
X15947Y25924D01*
X15961Y25914D01*
X15972Y25901D01*
X15981Y25886D01*
X15986Y25870D01*
X15988Y25853D01*
X15988Y25771D01*
X16194Y26090D02*
X16194Y26213D01*
X16193Y26213D02*
X16191Y26229D01*
X16187Y26244D01*
X16179Y26259D01*
X16169Y26271D01*
X16157Y26281D01*
X16142Y26289D01*
X16127Y26293D01*
X16111Y26295D01*
X16070Y26295D01*
X16054Y26293D01*
X16039Y26289D01*
X16024Y26281D01*
X16012Y26271D01*
X16002Y26259D01*
X15994Y26244D01*
X15990Y26229D01*
X15988Y26213D01*
X15988Y26090D01*
X15824Y26090D01*
X15824Y26295D01*
X16824Y25358D02*
X17194Y25358D01*
X16824Y25358D02*
X16824Y25460D01*
X16823Y25460D02*
X16825Y25478D01*
X16829Y25495D01*
X16837Y25512D01*
X16847Y25526D01*
X16860Y25539D01*
X16875Y25549D01*
X16891Y25557D01*
X16908Y25561D01*
X16926Y25563D01*
X17091Y25563D01*
X17109Y25561D01*
X17126Y25557D01*
X17143Y25549D01*
X17157Y25539D01*
X17170Y25526D01*
X17180Y25511D01*
X17188Y25495D01*
X17192Y25478D01*
X17194Y25460D01*
X17194Y25358D01*
X17194Y25730D02*
X17194Y25832D01*
X17192Y25851D01*
X17187Y25869D01*
X17179Y25886D01*
X17167Y25901D01*
X17153Y25914D01*
X17137Y25924D01*
X17119Y25931D01*
X17101Y25935D01*
X17081Y25935D01*
X17063Y25931D01*
X17045Y25924D01*
X17029Y25914D01*
X17015Y25901D01*
X17003Y25886D01*
X16995Y25869D01*
X16990Y25851D01*
X16988Y25832D01*
X16824Y25853D02*
X16824Y25730D01*
X16824Y25853D02*
X16826Y25870D01*
X16831Y25886D01*
X16840Y25901D01*
X16851Y25914D01*
X16865Y25924D01*
X16881Y25931D01*
X16897Y25935D01*
X16915Y25935D01*
X16931Y25931D01*
X16947Y25924D01*
X16961Y25914D01*
X16972Y25901D01*
X16981Y25886D01*
X16986Y25870D01*
X16988Y25853D01*
X16988Y25771D01*
X17111Y26090D02*
X16824Y26172D01*
X17111Y26090D02*
X17111Y26295D01*
X17029Y26233D02*
X17194Y26233D01*
X17824Y25358D02*
X18194Y25481D01*
X17824Y25604D01*
X17824Y25750D02*
X18194Y25750D01*
X18194Y25956D02*
X17824Y25750D01*
X17824Y25956D02*
X18194Y25956D01*
X18824Y25358D02*
X19194Y25481D01*
X18824Y25604D01*
X18824Y25755D02*
X19194Y25755D01*
X18824Y25755D02*
X18824Y25858D01*
X18823Y25858D02*
X18825Y25877D01*
X18830Y25895D01*
X18838Y25912D01*
X18850Y25927D01*
X18864Y25940D01*
X18880Y25950D01*
X18898Y25957D01*
X18916Y25961D01*
X18936Y25961D01*
X18954Y25957D01*
X18972Y25950D01*
X18988Y25940D01*
X19002Y25927D01*
X19014Y25912D01*
X19022Y25895D01*
X19027Y25877D01*
X19029Y25858D01*
X19029Y25755D01*
X20194Y25522D02*
X20194Y25358D01*
X19824Y25358D01*
X19824Y25522D01*
X19988Y25481D02*
X19988Y25358D01*
X19824Y25669D02*
X20194Y25669D01*
X20194Y25874D02*
X19824Y25669D01*
X19824Y25874D02*
X20194Y25874D01*
D11*
X22087Y16102D02*
X2795Y16102D01*
X2795Y27520D02*
X22087Y27520D01*
X22874Y26732D01*
X22874Y16890D01*
X22087Y16102D01*
X2795Y16102D02*
X2008Y16890D01*
X2008Y20531D01*
X2008Y23583D02*
X2008Y26732D01*
X2795Y27520D01*
X925Y23780D02*
X925Y20335D01*
X1122Y20531D02*
X2008Y20531D01*
X3681Y20531D01*
X3681Y23583D02*
X2008Y23583D01*
X1122Y23583D01*
X1417Y23091D02*
X1614Y23091D01*
X1614Y21024D02*
X1417Y21024D01*
X1417Y21614D01*
X1614Y21614D01*
X2205Y21516D02*
X2205Y21122D01*
X2205Y22598D02*
X2205Y22992D01*
X1614Y22500D02*
X1417Y22500D01*
X1417Y23091D01*
X1614Y22598D02*
X1614Y22500D01*
X1614Y22598D02*
X2205Y22598D01*
X1614Y22992D02*
X1614Y23091D01*
X1614Y22992D02*
X2205Y22992D01*
X1614Y21122D02*
X1614Y21024D01*
X1614Y21122D02*
X2205Y21122D01*
X1614Y21516D02*
X1614Y21614D01*
X1614Y21516D02*
X2205Y21516D01*
X6339Y24567D02*
X7520Y24567D01*
X7520Y24075D01*
X6339Y24075D01*
X6339Y24567D01*
X6339Y24075D02*
X5846Y24075D01*
X5846Y22992D01*
X6043Y22992D01*
X6339Y22992D01*
X7815Y22992D02*
X8012Y22992D01*
X8012Y24075D01*
X7520Y24075D01*
X6043Y22992D02*
X6043Y22598D01*
X6339Y22598D01*
X6339Y22992D01*
X6732Y22992D01*
X7520Y22992D02*
X7815Y22992D01*
X7815Y22598D01*
X7520Y22598D01*
X7520Y22992D01*
X7126Y22992D01*
X6732Y22992D01*
X6732Y22598D01*
X7126Y22598D01*
X7126Y22992D01*
X6339Y21122D02*
X6142Y21122D01*
X6339Y21122D02*
X6535Y21122D01*
X6732Y21122D01*
X6929Y21122D01*
X7126Y21122D01*
X7323Y21122D01*
X7520Y21122D01*
X7717Y21122D01*
X6339Y21122D02*
X6339Y21319D01*
X6535Y21319D02*
X6535Y21122D01*
X6732Y21122D02*
X6732Y21319D01*
X6929Y21319D02*
X6929Y21122D01*
X7126Y21122D02*
X7126Y21319D01*
X7323Y21319D02*
X7323Y21122D01*
X7520Y21122D02*
X7520Y21319D01*
X7717Y21122D02*
X7717Y20925D01*
X7717Y20728D01*
X7717Y20531D01*
X7717Y20335D01*
X7717Y20138D01*
X7717Y19941D01*
X7717Y19744D01*
X7717Y19547D01*
X7717Y20925D02*
X7913Y20925D01*
X7913Y20728D02*
X7717Y20728D01*
X7717Y20531D02*
X7913Y20531D01*
X7913Y20335D02*
X7717Y20335D01*
X7717Y20138D02*
X7913Y20138D01*
X7913Y19941D02*
X7717Y19941D01*
X7717Y19744D02*
X7913Y19744D01*
X6142Y19744D02*
X6142Y19547D01*
X6142Y19744D02*
X6142Y19941D01*
X6142Y20138D01*
X6142Y20335D01*
X6142Y20531D01*
X6142Y20728D01*
X6142Y20925D01*
X6142Y21122D01*
X6142Y19744D02*
X5945Y19744D01*
X5945Y19941D02*
X6142Y19941D01*
X6142Y20138D02*
X5945Y20138D01*
X5945Y20335D02*
X6142Y20335D01*
X6142Y20531D02*
X5945Y20531D01*
X5945Y20728D02*
X6142Y20728D01*
X6142Y20925D02*
X5945Y20925D01*
X7520Y19547D02*
X7717Y19547D01*
X7520Y19547D02*
X7323Y19547D01*
X7126Y19547D01*
X6929Y19547D01*
X6732Y19547D01*
X6535Y19547D01*
X6339Y19547D01*
X6142Y19547D01*
X7520Y19547D02*
X7520Y19350D01*
X7323Y19350D02*
X7323Y19547D01*
X7126Y19547D02*
X7126Y19350D01*
X6929Y19350D02*
X6929Y19547D01*
X6732Y19547D02*
X6732Y19350D01*
X6535Y19350D02*
X6535Y19547D01*
X6339Y19547D02*
X6339Y19350D01*
X4862Y17677D02*
X3091Y17677D01*
X4862Y17677D02*
X4862Y18071D01*
X4862Y18661D01*
X4862Y19055D01*
X3091Y19055D01*
X3091Y18661D01*
X3091Y18071D01*
X3091Y17677D01*
X4862Y18661D02*
X5256Y18661D01*
X5256Y18071D01*
X4862Y18071D01*
X3091Y18661D02*
X2697Y18661D01*
X2697Y18071D01*
X3091Y18071D01*
X3484Y18366D02*
X3486Y18410D01*
X3492Y18454D01*
X3502Y18497D01*
X3515Y18539D01*
X3533Y18579D01*
X3554Y18618D01*
X3578Y18655D01*
X3605Y18690D01*
X3636Y18722D01*
X3669Y18751D01*
X3705Y18777D01*
X3743Y18799D01*
X3783Y18818D01*
X3824Y18834D01*
X3867Y18846D01*
X3910Y18854D01*
X3954Y18858D01*
X3998Y18858D01*
X4042Y18854D01*
X4085Y18846D01*
X4128Y18834D01*
X4169Y18818D01*
X4209Y18799D01*
X4247Y18777D01*
X4283Y18751D01*
X4316Y18722D01*
X4347Y18690D01*
X4374Y18655D01*
X4398Y18618D01*
X4419Y18579D01*
X4437Y18539D01*
X4450Y18497D01*
X4460Y18454D01*
X4466Y18410D01*
X4468Y18366D01*
X4466Y18322D01*
X4460Y18278D01*
X4450Y18235D01*
X4437Y18193D01*
X4419Y18153D01*
X4398Y18114D01*
X4374Y18077D01*
X4347Y18042D01*
X4316Y18010D01*
X4283Y17981D01*
X4247Y17955D01*
X4209Y17933D01*
X4169Y17914D01*
X4128Y17898D01*
X4085Y17886D01*
X4042Y17878D01*
X3998Y17874D01*
X3954Y17874D01*
X3910Y17878D01*
X3867Y17886D01*
X3824Y17898D01*
X3783Y17914D01*
X3743Y17933D01*
X3705Y17955D01*
X3669Y17981D01*
X3636Y18010D01*
X3605Y18042D01*
X3578Y18077D01*
X3554Y18114D01*
X3533Y18153D01*
X3515Y18193D01*
X3502Y18235D01*
X3492Y18278D01*
X3486Y18322D01*
X3484Y18366D01*
X13031Y24961D02*
X22874Y24961D01*
X13031Y24961D02*
X13031Y18661D01*
X22874Y18661D01*
X22874Y24961D01*
X13425Y24567D02*
X13425Y19055D01*
X20118Y19055D01*
X20118Y24567D01*
X13425Y24567D01*
D17*
X20512Y23976D02*
X22480Y23976D01*
X22480Y23386D01*
X20906Y23386D01*
X20906Y22795D01*
X22480Y22795D01*
X22480Y22008D01*
X20906Y22008D01*
X20906Y21220D01*
X22480Y21220D01*
X22480Y20433D01*
X22480Y19646D01*
X20315Y19646D01*
X20315Y20433D02*
X22480Y20433D01*
D12*
X15028Y22815D02*
X14823Y22815D01*
X14823Y23275D01*
X15028Y23275D01*
X14976Y23071D02*
X14823Y23071D01*
X15336Y22815D02*
X15354Y22817D01*
X15371Y22821D01*
X15387Y22829D01*
X15402Y22839D01*
X15414Y22851D01*
X15424Y22866D01*
X15432Y22882D01*
X15436Y22899D01*
X15438Y22917D01*
X15336Y22815D02*
X15308Y22817D01*
X15280Y22822D01*
X15253Y22832D01*
X15227Y22844D01*
X15204Y22860D01*
X15183Y22879D01*
X15195Y23173D02*
X15197Y23191D01*
X15201Y23208D01*
X15209Y23224D01*
X15219Y23239D01*
X15231Y23251D01*
X15246Y23261D01*
X15262Y23269D01*
X15279Y23273D01*
X15297Y23275D01*
X15297Y23276D02*
X15322Y23274D01*
X15346Y23270D01*
X15369Y23262D01*
X15392Y23251D01*
X15412Y23238D01*
X15195Y23173D02*
X15197Y23155D01*
X15201Y23138D01*
X15209Y23121D01*
X15219Y23107D01*
X15232Y23094D01*
X15246Y23083D01*
X15387Y23007D02*
X15401Y22996D01*
X15414Y22983D01*
X15424Y22969D01*
X15432Y22952D01*
X15436Y22935D01*
X15438Y22917D01*
X15387Y23007D02*
X15246Y23084D01*
X15639Y23275D02*
X15639Y22815D01*
X15639Y23275D02*
X15767Y23275D01*
X15788Y23273D01*
X15809Y23268D01*
X15828Y23260D01*
X15846Y23248D01*
X15861Y23234D01*
X15874Y23217D01*
X15884Y23198D01*
X15891Y23178D01*
X15895Y23158D01*
X15895Y23136D01*
X15891Y23116D01*
X15884Y23096D01*
X15874Y23077D01*
X15861Y23060D01*
X15846Y23046D01*
X15828Y23034D01*
X15809Y23026D01*
X15788Y23021D01*
X15767Y23019D01*
X15767Y23020D02*
X15639Y23020D01*
X16085Y22815D02*
X16085Y23275D01*
X16213Y23275D01*
X16234Y23273D01*
X16255Y23268D01*
X16274Y23260D01*
X16292Y23248D01*
X16307Y23234D01*
X16320Y23217D01*
X16330Y23198D01*
X16337Y23178D01*
X16341Y23158D01*
X16341Y23136D01*
X16337Y23116D01*
X16330Y23096D01*
X16320Y23077D01*
X16307Y23060D01*
X16292Y23046D01*
X16274Y23034D01*
X16255Y23026D01*
X16234Y23021D01*
X16213Y23019D01*
X16213Y23020D02*
X16085Y23020D01*
X16238Y23020D02*
X16341Y22815D01*
X16548Y22815D02*
X16753Y22815D01*
X16548Y22815D02*
X16548Y23275D01*
X16753Y23275D01*
X16701Y23071D02*
X16548Y23071D01*
X17061Y22815D02*
X17079Y22817D01*
X17096Y22821D01*
X17112Y22829D01*
X17127Y22839D01*
X17139Y22851D01*
X17149Y22866D01*
X17157Y22882D01*
X17161Y22899D01*
X17163Y22917D01*
X17061Y22815D02*
X17033Y22817D01*
X17005Y22822D01*
X16978Y22832D01*
X16952Y22844D01*
X16929Y22860D01*
X16908Y22879D01*
X16920Y23173D02*
X16922Y23191D01*
X16926Y23208D01*
X16934Y23224D01*
X16944Y23239D01*
X16956Y23251D01*
X16971Y23261D01*
X16987Y23269D01*
X17004Y23273D01*
X17022Y23275D01*
X17022Y23276D02*
X17047Y23274D01*
X17071Y23270D01*
X17094Y23262D01*
X17117Y23251D01*
X17137Y23238D01*
X16920Y23173D02*
X16922Y23155D01*
X16926Y23138D01*
X16934Y23121D01*
X16944Y23107D01*
X16957Y23094D01*
X16971Y23083D01*
X17112Y23007D02*
X17126Y22996D01*
X17139Y22983D01*
X17149Y22969D01*
X17157Y22952D01*
X17161Y22935D01*
X17163Y22917D01*
X17112Y23007D02*
X16971Y23084D01*
X17481Y22815D02*
X17499Y22817D01*
X17516Y22821D01*
X17532Y22829D01*
X17547Y22839D01*
X17559Y22851D01*
X17569Y22866D01*
X17577Y22882D01*
X17581Y22899D01*
X17583Y22917D01*
X17481Y22815D02*
X17453Y22817D01*
X17425Y22822D01*
X17398Y22832D01*
X17372Y22844D01*
X17349Y22860D01*
X17328Y22879D01*
X17340Y23173D02*
X17342Y23191D01*
X17346Y23208D01*
X17354Y23224D01*
X17364Y23239D01*
X17376Y23251D01*
X17391Y23261D01*
X17407Y23269D01*
X17424Y23273D01*
X17442Y23275D01*
X17442Y23276D02*
X17467Y23274D01*
X17491Y23270D01*
X17514Y23262D01*
X17537Y23251D01*
X17557Y23238D01*
X17340Y23173D02*
X17342Y23155D01*
X17346Y23138D01*
X17354Y23121D01*
X17364Y23107D01*
X17377Y23094D01*
X17391Y23083D01*
X17532Y23007D02*
X17546Y22996D01*
X17559Y22983D01*
X17569Y22969D01*
X17577Y22952D01*
X17581Y22935D01*
X17583Y22917D01*
X17532Y23007D02*
X17391Y23084D01*
X17800Y23275D02*
X17800Y22815D01*
X17749Y22815D02*
X17851Y22815D01*
X17851Y23275D02*
X17749Y23275D01*
X18048Y23275D02*
X18048Y22815D01*
X18048Y23275D02*
X18253Y23275D01*
X18253Y23071D02*
X18048Y23071D01*
D13*
X13998Y20645D02*
X13834Y20645D01*
X13834Y21015D01*
X13998Y21015D01*
X13957Y20850D02*
X13834Y20850D01*
X14245Y20645D02*
X14261Y20647D01*
X14276Y20651D01*
X14291Y20659D01*
X14303Y20669D01*
X14313Y20681D01*
X14321Y20696D01*
X14325Y20711D01*
X14327Y20727D01*
X14245Y20645D02*
X14222Y20647D01*
X14200Y20651D01*
X14178Y20658D01*
X14158Y20669D01*
X14139Y20681D01*
X14121Y20696D01*
X14132Y20933D02*
X14134Y20949D01*
X14138Y20964D01*
X14146Y20979D01*
X14156Y20991D01*
X14168Y21001D01*
X14183Y21009D01*
X14198Y21013D01*
X14214Y21015D01*
X14234Y21014D01*
X14253Y21010D01*
X14272Y21004D01*
X14290Y20995D01*
X14306Y20984D01*
X14172Y20861D02*
X14158Y20871D01*
X14147Y20884D01*
X14138Y20899D01*
X14133Y20916D01*
X14131Y20933D01*
X14286Y20799D02*
X14300Y20789D01*
X14311Y20776D01*
X14320Y20761D01*
X14325Y20744D01*
X14327Y20727D01*
X14286Y20799D02*
X14173Y20861D01*
X14486Y21015D02*
X14486Y20645D01*
X14486Y21015D02*
X14589Y21015D01*
X14608Y21013D01*
X14626Y21008D01*
X14643Y21000D01*
X14658Y20988D01*
X14671Y20974D01*
X14681Y20958D01*
X14688Y20940D01*
X14692Y20922D01*
X14692Y20902D01*
X14688Y20884D01*
X14681Y20866D01*
X14671Y20850D01*
X14658Y20836D01*
X14643Y20824D01*
X14626Y20816D01*
X14608Y20811D01*
X14589Y20809D01*
X14486Y20809D01*
X14833Y20789D02*
X15079Y20789D01*
X15237Y20645D02*
X15340Y20645D01*
X15359Y20647D01*
X15377Y20652D01*
X15394Y20660D01*
X15409Y20672D01*
X15422Y20686D01*
X15432Y20702D01*
X15439Y20720D01*
X15443Y20738D01*
X15443Y20758D01*
X15439Y20776D01*
X15432Y20794D01*
X15422Y20810D01*
X15409Y20824D01*
X15394Y20836D01*
X15377Y20844D01*
X15359Y20849D01*
X15340Y20851D01*
X15361Y21015D02*
X15237Y21015D01*
X15361Y21015D02*
X15378Y21013D01*
X15394Y21008D01*
X15409Y20999D01*
X15422Y20988D01*
X15432Y20974D01*
X15439Y20958D01*
X15443Y20942D01*
X15443Y20924D01*
X15439Y20908D01*
X15432Y20892D01*
X15422Y20878D01*
X15409Y20867D01*
X15394Y20858D01*
X15378Y20853D01*
X15361Y20851D01*
X15361Y20850D02*
X15278Y20850D01*
X15710Y21015D02*
X15728Y21013D01*
X15746Y21008D01*
X15762Y20999D01*
X15776Y20988D01*
X15787Y20974D01*
X15796Y20958D01*
X15801Y20940D01*
X15803Y20922D01*
X15710Y21015D02*
X15691Y21014D01*
X15673Y21009D01*
X15656Y21002D01*
X15640Y20992D01*
X15626Y20980D01*
X15614Y20966D01*
X15604Y20950D01*
X15597Y20933D01*
X15771Y20850D02*
X15782Y20862D01*
X15791Y20876D01*
X15797Y20890D01*
X15801Y20906D01*
X15802Y20922D01*
X15772Y20850D02*
X15597Y20645D01*
X15803Y20645D01*
X15961Y20789D02*
X16207Y20789D01*
X16352Y21015D02*
X16434Y20645D01*
X16516Y20892D01*
X16598Y20645D01*
X16680Y21015D01*
X16835Y21015D02*
X16835Y20645D01*
X16835Y21015D02*
X16938Y21015D01*
X16957Y21013D01*
X16975Y21008D01*
X16992Y21000D01*
X17007Y20988D01*
X17020Y20974D01*
X17030Y20958D01*
X17037Y20940D01*
X17041Y20922D01*
X17041Y20902D01*
X17037Y20884D01*
X17030Y20866D01*
X17020Y20850D01*
X17007Y20836D01*
X16992Y20824D01*
X16975Y20816D01*
X16957Y20811D01*
X16938Y20809D01*
X16835Y20809D01*
X16959Y20809D02*
X17041Y20645D01*
X17193Y20748D02*
X17193Y20912D01*
X17195Y20931D01*
X17200Y20949D01*
X17208Y20966D01*
X17220Y20981D01*
X17234Y20994D01*
X17250Y21004D01*
X17268Y21011D01*
X17286Y21015D01*
X17306Y21015D01*
X17324Y21011D01*
X17342Y21004D01*
X17358Y20994D01*
X17372Y20981D01*
X17384Y20966D01*
X17392Y20949D01*
X17397Y20931D01*
X17399Y20912D01*
X17399Y20748D01*
X17397Y20729D01*
X17392Y20711D01*
X17384Y20694D01*
X17372Y20679D01*
X17358Y20666D01*
X17342Y20656D01*
X17324Y20649D01*
X17306Y20645D01*
X17286Y20645D01*
X17268Y20649D01*
X17250Y20656D01*
X17234Y20666D01*
X17220Y20679D01*
X17208Y20694D01*
X17200Y20711D01*
X17195Y20729D01*
X17193Y20748D01*
X17553Y20748D02*
X17553Y20912D01*
X17555Y20931D01*
X17560Y20949D01*
X17568Y20966D01*
X17580Y20981D01*
X17594Y20994D01*
X17610Y21004D01*
X17628Y21011D01*
X17646Y21015D01*
X17666Y21015D01*
X17684Y21011D01*
X17702Y21004D01*
X17718Y20994D01*
X17732Y20981D01*
X17744Y20966D01*
X17752Y20949D01*
X17757Y20931D01*
X17759Y20912D01*
X17759Y20748D01*
X17757Y20729D01*
X17752Y20711D01*
X17744Y20694D01*
X17732Y20679D01*
X17718Y20666D01*
X17702Y20656D01*
X17684Y20649D01*
X17666Y20645D01*
X17646Y20645D01*
X17628Y20649D01*
X17610Y20656D01*
X17594Y20666D01*
X17580Y20679D01*
X17568Y20694D01*
X17560Y20711D01*
X17555Y20729D01*
X17553Y20748D01*
X17929Y20645D02*
X17929Y21015D01*
X18052Y20809D01*
X18175Y21015D01*
X18175Y20645D01*
X18349Y20789D02*
X18595Y20789D01*
X18753Y20645D02*
X18856Y20645D01*
X18875Y20647D01*
X18893Y20652D01*
X18910Y20660D01*
X18925Y20672D01*
X18938Y20686D01*
X18948Y20702D01*
X18955Y20720D01*
X18959Y20738D01*
X18959Y20758D01*
X18955Y20776D01*
X18948Y20794D01*
X18938Y20810D01*
X18925Y20824D01*
X18910Y20836D01*
X18893Y20844D01*
X18875Y20849D01*
X18856Y20851D01*
X18877Y21015D02*
X18753Y21015D01*
X18877Y21015D02*
X18894Y21013D01*
X18910Y21008D01*
X18925Y20999D01*
X18938Y20988D01*
X18948Y20974D01*
X18955Y20958D01*
X18959Y20942D01*
X18959Y20924D01*
X18955Y20908D01*
X18948Y20892D01*
X18938Y20878D01*
X18925Y20867D01*
X18910Y20858D01*
X18894Y20853D01*
X18877Y20851D01*
X18877Y20850D02*
X18794Y20850D01*
X19226Y21015D02*
X19244Y21013D01*
X19262Y21008D01*
X19278Y20999D01*
X19292Y20988D01*
X19303Y20974D01*
X19312Y20958D01*
X19317Y20940D01*
X19319Y20922D01*
X19226Y21015D02*
X19207Y21014D01*
X19189Y21009D01*
X19172Y21002D01*
X19156Y20992D01*
X19142Y20980D01*
X19130Y20966D01*
X19120Y20950D01*
X19113Y20933D01*
X19287Y20850D02*
X19298Y20862D01*
X19307Y20876D01*
X19313Y20890D01*
X19317Y20906D01*
X19318Y20922D01*
X19288Y20850D02*
X19113Y20645D01*
X19319Y20645D01*
D11*
X1122Y23583D02*
X925Y23780D01*
X1122Y20531D02*
X925Y20335D01*
X3878Y23386D02*
X3681Y23583D01*
X3878Y23386D02*
X3878Y20728D01*
X3681Y20531D01*
X3091Y24961D02*
X4862Y24961D01*
X4862Y25354D01*
X4862Y25945D01*
X4862Y26339D01*
X3091Y26339D01*
X3091Y25945D01*
X3091Y25354D01*
X3091Y24961D01*
X4862Y25945D02*
X5256Y25945D01*
X5256Y25354D01*
X4862Y25354D01*
X3091Y25945D02*
X2697Y25945D01*
X2697Y25354D01*
X3091Y25354D01*
X3484Y25650D02*
X3486Y25694D01*
X3492Y25738D01*
X3502Y25781D01*
X3515Y25823D01*
X3533Y25863D01*
X3554Y25902D01*
X3578Y25939D01*
X3605Y25974D01*
X3636Y26006D01*
X3669Y26035D01*
X3705Y26061D01*
X3743Y26083D01*
X3783Y26102D01*
X3824Y26118D01*
X3867Y26130D01*
X3910Y26138D01*
X3954Y26142D01*
X3998Y26142D01*
X4042Y26138D01*
X4085Y26130D01*
X4128Y26118D01*
X4169Y26102D01*
X4209Y26083D01*
X4247Y26061D01*
X4283Y26035D01*
X4316Y26006D01*
X4347Y25974D01*
X4374Y25939D01*
X4398Y25902D01*
X4419Y25863D01*
X4437Y25823D01*
X4450Y25781D01*
X4460Y25738D01*
X4466Y25694D01*
X4468Y25650D01*
X4466Y25606D01*
X4460Y25562D01*
X4450Y25519D01*
X4437Y25477D01*
X4419Y25437D01*
X4398Y25398D01*
X4374Y25361D01*
X4347Y25326D01*
X4316Y25294D01*
X4283Y25265D01*
X4247Y25239D01*
X4209Y25217D01*
X4169Y25198D01*
X4128Y25182D01*
X4085Y25170D01*
X4042Y25162D01*
X3998Y25158D01*
X3954Y25158D01*
X3910Y25162D01*
X3867Y25170D01*
X3824Y25182D01*
X3783Y25198D01*
X3743Y25217D01*
X3705Y25239D01*
X3669Y25265D01*
X3636Y25294D01*
X3605Y25326D01*
X3578Y25361D01*
X3554Y25398D01*
X3533Y25437D01*
X3515Y25477D01*
X3502Y25519D01*
X3492Y25562D01*
X3486Y25606D01*
X3484Y25650D01*
D12*
X3307Y28016D02*
X3103Y28016D01*
X3103Y28476D01*
X3307Y28476D01*
X3256Y28272D02*
X3103Y28272D01*
X3615Y28016D02*
X3633Y28018D01*
X3650Y28022D01*
X3666Y28030D01*
X3681Y28040D01*
X3693Y28052D01*
X3703Y28067D01*
X3711Y28083D01*
X3715Y28100D01*
X3717Y28118D01*
X3615Y28016D02*
X3587Y28018D01*
X3559Y28023D01*
X3532Y28033D01*
X3506Y28045D01*
X3483Y28061D01*
X3462Y28080D01*
X3475Y28374D02*
X3477Y28392D01*
X3481Y28409D01*
X3489Y28425D01*
X3499Y28440D01*
X3511Y28452D01*
X3526Y28462D01*
X3542Y28470D01*
X3559Y28474D01*
X3577Y28476D01*
X3602Y28474D01*
X3626Y28470D01*
X3649Y28462D01*
X3672Y28451D01*
X3692Y28438D01*
X3474Y28374D02*
X3476Y28356D01*
X3480Y28339D01*
X3488Y28322D01*
X3498Y28308D01*
X3511Y28295D01*
X3525Y28284D01*
X3667Y28208D02*
X3681Y28197D01*
X3694Y28184D01*
X3704Y28170D01*
X3712Y28153D01*
X3716Y28136D01*
X3718Y28118D01*
X3666Y28208D02*
X3526Y28284D01*
X3918Y28476D02*
X3918Y28016D01*
X3918Y28476D02*
X4046Y28476D01*
X4067Y28474D01*
X4088Y28469D01*
X4107Y28461D01*
X4125Y28449D01*
X4140Y28435D01*
X4153Y28418D01*
X4163Y28399D01*
X4170Y28379D01*
X4174Y28359D01*
X4174Y28337D01*
X4170Y28317D01*
X4163Y28297D01*
X4153Y28278D01*
X4140Y28261D01*
X4125Y28247D01*
X4107Y28235D01*
X4088Y28227D01*
X4067Y28222D01*
X4046Y28220D01*
X4046Y28221D02*
X3918Y28221D01*
X4327Y27965D02*
X4532Y27965D01*
X4726Y28016D02*
X4726Y28476D01*
X4880Y28221D01*
X5033Y28476D01*
X5033Y28016D01*
X5247Y28144D02*
X5247Y28348D01*
X5249Y28369D01*
X5254Y28390D01*
X5262Y28409D01*
X5274Y28427D01*
X5288Y28442D01*
X5305Y28455D01*
X5324Y28465D01*
X5344Y28472D01*
X5364Y28476D01*
X5386Y28476D01*
X5406Y28472D01*
X5426Y28465D01*
X5445Y28455D01*
X5462Y28442D01*
X5476Y28427D01*
X5488Y28409D01*
X5496Y28390D01*
X5501Y28369D01*
X5503Y28348D01*
X5502Y28348D02*
X5502Y28144D01*
X5503Y28144D02*
X5501Y28123D01*
X5496Y28102D01*
X5488Y28083D01*
X5476Y28065D01*
X5462Y28050D01*
X5445Y28037D01*
X5426Y28027D01*
X5406Y28020D01*
X5386Y28016D01*
X5364Y28016D01*
X5344Y28020D01*
X5324Y28027D01*
X5305Y28037D01*
X5288Y28050D01*
X5274Y28065D01*
X5262Y28083D01*
X5254Y28102D01*
X5249Y28123D01*
X5247Y28144D01*
X5795Y28016D02*
X5795Y28476D01*
X5922Y28476D02*
X5667Y28476D01*
D13*
X5851Y3480D02*
X5851Y3377D01*
X5851Y3480D02*
X5849Y3499D01*
X5844Y3517D01*
X5836Y3534D01*
X5824Y3549D01*
X5810Y3562D01*
X5794Y3572D01*
X5776Y3579D01*
X5758Y3583D01*
X5738Y3583D01*
X5720Y3579D01*
X5702Y3572D01*
X5686Y3562D01*
X5672Y3549D01*
X5660Y3534D01*
X5652Y3517D01*
X5647Y3499D01*
X5645Y3480D01*
X5481Y3501D02*
X5481Y3377D01*
X5481Y3501D02*
X5483Y3518D01*
X5488Y3534D01*
X5497Y3549D01*
X5508Y3562D01*
X5522Y3572D01*
X5538Y3579D01*
X5554Y3583D01*
X5572Y3583D01*
X5588Y3579D01*
X5604Y3572D01*
X5618Y3562D01*
X5629Y3549D01*
X5638Y3534D01*
X5643Y3518D01*
X5645Y3501D01*
X5646Y3501D02*
X5646Y3418D01*
X5481Y3717D02*
X5851Y3840D01*
X5481Y3963D01*
X5851Y4097D02*
X5851Y4200D01*
X5849Y4219D01*
X5844Y4237D01*
X5836Y4254D01*
X5824Y4269D01*
X5810Y4282D01*
X5794Y4292D01*
X5776Y4299D01*
X5758Y4303D01*
X5738Y4303D01*
X5720Y4299D01*
X5702Y4292D01*
X5686Y4282D01*
X5672Y4269D01*
X5660Y4254D01*
X5652Y4237D01*
X5647Y4219D01*
X5645Y4200D01*
X5481Y4221D02*
X5481Y4097D01*
X5481Y4221D02*
X5483Y4238D01*
X5488Y4254D01*
X5497Y4269D01*
X5508Y4282D01*
X5522Y4292D01*
X5538Y4299D01*
X5554Y4303D01*
X5572Y4303D01*
X5588Y4299D01*
X5604Y4292D01*
X5618Y4282D01*
X5629Y4269D01*
X5638Y4254D01*
X5643Y4238D01*
X5645Y4221D01*
X5646Y4221D02*
X5646Y4138D01*
X6646Y3583D02*
X6646Y3521D01*
X6646Y3583D02*
X6851Y3583D01*
X6851Y3459D01*
X6849Y3443D01*
X6845Y3428D01*
X6837Y3413D01*
X6827Y3401D01*
X6815Y3391D01*
X6800Y3383D01*
X6785Y3379D01*
X6769Y3377D01*
X6563Y3377D01*
X6547Y3379D01*
X6532Y3383D01*
X6517Y3391D01*
X6505Y3401D01*
X6495Y3413D01*
X6487Y3428D01*
X6483Y3443D01*
X6481Y3459D01*
X6481Y3583D01*
X6481Y3761D02*
X6851Y3761D01*
X6851Y3967D02*
X6481Y3761D01*
X6481Y3967D02*
X6851Y3967D01*
X6851Y4145D02*
X6481Y4145D01*
X6481Y4248D01*
X6483Y4266D01*
X6487Y4283D01*
X6495Y4300D01*
X6505Y4314D01*
X6518Y4327D01*
X6533Y4337D01*
X6549Y4345D01*
X6566Y4349D01*
X6584Y4351D01*
X6748Y4351D01*
X6766Y4349D01*
X6783Y4345D01*
X6800Y4337D01*
X6814Y4327D01*
X6827Y4314D01*
X6837Y4299D01*
X6845Y4283D01*
X6849Y4266D01*
X6851Y4248D01*
X6851Y4145D01*
X7481Y3377D02*
X7851Y3377D01*
X7481Y3377D02*
X7481Y3480D01*
X7483Y3498D01*
X7487Y3515D01*
X7495Y3532D01*
X7505Y3546D01*
X7518Y3559D01*
X7533Y3569D01*
X7549Y3577D01*
X7566Y3581D01*
X7584Y3583D01*
X7748Y3583D01*
X7766Y3581D01*
X7783Y3577D01*
X7800Y3569D01*
X7814Y3559D01*
X7827Y3546D01*
X7837Y3531D01*
X7845Y3515D01*
X7849Y3498D01*
X7851Y3480D01*
X7851Y3377D01*
X7563Y3749D02*
X7481Y3852D01*
X7851Y3852D01*
X7851Y3749D02*
X7851Y3955D01*
X7851Y4109D02*
X7851Y4233D01*
X7849Y4249D01*
X7845Y4264D01*
X7837Y4279D01*
X7827Y4291D01*
X7815Y4301D01*
X7800Y4309D01*
X7785Y4313D01*
X7769Y4315D01*
X7728Y4315D01*
X7712Y4313D01*
X7697Y4309D01*
X7682Y4301D01*
X7670Y4291D01*
X7660Y4279D01*
X7652Y4264D01*
X7648Y4249D01*
X7646Y4233D01*
X7646Y4109D01*
X7481Y4109D01*
X7481Y4315D01*
X8481Y3377D02*
X8851Y3377D01*
X8481Y3377D02*
X8481Y3480D01*
X8483Y3498D01*
X8487Y3515D01*
X8495Y3532D01*
X8505Y3546D01*
X8518Y3559D01*
X8533Y3569D01*
X8549Y3577D01*
X8566Y3581D01*
X8584Y3583D01*
X8748Y3583D01*
X8766Y3581D01*
X8783Y3577D01*
X8800Y3569D01*
X8814Y3559D01*
X8827Y3546D01*
X8837Y3531D01*
X8845Y3515D01*
X8849Y3498D01*
X8851Y3480D01*
X8851Y3377D01*
X8481Y3862D02*
X8483Y3880D01*
X8488Y3898D01*
X8497Y3914D01*
X8508Y3928D01*
X8522Y3939D01*
X8538Y3948D01*
X8556Y3953D01*
X8574Y3955D01*
X8481Y3862D02*
X8482Y3843D01*
X8487Y3825D01*
X8494Y3808D01*
X8504Y3792D01*
X8516Y3778D01*
X8530Y3766D01*
X8546Y3756D01*
X8563Y3749D01*
X8646Y3923D02*
X8634Y3934D01*
X8620Y3943D01*
X8606Y3949D01*
X8590Y3953D01*
X8574Y3954D01*
X8646Y3924D02*
X8851Y3749D01*
X8851Y3955D01*
X9481Y3377D02*
X9851Y3377D01*
X9481Y3377D02*
X9481Y3480D01*
X9483Y3498D01*
X9487Y3515D01*
X9495Y3532D01*
X9505Y3546D01*
X9518Y3559D01*
X9533Y3569D01*
X9549Y3577D01*
X9566Y3581D01*
X9584Y3583D01*
X9748Y3583D01*
X9766Y3581D01*
X9783Y3577D01*
X9800Y3569D01*
X9814Y3559D01*
X9827Y3546D01*
X9837Y3531D01*
X9845Y3515D01*
X9849Y3498D01*
X9851Y3480D01*
X9851Y3377D01*
X9769Y3749D02*
X9481Y3831D01*
X9769Y3749D02*
X9769Y3955D01*
X9687Y3893D02*
X9851Y3893D01*
X10481Y3377D02*
X10851Y3377D01*
X10481Y3377D02*
X10481Y3480D01*
X10483Y3498D01*
X10487Y3515D01*
X10495Y3532D01*
X10505Y3546D01*
X10518Y3559D01*
X10533Y3569D01*
X10549Y3577D01*
X10566Y3581D01*
X10584Y3583D01*
X10748Y3583D01*
X10766Y3581D01*
X10783Y3577D01*
X10800Y3569D01*
X10814Y3559D01*
X10827Y3546D01*
X10837Y3531D01*
X10845Y3515D01*
X10849Y3498D01*
X10851Y3480D01*
X10851Y3377D01*
X10563Y3749D02*
X10481Y3852D01*
X10851Y3852D01*
X10851Y3749D02*
X10851Y3955D01*
X10646Y4109D02*
X10646Y4233D01*
X10648Y4249D01*
X10652Y4264D01*
X10660Y4279D01*
X10670Y4291D01*
X10682Y4301D01*
X10697Y4309D01*
X10712Y4313D01*
X10728Y4315D01*
X10748Y4315D01*
X10767Y4313D01*
X10785Y4308D01*
X10802Y4300D01*
X10817Y4288D01*
X10830Y4274D01*
X10840Y4258D01*
X10847Y4240D01*
X10851Y4222D01*
X10851Y4202D01*
X10847Y4184D01*
X10840Y4166D01*
X10830Y4150D01*
X10817Y4136D01*
X10802Y4124D01*
X10785Y4116D01*
X10767Y4111D01*
X10748Y4109D01*
X10646Y4109D01*
X10646Y4110D02*
X10623Y4112D01*
X10600Y4117D01*
X10578Y4125D01*
X10557Y4136D01*
X10539Y4150D01*
X10522Y4167D01*
X10508Y4185D01*
X10497Y4206D01*
X10489Y4228D01*
X10484Y4251D01*
X10482Y4274D01*
X11481Y3377D02*
X11851Y3377D01*
X11481Y3377D02*
X11481Y3480D01*
X11483Y3498D01*
X11487Y3515D01*
X11495Y3532D01*
X11505Y3546D01*
X11518Y3559D01*
X11533Y3569D01*
X11549Y3577D01*
X11566Y3581D01*
X11584Y3583D01*
X11748Y3583D01*
X11766Y3581D01*
X11783Y3577D01*
X11800Y3569D01*
X11814Y3559D01*
X11827Y3546D01*
X11837Y3531D01*
X11845Y3515D01*
X11849Y3498D01*
X11851Y3480D01*
X11851Y3377D01*
X11563Y3749D02*
X11481Y3852D01*
X11851Y3852D01*
X11851Y3749D02*
X11851Y3955D01*
X11522Y4109D02*
X11481Y4109D01*
X11481Y4315D01*
X11851Y4212D01*
X12481Y3377D02*
X12851Y3377D01*
X12481Y3377D02*
X12481Y3480D01*
X12483Y3498D01*
X12487Y3515D01*
X12495Y3532D01*
X12505Y3546D01*
X12518Y3559D01*
X12533Y3569D01*
X12549Y3577D01*
X12566Y3581D01*
X12584Y3583D01*
X12748Y3583D01*
X12766Y3581D01*
X12783Y3577D01*
X12800Y3569D01*
X12814Y3559D01*
X12827Y3546D01*
X12837Y3531D01*
X12845Y3515D01*
X12849Y3498D01*
X12851Y3480D01*
X12851Y3377D01*
X12851Y3749D02*
X12851Y3873D01*
X12849Y3889D01*
X12845Y3904D01*
X12837Y3919D01*
X12827Y3931D01*
X12815Y3941D01*
X12800Y3949D01*
X12785Y3953D01*
X12769Y3955D01*
X12728Y3955D01*
X12712Y3953D01*
X12697Y3949D01*
X12682Y3941D01*
X12670Y3931D01*
X12660Y3919D01*
X12652Y3904D01*
X12648Y3889D01*
X12646Y3873D01*
X12646Y3749D01*
X12481Y3749D01*
X12481Y3955D01*
X13481Y3377D02*
X13851Y3377D01*
X13481Y3377D02*
X13481Y3480D01*
X13483Y3498D01*
X13487Y3515D01*
X13495Y3532D01*
X13505Y3546D01*
X13518Y3559D01*
X13533Y3569D01*
X13549Y3577D01*
X13566Y3581D01*
X13584Y3583D01*
X13748Y3583D01*
X13766Y3581D01*
X13783Y3577D01*
X13800Y3569D01*
X13814Y3559D01*
X13827Y3546D01*
X13837Y3531D01*
X13845Y3515D01*
X13849Y3498D01*
X13851Y3480D01*
X13851Y3377D01*
X13563Y3749D02*
X13481Y3852D01*
X13851Y3852D01*
X13851Y3749D02*
X13851Y3955D01*
X13748Y4109D02*
X13729Y4111D01*
X13711Y4116D01*
X13694Y4124D01*
X13679Y4136D01*
X13666Y4150D01*
X13656Y4166D01*
X13649Y4184D01*
X13645Y4202D01*
X13645Y4222D01*
X13649Y4240D01*
X13656Y4258D01*
X13666Y4274D01*
X13679Y4288D01*
X13694Y4300D01*
X13711Y4308D01*
X13729Y4313D01*
X13748Y4315D01*
X13767Y4313D01*
X13785Y4308D01*
X13802Y4300D01*
X13817Y4288D01*
X13830Y4274D01*
X13840Y4258D01*
X13847Y4240D01*
X13851Y4222D01*
X13851Y4202D01*
X13847Y4184D01*
X13840Y4166D01*
X13830Y4150D01*
X13817Y4136D01*
X13802Y4124D01*
X13785Y4116D01*
X13767Y4111D01*
X13748Y4109D01*
X13563Y4130D02*
X13546Y4132D01*
X13530Y4137D01*
X13515Y4146D01*
X13502Y4157D01*
X13492Y4171D01*
X13485Y4187D01*
X13481Y4203D01*
X13481Y4221D01*
X13485Y4237D01*
X13492Y4253D01*
X13502Y4267D01*
X13515Y4278D01*
X13530Y4287D01*
X13546Y4292D01*
X13563Y4294D01*
X13580Y4292D01*
X13596Y4287D01*
X13611Y4278D01*
X13624Y4267D01*
X13634Y4253D01*
X13641Y4237D01*
X13645Y4221D01*
X13645Y4203D01*
X13641Y4187D01*
X13634Y4171D01*
X13624Y4157D01*
X13611Y4146D01*
X13596Y4137D01*
X13580Y4132D01*
X13563Y4130D01*
X14481Y3377D02*
X14851Y3377D01*
X14481Y3377D02*
X14481Y3480D01*
X14483Y3498D01*
X14487Y3515D01*
X14495Y3532D01*
X14505Y3546D01*
X14518Y3559D01*
X14533Y3569D01*
X14549Y3577D01*
X14566Y3581D01*
X14584Y3583D01*
X14748Y3583D01*
X14766Y3581D01*
X14783Y3577D01*
X14800Y3569D01*
X14814Y3559D01*
X14827Y3546D01*
X14837Y3531D01*
X14845Y3515D01*
X14849Y3498D01*
X14851Y3480D01*
X14851Y3377D01*
X14563Y3749D02*
X14481Y3852D01*
X14851Y3852D01*
X14851Y3749D02*
X14851Y3955D01*
X14687Y4191D02*
X14687Y4315D01*
X14686Y4191D02*
X14684Y4175D01*
X14680Y4160D01*
X14672Y4145D01*
X14662Y4133D01*
X14650Y4123D01*
X14635Y4115D01*
X14620Y4111D01*
X14604Y4109D01*
X14584Y4109D01*
X14565Y4111D01*
X14547Y4116D01*
X14530Y4124D01*
X14515Y4136D01*
X14502Y4150D01*
X14492Y4166D01*
X14485Y4184D01*
X14481Y4202D01*
X14481Y4222D01*
X14485Y4240D01*
X14492Y4258D01*
X14502Y4274D01*
X14515Y4288D01*
X14530Y4300D01*
X14547Y4308D01*
X14565Y4313D01*
X14584Y4315D01*
X14687Y4315D01*
X14687Y4314D02*
X14710Y4312D01*
X14733Y4307D01*
X14755Y4299D01*
X14776Y4288D01*
X14794Y4274D01*
X14811Y4257D01*
X14825Y4239D01*
X14836Y4218D01*
X14844Y4196D01*
X14849Y4173D01*
X14851Y4150D01*
X15481Y3377D02*
X15851Y3377D01*
X15481Y3377D02*
X15481Y3480D01*
X15483Y3498D01*
X15487Y3515D01*
X15495Y3532D01*
X15505Y3546D01*
X15518Y3559D01*
X15533Y3569D01*
X15549Y3577D01*
X15566Y3581D01*
X15584Y3583D01*
X15748Y3583D01*
X15766Y3581D01*
X15783Y3577D01*
X15800Y3569D01*
X15814Y3559D01*
X15827Y3546D01*
X15837Y3531D01*
X15845Y3515D01*
X15849Y3498D01*
X15851Y3480D01*
X15851Y3377D01*
X15481Y3862D02*
X15483Y3880D01*
X15488Y3898D01*
X15497Y3914D01*
X15508Y3928D01*
X15522Y3939D01*
X15538Y3948D01*
X15556Y3953D01*
X15574Y3955D01*
X15481Y3862D02*
X15482Y3843D01*
X15487Y3825D01*
X15494Y3808D01*
X15504Y3792D01*
X15516Y3778D01*
X15530Y3766D01*
X15546Y3756D01*
X15563Y3749D01*
X15646Y3923D02*
X15634Y3934D01*
X15620Y3943D01*
X15606Y3949D01*
X15590Y3953D01*
X15574Y3954D01*
X15646Y3924D02*
X15851Y3749D01*
X15851Y3955D01*
X15563Y4109D02*
X15481Y4212D01*
X15851Y4212D01*
X15851Y4109D02*
X15851Y4315D01*
X16481Y3377D02*
X16851Y3377D01*
X16481Y3377D02*
X16481Y3480D01*
X16483Y3498D01*
X16487Y3515D01*
X16495Y3532D01*
X16505Y3546D01*
X16518Y3559D01*
X16533Y3569D01*
X16549Y3577D01*
X16566Y3581D01*
X16584Y3583D01*
X16748Y3583D01*
X16766Y3581D01*
X16783Y3577D01*
X16800Y3569D01*
X16814Y3559D01*
X16827Y3546D01*
X16837Y3531D01*
X16845Y3515D01*
X16849Y3498D01*
X16851Y3480D01*
X16851Y3377D01*
X16851Y3749D02*
X16851Y3852D01*
X16849Y3871D01*
X16844Y3889D01*
X16836Y3906D01*
X16824Y3921D01*
X16810Y3934D01*
X16794Y3944D01*
X16776Y3951D01*
X16758Y3955D01*
X16738Y3955D01*
X16720Y3951D01*
X16702Y3944D01*
X16686Y3934D01*
X16672Y3921D01*
X16660Y3906D01*
X16652Y3889D01*
X16647Y3871D01*
X16645Y3852D01*
X16481Y3873D02*
X16481Y3749D01*
X16481Y3873D02*
X16483Y3890D01*
X16488Y3906D01*
X16497Y3921D01*
X16508Y3934D01*
X16522Y3944D01*
X16538Y3951D01*
X16554Y3955D01*
X16572Y3955D01*
X16588Y3951D01*
X16604Y3944D01*
X16618Y3934D01*
X16629Y3921D01*
X16638Y3906D01*
X16643Y3890D01*
X16645Y3873D01*
X16646Y3873D02*
X16646Y3790D01*
X17481Y3377D02*
X17851Y3377D01*
X17481Y3377D02*
X17481Y3480D01*
X17483Y3498D01*
X17487Y3515D01*
X17495Y3532D01*
X17505Y3546D01*
X17518Y3559D01*
X17533Y3569D01*
X17549Y3577D01*
X17566Y3581D01*
X17584Y3583D01*
X17748Y3583D01*
X17766Y3581D01*
X17783Y3577D01*
X17800Y3569D01*
X17814Y3559D01*
X17827Y3546D01*
X17837Y3531D01*
X17845Y3515D01*
X17849Y3498D01*
X17851Y3480D01*
X17851Y3377D01*
X17563Y3749D02*
X17481Y3852D01*
X17851Y3852D01*
X17851Y3749D02*
X17851Y3955D01*
X18481Y3377D02*
X18851Y3377D01*
X18481Y3377D02*
X18481Y3480D01*
X18483Y3498D01*
X18487Y3515D01*
X18495Y3532D01*
X18505Y3546D01*
X18518Y3559D01*
X18533Y3569D01*
X18549Y3577D01*
X18566Y3581D01*
X18584Y3583D01*
X18748Y3583D01*
X18766Y3581D01*
X18783Y3577D01*
X18800Y3569D01*
X18814Y3559D01*
X18827Y3546D01*
X18837Y3531D01*
X18845Y3515D01*
X18849Y3498D01*
X18851Y3480D01*
X18851Y3377D01*
X18481Y3862D02*
X18483Y3880D01*
X18488Y3898D01*
X18497Y3914D01*
X18508Y3928D01*
X18522Y3939D01*
X18538Y3948D01*
X18556Y3953D01*
X18574Y3955D01*
X18481Y3862D02*
X18482Y3843D01*
X18487Y3825D01*
X18494Y3808D01*
X18504Y3792D01*
X18516Y3778D01*
X18530Y3766D01*
X18546Y3756D01*
X18563Y3749D01*
X18646Y3923D02*
X18634Y3934D01*
X18620Y3943D01*
X18606Y3949D01*
X18590Y3953D01*
X18574Y3954D01*
X18646Y3924D02*
X18851Y3749D01*
X18851Y3955D01*
X18574Y4315D02*
X18556Y4313D01*
X18538Y4308D01*
X18522Y4299D01*
X18508Y4288D01*
X18497Y4274D01*
X18488Y4258D01*
X18483Y4240D01*
X18481Y4222D01*
X18482Y4203D01*
X18487Y4185D01*
X18494Y4168D01*
X18504Y4152D01*
X18516Y4138D01*
X18530Y4126D01*
X18546Y4116D01*
X18563Y4109D01*
X18646Y4283D02*
X18634Y4294D01*
X18620Y4303D01*
X18606Y4309D01*
X18590Y4313D01*
X18574Y4314D01*
X18646Y4284D02*
X18851Y4109D01*
X18851Y4315D01*
X19481Y3377D02*
X19851Y3377D01*
X19481Y3377D02*
X19481Y3480D01*
X19483Y3498D01*
X19487Y3515D01*
X19495Y3532D01*
X19505Y3546D01*
X19518Y3559D01*
X19533Y3569D01*
X19549Y3577D01*
X19566Y3581D01*
X19584Y3583D01*
X19748Y3583D01*
X19766Y3581D01*
X19783Y3577D01*
X19800Y3569D01*
X19814Y3559D01*
X19827Y3546D01*
X19837Y3531D01*
X19845Y3515D01*
X19849Y3498D01*
X19851Y3480D01*
X19851Y3377D01*
X19481Y3862D02*
X19483Y3880D01*
X19488Y3898D01*
X19497Y3914D01*
X19508Y3928D01*
X19522Y3939D01*
X19538Y3948D01*
X19556Y3953D01*
X19574Y3955D01*
X19481Y3862D02*
X19482Y3843D01*
X19487Y3825D01*
X19494Y3808D01*
X19504Y3792D01*
X19516Y3778D01*
X19530Y3766D01*
X19546Y3756D01*
X19563Y3749D01*
X19646Y3923D02*
X19634Y3934D01*
X19620Y3943D01*
X19606Y3949D01*
X19590Y3953D01*
X19574Y3954D01*
X19646Y3924D02*
X19851Y3749D01*
X19851Y3955D01*
X19851Y4109D02*
X19851Y4212D01*
X19849Y4231D01*
X19844Y4249D01*
X19836Y4266D01*
X19824Y4281D01*
X19810Y4294D01*
X19794Y4304D01*
X19776Y4311D01*
X19758Y4315D01*
X19738Y4315D01*
X19720Y4311D01*
X19702Y4304D01*
X19686Y4294D01*
X19672Y4281D01*
X19660Y4266D01*
X19652Y4249D01*
X19647Y4231D01*
X19645Y4212D01*
X19481Y4233D02*
X19481Y4109D01*
X19481Y4233D02*
X19483Y4250D01*
X19488Y4266D01*
X19497Y4281D01*
X19508Y4294D01*
X19522Y4304D01*
X19538Y4311D01*
X19554Y4315D01*
X19572Y4315D01*
X19588Y4311D01*
X19604Y4304D01*
X19618Y4294D01*
X19629Y4281D01*
X19638Y4266D01*
X19643Y4250D01*
X19645Y4233D01*
X19646Y4233D02*
X19646Y4150D01*
X5957Y11347D02*
X5587Y11224D01*
X5587Y11470D02*
X5957Y11347D01*
X5957Y11635D02*
X5587Y11635D01*
X5957Y11594D02*
X5957Y11676D01*
X5587Y11676D02*
X5587Y11594D01*
X5587Y11832D02*
X5957Y11832D01*
X5957Y12038D02*
X5587Y11832D01*
X5587Y12038D02*
X5957Y12038D01*
X6752Y11429D02*
X6752Y11368D01*
X6752Y11429D02*
X6957Y11429D01*
X6957Y11306D01*
X6955Y11290D01*
X6951Y11275D01*
X6943Y11260D01*
X6933Y11248D01*
X6921Y11238D01*
X6906Y11230D01*
X6891Y11226D01*
X6875Y11224D01*
X6670Y11224D01*
X6654Y11226D01*
X6639Y11230D01*
X6624Y11238D01*
X6612Y11248D01*
X6602Y11260D01*
X6594Y11275D01*
X6590Y11290D01*
X6588Y11306D01*
X6587Y11306D02*
X6587Y11429D01*
X7587Y11224D02*
X7957Y11224D01*
X7587Y11224D02*
X7587Y11326D01*
X7589Y11344D01*
X7593Y11361D01*
X7601Y11378D01*
X7611Y11392D01*
X7624Y11405D01*
X7639Y11415D01*
X7655Y11423D01*
X7672Y11427D01*
X7690Y11429D01*
X7855Y11429D01*
X7873Y11427D01*
X7890Y11423D01*
X7907Y11415D01*
X7921Y11405D01*
X7934Y11392D01*
X7944Y11377D01*
X7952Y11361D01*
X7956Y11344D01*
X7958Y11326D01*
X7957Y11326D02*
X7957Y11224D01*
X7670Y11596D02*
X7587Y11698D01*
X7957Y11698D01*
X7957Y11596D02*
X7957Y11801D01*
X7957Y11956D02*
X7957Y12058D01*
X7958Y12058D02*
X7956Y12077D01*
X7951Y12095D01*
X7943Y12112D01*
X7931Y12127D01*
X7917Y12140D01*
X7901Y12150D01*
X7883Y12157D01*
X7865Y12161D01*
X7845Y12161D01*
X7827Y12157D01*
X7809Y12150D01*
X7793Y12140D01*
X7779Y12127D01*
X7767Y12112D01*
X7759Y12095D01*
X7754Y12077D01*
X7752Y12058D01*
X7587Y12079D02*
X7587Y11956D01*
X7588Y12079D02*
X7590Y12096D01*
X7595Y12112D01*
X7604Y12127D01*
X7615Y12140D01*
X7629Y12150D01*
X7645Y12157D01*
X7661Y12161D01*
X7679Y12161D01*
X7695Y12157D01*
X7711Y12150D01*
X7725Y12140D01*
X7736Y12127D01*
X7745Y12112D01*
X7750Y12096D01*
X7752Y12079D01*
X7752Y11997D01*
X8587Y11224D02*
X8957Y11224D01*
X8587Y11224D02*
X8587Y11326D01*
X8589Y11344D01*
X8593Y11361D01*
X8601Y11378D01*
X8611Y11392D01*
X8624Y11405D01*
X8639Y11415D01*
X8655Y11423D01*
X8672Y11427D01*
X8690Y11429D01*
X8855Y11429D01*
X8873Y11427D01*
X8890Y11423D01*
X8907Y11415D01*
X8921Y11405D01*
X8934Y11392D01*
X8944Y11377D01*
X8952Y11361D01*
X8956Y11344D01*
X8958Y11326D01*
X8957Y11326D02*
X8957Y11224D01*
X8670Y11596D02*
X8587Y11698D01*
X8957Y11698D01*
X8957Y11596D02*
X8957Y11801D01*
X8680Y12162D02*
X8662Y12160D01*
X8644Y12155D01*
X8628Y12146D01*
X8614Y12135D01*
X8603Y12121D01*
X8594Y12105D01*
X8589Y12087D01*
X8587Y12069D01*
X8588Y12050D01*
X8593Y12032D01*
X8600Y12015D01*
X8610Y11999D01*
X8622Y11985D01*
X8636Y11973D01*
X8652Y11963D01*
X8669Y11956D01*
X8752Y12130D02*
X8740Y12141D01*
X8726Y12150D01*
X8712Y12156D01*
X8696Y12160D01*
X8680Y12161D01*
X8752Y12130D02*
X8957Y11956D01*
X8957Y12161D01*
X9587Y11224D02*
X9957Y11224D01*
X9587Y11224D02*
X9587Y11326D01*
X9589Y11344D01*
X9593Y11361D01*
X9601Y11378D01*
X9611Y11392D01*
X9624Y11405D01*
X9639Y11415D01*
X9655Y11423D01*
X9672Y11427D01*
X9690Y11429D01*
X9855Y11429D01*
X9873Y11427D01*
X9890Y11423D01*
X9907Y11415D01*
X9921Y11405D01*
X9934Y11392D01*
X9944Y11377D01*
X9952Y11361D01*
X9956Y11344D01*
X9958Y11326D01*
X9957Y11326D02*
X9957Y11224D01*
X9670Y11596D02*
X9587Y11698D01*
X9957Y11698D01*
X9957Y11596D02*
X9957Y11801D01*
X9875Y11956D02*
X9587Y12038D01*
X9875Y11956D02*
X9875Y12161D01*
X9793Y12100D02*
X9957Y12100D01*
X10587Y11224D02*
X10957Y11224D01*
X10587Y11224D02*
X10587Y11326D01*
X10589Y11344D01*
X10593Y11361D01*
X10601Y11378D01*
X10611Y11392D01*
X10624Y11405D01*
X10639Y11415D01*
X10655Y11423D01*
X10672Y11427D01*
X10690Y11429D01*
X10855Y11429D01*
X10873Y11427D01*
X10890Y11423D01*
X10907Y11415D01*
X10921Y11405D01*
X10934Y11392D01*
X10944Y11377D01*
X10952Y11361D01*
X10956Y11344D01*
X10958Y11326D01*
X10957Y11326D02*
X10957Y11224D01*
X10587Y11709D02*
X10589Y11727D01*
X10594Y11745D01*
X10603Y11761D01*
X10614Y11775D01*
X10628Y11786D01*
X10644Y11795D01*
X10662Y11800D01*
X10680Y11802D01*
X10587Y11709D02*
X10588Y11690D01*
X10593Y11672D01*
X10600Y11655D01*
X10610Y11639D01*
X10622Y11625D01*
X10636Y11613D01*
X10652Y11603D01*
X10669Y11596D01*
X10752Y11770D02*
X10740Y11781D01*
X10726Y11790D01*
X10712Y11796D01*
X10696Y11800D01*
X10680Y11801D01*
X10752Y11770D02*
X10957Y11596D01*
X10957Y11801D01*
X10629Y11956D02*
X10587Y11956D01*
X10587Y12161D01*
X10957Y12058D01*
X11587Y11224D02*
X11957Y11224D01*
X11587Y11224D02*
X11587Y11326D01*
X11589Y11344D01*
X11593Y11361D01*
X11601Y11378D01*
X11611Y11392D01*
X11624Y11405D01*
X11639Y11415D01*
X11655Y11423D01*
X11672Y11427D01*
X11690Y11429D01*
X11855Y11429D01*
X11873Y11427D01*
X11890Y11423D01*
X11907Y11415D01*
X11921Y11405D01*
X11934Y11392D01*
X11944Y11377D01*
X11952Y11361D01*
X11956Y11344D01*
X11958Y11326D01*
X11957Y11326D02*
X11957Y11224D01*
X11587Y11709D02*
X11589Y11727D01*
X11594Y11745D01*
X11603Y11761D01*
X11614Y11775D01*
X11628Y11786D01*
X11644Y11795D01*
X11662Y11800D01*
X11680Y11802D01*
X11587Y11709D02*
X11588Y11690D01*
X11593Y11672D01*
X11600Y11655D01*
X11610Y11639D01*
X11622Y11625D01*
X11636Y11613D01*
X11652Y11603D01*
X11669Y11596D01*
X11752Y11770D02*
X11740Y11781D01*
X11726Y11790D01*
X11712Y11796D01*
X11696Y11800D01*
X11680Y11801D01*
X11752Y11770D02*
X11957Y11596D01*
X11957Y11801D01*
X11752Y11956D02*
X11752Y12079D01*
X11754Y12095D01*
X11758Y12110D01*
X11766Y12125D01*
X11776Y12137D01*
X11788Y12147D01*
X11803Y12155D01*
X11818Y12159D01*
X11834Y12161D01*
X11855Y12161D01*
X11874Y12159D01*
X11892Y12154D01*
X11909Y12146D01*
X11924Y12134D01*
X11937Y12120D01*
X11947Y12104D01*
X11954Y12086D01*
X11958Y12068D01*
X11958Y12048D01*
X11954Y12030D01*
X11947Y12012D01*
X11937Y11996D01*
X11924Y11982D01*
X11909Y11970D01*
X11892Y11962D01*
X11874Y11957D01*
X11855Y11955D01*
X11855Y11956D02*
X11752Y11956D01*
X11729Y11958D01*
X11706Y11963D01*
X11684Y11971D01*
X11663Y11982D01*
X11645Y11996D01*
X11628Y12013D01*
X11614Y12031D01*
X11603Y12052D01*
X11595Y12074D01*
X11590Y12097D01*
X11588Y12120D01*
X12587Y11224D02*
X12957Y11224D01*
X12587Y11224D02*
X12587Y11326D01*
X12589Y11344D01*
X12593Y11361D01*
X12601Y11378D01*
X12611Y11392D01*
X12624Y11405D01*
X12639Y11415D01*
X12655Y11423D01*
X12672Y11427D01*
X12690Y11429D01*
X12855Y11429D01*
X12873Y11427D01*
X12890Y11423D01*
X12907Y11415D01*
X12921Y11405D01*
X12934Y11392D01*
X12944Y11377D01*
X12952Y11361D01*
X12956Y11344D01*
X12958Y11326D01*
X12957Y11326D02*
X12957Y11224D01*
X12587Y11709D02*
X12589Y11727D01*
X12594Y11745D01*
X12603Y11761D01*
X12614Y11775D01*
X12628Y11786D01*
X12644Y11795D01*
X12662Y11800D01*
X12680Y11802D01*
X12587Y11709D02*
X12588Y11690D01*
X12593Y11672D01*
X12600Y11655D01*
X12610Y11639D01*
X12622Y11625D01*
X12636Y11613D01*
X12652Y11603D01*
X12669Y11596D01*
X12752Y11770D02*
X12740Y11781D01*
X12726Y11790D01*
X12712Y11796D01*
X12696Y11800D01*
X12680Y11801D01*
X12752Y11770D02*
X12957Y11596D01*
X12957Y11801D01*
X12957Y11956D02*
X12957Y12079D01*
X12955Y12095D01*
X12951Y12110D01*
X12943Y12125D01*
X12933Y12137D01*
X12921Y12147D01*
X12906Y12155D01*
X12891Y12159D01*
X12875Y12161D01*
X12834Y12161D01*
X12818Y12159D01*
X12803Y12155D01*
X12788Y12147D01*
X12776Y12137D01*
X12766Y12125D01*
X12758Y12110D01*
X12754Y12095D01*
X12752Y12079D01*
X12752Y11956D01*
X12587Y11956D01*
X12587Y12161D01*
X13587Y11224D02*
X13957Y11224D01*
X13587Y11224D02*
X13587Y11326D01*
X13589Y11344D01*
X13593Y11361D01*
X13601Y11378D01*
X13611Y11392D01*
X13624Y11405D01*
X13639Y11415D01*
X13655Y11423D01*
X13672Y11427D01*
X13690Y11429D01*
X13855Y11429D01*
X13873Y11427D01*
X13890Y11423D01*
X13907Y11415D01*
X13921Y11405D01*
X13934Y11392D01*
X13944Y11377D01*
X13952Y11361D01*
X13956Y11344D01*
X13958Y11326D01*
X13957Y11326D02*
X13957Y11224D01*
X13957Y11596D02*
X13957Y11698D01*
X13958Y11698D02*
X13956Y11717D01*
X13951Y11735D01*
X13943Y11752D01*
X13931Y11767D01*
X13917Y11780D01*
X13901Y11790D01*
X13883Y11797D01*
X13865Y11801D01*
X13845Y11801D01*
X13827Y11797D01*
X13809Y11790D01*
X13793Y11780D01*
X13779Y11767D01*
X13767Y11752D01*
X13759Y11735D01*
X13754Y11717D01*
X13752Y11698D01*
X13587Y11719D02*
X13587Y11596D01*
X13588Y11719D02*
X13590Y11736D01*
X13595Y11752D01*
X13604Y11767D01*
X13615Y11780D01*
X13629Y11790D01*
X13645Y11797D01*
X13661Y11801D01*
X13679Y11801D01*
X13695Y11797D01*
X13711Y11790D01*
X13725Y11780D01*
X13736Y11767D01*
X13745Y11752D01*
X13750Y11736D01*
X13752Y11719D01*
X13752Y11637D01*
X13957Y11956D02*
X13957Y12058D01*
X13958Y12058D02*
X13956Y12077D01*
X13951Y12095D01*
X13943Y12112D01*
X13931Y12127D01*
X13917Y12140D01*
X13901Y12150D01*
X13883Y12157D01*
X13865Y12161D01*
X13845Y12161D01*
X13827Y12157D01*
X13809Y12150D01*
X13793Y12140D01*
X13779Y12127D01*
X13767Y12112D01*
X13759Y12095D01*
X13754Y12077D01*
X13752Y12058D01*
X13587Y12079D02*
X13587Y11956D01*
X13588Y12079D02*
X13590Y12096D01*
X13595Y12112D01*
X13604Y12127D01*
X13615Y12140D01*
X13629Y12150D01*
X13645Y12157D01*
X13661Y12161D01*
X13679Y12161D01*
X13695Y12157D01*
X13711Y12150D01*
X13725Y12140D01*
X13736Y12127D01*
X13745Y12112D01*
X13750Y12096D01*
X13752Y12079D01*
X13752Y11997D01*
X14587Y11224D02*
X14957Y11224D01*
X14587Y11224D02*
X14587Y11326D01*
X14589Y11344D01*
X14593Y11361D01*
X14601Y11378D01*
X14611Y11392D01*
X14624Y11405D01*
X14639Y11415D01*
X14655Y11423D01*
X14672Y11427D01*
X14690Y11429D01*
X14855Y11429D01*
X14873Y11427D01*
X14890Y11423D01*
X14907Y11415D01*
X14921Y11405D01*
X14934Y11392D01*
X14944Y11377D01*
X14952Y11361D01*
X14956Y11344D01*
X14958Y11326D01*
X14957Y11326D02*
X14957Y11224D01*
X14957Y11596D02*
X14957Y11698D01*
X14958Y11698D02*
X14956Y11717D01*
X14951Y11735D01*
X14943Y11752D01*
X14931Y11767D01*
X14917Y11780D01*
X14901Y11790D01*
X14883Y11797D01*
X14865Y11801D01*
X14845Y11801D01*
X14827Y11797D01*
X14809Y11790D01*
X14793Y11780D01*
X14779Y11767D01*
X14767Y11752D01*
X14759Y11735D01*
X14754Y11717D01*
X14752Y11698D01*
X14587Y11719D02*
X14587Y11596D01*
X14588Y11719D02*
X14590Y11736D01*
X14595Y11752D01*
X14604Y11767D01*
X14615Y11780D01*
X14629Y11790D01*
X14645Y11797D01*
X14661Y11801D01*
X14679Y11801D01*
X14695Y11797D01*
X14711Y11790D01*
X14725Y11780D01*
X14736Y11767D01*
X14745Y11752D01*
X14750Y11736D01*
X14752Y11719D01*
X14752Y11637D01*
X14587Y12069D02*
X14589Y12087D01*
X14594Y12105D01*
X14603Y12121D01*
X14614Y12135D01*
X14628Y12146D01*
X14644Y12155D01*
X14662Y12160D01*
X14680Y12162D01*
X14587Y12069D02*
X14588Y12050D01*
X14593Y12032D01*
X14600Y12015D01*
X14610Y11999D01*
X14622Y11985D01*
X14636Y11973D01*
X14652Y11963D01*
X14669Y11956D01*
X14752Y12130D02*
X14740Y12141D01*
X14726Y12150D01*
X14712Y12156D01*
X14696Y12160D01*
X14680Y12161D01*
X14752Y12130D02*
X14957Y11956D01*
X14957Y12161D01*
X15587Y11224D02*
X15957Y11224D01*
X15587Y11224D02*
X15587Y11326D01*
X15589Y11344D01*
X15593Y11361D01*
X15601Y11378D01*
X15611Y11392D01*
X15624Y11405D01*
X15639Y11415D01*
X15655Y11423D01*
X15672Y11427D01*
X15690Y11429D01*
X15855Y11429D01*
X15873Y11427D01*
X15890Y11423D01*
X15907Y11415D01*
X15921Y11405D01*
X15934Y11392D01*
X15944Y11377D01*
X15952Y11361D01*
X15956Y11344D01*
X15958Y11326D01*
X15957Y11326D02*
X15957Y11224D01*
X15957Y11596D02*
X15957Y11698D01*
X15958Y11698D02*
X15956Y11717D01*
X15951Y11735D01*
X15943Y11752D01*
X15931Y11767D01*
X15917Y11780D01*
X15901Y11790D01*
X15883Y11797D01*
X15865Y11801D01*
X15845Y11801D01*
X15827Y11797D01*
X15809Y11790D01*
X15793Y11780D01*
X15779Y11767D01*
X15767Y11752D01*
X15759Y11735D01*
X15754Y11717D01*
X15752Y11698D01*
X15587Y11719D02*
X15587Y11596D01*
X15588Y11719D02*
X15590Y11736D01*
X15595Y11752D01*
X15604Y11767D01*
X15615Y11780D01*
X15629Y11790D01*
X15645Y11797D01*
X15661Y11801D01*
X15679Y11801D01*
X15695Y11797D01*
X15711Y11790D01*
X15725Y11780D01*
X15736Y11767D01*
X15745Y11752D01*
X15750Y11736D01*
X15752Y11719D01*
X15752Y11637D01*
X15957Y11956D02*
X15957Y12079D01*
X15955Y12095D01*
X15951Y12110D01*
X15943Y12125D01*
X15933Y12137D01*
X15921Y12147D01*
X15906Y12155D01*
X15891Y12159D01*
X15875Y12161D01*
X15834Y12161D01*
X15818Y12159D01*
X15803Y12155D01*
X15788Y12147D01*
X15776Y12137D01*
X15766Y12125D01*
X15758Y12110D01*
X15754Y12095D01*
X15752Y12079D01*
X15752Y11956D01*
X15587Y11956D01*
X15587Y12161D01*
X16587Y11224D02*
X16957Y11224D01*
X16587Y11224D02*
X16587Y11326D01*
X16589Y11344D01*
X16593Y11361D01*
X16601Y11378D01*
X16611Y11392D01*
X16624Y11405D01*
X16639Y11415D01*
X16655Y11423D01*
X16672Y11427D01*
X16690Y11429D01*
X16855Y11429D01*
X16873Y11427D01*
X16890Y11423D01*
X16907Y11415D01*
X16921Y11405D01*
X16934Y11392D01*
X16944Y11377D01*
X16952Y11361D01*
X16956Y11344D01*
X16958Y11326D01*
X16957Y11326D02*
X16957Y11224D01*
X16957Y11596D02*
X16957Y11698D01*
X16958Y11698D02*
X16956Y11717D01*
X16951Y11735D01*
X16943Y11752D01*
X16931Y11767D01*
X16917Y11780D01*
X16901Y11790D01*
X16883Y11797D01*
X16865Y11801D01*
X16845Y11801D01*
X16827Y11797D01*
X16809Y11790D01*
X16793Y11780D01*
X16779Y11767D01*
X16767Y11752D01*
X16759Y11735D01*
X16754Y11717D01*
X16752Y11698D01*
X16587Y11719D02*
X16587Y11596D01*
X16588Y11719D02*
X16590Y11736D01*
X16595Y11752D01*
X16604Y11767D01*
X16615Y11780D01*
X16629Y11790D01*
X16645Y11797D01*
X16661Y11801D01*
X16679Y11801D01*
X16695Y11797D01*
X16711Y11790D01*
X16725Y11780D01*
X16736Y11767D01*
X16745Y11752D01*
X16750Y11736D01*
X16752Y11719D01*
X16752Y11637D01*
X16875Y11956D02*
X16587Y12038D01*
X16875Y11956D02*
X16875Y12161D01*
X16793Y12100D02*
X16957Y12100D01*
X17587Y11224D02*
X17957Y11347D01*
X17587Y11470D01*
X17587Y11616D02*
X17957Y11616D01*
X17957Y11822D02*
X17587Y11616D01*
X17587Y11822D02*
X17957Y11822D01*
X18587Y11224D02*
X18957Y11347D01*
X18587Y11470D01*
X18587Y11621D02*
X18957Y11621D01*
X18587Y11621D02*
X18587Y11724D01*
X18589Y11743D01*
X18594Y11761D01*
X18602Y11778D01*
X18614Y11793D01*
X18628Y11806D01*
X18644Y11816D01*
X18662Y11823D01*
X18680Y11827D01*
X18700Y11827D01*
X18718Y11823D01*
X18736Y11816D01*
X18752Y11806D01*
X18766Y11793D01*
X18778Y11778D01*
X18786Y11761D01*
X18791Y11743D01*
X18793Y11724D01*
X18793Y11621D01*
X19957Y11388D02*
X19957Y11224D01*
X19587Y11224D01*
X19587Y11388D01*
X19752Y11347D02*
X19752Y11224D01*
X19587Y11535D02*
X19957Y11535D01*
X19957Y11741D02*
X19587Y11535D01*
X19587Y11741D02*
X19957Y11741D01*
D11*
X21850Y1969D02*
X2559Y1969D01*
X2559Y13386D02*
X21850Y13386D01*
X22638Y12598D01*
X22638Y2756D01*
X21850Y1969D01*
X2559Y1969D02*
X1772Y2756D01*
X1772Y6398D01*
X1772Y9449D02*
X1772Y12598D01*
X2559Y13386D01*
X689Y9646D02*
X689Y6201D01*
X886Y6398D02*
X1772Y6398D01*
X3445Y6398D01*
X3445Y9449D02*
X1772Y9449D01*
X886Y9449D01*
X1181Y8957D02*
X1378Y8957D01*
X1378Y6890D02*
X1181Y6890D01*
X1181Y7480D01*
X1378Y7480D01*
X1969Y7382D02*
X1969Y6988D01*
X1969Y8465D02*
X1969Y8858D01*
X1378Y8366D02*
X1181Y8366D01*
X1181Y8957D01*
X1378Y8465D02*
X1378Y8366D01*
X1378Y8465D02*
X1969Y8465D01*
X1378Y8858D02*
X1378Y8957D01*
X1378Y8858D02*
X1969Y8858D01*
X1378Y6988D02*
X1378Y6890D01*
X1378Y6988D02*
X1969Y6988D01*
X1378Y7382D02*
X1378Y7480D01*
X1378Y7382D02*
X1969Y7382D01*
X6102Y10433D02*
X7283Y10433D01*
X7283Y9941D01*
X6102Y9941D01*
X6102Y10433D01*
X6102Y9941D02*
X5610Y9941D01*
X5610Y8858D01*
X5807Y8858D01*
X6102Y8858D01*
X7579Y8858D02*
X7776Y8858D01*
X7776Y9941D01*
X7283Y9941D01*
X5807Y8858D02*
X5807Y8465D01*
X6102Y8465D01*
X6102Y8858D01*
X6496Y8858D01*
X7283Y8858D02*
X7579Y8858D01*
X7579Y8465D01*
X7283Y8465D01*
X7283Y8858D01*
X6890Y8858D01*
X6496Y8858D01*
X6496Y8465D01*
X6890Y8465D01*
X6890Y8858D01*
X6102Y6988D02*
X5906Y6988D01*
X6102Y6988D02*
X6299Y6988D01*
X6496Y6988D01*
X6693Y6988D01*
X6890Y6988D01*
X7087Y6988D01*
X7283Y6988D01*
X7480Y6988D01*
X6102Y6988D02*
X6102Y7185D01*
X6299Y7185D02*
X6299Y6988D01*
X6496Y6988D02*
X6496Y7185D01*
X6693Y7185D02*
X6693Y6988D01*
X6890Y6988D02*
X6890Y7185D01*
X7087Y7185D02*
X7087Y6988D01*
X7283Y6988D02*
X7283Y7185D01*
X7480Y6988D02*
X7480Y6791D01*
X7480Y6594D01*
X7480Y6398D01*
X7480Y6201D01*
X7480Y6004D01*
X7480Y5807D01*
X7480Y5610D01*
X7480Y5413D01*
X7480Y6791D02*
X7677Y6791D01*
X7677Y6594D02*
X7480Y6594D01*
X7480Y6398D02*
X7677Y6398D01*
X7677Y6201D02*
X7480Y6201D01*
X7480Y6004D02*
X7677Y6004D01*
X7677Y5807D02*
X7480Y5807D01*
X7480Y5610D02*
X7677Y5610D01*
X5906Y5610D02*
X5906Y5413D01*
X5906Y5610D02*
X5906Y5807D01*
X5906Y6004D01*
X5906Y6201D01*
X5906Y6398D01*
X5906Y6594D01*
X5906Y6791D01*
X5906Y6988D01*
X5906Y5610D02*
X5709Y5610D01*
X5709Y5807D02*
X5906Y5807D01*
X5906Y6004D02*
X5709Y6004D01*
X5709Y6201D02*
X5906Y6201D01*
X5906Y6398D02*
X5709Y6398D01*
X5709Y6594D02*
X5906Y6594D01*
X5906Y6791D02*
X5709Y6791D01*
X7283Y5413D02*
X7480Y5413D01*
X7283Y5413D02*
X7087Y5413D01*
X6890Y5413D01*
X6693Y5413D01*
X6496Y5413D01*
X6299Y5413D01*
X6102Y5413D01*
X5906Y5413D01*
X7283Y5413D02*
X7283Y5217D01*
X7087Y5217D02*
X7087Y5413D01*
X6890Y5413D02*
X6890Y5217D01*
X6693Y5217D02*
X6693Y5413D01*
X6496Y5413D02*
X6496Y5217D01*
X6299Y5217D02*
X6299Y5413D01*
X6102Y5413D02*
X6102Y5217D01*
X4626Y3543D02*
X2854Y3543D01*
X4626Y3543D02*
X4626Y3937D01*
X4626Y4528D01*
X4626Y4921D01*
X2854Y4921D01*
X2854Y4528D01*
X2854Y3937D01*
X2854Y3543D01*
X4626Y4528D02*
X5020Y4528D01*
X5020Y3937D01*
X4626Y3937D01*
X2854Y4528D02*
X2461Y4528D01*
X2461Y3937D01*
X2854Y3937D01*
X3248Y4232D02*
X3250Y4276D01*
X3256Y4320D01*
X3266Y4363D01*
X3279Y4405D01*
X3297Y4445D01*
X3318Y4484D01*
X3342Y4521D01*
X3369Y4556D01*
X3400Y4588D01*
X3433Y4617D01*
X3469Y4643D01*
X3507Y4665D01*
X3547Y4684D01*
X3588Y4700D01*
X3631Y4712D01*
X3674Y4720D01*
X3718Y4724D01*
X3762Y4724D01*
X3806Y4720D01*
X3849Y4712D01*
X3892Y4700D01*
X3933Y4684D01*
X3973Y4665D01*
X4011Y4643D01*
X4047Y4617D01*
X4080Y4588D01*
X4111Y4556D01*
X4138Y4521D01*
X4162Y4484D01*
X4183Y4445D01*
X4201Y4405D01*
X4214Y4363D01*
X4224Y4320D01*
X4230Y4276D01*
X4232Y4232D01*
X4230Y4188D01*
X4224Y4144D01*
X4214Y4101D01*
X4201Y4059D01*
X4183Y4019D01*
X4162Y3980D01*
X4138Y3943D01*
X4111Y3908D01*
X4080Y3876D01*
X4047Y3847D01*
X4011Y3821D01*
X3973Y3799D01*
X3933Y3780D01*
X3892Y3764D01*
X3849Y3752D01*
X3806Y3744D01*
X3762Y3740D01*
X3718Y3740D01*
X3674Y3744D01*
X3631Y3752D01*
X3588Y3764D01*
X3547Y3780D01*
X3507Y3799D01*
X3469Y3821D01*
X3433Y3847D01*
X3400Y3876D01*
X3369Y3908D01*
X3342Y3943D01*
X3318Y3980D01*
X3297Y4019D01*
X3279Y4059D01*
X3266Y4101D01*
X3256Y4144D01*
X3250Y4188D01*
X3248Y4232D01*
X12795Y10827D02*
X22638Y10827D01*
X12795Y10827D02*
X12795Y4528D01*
X22638Y4528D01*
X22638Y10827D01*
X13189Y10433D02*
X13189Y4921D01*
X19882Y4921D01*
X19882Y10433D01*
X13189Y10433D01*
D17*
X20276Y9843D02*
X22244Y9843D01*
X22244Y9252D01*
X20669Y9252D01*
X20669Y8661D01*
X22244Y8661D01*
X22244Y7874D01*
X20669Y7874D01*
X20669Y7087D01*
X22244Y7087D01*
X22244Y6299D01*
X22244Y5512D01*
X20079Y5512D01*
X20079Y6299D02*
X22244Y6299D01*
D12*
X14791Y8681D02*
X14587Y8681D01*
X14587Y9141D01*
X14791Y9141D01*
X14740Y8937D02*
X14587Y8937D01*
X15099Y8682D02*
X15117Y8684D01*
X15134Y8688D01*
X15150Y8696D01*
X15165Y8706D01*
X15177Y8718D01*
X15187Y8733D01*
X15195Y8749D01*
X15199Y8766D01*
X15201Y8784D01*
X15099Y8681D02*
X15071Y8683D01*
X15043Y8688D01*
X15016Y8698D01*
X14990Y8710D01*
X14967Y8726D01*
X14946Y8745D01*
X14959Y9039D02*
X14961Y9057D01*
X14965Y9074D01*
X14973Y9090D01*
X14983Y9105D01*
X14995Y9117D01*
X15010Y9127D01*
X15026Y9135D01*
X15043Y9139D01*
X15061Y9141D01*
X15061Y9142D02*
X15086Y9140D01*
X15110Y9136D01*
X15133Y9128D01*
X15156Y9117D01*
X15176Y9104D01*
X14959Y9039D02*
X14961Y9021D01*
X14965Y9004D01*
X14973Y8987D01*
X14983Y8973D01*
X14996Y8960D01*
X15010Y8949D01*
X15151Y8874D02*
X15165Y8863D01*
X15178Y8850D01*
X15188Y8836D01*
X15196Y8819D01*
X15200Y8802D01*
X15202Y8784D01*
X15150Y8873D02*
X15010Y8950D01*
X15403Y9141D02*
X15403Y8681D01*
X15403Y9141D02*
X15530Y9141D01*
X15530Y9142D02*
X15551Y9140D01*
X15572Y9135D01*
X15591Y9127D01*
X15609Y9115D01*
X15624Y9101D01*
X15637Y9084D01*
X15647Y9065D01*
X15654Y9045D01*
X15658Y9025D01*
X15658Y9003D01*
X15654Y8983D01*
X15647Y8963D01*
X15637Y8944D01*
X15624Y8927D01*
X15609Y8913D01*
X15591Y8901D01*
X15572Y8893D01*
X15551Y8888D01*
X15530Y8886D01*
X15403Y8886D01*
X15849Y8681D02*
X15849Y9141D01*
X15977Y9141D01*
X15977Y9142D02*
X15998Y9140D01*
X16019Y9135D01*
X16038Y9127D01*
X16056Y9115D01*
X16071Y9101D01*
X16084Y9084D01*
X16094Y9065D01*
X16101Y9045D01*
X16105Y9025D01*
X16105Y9003D01*
X16101Y8983D01*
X16094Y8963D01*
X16084Y8944D01*
X16071Y8927D01*
X16056Y8913D01*
X16038Y8901D01*
X16019Y8893D01*
X15998Y8888D01*
X15977Y8886D01*
X15849Y8886D01*
X16002Y8886D02*
X16104Y8681D01*
X16312Y8681D02*
X16516Y8681D01*
X16312Y8681D02*
X16312Y9141D01*
X16516Y9141D01*
X16465Y8937D02*
X16312Y8937D01*
X16824Y8682D02*
X16842Y8684D01*
X16859Y8688D01*
X16875Y8696D01*
X16890Y8706D01*
X16902Y8718D01*
X16912Y8733D01*
X16920Y8749D01*
X16924Y8766D01*
X16926Y8784D01*
X16824Y8681D02*
X16796Y8683D01*
X16768Y8688D01*
X16741Y8698D01*
X16715Y8710D01*
X16692Y8726D01*
X16671Y8745D01*
X16684Y9039D02*
X16686Y9057D01*
X16690Y9074D01*
X16698Y9090D01*
X16708Y9105D01*
X16720Y9117D01*
X16735Y9127D01*
X16751Y9135D01*
X16768Y9139D01*
X16786Y9141D01*
X16786Y9142D02*
X16811Y9140D01*
X16835Y9136D01*
X16858Y9128D01*
X16881Y9117D01*
X16901Y9104D01*
X16684Y9039D02*
X16686Y9021D01*
X16690Y9004D01*
X16698Y8987D01*
X16708Y8973D01*
X16721Y8960D01*
X16735Y8949D01*
X16876Y8874D02*
X16890Y8863D01*
X16903Y8850D01*
X16913Y8836D01*
X16921Y8819D01*
X16925Y8802D01*
X16927Y8784D01*
X16875Y8873D02*
X16735Y8950D01*
X17244Y8682D02*
X17262Y8684D01*
X17279Y8688D01*
X17295Y8696D01*
X17310Y8706D01*
X17322Y8718D01*
X17332Y8733D01*
X17340Y8749D01*
X17344Y8766D01*
X17346Y8784D01*
X17244Y8681D02*
X17216Y8683D01*
X17188Y8688D01*
X17161Y8698D01*
X17135Y8710D01*
X17112Y8726D01*
X17091Y8745D01*
X17104Y9039D02*
X17106Y9057D01*
X17110Y9074D01*
X17118Y9090D01*
X17128Y9105D01*
X17140Y9117D01*
X17155Y9127D01*
X17171Y9135D01*
X17188Y9139D01*
X17206Y9141D01*
X17206Y9142D02*
X17231Y9140D01*
X17255Y9136D01*
X17278Y9128D01*
X17301Y9117D01*
X17321Y9104D01*
X17104Y9039D02*
X17106Y9021D01*
X17110Y9004D01*
X17118Y8987D01*
X17128Y8973D01*
X17141Y8960D01*
X17155Y8949D01*
X17296Y8874D02*
X17310Y8863D01*
X17323Y8850D01*
X17333Y8836D01*
X17341Y8819D01*
X17345Y8802D01*
X17347Y8784D01*
X17295Y8873D02*
X17155Y8950D01*
X17564Y9141D02*
X17564Y8681D01*
X17513Y8681D02*
X17615Y8681D01*
X17615Y9141D02*
X17513Y9141D01*
X17812Y9141D02*
X17812Y8681D01*
X17812Y9141D02*
X18016Y9141D01*
X18016Y8937D02*
X17812Y8937D01*
D13*
X13762Y6511D02*
X13598Y6511D01*
X13598Y6881D01*
X13762Y6881D01*
X13721Y6717D02*
X13598Y6717D01*
X14008Y6511D02*
X14024Y6513D01*
X14039Y6517D01*
X14054Y6525D01*
X14066Y6535D01*
X14076Y6547D01*
X14084Y6562D01*
X14088Y6577D01*
X14090Y6593D01*
X14008Y6511D02*
X13985Y6513D01*
X13963Y6517D01*
X13941Y6524D01*
X13921Y6535D01*
X13902Y6547D01*
X13884Y6562D01*
X13895Y6799D02*
X13897Y6815D01*
X13901Y6830D01*
X13909Y6845D01*
X13919Y6857D01*
X13931Y6867D01*
X13946Y6875D01*
X13961Y6879D01*
X13977Y6881D01*
X13997Y6880D01*
X14016Y6876D01*
X14035Y6870D01*
X14053Y6861D01*
X14069Y6850D01*
X13895Y6799D02*
X13897Y6782D01*
X13902Y6765D01*
X13911Y6750D01*
X13922Y6737D01*
X13936Y6727D01*
X14050Y6665D02*
X14064Y6655D01*
X14075Y6642D01*
X14084Y6627D01*
X14089Y6610D01*
X14091Y6593D01*
X14049Y6665D02*
X13936Y6727D01*
X14250Y6881D02*
X14250Y6511D01*
X14250Y6881D02*
X14353Y6881D01*
X14372Y6879D01*
X14390Y6874D01*
X14407Y6866D01*
X14422Y6854D01*
X14435Y6840D01*
X14445Y6824D01*
X14452Y6806D01*
X14456Y6788D01*
X14456Y6768D01*
X14452Y6750D01*
X14445Y6732D01*
X14435Y6716D01*
X14422Y6702D01*
X14407Y6690D01*
X14390Y6682D01*
X14372Y6677D01*
X14353Y6675D01*
X14353Y6676D02*
X14250Y6676D01*
X14596Y6655D02*
X14843Y6655D01*
X15001Y6511D02*
X15104Y6511D01*
X15123Y6513D01*
X15141Y6518D01*
X15158Y6526D01*
X15173Y6538D01*
X15186Y6552D01*
X15196Y6568D01*
X15203Y6586D01*
X15207Y6604D01*
X15207Y6624D01*
X15203Y6642D01*
X15196Y6660D01*
X15186Y6676D01*
X15173Y6690D01*
X15158Y6702D01*
X15141Y6710D01*
X15123Y6715D01*
X15104Y6717D01*
X15124Y6881D02*
X15001Y6881D01*
X15124Y6881D02*
X15141Y6879D01*
X15157Y6874D01*
X15172Y6865D01*
X15185Y6854D01*
X15195Y6840D01*
X15202Y6824D01*
X15206Y6808D01*
X15206Y6790D01*
X15202Y6774D01*
X15195Y6758D01*
X15185Y6744D01*
X15172Y6733D01*
X15157Y6724D01*
X15141Y6719D01*
X15124Y6717D01*
X15042Y6717D01*
X15474Y6882D02*
X15492Y6880D01*
X15510Y6875D01*
X15526Y6866D01*
X15540Y6855D01*
X15551Y6841D01*
X15560Y6825D01*
X15565Y6807D01*
X15567Y6789D01*
X15474Y6881D02*
X15455Y6880D01*
X15437Y6875D01*
X15420Y6868D01*
X15404Y6858D01*
X15390Y6846D01*
X15378Y6832D01*
X15368Y6816D01*
X15361Y6799D01*
X15535Y6717D02*
X15546Y6729D01*
X15555Y6743D01*
X15561Y6757D01*
X15565Y6773D01*
X15566Y6789D01*
X15536Y6717D02*
X15361Y6511D01*
X15567Y6511D01*
X15724Y6655D02*
X15971Y6655D01*
X16115Y6881D02*
X16198Y6511D01*
X16280Y6758D01*
X16362Y6511D01*
X16444Y6881D01*
X16599Y6881D02*
X16599Y6511D01*
X16599Y6881D02*
X16702Y6881D01*
X16721Y6879D01*
X16739Y6874D01*
X16756Y6866D01*
X16771Y6854D01*
X16784Y6840D01*
X16794Y6824D01*
X16801Y6806D01*
X16805Y6788D01*
X16805Y6768D01*
X16801Y6750D01*
X16794Y6732D01*
X16784Y6716D01*
X16771Y6702D01*
X16756Y6690D01*
X16739Y6682D01*
X16721Y6677D01*
X16702Y6675D01*
X16702Y6676D02*
X16599Y6676D01*
X16723Y6676D02*
X16805Y6511D01*
X16957Y6614D02*
X16957Y6778D01*
X16959Y6797D01*
X16964Y6815D01*
X16972Y6832D01*
X16984Y6847D01*
X16998Y6860D01*
X17014Y6870D01*
X17032Y6877D01*
X17050Y6881D01*
X17070Y6881D01*
X17088Y6877D01*
X17106Y6870D01*
X17122Y6860D01*
X17136Y6847D01*
X17148Y6832D01*
X17156Y6815D01*
X17161Y6797D01*
X17163Y6778D01*
X17163Y6614D01*
X17161Y6595D01*
X17156Y6577D01*
X17148Y6560D01*
X17136Y6545D01*
X17122Y6532D01*
X17106Y6522D01*
X17088Y6515D01*
X17070Y6511D01*
X17050Y6511D01*
X17032Y6515D01*
X17014Y6522D01*
X16998Y6532D01*
X16984Y6545D01*
X16972Y6560D01*
X16964Y6577D01*
X16959Y6595D01*
X16957Y6614D01*
X17317Y6614D02*
X17317Y6778D01*
X17319Y6797D01*
X17324Y6815D01*
X17332Y6832D01*
X17344Y6847D01*
X17358Y6860D01*
X17374Y6870D01*
X17392Y6877D01*
X17410Y6881D01*
X17430Y6881D01*
X17448Y6877D01*
X17466Y6870D01*
X17482Y6860D01*
X17496Y6847D01*
X17508Y6832D01*
X17516Y6815D01*
X17521Y6797D01*
X17523Y6778D01*
X17523Y6614D01*
X17521Y6595D01*
X17516Y6577D01*
X17508Y6560D01*
X17496Y6545D01*
X17482Y6532D01*
X17466Y6522D01*
X17448Y6515D01*
X17430Y6511D01*
X17410Y6511D01*
X17392Y6515D01*
X17374Y6522D01*
X17358Y6532D01*
X17344Y6545D01*
X17332Y6560D01*
X17324Y6577D01*
X17319Y6595D01*
X17317Y6614D01*
X17692Y6511D02*
X17692Y6881D01*
X17816Y6676D01*
X17939Y6881D01*
X17939Y6511D01*
X18112Y6655D02*
X18359Y6655D01*
X18517Y6511D02*
X18620Y6511D01*
X18639Y6513D01*
X18657Y6518D01*
X18674Y6526D01*
X18689Y6538D01*
X18702Y6552D01*
X18712Y6568D01*
X18719Y6586D01*
X18723Y6604D01*
X18723Y6624D01*
X18719Y6642D01*
X18712Y6660D01*
X18702Y6676D01*
X18689Y6690D01*
X18674Y6702D01*
X18657Y6710D01*
X18639Y6715D01*
X18620Y6717D01*
X18640Y6881D02*
X18517Y6881D01*
X18640Y6881D02*
X18657Y6879D01*
X18673Y6874D01*
X18688Y6865D01*
X18701Y6854D01*
X18711Y6840D01*
X18718Y6824D01*
X18722Y6808D01*
X18722Y6790D01*
X18718Y6774D01*
X18711Y6758D01*
X18701Y6744D01*
X18688Y6733D01*
X18673Y6724D01*
X18657Y6719D01*
X18640Y6717D01*
X18558Y6717D01*
X18990Y6882D02*
X19008Y6880D01*
X19026Y6875D01*
X19042Y6866D01*
X19056Y6855D01*
X19067Y6841D01*
X19076Y6825D01*
X19081Y6807D01*
X19083Y6789D01*
X18990Y6881D02*
X18971Y6880D01*
X18953Y6875D01*
X18936Y6868D01*
X18920Y6858D01*
X18906Y6846D01*
X18894Y6832D01*
X18884Y6816D01*
X18877Y6799D01*
X19051Y6717D02*
X19062Y6729D01*
X19071Y6743D01*
X19077Y6757D01*
X19081Y6773D01*
X19082Y6789D01*
X19052Y6717D02*
X18877Y6511D01*
X19083Y6511D01*
D11*
X886Y9449D02*
X689Y9646D01*
X886Y6398D02*
X689Y6201D01*
X3642Y9252D02*
X3445Y9449D01*
X3642Y9252D02*
X3642Y6594D01*
X3445Y6398D01*
X2854Y10827D02*
X4626Y10827D01*
X4626Y11220D01*
X4626Y11811D01*
X4626Y12205D01*
X2854Y12205D01*
X2854Y11811D01*
X2854Y11220D01*
X2854Y10827D01*
X4626Y11811D02*
X5020Y11811D01*
X5020Y11220D01*
X4626Y11220D01*
X2854Y11811D02*
X2461Y11811D01*
X2461Y11220D01*
X2854Y11220D01*
X3248Y11516D02*
X3250Y11560D01*
X3256Y11604D01*
X3266Y11647D01*
X3279Y11689D01*
X3297Y11729D01*
X3318Y11768D01*
X3342Y11805D01*
X3369Y11840D01*
X3400Y11872D01*
X3433Y11901D01*
X3469Y11927D01*
X3507Y11949D01*
X3547Y11968D01*
X3588Y11984D01*
X3631Y11996D01*
X3674Y12004D01*
X3718Y12008D01*
X3762Y12008D01*
X3806Y12004D01*
X3849Y11996D01*
X3892Y11984D01*
X3933Y11968D01*
X3973Y11949D01*
X4011Y11927D01*
X4047Y11901D01*
X4080Y11872D01*
X4111Y11840D01*
X4138Y11805D01*
X4162Y11768D01*
X4183Y11729D01*
X4201Y11689D01*
X4214Y11647D01*
X4224Y11604D01*
X4230Y11560D01*
X4232Y11516D01*
X4230Y11472D01*
X4224Y11428D01*
X4214Y11385D01*
X4201Y11343D01*
X4183Y11303D01*
X4162Y11264D01*
X4138Y11227D01*
X4111Y11192D01*
X4080Y11160D01*
X4047Y11131D01*
X4011Y11105D01*
X3973Y11083D01*
X3933Y11064D01*
X3892Y11048D01*
X3849Y11036D01*
X3806Y11028D01*
X3762Y11024D01*
X3718Y11024D01*
X3674Y11028D01*
X3631Y11036D01*
X3588Y11048D01*
X3547Y11064D01*
X3507Y11083D01*
X3469Y11105D01*
X3433Y11131D01*
X3400Y11160D01*
X3369Y11192D01*
X3342Y11227D01*
X3318Y11264D01*
X3297Y11303D01*
X3279Y11343D01*
X3266Y11385D01*
X3256Y11428D01*
X3250Y11472D01*
X3248Y11516D01*
D12*
X3071Y13882D02*
X2866Y13882D01*
X2866Y14342D01*
X3071Y14342D01*
X3020Y14138D02*
X2866Y14138D01*
X3379Y13882D02*
X3397Y13884D01*
X3414Y13888D01*
X3430Y13896D01*
X3445Y13906D01*
X3457Y13918D01*
X3467Y13933D01*
X3475Y13949D01*
X3479Y13966D01*
X3481Y13984D01*
X3379Y13882D02*
X3351Y13884D01*
X3323Y13889D01*
X3296Y13899D01*
X3270Y13911D01*
X3247Y13927D01*
X3226Y13946D01*
X3239Y14240D02*
X3241Y14258D01*
X3245Y14275D01*
X3253Y14291D01*
X3263Y14306D01*
X3275Y14318D01*
X3290Y14328D01*
X3306Y14336D01*
X3323Y14340D01*
X3341Y14342D01*
X3341Y14343D02*
X3366Y14341D01*
X3390Y14337D01*
X3413Y14329D01*
X3436Y14318D01*
X3456Y14305D01*
X3238Y14240D02*
X3240Y14222D01*
X3244Y14205D01*
X3252Y14188D01*
X3262Y14174D01*
X3275Y14161D01*
X3289Y14150D01*
X3430Y14074D02*
X3444Y14063D01*
X3457Y14050D01*
X3467Y14036D01*
X3475Y14019D01*
X3479Y14002D01*
X3481Y13984D01*
X3430Y14074D02*
X3289Y14151D01*
X3682Y14342D02*
X3682Y13882D01*
X3682Y14342D02*
X3810Y14342D01*
X3831Y14340D01*
X3852Y14335D01*
X3871Y14327D01*
X3889Y14315D01*
X3904Y14301D01*
X3917Y14284D01*
X3927Y14265D01*
X3934Y14245D01*
X3938Y14225D01*
X3938Y14203D01*
X3934Y14183D01*
X3927Y14163D01*
X3917Y14144D01*
X3904Y14127D01*
X3889Y14113D01*
X3871Y14101D01*
X3852Y14093D01*
X3831Y14088D01*
X3810Y14086D01*
X3810Y14087D02*
X3682Y14087D01*
X4091Y13831D02*
X4296Y13831D01*
X4490Y13882D02*
X4490Y14342D01*
X4643Y14087D01*
X4797Y14342D01*
X4797Y13882D01*
X4985Y13882D02*
X5138Y14342D01*
X5292Y13882D01*
X5253Y13997D02*
X5023Y13997D01*
X5498Y13882D02*
X5498Y14342D01*
X5447Y13882D02*
X5549Y13882D01*
X5549Y14342D02*
X5447Y14342D01*
X5746Y14342D02*
X5746Y13882D01*
X6001Y13882D02*
X5746Y14342D01*
X6001Y14342D02*
X6001Y13882D01*
D10*
X8459Y681D02*
X8959Y681D01*
X8459Y681D02*
X8209Y931D01*
X8209Y1431D01*
X8459Y1681D01*
X8209Y931D02*
X7959Y681D01*
X7459Y681D01*
X7209Y931D01*
X7209Y1431D01*
X7459Y1681D01*
X7959Y1681D01*
X8209Y1431D01*
X9959Y681D02*
X10209Y931D01*
X9959Y681D02*
X9459Y681D01*
X9209Y931D01*
X9209Y1431D01*
X9459Y1681D01*
X9959Y1681D01*
X10209Y1431D01*
X9209Y931D02*
X8959Y681D01*
X9209Y1431D02*
X8959Y1681D01*
X8459Y1681D01*
X11459Y681D02*
X11959Y681D01*
X11459Y681D02*
X11209Y931D01*
X11209Y1431D01*
X11459Y1681D01*
X11209Y931D02*
X10959Y681D01*
X10459Y681D01*
X10209Y931D01*
X10209Y1431D01*
X10459Y1681D01*
X10959Y1681D01*
X11209Y1431D01*
X12959Y681D02*
X13209Y931D01*
X12959Y681D02*
X12459Y681D01*
X12209Y931D01*
X12209Y1431D01*
X12459Y1681D01*
X12959Y1681D01*
X13209Y1431D01*
X12209Y931D02*
X11959Y681D01*
X12209Y1431D02*
X11959Y1681D01*
X11459Y1681D01*
X14459Y681D02*
X14959Y681D01*
X14459Y681D02*
X14209Y931D01*
X14209Y1431D01*
X14459Y1681D01*
X14209Y931D02*
X13959Y681D01*
X13459Y681D01*
X13209Y931D01*
X13209Y1431D01*
X13459Y1681D01*
X13959Y1681D01*
X14209Y1431D01*
X15209Y1431D02*
X15209Y931D01*
X14959Y681D01*
X15209Y1431D02*
X14959Y1681D01*
X14459Y1681D01*
X6959Y681D02*
X6459Y681D01*
X6209Y931D01*
X6209Y1431D01*
X6459Y1681D01*
X7209Y931D02*
X6959Y681D01*
X7209Y1431D02*
X6959Y1681D01*
X6459Y1681D01*
D11*
X13801Y436D02*
X13801Y86D01*
X13799Y69D01*
X13795Y52D01*
X13788Y36D01*
X13778Y22D01*
X13765Y9D01*
X13751Y-1D01*
X13735Y-8D01*
X13718Y-12D01*
X13701Y-14D01*
X13651Y-14D01*
X14036Y-14D02*
X14036Y436D01*
X14161Y436D01*
X14182Y434D01*
X14202Y429D01*
X14220Y421D01*
X14238Y410D01*
X14253Y396D01*
X14266Y379D01*
X14275Y361D01*
X14282Y342D01*
X14286Y321D01*
X14286Y301D01*
X14282Y280D01*
X14275Y261D01*
X14266Y243D01*
X14253Y226D01*
X14238Y212D01*
X14220Y201D01*
X14202Y193D01*
X14182Y188D01*
X14161Y186D01*
X14036Y186D01*
X14464Y336D02*
X14589Y436D01*
X14589Y-14D01*
X14464Y-14D02*
X14714Y-14D01*
D10*
X9199Y14854D02*
X8699Y14854D01*
X8449Y15104D01*
X8449Y15604D01*
X8699Y15854D01*
X8449Y15104D02*
X8199Y14854D01*
X7699Y14854D01*
X7449Y15104D01*
X7449Y15604D01*
X7699Y15854D01*
X8199Y15854D01*
X8449Y15604D01*
X10199Y14854D02*
X10449Y15104D01*
X10199Y14854D02*
X9699Y14854D01*
X9449Y15104D01*
X9449Y15604D01*
X9699Y15854D01*
X10199Y15854D01*
X10449Y15604D01*
X9449Y15104D02*
X9199Y14854D01*
X9449Y15604D02*
X9199Y15854D01*
X8699Y15854D01*
X11699Y14854D02*
X12199Y14854D01*
X11699Y14854D02*
X11449Y15104D01*
X11449Y15604D01*
X11699Y15854D01*
X11449Y15104D02*
X11199Y14854D01*
X10699Y14854D01*
X10449Y15104D01*
X10449Y15604D01*
X10699Y15854D01*
X11199Y15854D01*
X11449Y15604D01*
X12449Y15604D02*
X12449Y15104D01*
X12199Y14854D01*
X12449Y15604D02*
X12199Y15854D01*
X11699Y15854D01*
X7199Y14854D02*
X6699Y14854D01*
X6449Y15104D01*
X6449Y15604D01*
X6699Y15854D01*
X7449Y15104D02*
X7199Y14854D01*
X7449Y15604D02*
X7199Y15854D01*
X6699Y15854D01*
D11*
X11041Y14609D02*
X11041Y14259D01*
X11039Y14242D01*
X11035Y14225D01*
X11028Y14209D01*
X11018Y14195D01*
X11005Y14182D01*
X10991Y14172D01*
X10975Y14165D01*
X10958Y14161D01*
X10941Y14159D01*
X10891Y14159D01*
X11276Y14159D02*
X11276Y14609D01*
X11401Y14609D01*
X11422Y14607D01*
X11442Y14602D01*
X11460Y14594D01*
X11478Y14583D01*
X11493Y14569D01*
X11506Y14552D01*
X11515Y14534D01*
X11522Y14515D01*
X11526Y14494D01*
X11526Y14474D01*
X11522Y14453D01*
X11515Y14434D01*
X11506Y14416D01*
X11493Y14399D01*
X11478Y14385D01*
X11460Y14374D01*
X11442Y14366D01*
X11422Y14361D01*
X11401Y14359D01*
X11276Y14359D01*
X11841Y14610D02*
X11861Y14608D01*
X11880Y14603D01*
X11898Y14595D01*
X11914Y14584D01*
X11928Y14570D01*
X11939Y14554D01*
X11947Y14536D01*
X11952Y14517D01*
X11954Y14497D01*
X11841Y14610D02*
X11818Y14608D01*
X11796Y14603D01*
X11775Y14594D01*
X11756Y14582D01*
X11738Y14567D01*
X11724Y14550D01*
X11712Y14531D01*
X11703Y14510D01*
X11916Y14409D02*
X11929Y14424D01*
X11940Y14440D01*
X11948Y14458D01*
X11952Y14477D01*
X11954Y14497D01*
X11916Y14409D02*
X11704Y14159D01*
X11954Y14159D01*
D18*
X0Y0D02*
X39370Y0D01*
X39370Y39370D01*
X0Y39370D01*
X0Y0D01*
X37992Y37380D02*
X37989Y37338D01*
X37983Y37297D01*
X37974Y37255D01*
X37962Y37215D01*
X37948Y37175D01*
X37930Y37137D01*
X37910Y37100D01*
X37887Y37065D01*
X37862Y37031D01*
X37834Y36999D01*
X37804Y36969D01*
X37772Y36941D01*
X37739Y36916D01*
X37703Y36893D01*
X37666Y36873D01*
X37628Y36856D01*
X37588Y36841D01*
X37548Y36829D01*
X37506Y36820D01*
X37465Y36814D01*
X37423Y36811D01*
X37380Y36811D01*
X37338Y36814D01*
X37297Y36820D01*
X37255Y36829D01*
X37215Y36841D01*
X37175Y36856D01*
X37137Y36873D01*
X37100Y36893D01*
X37065Y36916D01*
X37031Y36941D01*
X36999Y36969D01*
X36969Y36999D01*
X36941Y37031D01*
X36916Y37065D01*
X36893Y37100D01*
X36873Y37137D01*
X36856Y37175D01*
X36841Y37215D01*
X36829Y37255D01*
X36820Y37297D01*
X36814Y37338D01*
X36811Y37380D01*
X36811Y37423D01*
X36814Y37465D01*
X36820Y37506D01*
X36829Y37548D01*
X36841Y37588D01*
X36856Y37628D01*
X36873Y37666D01*
X36893Y37703D01*
X36916Y37739D01*
X36941Y37772D01*
X36969Y37804D01*
X36999Y37834D01*
X37031Y37862D01*
X37065Y37887D01*
X37100Y37910D01*
X37137Y37930D01*
X37175Y37948D01*
X37215Y37962D01*
X37255Y37974D01*
X37297Y37983D01*
X37338Y37989D01*
X37380Y37992D01*
X37423Y37992D01*
X37465Y37989D01*
X37506Y37983D01*
X37548Y37974D01*
X37588Y37962D01*
X37628Y37948D01*
X37666Y37930D01*
X37703Y37910D01*
X37739Y37887D01*
X37772Y37862D01*
X37804Y37834D01*
X37834Y37804D01*
X37862Y37772D01*
X37887Y37739D01*
X37910Y37703D01*
X37930Y37666D01*
X37948Y37628D01*
X37962Y37588D01*
X37974Y37548D01*
X37983Y37506D01*
X37989Y37465D01*
X37992Y37423D01*
X37992Y37380D01*
X37992Y1947D02*
X37989Y1905D01*
X37983Y1864D01*
X37974Y1822D01*
X37962Y1782D01*
X37948Y1742D01*
X37930Y1704D01*
X37910Y1667D01*
X37887Y1631D01*
X37862Y1598D01*
X37834Y1566D01*
X37804Y1536D01*
X37772Y1508D01*
X37739Y1483D01*
X37703Y1460D01*
X37666Y1440D01*
X37628Y1423D01*
X37588Y1408D01*
X37548Y1396D01*
X37506Y1387D01*
X37465Y1381D01*
X37423Y1378D01*
X37380Y1378D01*
X37338Y1381D01*
X37297Y1387D01*
X37255Y1396D01*
X37215Y1408D01*
X37175Y1423D01*
X37137Y1440D01*
X37100Y1460D01*
X37065Y1483D01*
X37031Y1508D01*
X36999Y1536D01*
X36969Y1566D01*
X36941Y1598D01*
X36916Y1631D01*
X36893Y1667D01*
X36873Y1704D01*
X36856Y1742D01*
X36841Y1782D01*
X36829Y1822D01*
X36820Y1864D01*
X36814Y1905D01*
X36811Y1947D01*
X36811Y1990D01*
X36814Y2032D01*
X36820Y2073D01*
X36829Y2115D01*
X36841Y2155D01*
X36856Y2195D01*
X36873Y2233D01*
X36893Y2270D01*
X36916Y2306D01*
X36941Y2339D01*
X36969Y2371D01*
X36999Y2401D01*
X37031Y2429D01*
X37065Y2454D01*
X37100Y2477D01*
X37137Y2497D01*
X37175Y2514D01*
X37215Y2529D01*
X37255Y2541D01*
X37297Y2550D01*
X37338Y2556D01*
X37380Y2559D01*
X37423Y2559D01*
X37465Y2556D01*
X37506Y2550D01*
X37548Y2541D01*
X37588Y2529D01*
X37628Y2514D01*
X37666Y2497D01*
X37703Y2477D01*
X37739Y2454D01*
X37772Y2429D01*
X37804Y2401D01*
X37834Y2371D01*
X37862Y2339D01*
X37887Y2306D01*
X37910Y2270D01*
X37930Y2233D01*
X37948Y2195D01*
X37962Y2155D01*
X37974Y2115D01*
X37983Y2073D01*
X37989Y2032D01*
X37992Y1990D01*
X37992Y1947D01*
X2559Y37380D02*
X2556Y37338D01*
X2550Y37297D01*
X2541Y37255D01*
X2529Y37215D01*
X2514Y37175D01*
X2497Y37137D01*
X2477Y37100D01*
X2454Y37065D01*
X2429Y37031D01*
X2401Y36999D01*
X2371Y36969D01*
X2339Y36941D01*
X2306Y36916D01*
X2270Y36893D01*
X2233Y36873D01*
X2195Y36856D01*
X2155Y36841D01*
X2115Y36829D01*
X2073Y36820D01*
X2032Y36814D01*
X1990Y36811D01*
X1947Y36811D01*
X1905Y36814D01*
X1864Y36820D01*
X1822Y36829D01*
X1782Y36841D01*
X1742Y36856D01*
X1704Y36873D01*
X1667Y36893D01*
X1631Y36916D01*
X1598Y36941D01*
X1566Y36969D01*
X1536Y36999D01*
X1508Y37031D01*
X1483Y37065D01*
X1460Y37100D01*
X1440Y37137D01*
X1423Y37175D01*
X1408Y37215D01*
X1396Y37255D01*
X1387Y37297D01*
X1381Y37338D01*
X1378Y37380D01*
X1378Y37423D01*
X1381Y37465D01*
X1387Y37506D01*
X1396Y37548D01*
X1408Y37588D01*
X1423Y37628D01*
X1440Y37666D01*
X1460Y37703D01*
X1483Y37739D01*
X1508Y37772D01*
X1536Y37804D01*
X1566Y37834D01*
X1598Y37862D01*
X1631Y37887D01*
X1667Y37910D01*
X1704Y37930D01*
X1742Y37948D01*
X1782Y37962D01*
X1822Y37974D01*
X1864Y37983D01*
X1905Y37989D01*
X1947Y37992D01*
X1990Y37992D01*
X2032Y37989D01*
X2073Y37983D01*
X2115Y37974D01*
X2155Y37962D01*
X2195Y37948D01*
X2233Y37930D01*
X2270Y37910D01*
X2306Y37887D01*
X2339Y37862D01*
X2371Y37834D01*
X2401Y37804D01*
X2429Y37772D01*
X2454Y37739D01*
X2477Y37703D01*
X2497Y37666D01*
X2514Y37628D01*
X2529Y37588D01*
X2541Y37548D01*
X2550Y37506D01*
X2556Y37465D01*
X2559Y37423D01*
X2559Y37380D01*
X2559Y1947D02*
X2556Y1905D01*
X2550Y1864D01*
X2541Y1822D01*
X2529Y1782D01*
X2514Y1742D01*
X2497Y1704D01*
X2477Y1667D01*
X2454Y1631D01*
X2429Y1598D01*
X2401Y1566D01*
X2371Y1536D01*
X2339Y1508D01*
X2306Y1483D01*
X2270Y1460D01*
X2233Y1440D01*
X2195Y1423D01*
X2155Y1408D01*
X2115Y1396D01*
X2073Y1387D01*
X2032Y1381D01*
X1990Y1378D01*
X1947Y1378D01*
X1905Y1381D01*
X1864Y1387D01*
X1822Y1396D01*
X1782Y1408D01*
X1742Y1423D01*
X1704Y1440D01*
X1667Y1460D01*
X1631Y1483D01*
X1598Y1508D01*
X1566Y1536D01*
X1536Y1566D01*
X1508Y1598D01*
X1483Y1631D01*
X1460Y1667D01*
X1440Y1704D01*
X1423Y1742D01*
X1408Y1782D01*
X1396Y1822D01*
X1387Y1864D01*
X1381Y1905D01*
X1378Y1947D01*
X1378Y1990D01*
X1381Y2032D01*
X1387Y2073D01*
X1396Y2115D01*
X1408Y2155D01*
X1423Y2195D01*
X1440Y2233D01*
X1460Y2270D01*
X1483Y2306D01*
X1508Y2339D01*
X1536Y2371D01*
X1566Y2401D01*
X1598Y2429D01*
X1631Y2454D01*
X1667Y2477D01*
X1704Y2497D01*
X1742Y2514D01*
X1782Y2529D01*
X1822Y2541D01*
X1864Y2550D01*
X1905Y2556D01*
X1947Y2559D01*
X1990Y2559D01*
X2032Y2556D01*
X2073Y2550D01*
X2115Y2541D01*
X2155Y2529D01*
X2195Y2514D01*
X2233Y2497D01*
X2270Y2477D01*
X2306Y2454D01*
X2339Y2429D01*
X2371Y2401D01*
X2401Y2371D01*
X2429Y2339D01*
X2454Y2306D01*
X2477Y2270D01*
X2497Y2233D01*
X2514Y2195D01*
X2529Y2155D01*
X2541Y2115D01*
X2550Y2073D01*
X2556Y2032D01*
X2559Y1990D01*
X2559Y1947D01*
X5360Y35316D02*
X5357Y35273D01*
X5351Y35232D01*
X5342Y35190D01*
X5330Y35150D01*
X5315Y35110D01*
X5298Y35072D01*
X5277Y35035D01*
X5255Y35000D01*
X5229Y34966D01*
X5202Y34934D01*
X5172Y34904D01*
X5140Y34876D01*
X5106Y34851D01*
X5071Y34828D01*
X5034Y34808D01*
X4995Y34791D01*
X4956Y34776D01*
X4915Y34764D01*
X4874Y34755D01*
X4832Y34749D01*
X4790Y34746D01*
X4748Y34746D01*
X4706Y34749D01*
X4664Y34755D01*
X4623Y34764D01*
X4583Y34776D01*
X4543Y34791D01*
X4505Y34808D01*
X4468Y34828D01*
X4432Y34851D01*
X4399Y34876D01*
X4367Y34904D01*
X4337Y34934D01*
X4309Y34966D01*
X4284Y35000D01*
X4261Y35035D01*
X4241Y35072D01*
X4223Y35110D01*
X4209Y35150D01*
X4197Y35190D01*
X4188Y35232D01*
X4182Y35273D01*
X4179Y35316D01*
X4179Y35358D01*
X4182Y35400D01*
X4188Y35442D01*
X4197Y35483D01*
X4209Y35523D01*
X4223Y35563D01*
X4241Y35601D01*
X4261Y35638D01*
X4284Y35674D01*
X4309Y35707D01*
X4337Y35739D01*
X4367Y35769D01*
X4399Y35797D01*
X4432Y35822D01*
X4468Y35845D01*
X4505Y35865D01*
X4543Y35883D01*
X4583Y35897D01*
X4623Y35909D01*
X4664Y35918D01*
X4706Y35924D01*
X4748Y35927D01*
X4790Y35927D01*
X4832Y35924D01*
X4874Y35918D01*
X4915Y35909D01*
X4956Y35897D01*
X4995Y35883D01*
X5034Y35865D01*
X5071Y35845D01*
X5106Y35822D01*
X5140Y35797D01*
X5172Y35769D01*
X5202Y35739D01*
X5229Y35707D01*
X5255Y35674D01*
X5277Y35638D01*
X5298Y35601D01*
X5315Y35563D01*
X5330Y35523D01*
X5342Y35483D01*
X5351Y35442D01*
X5357Y35400D01*
X5360Y35358D01*
X5360Y35316D01*
X17160Y28816D02*
X17157Y28773D01*
X17151Y28732D01*
X17142Y28690D01*
X17130Y28650D01*
X17115Y28610D01*
X17098Y28572D01*
X17077Y28535D01*
X17055Y28500D01*
X17029Y28466D01*
X17002Y28434D01*
X16972Y28404D01*
X16940Y28376D01*
X16906Y28351D01*
X16871Y28328D01*
X16834Y28308D01*
X16795Y28291D01*
X16756Y28276D01*
X16715Y28264D01*
X16674Y28255D01*
X16632Y28249D01*
X16590Y28246D01*
X16548Y28246D01*
X16506Y28249D01*
X16464Y28255D01*
X16423Y28264D01*
X16383Y28276D01*
X16343Y28291D01*
X16305Y28308D01*
X16268Y28328D01*
X16232Y28351D01*
X16199Y28376D01*
X16167Y28404D01*
X16137Y28434D01*
X16109Y28466D01*
X16084Y28500D01*
X16061Y28535D01*
X16041Y28572D01*
X16023Y28610D01*
X16009Y28650D01*
X15997Y28690D01*
X15988Y28732D01*
X15982Y28773D01*
X15979Y28816D01*
X15979Y28858D01*
X15982Y28900D01*
X15988Y28942D01*
X15997Y28983D01*
X16009Y29023D01*
X16023Y29063D01*
X16041Y29101D01*
X16061Y29138D01*
X16084Y29174D01*
X16109Y29207D01*
X16137Y29239D01*
X16167Y29269D01*
X16199Y29297D01*
X16232Y29322D01*
X16268Y29345D01*
X16305Y29365D01*
X16343Y29383D01*
X16383Y29397D01*
X16423Y29409D01*
X16464Y29418D01*
X16506Y29424D01*
X16548Y29427D01*
X16590Y29427D01*
X16632Y29424D01*
X16674Y29418D01*
X16715Y29409D01*
X16756Y29397D01*
X16795Y29383D01*
X16834Y29365D01*
X16871Y29345D01*
X16906Y29322D01*
X16940Y29297D01*
X16972Y29269D01*
X17002Y29239D01*
X17029Y29207D01*
X17055Y29174D01*
X17077Y29138D01*
X17098Y29101D01*
X17115Y29063D01*
X17130Y29023D01*
X17142Y28983D01*
X17151Y28942D01*
X17157Y28900D01*
X17160Y28858D01*
X17160Y28816D01*
M02*
