G04 EAGLE Gerber RS-274X export*
G75*
%MOIN*%
%FSLAX34Y34*%
%LPD*%
%INSilkscreen Bottom*%
%IPPOS*%
%AMOC8*
5,1,8,0,0,1.08239X$1,22.5*%
G01*
%ADD10C,0.008000*%
%ADD11C,0.004000*%
%ADD12C,0.006000*%
%ADD13C,0.005000*%
%ADD14C,0.010000*%


D10*
X21693Y34606D02*
X25551Y34606D01*
X25551Y34428D02*
X21693Y34428D01*
X21693Y36217D02*
X25551Y36217D01*
X25551Y36409D02*
X21693Y36409D01*
X22638Y37737D02*
X22693Y37735D01*
X22748Y37731D01*
X22802Y37723D01*
X22802Y37722D02*
X22855Y37712D01*
X22907Y37698D01*
X22958Y37681D01*
X22958Y37682D02*
X23007Y37662D01*
X23054Y37639D01*
X23101Y37614D01*
X23100Y37613D02*
X23143Y37586D01*
X23184Y37556D01*
X23222Y37523D01*
X23223Y37524D02*
X23257Y37490D01*
X23290Y37453D01*
X23319Y37415D01*
X23319Y37414D02*
X23341Y37382D01*
X23360Y37348D01*
X23377Y37312D01*
X23378Y37312D02*
X23392Y37277D01*
X23404Y37241D01*
X23413Y37204D01*
X23413Y37205D02*
X23420Y37167D01*
X23424Y37130D01*
X23425Y37092D01*
X21863Y37204D02*
X21856Y37167D01*
X21852Y37130D01*
X21851Y37092D01*
X21862Y37204D02*
X21872Y37241D01*
X21884Y37277D01*
X21898Y37312D01*
X21897Y37313D02*
X21914Y37348D01*
X21934Y37382D01*
X21955Y37415D01*
X21956Y37414D02*
X21985Y37453D01*
X22018Y37490D01*
X22053Y37524D01*
X22053Y37523D02*
X22092Y37556D01*
X22132Y37586D01*
X22175Y37614D01*
X22175Y37613D02*
X22222Y37639D01*
X22269Y37661D01*
X22318Y37681D01*
X22369Y37698D01*
X22421Y37712D01*
X22474Y37723D01*
X22529Y37731D01*
X22583Y37735D01*
X22638Y37737D01*
X23836Y37226D02*
X23827Y37182D01*
X23821Y37137D01*
X23819Y37092D01*
X23836Y37226D02*
X23850Y37270D01*
X23867Y37313D01*
X23887Y37354D01*
X23886Y37354D02*
X23906Y37389D01*
X23929Y37423D01*
X23954Y37455D01*
X23981Y37485D01*
X23982Y37484D02*
X24015Y37518D01*
X24050Y37548D01*
X24088Y37577D01*
X24127Y37603D01*
X24170Y37628D01*
X24214Y37651D01*
X24259Y37670D01*
X24305Y37687D01*
X24306Y37688D02*
X24354Y37703D01*
X24403Y37715D01*
X24453Y37725D01*
X24504Y37732D01*
X24503Y37731D02*
X24554Y37736D01*
X24606Y37737D01*
X24658Y37736D01*
X24709Y37731D01*
X24709Y37732D02*
X24760Y37725D01*
X24810Y37715D01*
X24859Y37703D01*
X24908Y37688D01*
X24907Y37688D02*
X24953Y37671D01*
X24999Y37651D01*
X25043Y37629D01*
X25085Y37604D01*
X25086Y37604D02*
X25125Y37578D01*
X25163Y37549D01*
X25198Y37518D01*
X25231Y37485D01*
X25231Y37484D02*
X25258Y37454D01*
X25282Y37422D01*
X25305Y37388D01*
X25326Y37354D01*
X25326Y37355D02*
X25347Y37313D01*
X25364Y37271D01*
X25377Y37227D01*
X25377Y37226D02*
X25386Y37182D01*
X25392Y37137D01*
X25394Y37092D01*
X25393Y37054D01*
X25389Y37017D01*
X25382Y36979D01*
X25381Y36980D02*
X25372Y36943D01*
X25360Y36907D01*
X25346Y36872D01*
X25347Y36871D02*
X25329Y36836D01*
X25310Y36802D01*
X25289Y36769D01*
X25288Y36770D02*
X25259Y36731D01*
X25226Y36694D01*
X25191Y36660D01*
X25191Y36661D02*
X25152Y36628D01*
X25112Y36598D01*
X25069Y36570D01*
X25070Y36571D02*
X25023Y36545D01*
X24976Y36523D01*
X24927Y36503D01*
X24926Y36503D02*
X24875Y36486D01*
X24823Y36472D01*
X24770Y36461D01*
X24771Y36461D02*
X24716Y36453D01*
X24662Y36449D01*
X24607Y36447D01*
X23408Y36957D02*
X23417Y37001D01*
X23423Y37046D01*
X23425Y37092D01*
X23408Y36958D02*
X23394Y36914D01*
X23377Y36871D01*
X23357Y36830D01*
X23337Y36795D01*
X23314Y36761D01*
X23289Y36730D01*
X23262Y36700D01*
X23229Y36667D01*
X23194Y36636D01*
X23156Y36607D01*
X23117Y36581D01*
X23074Y36556D01*
X23030Y36533D01*
X22985Y36514D01*
X22939Y36497D01*
X22939Y36496D02*
X22891Y36481D01*
X22842Y36469D01*
X22792Y36459D01*
X22741Y36452D01*
X22741Y36453D02*
X22690Y36448D01*
X22638Y36447D01*
X22586Y36448D01*
X22535Y36453D01*
X22535Y36452D02*
X22484Y36459D01*
X22434Y36469D01*
X22385Y36481D01*
X22336Y36496D01*
X22337Y36496D02*
X22291Y36513D01*
X22245Y36533D01*
X22201Y36556D01*
X22159Y36580D01*
X22120Y36606D01*
X22082Y36635D01*
X22047Y36666D01*
X22013Y36699D01*
X22014Y36699D02*
X21987Y36729D01*
X21963Y36761D01*
X21940Y36795D01*
X21919Y36829D01*
X21918Y36829D02*
X21897Y36871D01*
X21880Y36913D01*
X21867Y36957D01*
X21868Y36958D02*
X21859Y37002D01*
X21853Y37047D01*
X21851Y37092D01*
X24442Y36461D02*
X24496Y36453D01*
X24551Y36449D01*
X24606Y36447D01*
X24442Y36462D02*
X24389Y36472D01*
X24337Y36486D01*
X24286Y36503D01*
X24286Y36502D02*
X24237Y36522D01*
X24190Y36545D01*
X24143Y36570D01*
X24144Y36571D02*
X24101Y36598D01*
X24060Y36628D01*
X24022Y36661D01*
X24021Y36660D02*
X23986Y36694D01*
X23953Y36731D01*
X23924Y36770D01*
X23925Y36770D02*
X23903Y36802D01*
X23884Y36836D01*
X23867Y36872D01*
X23866Y36872D02*
X23852Y36907D01*
X23840Y36943D01*
X23831Y36980D01*
X23824Y37017D01*
X23820Y37054D01*
X23819Y37092D01*
X25551Y32638D02*
X21693Y32638D01*
X21693Y34428D01*
X21693Y34606D01*
X21693Y36217D01*
X21693Y36409D01*
X21693Y37835D01*
X25551Y37835D01*
X25551Y36409D01*
X25551Y36217D01*
X25551Y34606D01*
X25551Y34428D01*
X25551Y32638D01*
X25197Y33228D02*
X24016Y33228D01*
X24016Y33878D01*
X25197Y33878D01*
X25197Y33228D01*
X25276Y32913D02*
X23937Y32913D01*
X23937Y34173D01*
X25276Y34173D01*
X25276Y32913D01*
X21654Y32874D02*
X21575Y32874D01*
X21496Y32815D01*
X21398Y32815D01*
X21398Y34606D01*
X21476Y34606D01*
X21575Y34547D01*
X21654Y34547D01*
X21654Y35807D02*
X21575Y35807D01*
X21496Y35728D01*
X21398Y35728D01*
X21398Y36831D01*
X21496Y36831D01*
X21575Y36772D01*
X21654Y36772D01*
X23228Y33327D02*
X23228Y33228D01*
X22047Y33228D01*
X22047Y33878D01*
X23228Y33878D01*
X23228Y33327D01*
X23307Y32913D02*
X21969Y32913D01*
X21969Y34173D01*
X23307Y34173D01*
X23307Y32913D01*
D11*
X25602Y38482D02*
X25474Y38584D01*
X25474Y38124D01*
X25602Y38124D02*
X25346Y38124D01*
X24896Y38469D02*
X24898Y38489D01*
X24903Y38508D01*
X24911Y38527D01*
X24923Y38543D01*
X24937Y38557D01*
X24954Y38569D01*
X24972Y38577D01*
X24991Y38582D01*
X25011Y38584D01*
X25011Y38585D02*
X25034Y38583D01*
X25057Y38578D01*
X25078Y38569D01*
X25098Y38557D01*
X25116Y38542D01*
X25131Y38524D01*
X25143Y38504D01*
X25152Y38483D01*
X24934Y38379D02*
X24921Y38394D01*
X24910Y38411D01*
X24902Y38430D01*
X24898Y38449D01*
X24896Y38469D01*
X24935Y38380D02*
X25152Y38124D01*
X24896Y38124D01*
X24574Y38124D02*
X24728Y38584D01*
X24421Y38584D02*
X24574Y38124D01*
X24271Y38073D02*
X24067Y38073D01*
X23854Y38124D02*
X23854Y38584D01*
X23905Y38124D02*
X23803Y38124D01*
X23803Y38584D02*
X23905Y38584D01*
X23607Y38584D02*
X23607Y38124D01*
X23351Y38124D02*
X23607Y38584D01*
X23351Y38584D02*
X23351Y38124D01*
D12*
X27876Y10736D02*
X28376Y10736D01*
X27876Y10736D02*
X27626Y10486D01*
X27626Y9986D02*
X27876Y9736D01*
X27626Y10486D02*
X27376Y10736D01*
X26876Y10736D01*
X26626Y10486D01*
X26626Y9986D02*
X26876Y9736D01*
X27376Y9736D01*
X27626Y9986D01*
X28626Y9986D02*
X28626Y10486D01*
X28376Y10736D01*
X28626Y9986D02*
X28376Y9736D01*
X27876Y9736D01*
X26626Y10486D02*
X26376Y10736D01*
X25876Y10736D01*
X25626Y10486D01*
X25626Y9986D02*
X25876Y9736D01*
X26376Y9736D01*
X26626Y9986D01*
X25626Y9986D02*
X25626Y10486D01*
D13*
X28976Y10461D02*
X29101Y10361D01*
X28976Y10461D02*
X28976Y10011D01*
X29101Y10011D02*
X28851Y10011D01*
X27617Y9629D02*
X27617Y9179D01*
X27617Y9629D02*
X27492Y9629D01*
X27472Y9627D01*
X27453Y9623D01*
X27435Y9615D01*
X27419Y9605D01*
X27404Y9592D01*
X27391Y9577D01*
X27381Y9561D01*
X27373Y9543D01*
X27369Y9524D01*
X27367Y9504D01*
X27367Y9304D01*
X27369Y9284D01*
X27373Y9265D01*
X27381Y9247D01*
X27391Y9231D01*
X27404Y9216D01*
X27419Y9203D01*
X27435Y9193D01*
X27453Y9185D01*
X27472Y9181D01*
X27492Y9179D01*
X27617Y9179D01*
X27017Y9179D02*
X27000Y9181D01*
X26983Y9185D01*
X26967Y9192D01*
X26953Y9202D01*
X26940Y9215D01*
X26930Y9229D01*
X26923Y9245D01*
X26919Y9262D01*
X26917Y9279D01*
X27017Y9179D02*
X27045Y9181D01*
X27072Y9186D01*
X27098Y9195D01*
X27123Y9208D01*
X27146Y9223D01*
X27167Y9241D01*
X27154Y9529D02*
X27152Y9546D01*
X27148Y9563D01*
X27141Y9579D01*
X27131Y9593D01*
X27118Y9606D01*
X27104Y9616D01*
X27088Y9623D01*
X27071Y9627D01*
X27054Y9629D01*
X27030Y9627D01*
X27006Y9623D01*
X26983Y9615D01*
X26961Y9605D01*
X26941Y9591D01*
X27105Y9441D02*
X27119Y9451D01*
X27132Y9464D01*
X27142Y9478D01*
X27149Y9494D01*
X27153Y9511D01*
X27155Y9529D01*
X26966Y9367D02*
X26952Y9357D01*
X26939Y9344D01*
X26929Y9330D01*
X26922Y9314D01*
X26918Y9297D01*
X26916Y9279D01*
X26967Y9366D02*
X27104Y9441D01*
X26732Y9529D02*
X26607Y9629D01*
X26607Y9179D01*
X26732Y9179D02*
X26482Y9179D01*
X26282Y9304D02*
X26280Y9325D01*
X26275Y9345D01*
X26267Y9363D01*
X26256Y9381D01*
X26242Y9396D01*
X26225Y9409D01*
X26207Y9418D01*
X26188Y9425D01*
X26167Y9429D01*
X26147Y9429D01*
X26126Y9425D01*
X26107Y9418D01*
X26089Y9409D01*
X26072Y9396D01*
X26058Y9381D01*
X26047Y9363D01*
X26039Y9345D01*
X26034Y9325D01*
X26032Y9304D01*
X26034Y9283D01*
X26039Y9263D01*
X26047Y9245D01*
X26058Y9227D01*
X26072Y9212D01*
X26089Y9199D01*
X26107Y9190D01*
X26126Y9183D01*
X26147Y9179D01*
X26167Y9179D01*
X26188Y9183D01*
X26207Y9190D01*
X26225Y9199D01*
X26242Y9212D01*
X26256Y9227D01*
X26267Y9245D01*
X26275Y9263D01*
X26280Y9283D01*
X26282Y9304D01*
X26257Y9529D02*
X26255Y9547D01*
X26250Y9565D01*
X26242Y9582D01*
X26231Y9596D01*
X26217Y9609D01*
X26202Y9619D01*
X26184Y9625D01*
X26166Y9629D01*
X26148Y9629D01*
X26130Y9625D01*
X26112Y9619D01*
X26097Y9609D01*
X26083Y9596D01*
X26072Y9582D01*
X26064Y9565D01*
X26059Y9547D01*
X26057Y9529D01*
X26059Y9511D01*
X26064Y9493D01*
X26072Y9476D01*
X26083Y9462D01*
X26097Y9449D01*
X26112Y9439D01*
X26130Y9433D01*
X26148Y9429D01*
X26166Y9429D01*
X26184Y9433D01*
X26202Y9439D01*
X26217Y9449D01*
X26231Y9462D01*
X26242Y9476D01*
X26250Y9493D01*
X26255Y9511D01*
X26257Y9529D01*
X25809Y9429D02*
X25684Y9429D01*
X25663Y9427D01*
X25643Y9422D01*
X25625Y9414D01*
X25607Y9403D01*
X25592Y9389D01*
X25579Y9372D01*
X25570Y9354D01*
X25563Y9335D01*
X25559Y9314D01*
X25559Y9294D01*
X25563Y9273D01*
X25570Y9254D01*
X25579Y9236D01*
X25592Y9219D01*
X25607Y9205D01*
X25625Y9194D01*
X25643Y9186D01*
X25663Y9181D01*
X25684Y9179D01*
X25809Y9179D01*
X25809Y9629D01*
X25684Y9629D01*
X25666Y9627D01*
X25648Y9622D01*
X25631Y9614D01*
X25617Y9603D01*
X25604Y9589D01*
X25594Y9574D01*
X25588Y9556D01*
X25584Y9538D01*
X25584Y9520D01*
X25588Y9502D01*
X25594Y9484D01*
X25604Y9469D01*
X25617Y9455D01*
X25631Y9444D01*
X25648Y9436D01*
X25666Y9431D01*
X25684Y9429D01*
X25244Y9629D02*
X25224Y9627D01*
X25205Y9622D01*
X25188Y9614D01*
X25171Y9603D01*
X25157Y9589D01*
X25146Y9573D01*
X25138Y9555D01*
X25133Y9536D01*
X25131Y9516D01*
X25244Y9629D02*
X25267Y9627D01*
X25289Y9622D01*
X25310Y9613D01*
X25329Y9601D01*
X25347Y9586D01*
X25361Y9569D01*
X25373Y9550D01*
X25382Y9529D01*
X25170Y9428D02*
X25157Y9443D01*
X25146Y9459D01*
X25138Y9477D01*
X25134Y9496D01*
X25132Y9516D01*
X25169Y9429D02*
X25382Y9179D01*
X25132Y9179D01*
X24932Y9404D02*
X24930Y9438D01*
X24926Y9471D01*
X24918Y9504D01*
X24908Y9536D01*
X24894Y9567D01*
X24895Y9566D02*
X24888Y9581D01*
X24879Y9595D01*
X24868Y9607D01*
X24854Y9616D01*
X24839Y9623D01*
X24823Y9628D01*
X24807Y9629D01*
X24791Y9628D01*
X24775Y9623D01*
X24760Y9616D01*
X24746Y9607D01*
X24735Y9595D01*
X24726Y9581D01*
X24719Y9566D01*
X24720Y9567D02*
X24706Y9536D01*
X24696Y9504D01*
X24688Y9471D01*
X24684Y9438D01*
X24682Y9404D01*
X24932Y9404D02*
X24930Y9370D01*
X24926Y9337D01*
X24918Y9304D01*
X24908Y9272D01*
X24894Y9241D01*
X24895Y9241D02*
X24888Y9226D01*
X24879Y9212D01*
X24868Y9200D01*
X24854Y9191D01*
X24839Y9184D01*
X24823Y9179D01*
X24807Y9178D01*
X24720Y9241D02*
X24706Y9272D01*
X24696Y9304D01*
X24688Y9337D01*
X24684Y9370D01*
X24682Y9404D01*
X24719Y9241D02*
X24726Y9226D01*
X24735Y9212D01*
X24746Y9200D01*
X24760Y9191D01*
X24775Y9184D01*
X24791Y9179D01*
X24807Y9178D01*
X24907Y9279D02*
X24707Y9529D01*
D12*
X17301Y21766D02*
X16990Y21766D01*
X17301Y21766D02*
X17301Y22466D01*
X16990Y22466D01*
X17067Y22155D02*
X17301Y22155D01*
X16541Y21766D02*
X16519Y21768D01*
X16497Y21772D01*
X16476Y21780D01*
X16457Y21791D01*
X16439Y21804D01*
X16423Y21820D01*
X16410Y21838D01*
X16399Y21857D01*
X16391Y21878D01*
X16387Y21900D01*
X16385Y21922D01*
X16541Y21766D02*
X16573Y21768D01*
X16606Y21772D01*
X16637Y21780D01*
X16668Y21791D01*
X16697Y21805D01*
X16725Y21822D01*
X16751Y21841D01*
X16775Y21863D01*
X16755Y22311D02*
X16753Y22333D01*
X16749Y22355D01*
X16741Y22376D01*
X16730Y22395D01*
X16717Y22413D01*
X16701Y22429D01*
X16683Y22442D01*
X16664Y22453D01*
X16643Y22461D01*
X16621Y22465D01*
X16599Y22467D01*
X16568Y22465D01*
X16537Y22460D01*
X16507Y22452D01*
X16478Y22441D01*
X16450Y22426D01*
X16424Y22409D01*
X16677Y22175D02*
X16696Y22188D01*
X16714Y22204D01*
X16728Y22223D01*
X16740Y22243D01*
X16748Y22265D01*
X16753Y22288D01*
X16755Y22311D01*
X16463Y22058D02*
X16444Y22045D01*
X16426Y22029D01*
X16412Y22010D01*
X16400Y21990D01*
X16392Y21968D01*
X16387Y21945D01*
X16385Y21922D01*
X16463Y22058D02*
X16677Y22175D01*
X16107Y22466D02*
X16107Y21766D01*
X16107Y22466D02*
X15913Y22466D01*
X15885Y22464D01*
X15858Y22458D01*
X15832Y22448D01*
X15808Y22435D01*
X15786Y22419D01*
X15766Y22399D01*
X15750Y22377D01*
X15737Y22353D01*
X15727Y22327D01*
X15721Y22300D01*
X15719Y22272D01*
X15721Y22244D01*
X15727Y22217D01*
X15737Y22191D01*
X15750Y22167D01*
X15766Y22145D01*
X15786Y22125D01*
X15808Y22109D01*
X15832Y22096D01*
X15858Y22086D01*
X15885Y22080D01*
X15913Y22078D01*
X15913Y22077D02*
X16107Y22077D01*
X15477Y21766D02*
X15283Y21766D01*
X15283Y21767D02*
X15255Y21769D01*
X15228Y21775D01*
X15202Y21785D01*
X15178Y21798D01*
X15156Y21814D01*
X15136Y21834D01*
X15120Y21856D01*
X15107Y21880D01*
X15097Y21906D01*
X15091Y21933D01*
X15089Y21961D01*
X15091Y21989D01*
X15097Y22016D01*
X15107Y22042D01*
X15120Y22066D01*
X15136Y22088D01*
X15156Y22108D01*
X15178Y22124D01*
X15202Y22137D01*
X15228Y22147D01*
X15255Y22153D01*
X15283Y22155D01*
X15244Y22466D02*
X15477Y22466D01*
X15244Y22467D02*
X15221Y22465D01*
X15198Y22460D01*
X15176Y22452D01*
X15156Y22440D01*
X15138Y22425D01*
X15122Y22408D01*
X15109Y22389D01*
X15099Y22368D01*
X15092Y22346D01*
X15088Y22323D01*
X15088Y22299D01*
X15092Y22276D01*
X15099Y22254D01*
X15109Y22233D01*
X15122Y22214D01*
X15138Y22197D01*
X15156Y22182D01*
X15176Y22170D01*
X15198Y22162D01*
X15221Y22157D01*
X15244Y22155D01*
X15400Y22155D01*
X14604Y22466D02*
X14579Y22464D01*
X14555Y22459D01*
X14531Y22450D01*
X14509Y22438D01*
X14489Y22423D01*
X14472Y22406D01*
X14457Y22386D01*
X14445Y22364D01*
X14436Y22340D01*
X14431Y22316D01*
X14429Y22291D01*
X14604Y22466D02*
X14632Y22464D01*
X14660Y22459D01*
X14687Y22450D01*
X14712Y22438D01*
X14736Y22423D01*
X14758Y22405D01*
X14777Y22384D01*
X14794Y22361D01*
X14808Y22337D01*
X14818Y22310D01*
X14487Y22155D02*
X14470Y22174D01*
X14456Y22194D01*
X14444Y22217D01*
X14436Y22241D01*
X14431Y22266D01*
X14429Y22291D01*
X14487Y22155D02*
X14818Y21766D01*
X14429Y21766D01*
X14153Y22038D02*
X13687Y22038D01*
X13389Y21766D02*
X13389Y22466D01*
X13195Y22466D01*
X13167Y22464D01*
X13140Y22458D01*
X13114Y22448D01*
X13090Y22435D01*
X13068Y22419D01*
X13048Y22399D01*
X13032Y22377D01*
X13019Y22353D01*
X13009Y22327D01*
X13003Y22300D01*
X13001Y22272D01*
X13000Y22272D02*
X13000Y21961D01*
X13001Y21961D02*
X13003Y21933D01*
X13009Y21906D01*
X13019Y21880D01*
X13032Y21856D01*
X13048Y21834D01*
X13068Y21814D01*
X13090Y21798D01*
X13114Y21785D01*
X13140Y21775D01*
X13167Y21769D01*
X13195Y21767D01*
X13195Y21766D02*
X13389Y21766D01*
X12596Y21766D02*
X12402Y21766D01*
X12596Y21766D02*
X12616Y21768D01*
X12636Y21773D01*
X12655Y21782D01*
X12671Y21793D01*
X12686Y21808D01*
X12697Y21825D01*
X12706Y21843D01*
X12711Y21863D01*
X12713Y21883D01*
X12713Y22077D01*
X12711Y22100D01*
X12706Y22123D01*
X12698Y22145D01*
X12686Y22165D01*
X12671Y22183D01*
X12654Y22199D01*
X12635Y22212D01*
X12614Y22222D01*
X12592Y22229D01*
X12569Y22233D01*
X12545Y22233D01*
X12522Y22229D01*
X12500Y22222D01*
X12479Y22212D01*
X12460Y22199D01*
X12443Y22183D01*
X12428Y22165D01*
X12416Y22145D01*
X12408Y22123D01*
X12403Y22100D01*
X12401Y22077D01*
X12402Y22077D02*
X12402Y22000D01*
X12713Y22000D01*
X12163Y22233D02*
X12008Y21766D01*
X11852Y22233D01*
X11585Y22466D02*
X11585Y21766D01*
X11585Y22000D02*
X11274Y22233D01*
X11449Y22097D02*
X11274Y21766D01*
X11040Y21766D02*
X11040Y22233D01*
X11060Y22427D02*
X11060Y22466D01*
X11021Y22466D01*
X11021Y22427D01*
X11060Y22427D01*
X10832Y22233D02*
X10598Y22233D01*
X10754Y22466D02*
X10754Y21883D01*
X10752Y21863D01*
X10747Y21843D01*
X10738Y21825D01*
X10727Y21808D01*
X10712Y21793D01*
X10696Y21782D01*
X10677Y21773D01*
X10657Y21768D01*
X10637Y21766D01*
X10598Y21766D01*
X9809Y21766D02*
X10043Y22466D01*
X9576Y22466D02*
X9809Y21766D01*
X9344Y22311D02*
X9150Y22466D01*
X9150Y21766D01*
X9344Y21766D02*
X8955Y21766D01*
X16753Y7632D02*
X17064Y7632D01*
X17064Y8332D01*
X16753Y8332D01*
X16831Y8021D02*
X17064Y8021D01*
X16305Y7632D02*
X16283Y7634D01*
X16261Y7638D01*
X16240Y7646D01*
X16221Y7657D01*
X16203Y7670D01*
X16187Y7686D01*
X16174Y7704D01*
X16163Y7723D01*
X16155Y7744D01*
X16151Y7766D01*
X16149Y7788D01*
X16305Y7632D02*
X16337Y7634D01*
X16370Y7638D01*
X16401Y7646D01*
X16432Y7657D01*
X16461Y7671D01*
X16489Y7688D01*
X16515Y7707D01*
X16539Y7729D01*
X16519Y8177D02*
X16517Y8199D01*
X16513Y8221D01*
X16505Y8242D01*
X16494Y8261D01*
X16481Y8279D01*
X16465Y8295D01*
X16447Y8308D01*
X16428Y8319D01*
X16407Y8327D01*
X16385Y8331D01*
X16363Y8333D01*
X16332Y8331D01*
X16301Y8326D01*
X16271Y8318D01*
X16242Y8307D01*
X16214Y8292D01*
X16188Y8275D01*
X16441Y8041D02*
X16460Y8054D01*
X16478Y8070D01*
X16492Y8089D01*
X16504Y8109D01*
X16512Y8131D01*
X16517Y8154D01*
X16519Y8177D01*
X16227Y7924D02*
X16208Y7911D01*
X16190Y7895D01*
X16176Y7876D01*
X16164Y7856D01*
X16156Y7834D01*
X16151Y7811D01*
X16149Y7788D01*
X16227Y7924D02*
X16441Y8041D01*
X15871Y8332D02*
X15871Y7632D01*
X15871Y8332D02*
X15676Y8332D01*
X15648Y8330D01*
X15621Y8324D01*
X15595Y8314D01*
X15571Y8301D01*
X15549Y8285D01*
X15529Y8265D01*
X15513Y8243D01*
X15500Y8219D01*
X15490Y8193D01*
X15484Y8166D01*
X15482Y8138D01*
X15484Y8110D01*
X15490Y8083D01*
X15500Y8057D01*
X15513Y8033D01*
X15529Y8011D01*
X15549Y7991D01*
X15571Y7975D01*
X15595Y7962D01*
X15621Y7952D01*
X15648Y7946D01*
X15676Y7944D01*
X15676Y7943D02*
X15871Y7943D01*
X15241Y7632D02*
X15047Y7632D01*
X15047Y7633D02*
X15019Y7635D01*
X14992Y7641D01*
X14966Y7651D01*
X14942Y7664D01*
X14920Y7680D01*
X14900Y7700D01*
X14884Y7722D01*
X14871Y7746D01*
X14861Y7772D01*
X14855Y7799D01*
X14853Y7827D01*
X14855Y7855D01*
X14861Y7882D01*
X14871Y7908D01*
X14884Y7932D01*
X14900Y7954D01*
X14920Y7974D01*
X14942Y7990D01*
X14966Y8003D01*
X14992Y8013D01*
X15019Y8019D01*
X15047Y8021D01*
X15008Y8332D02*
X15241Y8332D01*
X15008Y8333D02*
X14985Y8331D01*
X14962Y8326D01*
X14940Y8318D01*
X14920Y8306D01*
X14902Y8291D01*
X14886Y8274D01*
X14873Y8255D01*
X14863Y8234D01*
X14856Y8212D01*
X14852Y8189D01*
X14852Y8165D01*
X14856Y8142D01*
X14863Y8120D01*
X14873Y8099D01*
X14886Y8080D01*
X14902Y8063D01*
X14920Y8048D01*
X14940Y8036D01*
X14962Y8028D01*
X14985Y8023D01*
X15008Y8021D01*
X15163Y8021D01*
X14368Y8332D02*
X14343Y8330D01*
X14319Y8325D01*
X14295Y8316D01*
X14273Y8304D01*
X14253Y8289D01*
X14236Y8272D01*
X14221Y8252D01*
X14209Y8230D01*
X14200Y8206D01*
X14195Y8182D01*
X14193Y8157D01*
X14368Y8333D02*
X14396Y8331D01*
X14424Y8326D01*
X14451Y8317D01*
X14476Y8305D01*
X14500Y8290D01*
X14522Y8272D01*
X14541Y8251D01*
X14558Y8228D01*
X14572Y8204D01*
X14582Y8177D01*
X14251Y8021D02*
X14234Y8040D01*
X14220Y8060D01*
X14208Y8083D01*
X14200Y8107D01*
X14195Y8132D01*
X14193Y8157D01*
X14251Y8021D02*
X14582Y7632D01*
X14193Y7632D01*
X13917Y7905D02*
X13450Y7905D01*
X13153Y7632D02*
X13153Y8332D01*
X12958Y8332D01*
X12930Y8330D01*
X12903Y8324D01*
X12877Y8314D01*
X12853Y8301D01*
X12831Y8285D01*
X12811Y8265D01*
X12795Y8243D01*
X12782Y8219D01*
X12772Y8193D01*
X12766Y8166D01*
X12764Y8138D01*
X12764Y7827D01*
X12766Y7799D01*
X12772Y7772D01*
X12782Y7746D01*
X12795Y7722D01*
X12811Y7700D01*
X12831Y7680D01*
X12853Y7664D01*
X12877Y7651D01*
X12903Y7641D01*
X12930Y7635D01*
X12958Y7633D01*
X12958Y7632D02*
X13153Y7632D01*
X12360Y7632D02*
X12165Y7632D01*
X12360Y7632D02*
X12380Y7634D01*
X12400Y7639D01*
X12419Y7648D01*
X12435Y7659D01*
X12450Y7674D01*
X12461Y7691D01*
X12470Y7709D01*
X12475Y7729D01*
X12477Y7749D01*
X12476Y7749D02*
X12476Y7943D01*
X12477Y7943D02*
X12475Y7966D01*
X12470Y7989D01*
X12462Y8011D01*
X12450Y8031D01*
X12435Y8049D01*
X12418Y8065D01*
X12399Y8078D01*
X12378Y8088D01*
X12356Y8095D01*
X12333Y8099D01*
X12309Y8099D01*
X12286Y8095D01*
X12264Y8088D01*
X12243Y8078D01*
X12224Y8065D01*
X12207Y8049D01*
X12192Y8031D01*
X12180Y8011D01*
X12172Y7989D01*
X12167Y7966D01*
X12165Y7943D01*
X12165Y7866D01*
X12476Y7866D01*
X11927Y8099D02*
X11771Y7632D01*
X11616Y8099D01*
X11349Y8332D02*
X11349Y7632D01*
X11349Y7866D02*
X11038Y8099D01*
X11213Y7963D02*
X11038Y7632D01*
X10804Y7632D02*
X10804Y8099D01*
X10824Y8293D02*
X10824Y8332D01*
X10785Y8332D01*
X10785Y8293D01*
X10824Y8293D01*
X10595Y8099D02*
X10362Y8099D01*
X10518Y8332D02*
X10518Y7749D01*
X10516Y7729D01*
X10511Y7709D01*
X10502Y7691D01*
X10491Y7674D01*
X10476Y7659D01*
X10460Y7648D01*
X10441Y7639D01*
X10421Y7634D01*
X10401Y7632D01*
X10362Y7632D01*
X9573Y7632D02*
X9806Y8332D01*
X9340Y8332D02*
X9573Y7632D01*
X9108Y8177D02*
X8914Y8332D01*
X8914Y7632D01*
X9108Y7632D02*
X8719Y7632D01*
D14*
X0Y0D02*
X39370Y0D01*
X39370Y39370D01*
X0Y39370D01*
X0Y0D01*
X37992Y37380D02*
X37989Y37338D01*
X37983Y37297D01*
X37974Y37255D01*
X37962Y37215D01*
X37948Y37175D01*
X37930Y37137D01*
X37910Y37100D01*
X37887Y37065D01*
X37862Y37031D01*
X37834Y36999D01*
X37804Y36969D01*
X37772Y36941D01*
X37739Y36916D01*
X37703Y36893D01*
X37666Y36873D01*
X37628Y36856D01*
X37588Y36841D01*
X37548Y36829D01*
X37506Y36820D01*
X37465Y36814D01*
X37423Y36811D01*
X37380Y36811D01*
X37338Y36814D01*
X37297Y36820D01*
X37255Y36829D01*
X37215Y36841D01*
X37175Y36856D01*
X37137Y36873D01*
X37100Y36893D01*
X37065Y36916D01*
X37031Y36941D01*
X36999Y36969D01*
X36969Y36999D01*
X36941Y37031D01*
X36916Y37065D01*
X36893Y37100D01*
X36873Y37137D01*
X36856Y37175D01*
X36841Y37215D01*
X36829Y37255D01*
X36820Y37297D01*
X36814Y37338D01*
X36811Y37380D01*
X36811Y37423D01*
X36814Y37465D01*
X36820Y37506D01*
X36829Y37548D01*
X36841Y37588D01*
X36856Y37628D01*
X36873Y37666D01*
X36893Y37703D01*
X36916Y37739D01*
X36941Y37772D01*
X36969Y37804D01*
X36999Y37834D01*
X37031Y37862D01*
X37065Y37887D01*
X37100Y37910D01*
X37137Y37930D01*
X37175Y37948D01*
X37215Y37962D01*
X37255Y37974D01*
X37297Y37983D01*
X37338Y37989D01*
X37380Y37992D01*
X37423Y37992D01*
X37465Y37989D01*
X37506Y37983D01*
X37548Y37974D01*
X37588Y37962D01*
X37628Y37948D01*
X37666Y37930D01*
X37703Y37910D01*
X37739Y37887D01*
X37772Y37862D01*
X37804Y37834D01*
X37834Y37804D01*
X37862Y37772D01*
X37887Y37739D01*
X37910Y37703D01*
X37930Y37666D01*
X37948Y37628D01*
X37962Y37588D01*
X37974Y37548D01*
X37983Y37506D01*
X37989Y37465D01*
X37992Y37423D01*
X37992Y37380D01*
X37992Y1947D02*
X37989Y1905D01*
X37983Y1864D01*
X37974Y1822D01*
X37962Y1782D01*
X37948Y1742D01*
X37930Y1704D01*
X37910Y1667D01*
X37887Y1631D01*
X37862Y1598D01*
X37834Y1566D01*
X37804Y1536D01*
X37772Y1508D01*
X37739Y1483D01*
X37703Y1460D01*
X37666Y1440D01*
X37628Y1423D01*
X37588Y1408D01*
X37548Y1396D01*
X37506Y1387D01*
X37465Y1381D01*
X37423Y1378D01*
X37380Y1378D01*
X37338Y1381D01*
X37297Y1387D01*
X37255Y1396D01*
X37215Y1408D01*
X37175Y1423D01*
X37137Y1440D01*
X37100Y1460D01*
X37065Y1483D01*
X37031Y1508D01*
X36999Y1536D01*
X36969Y1566D01*
X36941Y1598D01*
X36916Y1631D01*
X36893Y1667D01*
X36873Y1704D01*
X36856Y1742D01*
X36841Y1782D01*
X36829Y1822D01*
X36820Y1864D01*
X36814Y1905D01*
X36811Y1947D01*
X36811Y1990D01*
X36814Y2032D01*
X36820Y2073D01*
X36829Y2115D01*
X36841Y2155D01*
X36856Y2195D01*
X36873Y2233D01*
X36893Y2270D01*
X36916Y2306D01*
X36941Y2339D01*
X36969Y2371D01*
X36999Y2401D01*
X37031Y2429D01*
X37065Y2454D01*
X37100Y2477D01*
X37137Y2497D01*
X37175Y2514D01*
X37215Y2529D01*
X37255Y2541D01*
X37297Y2550D01*
X37338Y2556D01*
X37380Y2559D01*
X37423Y2559D01*
X37465Y2556D01*
X37506Y2550D01*
X37548Y2541D01*
X37588Y2529D01*
X37628Y2514D01*
X37666Y2497D01*
X37703Y2477D01*
X37739Y2454D01*
X37772Y2429D01*
X37804Y2401D01*
X37834Y2371D01*
X37862Y2339D01*
X37887Y2306D01*
X37910Y2270D01*
X37930Y2233D01*
X37948Y2195D01*
X37962Y2155D01*
X37974Y2115D01*
X37983Y2073D01*
X37989Y2032D01*
X37992Y1990D01*
X37992Y1947D01*
X2559Y37380D02*
X2556Y37338D01*
X2550Y37297D01*
X2541Y37255D01*
X2529Y37215D01*
X2514Y37175D01*
X2497Y37137D01*
X2477Y37100D01*
X2454Y37065D01*
X2429Y37031D01*
X2401Y36999D01*
X2371Y36969D01*
X2339Y36941D01*
X2306Y36916D01*
X2270Y36893D01*
X2233Y36873D01*
X2195Y36856D01*
X2155Y36841D01*
X2115Y36829D01*
X2073Y36820D01*
X2032Y36814D01*
X1990Y36811D01*
X1947Y36811D01*
X1905Y36814D01*
X1864Y36820D01*
X1822Y36829D01*
X1782Y36841D01*
X1742Y36856D01*
X1704Y36873D01*
X1667Y36893D01*
X1631Y36916D01*
X1598Y36941D01*
X1566Y36969D01*
X1536Y36999D01*
X1508Y37031D01*
X1483Y37065D01*
X1460Y37100D01*
X1440Y37137D01*
X1423Y37175D01*
X1408Y37215D01*
X1396Y37255D01*
X1387Y37297D01*
X1381Y37338D01*
X1378Y37380D01*
X1378Y37423D01*
X1381Y37465D01*
X1387Y37506D01*
X1396Y37548D01*
X1408Y37588D01*
X1423Y37628D01*
X1440Y37666D01*
X1460Y37703D01*
X1483Y37739D01*
X1508Y37772D01*
X1536Y37804D01*
X1566Y37834D01*
X1598Y37862D01*
X1631Y37887D01*
X1667Y37910D01*
X1704Y37930D01*
X1742Y37948D01*
X1782Y37962D01*
X1822Y37974D01*
X1864Y37983D01*
X1905Y37989D01*
X1947Y37992D01*
X1990Y37992D01*
X2032Y37989D01*
X2073Y37983D01*
X2115Y37974D01*
X2155Y37962D01*
X2195Y37948D01*
X2233Y37930D01*
X2270Y37910D01*
X2306Y37887D01*
X2339Y37862D01*
X2371Y37834D01*
X2401Y37804D01*
X2429Y37772D01*
X2454Y37739D01*
X2477Y37703D01*
X2497Y37666D01*
X2514Y37628D01*
X2529Y37588D01*
X2541Y37548D01*
X2550Y37506D01*
X2556Y37465D01*
X2559Y37423D01*
X2559Y37380D01*
X2559Y1947D02*
X2556Y1905D01*
X2550Y1864D01*
X2541Y1822D01*
X2529Y1782D01*
X2514Y1742D01*
X2497Y1704D01*
X2477Y1667D01*
X2454Y1631D01*
X2429Y1598D01*
X2401Y1566D01*
X2371Y1536D01*
X2339Y1508D01*
X2306Y1483D01*
X2270Y1460D01*
X2233Y1440D01*
X2195Y1423D01*
X2155Y1408D01*
X2115Y1396D01*
X2073Y1387D01*
X2032Y1381D01*
X1990Y1378D01*
X1947Y1378D01*
X1905Y1381D01*
X1864Y1387D01*
X1822Y1396D01*
X1782Y1408D01*
X1742Y1423D01*
X1704Y1440D01*
X1667Y1460D01*
X1631Y1483D01*
X1598Y1508D01*
X1566Y1536D01*
X1536Y1566D01*
X1508Y1598D01*
X1483Y1631D01*
X1460Y1667D01*
X1440Y1704D01*
X1423Y1742D01*
X1408Y1782D01*
X1396Y1822D01*
X1387Y1864D01*
X1381Y1905D01*
X1378Y1947D01*
X1378Y1990D01*
X1381Y2032D01*
X1387Y2073D01*
X1396Y2115D01*
X1408Y2155D01*
X1423Y2195D01*
X1440Y2233D01*
X1460Y2270D01*
X1483Y2306D01*
X1508Y2339D01*
X1536Y2371D01*
X1566Y2401D01*
X1598Y2429D01*
X1631Y2454D01*
X1667Y2477D01*
X1704Y2497D01*
X1742Y2514D01*
X1782Y2529D01*
X1822Y2541D01*
X1864Y2550D01*
X1905Y2556D01*
X1947Y2559D01*
X1990Y2559D01*
X2032Y2556D01*
X2073Y2550D01*
X2115Y2541D01*
X2155Y2529D01*
X2195Y2514D01*
X2233Y2497D01*
X2270Y2477D01*
X2306Y2454D01*
X2339Y2429D01*
X2371Y2401D01*
X2401Y2371D01*
X2429Y2339D01*
X2454Y2306D01*
X2477Y2270D01*
X2497Y2233D01*
X2514Y2195D01*
X2529Y2155D01*
X2541Y2115D01*
X2550Y2073D01*
X2556Y2032D01*
X2559Y1990D01*
X2559Y1947D01*
X5360Y35316D02*
X5357Y35273D01*
X5351Y35232D01*
X5342Y35190D01*
X5330Y35150D01*
X5315Y35110D01*
X5298Y35072D01*
X5277Y35035D01*
X5255Y35000D01*
X5229Y34966D01*
X5202Y34934D01*
X5172Y34904D01*
X5140Y34876D01*
X5106Y34851D01*
X5071Y34828D01*
X5034Y34808D01*
X4995Y34791D01*
X4956Y34776D01*
X4915Y34764D01*
X4874Y34755D01*
X4832Y34749D01*
X4790Y34746D01*
X4748Y34746D01*
X4706Y34749D01*
X4664Y34755D01*
X4623Y34764D01*
X4583Y34776D01*
X4543Y34791D01*
X4505Y34808D01*
X4468Y34828D01*
X4432Y34851D01*
X4399Y34876D01*
X4367Y34904D01*
X4337Y34934D01*
X4309Y34966D01*
X4284Y35000D01*
X4261Y35035D01*
X4241Y35072D01*
X4223Y35110D01*
X4209Y35150D01*
X4197Y35190D01*
X4188Y35232D01*
X4182Y35273D01*
X4179Y35316D01*
X4179Y35358D01*
X4182Y35400D01*
X4188Y35442D01*
X4197Y35483D01*
X4209Y35523D01*
X4223Y35563D01*
X4241Y35601D01*
X4261Y35638D01*
X4284Y35674D01*
X4309Y35707D01*
X4337Y35739D01*
X4367Y35769D01*
X4399Y35797D01*
X4432Y35822D01*
X4468Y35845D01*
X4505Y35865D01*
X4543Y35883D01*
X4583Y35897D01*
X4623Y35909D01*
X4664Y35918D01*
X4706Y35924D01*
X4748Y35927D01*
X4790Y35927D01*
X4832Y35924D01*
X4874Y35918D01*
X4915Y35909D01*
X4956Y35897D01*
X4995Y35883D01*
X5034Y35865D01*
X5071Y35845D01*
X5106Y35822D01*
X5140Y35797D01*
X5172Y35769D01*
X5202Y35739D01*
X5229Y35707D01*
X5255Y35674D01*
X5277Y35638D01*
X5298Y35601D01*
X5315Y35563D01*
X5330Y35523D01*
X5342Y35483D01*
X5351Y35442D01*
X5357Y35400D01*
X5360Y35358D01*
X5360Y35316D01*
X17160Y28816D02*
X17157Y28773D01*
X17151Y28732D01*
X17142Y28690D01*
X17130Y28650D01*
X17115Y28610D01*
X17098Y28572D01*
X17077Y28535D01*
X17055Y28500D01*
X17029Y28466D01*
X17002Y28434D01*
X16972Y28404D01*
X16940Y28376D01*
X16906Y28351D01*
X16871Y28328D01*
X16834Y28308D01*
X16795Y28291D01*
X16756Y28276D01*
X16715Y28264D01*
X16674Y28255D01*
X16632Y28249D01*
X16590Y28246D01*
X16548Y28246D01*
X16506Y28249D01*
X16464Y28255D01*
X16423Y28264D01*
X16383Y28276D01*
X16343Y28291D01*
X16305Y28308D01*
X16268Y28328D01*
X16232Y28351D01*
X16199Y28376D01*
X16167Y28404D01*
X16137Y28434D01*
X16109Y28466D01*
X16084Y28500D01*
X16061Y28535D01*
X16041Y28572D01*
X16023Y28610D01*
X16009Y28650D01*
X15997Y28690D01*
X15988Y28732D01*
X15982Y28773D01*
X15979Y28816D01*
X15979Y28858D01*
X15982Y28900D01*
X15988Y28942D01*
X15997Y28983D01*
X16009Y29023D01*
X16023Y29063D01*
X16041Y29101D01*
X16061Y29138D01*
X16084Y29174D01*
X16109Y29207D01*
X16137Y29239D01*
X16167Y29269D01*
X16199Y29297D01*
X16232Y29322D01*
X16268Y29345D01*
X16305Y29365D01*
X16343Y29383D01*
X16383Y29397D01*
X16423Y29409D01*
X16464Y29418D01*
X16506Y29424D01*
X16548Y29427D01*
X16590Y29427D01*
X16632Y29424D01*
X16674Y29418D01*
X16715Y29409D01*
X16756Y29397D01*
X16795Y29383D01*
X16834Y29365D01*
X16871Y29345D01*
X16906Y29322D01*
X16940Y29297D01*
X16972Y29269D01*
X17002Y29239D01*
X17029Y29207D01*
X17055Y29174D01*
X17077Y29138D01*
X17098Y29101D01*
X17115Y29063D01*
X17130Y29023D01*
X17142Y28983D01*
X17151Y28942D01*
X17157Y28900D01*
X17160Y28858D01*
X17160Y28816D01*
M02*
